<?xml version="1.0" standalone="no"?>
<!DOCTYPE svg PUBLIC "-//W3C//DTD SVG 20010904//EN"
 "http://www.w3.org/TR/2001/REC-SVG-20010904/DTD/svg10.dtd">
<svg version="1.0" xmlns="http://www.w3.org/2000/svg"
 width="800.000000pt" height="400.000000pt" viewBox="0 0 800.000000 400.000000"
 preserveAspectRatio="xMidYMid meet">

<g transform="translate(0.000000,400.000000) scale(0.100000,-0.100000)"
fill="#000000" stroke="none">
<path d="M1903 3806 l-190 -145 -60 24 c-164 67 -425 45 -612 -50 -89 -45
-225 -164 -278 -244 -1 -2 -26 14 -55 36 -82 61 -350 257 -364 266 -7 4 -15 3
-19 -2 -3 -5 91 -80 210 -166 l215 -157 -21 -29 c-63 -89 -99 -216 -99 -354
l0 -82 -47 -31 c-115 -74 -201 -185 -239 -309 -77 -251 34 -509 269 -623 121
-58 219 -70 345 -44 30 6 32 5 32 -23 0 -23 -9 -36 -45 -61 -25 -18 -50 -32
-54 -32 -5 0 -28 16 -52 35 -29 25 -45 33 -52 26 -6 -6 -9 -12 -6 -14 2 -2 28
-20 57 -41 l53 -37 50 36 c43 31 49 33 49 15 0 -13 -32 -43 -96 -90 l-96 -72
-36 34 c-20 18 -39 35 -42 38 -26 25 -211 187 -365 320 -104 90 -196 170 -203
177 -10 10 -19 10 -33 2 -17 -9 -18 -13 -7 -27 31 -40 189 -225 268 -313 196
-220 284 -330 270 -339 -10 -6 -35 11 -85 56 -40 35 -76 64 -81 64 -5 -1 -56
-77 -114 -171 -58 -94 -113 -175 -122 -180 -53 -28 -60 -123 -17 -214 30 -63
121 -155 184 -186 75 -36 162 -33 238 8 l57 31 0 -116 0 -117 142 -99 c79 -55
213 -148 298 -208 85 -59 159 -108 163 -109 11 -2 337 247 462 352 49 42 107
81 128 88 41 14 68 36 280 227 115 103 452 384 500 416 6 3 10 20 11 38 1 29
20 49 171 184 152 136 217 203 295 304 l25 32 42 -27 c24 -16 43 -31 43 -34 0
-3 -33 -33 -73 -66 -39 -32 -155 -133 -256 -224 -606 -543 -1174 -1046 -1224
-1083 -15 -11 -54 -71 -89 -136 -33 -63 -81 -146 -105 -183 -24 -38 -40 -67
-35 -65 5 1 88 43 185 92 160 81 187 98 279 181 l103 93 3 -52 c3 -48 1 -53
-36 -86 -22 -20 -57 -71 -83 -120 -24 -47 -61 -104 -81 -126 -37 -41 -48 -64
-28 -64 6 0 63 48 128 106 176 160 185 169 346 314 83 74 218 195 300 269 83
74 198 178 256 231 58 53 193 175 302 273 l196 176 17 -35 16 -35 62 53 c109
95 127 117 127 158 0 27 -7 45 -26 64 -42 41 -78 35 -150 -27 -79 -68 -228
-199 -234 -206 -5 -6 -98 -90 -389 -350 -59 -52 -116 -104 -128 -115 l-23 -19
0 51 0 51 233 208 c127 115 315 280 416 368 186 161 232 213 252 290 15 55 6
161 -19 217 -28 64 -93 132 -151 157 l-49 21 -7 124 -7 124 -54 36 c-30 20
-54 40 -53 44 0 4 38 36 84 72 47 36 85 71 85 78 0 17 -6 13 -112 -71 l-87
-69 -46 35 -45 35 35 31 c20 17 45 31 56 31 51 0 147 76 168 133 14 36 14 128
0 164 -14 38 -56 81 -101 104 -39 20 -138 27 -138 9 0 -5 15 -10 33 -10 216 0
274 -266 80 -364 -38 -19 -40 -14 -13 39 22 44 27 126 9 172 -16 43 -69 93
-98 93 -19 0 -75 -43 -201 -151 -96 -83 -197 -169 -223 -191 l-48 -41 3 55 3
56 290 263 c227 207 296 276 318 316 45 84 186 413 179 417 -4 2 -108 -45
-231 -105 l-223 -109 -158 -150 c-87 -82 -160 -150 -162 -150 -3 0 -8 20 -10
44 -6 48 -40 101 -78 121 -133 68 -276 -35 -256 -185 l7 -50 -81 57 c-44 31
-80 59 -80 62 0 4 66 54 148 113 101 72 161 124 192 163 25 31 66 84 93 117
26 33 47 64 47 67 0 4 -65 -26 -145 -66 -80 -41 -145 -79 -145 -86 0 -7 -15
-21 -32 -32 -18 -10 -73 -47 -121 -82 l-88 -63 3 250 c2 138 0 250 -3 250 -4
0 -92 -65 -196 -144z m177 -122 c0 -172 -3 -214 -12 -207 -64 49 -188 133
-195 133 -6 0 -81 -85 -168 -190 l-157 -190 -30 21 -29 21 37 41 c21 23 116
127 213 230 97 104 210 226 251 272 41 47 78 84 83 85 4 0 7 -97 7 -216z
m-162 83 c-24 -23 -136 -141 -248 -262 -155 -168 -208 -219 -224 -217 -12 1
-54 5 -93 8 -40 4 -73 9 -73 13 0 3 29 26 64 51 62 43 504 373 576 430 51 41
50 27 -2 -23z m-315 -87 c26 -7 49 -16 52 -20 2 -4 -42 -10 -98 -13 -153 -9
-301 -57 -419 -135 -21 -14 -40 -23 -41 -21 -2 2 -11 16 -20 32 -26 41 -42 33
-17 -10 17 -29 18 -38 8 -44 -20 -13 -25 -11 -49 23 -14 18 -25 26 -27 19 -2
-7 6 -23 19 -37 22 -23 22 -25 5 -42 -16 -16 -18 -16 -40 11 -12 15 -28 27
-36 27 -9 0 -4 -10 13 -28 47 -49 27 -80 -24 -38 -44 37 -59 32 -21 -7 29 -30
31 -35 17 -47 -13 -11 -20 -9 -45 15 -41 40 -51 22 -11 -19 46 -48 22 -54 -38
-10 -61 43 -59 48 30 136 201 196 479 274 742 208z m855 -89 l-43 -49 -27 20
c-48 34 -37 63 37 101 l50 25 13 -24 c12 -23 10 -28 -30 -73z m787 59 c3 -10
20 -31 36 -44 22 -19 29 -31 24 -46 -16 -51 -86 -190 -95 -190 -21 0 -60 54
-66 92 -6 35 -9 38 -38 38 -35 0 -98 29 -104 47 -3 11 198 121 225 122 6 1 14
-8 18 -19z m-1589 -28 c-3 -5 -54 -44 -113 -87 -59 -44 -184 -136 -278 -205
-93 -70 -179 -133 -191 -140 -18 -11 -28 -7 -92 40 -40 29 -72 56 -72 60 0 4
33 38 73 76 169 160 401 261 605 263 40 1 71 -3 68 -7z m713 -112 c-13 -8 -75
-52 -138 -98 -121 -89 -131 -91 -131 -25 0 29 8 39 73 86 39 30 92 67 116 84
l43 29 31 -30 30 -30 -24 -16z m-298 -66 c8 -9 3 -17 -16 -30 -26 -17 -27 -17
-98 33 -68 48 -72 53 -75 93 l-3 42 91 -63 c50 -35 95 -68 101 -75z m-211 95
c0 -11 -4 -17 -10 -14 -5 3 -10 13 -10 21 0 8 5 14 10 14 6 0 10 -9 10 -21z
m1148 -39 c-5 -10 -368 -344 -431 -396 -46 -37 -62 -46 -75 -38 -30 19 -23 33
26 58 28 14 67 46 89 72 21 26 110 114 197 196 152 142 160 148 178 131 10 -9
17 -19 16 -23z m-1150 -44 c2 -21 -2 -44 -8 -51 -14 -17 -220 -128 -226 -122
-2 2 31 44 73 93 42 49 85 101 96 116 19 25 23 27 41 14 14 -8 22 -26 24 -50z
m1238 24 c15 0 23 -8 27 -27 3 -16 8 -35 12 -44 4 -12 -50 -67 -202 -205 -114
-104 -240 -218 -278 -254 -180 -166 -164 -154 -186 -135 -10 10 -19 21 -19 24
0 3 36 37 80 75 44 37 80 71 80 75 0 4 -13 15 -30 24 -16 10 -30 22 -30 26 0
4 55 57 123 118 67 61 176 161 242 222 91 84 125 110 140 106 11 -2 30 -5 41
-5z m-1124 -69 c21 -14 38 -28 38 -31 0 -5 -106 -82 -122 -88 -4 -2 -8 38 -8
88 l0 92 28 -17 c15 -10 44 -30 64 -44z m588 -7 c40 -35 60 -74 60 -122 0 -59
-34 -101 -112 -141 l-67 -34 -42 34 c-75 59 -95 141 -53 222 36 69 153 91 214
41z m-480 -25 c0 -18 -2 -19 -15 -9 -15 12 -12 30 6 30 5 0 9 -10 9 -21z
m-220 -63 l0 -54 -85 -61 c-47 -34 -87 -61 -90 -61 -2 0 -29 18 -60 39 l-55
39 132 75 c73 42 139 76 146 76 8 1 12 -16 12 -53z m1328 40 c23 -12 21 -14
-75 -102 -54 -49 -100 -91 -103 -94 -3 -3 -84 -77 -180 -165 -96 -88 -176
-163 -178 -167 -9 -22 -22 -4 -22 31 0 37 5 43 177 197 98 88 215 194 260 237
45 42 86 77 90 77 4 -1 18 -6 31 -14z m-1125 -10 c29 -22 20 -51 -25 -81 -24
-16 -69 -48 -100 -72 l-58 -44 0 53 1 53 72 52 c78 57 83 59 110 39z m-1247
-26 c48 -33 52 -41 30 -59 -11 -9 -20 -10 -38 -1 -22 11 -22 10 2 -9 30 -24
21 -27 -20 -6 -17 9 -30 13 -30 11 0 -3 14 -13 30 -21 17 -9 28 -20 24 -26 -4
-6 -12 -5 -22 3 -15 11 -15 11 -4 -3 15 -20 6 -50 -14 -42 -10 4 -12 0 -8 -11
3 -9 -4 -37 -16 -64 -20 -42 -27 -62 -29 -84 -1 -5 -11 -9 -23 -9 l-23 -2 23
-4 c29 -6 28 -28 -3 -59 -40 -40 -48 -23 -43 90 4 73 12 119 30 167 24 65 74
159 84 159 3 0 25 -14 50 -30z m1473 -139 c0 -3 -36 -32 -80 -65 -104 -76
-109 -73 -109 74 0 58 3 110 6 113 7 7 184 -111 183 -122z m-1321 31 c63 -44
72 -56 50 -65 -7 -3 -71 -48 -142 -101 -71 -53 -132 -96 -136 -96 -13 0 9 77
41 148 39 87 99 173 113 165 6 -4 39 -27 74 -51z m1112 -40 l0 -88 -92 -64
c-51 -36 -96 -66 -100 -68 -5 -2 -8 35 -8 82 l0 86 93 69 c50 39 95 70 100 70
4 1 7 -39 7 -87z m-632 43 c82 -17 207 -72 207 -92 0 -7 -56 -53 -125 -103
-69 -50 -153 -111 -188 -136 l-62 -46 -43 39 c-23 21 -64 48 -91 59 l-48 19 5
73 c10 170 123 231 345 187z m410 -36 c-3 -47 -6 -54 -44 -81 l-42 -30 -31 23
c-17 13 -30 26 -29 30 4 10 131 107 141 108 4 1 7 -22 5 -50z m-742 -5 c-3 -9
-6 -18 -6 -20 0 -2 -7 -4 -15 -4 -18 0 -19 12 -3 28 17 17 31 15 24 -4z m1263
-47 l58 -43 -65 -60 c-36 -32 -71 -63 -78 -67 -13 -8 -134 68 -134 84 0 7 150
128 159 129 2 0 29 -19 60 -43z m-1291 -35 c-5 -15 -11 -49 -11 -77 -1 -27 -6
-50 -12 -50 -5 0 -41 4 -80 8 -38 4 -94 3 -122 -1 -29 -5 -53 -5 -53 -1 0 5 4
9 8 9 5 0 60 38 123 84 107 79 115 83 136 69 19 -13 20 -18 11 -41z m628 -13
c19 -11 34 -22 34 -24 0 -2 -54 -43 -120 -91 l-120 -88 0 -110 -1 -111 -68
-47 c-37 -25 -72 -43 -78 -40 -6 4 -13 36 -16 72 -6 64 -28 142 -47 165 -7 8
47 53 183 153 105 78 194 141 196 142 2 0 19 -9 37 -21z m144 -24 c0 -25 -2
-45 -5 -45 -3 0 -19 10 -35 21 l-28 21 26 24 c15 13 30 24 35 24 4 0 7 -20 7
-45z m635 -14 c5 -9 -82 -98 -126 -129 -18 -12 -23 -12 -41 5 -20 18 -20 18
53 85 58 54 76 65 90 57 10 -5 20 -13 24 -18z m-418 -228 c-6 -5 -167 106
-167 115 1 4 38 34 83 67 l82 60 3 -119 c1 -65 1 -120 -1 -123z m-263 196 c26
-17 46 -37 46 -45 0 -11 -12 -7 -43 15 l-43 29 -76 -57 c-43 -31 -77 -59 -78
-63 0 -17 22 -6 85 42 l66 50 39 -23 c22 -12 40 -24 40 -27 0 -3 -39 -33 -85
-68 l-85 -62 0 -302 c0 -266 -2 -304 -17 -320 -9 -10 -20 -18 -25 -18 -4 0 -8
145 -8 323 l0 322 -41 29 c-22 15 -39 32 -37 37 2 7 202 163 215 168 1 1 22
-13 47 -30z m1329 3 c15 -15 27 -35 26 -43 0 -7 -93 -93 -206 -189 -114 -96
-232 -199 -264 -227 -31 -29 -59 -53 -63 -53 -3 0 -6 33 -6 73 l0 73 228 196
c125 109 234 197 243 198 8 0 27 -13 42 -28z m-589 -7 c19 -14 19 -15 0 -36
-10 -12 -44 -43 -75 -70 l-57 -49 -23 20 -24 19 70 65 c39 36 75 65 80 65 6 0
19 -6 29 -14z m-1589 -75 c-12 -13 -36 -19 -93 -22 -47 -3 -94 -12 -122 -25
-66 -30 -135 -96 -164 -157 -23 -48 -70 -95 -83 -83 -9 10 20 74 54 121 35 48
129 116 216 155 50 23 146 40 185 33 21 -4 22 -6 7 -22z m2223 -50 c-3 -44
-10 -64 -24 -76 -10 -8 -13 -13 -7 -9 8 4 11 1 7 -9 -5 -12 -9 -13 -19 -3 -7
7 -10 16 -7 21 3 5 0 6 -6 2 -8 -5 -9 -13 -2 -25 12 -23 3 -33 -20 -21 -13 7
-22 4 -36 -11 -10 -11 -24 -17 -31 -15 -7 3 -15 0 -19 -6 -4 -6 -3 -8 4 -4 6
4 10 -1 10 -11 0 -10 1 -25 3 -33 2 -8 -3 -15 -11 -15 -8 0 -15 8 -15 17 0 26
-30 53 -40 37 -5 -7 -4 -10 2 -6 6 4 16 0 22 -7 13 -16 -2 -32 -19 -21 -6 4
-7 -1 -3 -11 5 -13 3 -15 -7 -9 -9 6 -11 4 -5 -4 5 -9 10 -10 18 -2 6 6 16 11
21 11 6 0 3 -7 -8 -15 -10 -7 -16 -18 -13 -22 3 -5 2 -15 -2 -21 -6 -10 -11
-9 -22 4 -12 16 -12 17 5 11 16 -7 17 -5 5 9 -8 10 -15 12 -17 5 -2 -6 -8 -9
-12 -6 -15 10 -80 -55 -73 -72 5 -12 2 -15 -10 -10 -11 4 -20 -1 -28 -14 -6
-11 -17 -18 -24 -15 -16 6 -38 -17 -28 -28 14 -13 -21 -25 -37 -13 -13 10 -13
10 -1 -5 15 -20 35 -13 65 23 12 15 21 19 24 11 6 -20 2 -27 -16 -27 -9 0 -16
-6 -14 -13 1 -6 -1 -11 -5 -11 -25 4 -35 -2 -29 -18 5 -13 0 -11 -19 7 -20 19
-28 21 -38 11 -9 -10 -8 -11 6 -6 25 10 21 -2 -10 -31 -17 -14 -21 -22 -10
-18 10 4 17 1 17 -6 0 -10 3 -10 15 0 8 7 15 17 15 22 0 6 -7 5 -15 -2 -9 -7
-15 -8 -15 -2 0 14 28 23 36 11 9 -15 -25 -49 -44 -42 -11 5 -13 3 -7 -8 5 -9
1 -8 -11 3 -19 17 -20 16 -21 -5 -2 -17 0 -18 7 -7 7 11 9 10 7 -7 l-1 -23
-24 22 c-18 18 -22 31 -20 65 3 43 3 43 278 278 151 129 276 235 279 235 2 0
1 -27 -1 -60z m-2153 40 c3 -5 11 -10 16 -10 6 0 7 5 4 10 -3 6 -2 10 3 10 5
0 12 -9 15 -21 4 -16 2 -19 -11 -14 -9 3 -29 9 -44 12 -15 3 -25 9 -22 14 7
12 31 11 39 -1z m140 -21 c17 -10 42 -30 55 -44 l25 -27 -34 -29 c-33 -27 -36
-28 -53 -12 -19 17 -68 113 -68 133 0 14 33 5 75 -21z m-501 -15 c-108 -65
-194 -171 -194 -241 0 -22 -45 -83 -61 -83 -14 0 -1 47 32 116 17 37 51 83 88
119 63 61 154 125 180 125 8 0 -12 -16 -45 -36z m1429 -123 c108 -74 197 -139
197 -145 0 -6 -36 -35 -80 -65 -44 -30 -89 -64 -101 -77 l-21 -22 -96 65 c-53
36 -98 67 -100 68 -2 2 35 29 82 60 47 32 83 61 80 66 -6 11 -5 11 -103 -53
-41 -26 -75 -48 -77 -48 -2 0 -4 68 -4 151 0 117 3 149 13 143 6 -4 101 -68
210 -143z m-1183 130 c0 -5 -26 -19 -57 -32 -84 -34 -166 -117 -183 -187 -6
-29 -10 -64 -7 -77 3 -19 -3 -31 -30 -51 -19 -14 -36 -24 -39 -22 -10 11 -23
111 -17 141 21 109 129 205 255 226 73 12 78 12 78 2z m43 -16 c-3 -9 -8 -14
-10 -11 -3 3 -2 9 2 15 9 16 15 13 8 -4z m1647 -41 c0 -30 -8 -43 -47 -79 -27
-25 -51 -44 -55 -45 -5 0 -8 17 -8 38 0 32 7 43 47 79 27 23 51 42 56 43 4 0
7 -16 7 -36z m-826 -21 c-15 -27 -40 -84 -56 -128 l-27 -80 -1 92 0 91 48 36
c26 19 51 36 55 36 5 0 -4 -21 -19 -47z m-881 -25 c-4 -44 0 -76 12 -108 9
-25 18 -52 21 -60 3 -10 -23 -33 -76 -70 -45 -30 -86 -60 -92 -67 -18 -22 -28
-15 -50 34 -53 119 -7 234 122 307 65 37 68 36 63 -36z m192 52 c3 -6 -1 -7
-9 -4 -18 7 -21 14 -7 14 6 0 13 -4 16 -10z m-158 -102 c-2 -18 -4 -6 -4 27 0
33 2 48 4 33 2 -15 2 -42 0 -60z m355 33 c9 -16 14 -32 10 -35 -9 -10 -62 -7
-84 5 -20 11 -20 12 8 35 38 30 46 30 66 -5z m-143 -14 c-86 -65 -180 -124
-184 -116 -4 5 -3 8 2 7 4 -2 45 24 90 56 70 50 81 62 71 75 -9 12 -7 12 7 -1
10 -10 17 -19 14 -21z m1461 -46 c0 -47 -2 -51 -55 -96 l-55 -47 0 54 c0 51 2
55 47 95 27 23 51 42 56 43 4 0 7 -22 7 -49z m487 22 c-2 -23 -8 -28 -32 -30
l-29 -2 29 29 c17 16 31 29 32 29 1 1 1 -11 0 -26z m-2533 -106 c-2 -7 2 -36
9 -64 l14 -53 -34 -26 c-19 -14 -36 -24 -38 -23 -2 2 -9 33 -16 67 l-13 64 34
28 c34 28 54 31 44 7z m2576 -55 c-1 -9 -238 -196 -253 -199 -7 -2 -27 10 -46
26 l-35 28 35 30 c19 17 74 64 122 106 l88 77 45 -30 c24 -17 44 -34 44 -38z
m-1654 -39 c-25 -21 -27 -21 -56 -5 -16 9 -30 19 -30 22 1 3 24 21 53 41 l52
37 3 -37 c3 -28 -2 -40 -22 -58z m1470 58 c-13 -20 -44 -32 -52 -19 -5 7 -3 8
6 3 8 -5 11 -4 6 3 -4 6 -13 9 -21 6 -13 -5 -13 -8 0 -21 19 -19 19 -24 -2
-16 -12 5 -14 3 -8 -8 4 -8 4 -11 0 -6 -19 16 -11 49 18 73 26 22 32 23 45 11
8 -8 11 -20 8 -26z m-346 -41 l0 -69 -50 31 c-27 17 -50 34 -50 37 1 7 82 70
93 70 4 1 7 -30 7 -69z m-1634 23 c9 -13 13 -56 14 -147 0 -107 -3 -133 -17
-148 -9 -10 -21 -18 -27 -18 -6 0 -52 40 -101 90 -79 79 -88 92 -75 104 17 17
183 136 189 136 2 0 10 -8 17 -17z m-580 -28 c-4 -14 -10 -25 -15 -25 -5 0 -4
13 2 30 13 35 22 32 13 -5z m1579 -35 c95 -64 105 -73 105 -101 l0 -30 -27 19
c-44 30 -103 64 -103 59 0 -2 29 -24 65 -48 39 -26 65 -51 65 -61 0 -10 -3
-18 -6 -18 -3 0 -62 38 -131 86 -130 89 -153 102 -153 87 0 -5 65 -52 144
-104 117 -76 145 -99 145 -117 1 -13 -3 -22 -7 -20 -18 6 -341 223 -342 228 0
4 126 86 138 89 1 1 50 -31 107 -69z m-1487 -20 c11 -43 10 -46 -15 -67 -15
-12 -29 -20 -31 -18 -3 2 -10 29 -17 60 -13 55 -13 56 13 80 30 28 30 29 50
-55z m862 61 c0 -7 -127 -98 -152 -109 -8 -4 -168 105 -168 114 0 2 72 4 160
4 88 0 160 -4 160 -9z m939 2 c0 -5 -38 -33 -85 -63 -46 -30 -84 -58 -84 -62
0 -5 -4 -8 -10 -8 -25 0 -4 24 73 79 77 56 108 71 106 54z m919 -20 c58 -42
58 -42 32 -60 -14 -10 -72 -55 -129 -101 -114 -91 -110 -91 -175 -39 l-27 22
128 103 c70 56 129 102 131 102 2 0 20 -12 40 -27z m-347 0 c12 -14 12 -16 0
-8 -11 6 -13 4 -7 -10 6 -16 4 -16 -10 -4 -10 8 -12 15 -5 17 6 2 9 8 5 13 -9
15 3 10 17 -8z m-2160 -35 l21 -42 -27 -23 c-31 -27 -39 -24 -65 27 l-20 38
33 21 c17 11 33 21 34 21 2 0 12 -19 24 -42z m388 -15 c36 -25 70 -49 74 -53
6 -6 -135 -120 -148 -120 -2 0 -3 50 -3 110 1 61 3 110 6 110 2 0 34 -21 71
-47z m329 25 c21 -18 14 -28 -33 -49 -30 -13 -61 -19 -93 -17 l-47 3 60 42
c59 41 81 45 113 21z m90 -50 c-3 -22 -4 -21 -21 6 -18 27 -18 28 0 41 16 12
18 11 21 -6 2 -10 2 -29 0 -41z m782 53 c0 -5 -36 -35 -80 -66 -44 -31 -82
-60 -85 -65 -8 -13 -25 -13 -25 0 0 10 169 140 183 140 4 0 7 -4 7 -9z m260
-17 c22 -15 40 -29 40 -33 -1 -3 -21 -21 -45 -39 l-45 -33 0 66 c0 36 2 65 5
65 3 0 23 -12 45 -26z m-2139 -126 c-23 -28 -41 -22 -43 15 -3 72 0 95 13 109
12 13 16 7 29 -46 14 -53 14 -63 1 -78z m209 69 l26 -42 -32 -28 -33 -28 -25
38 c-14 21 -26 43 -26 50 0 11 47 53 59 53 3 0 17 -20 31 -43z m860 -7 c0 -18
-157 -35 -190 -21 -22 9 -21 10 18 10 49 1 101 20 122 45 13 17 15 17 32 -4
10 -12 18 -26 18 -30z m419 -80 c99 -66 181 -127 181 -135 0 -15 -372 225
-378 244 -8 23 22 7 197 -109z m396 111 c6 -10 -184 -145 -193 -136 -9 9 20
35 102 90 91 62 83 58 91 46z m985 -101 l0 -110 -39 0 c-21 0 -58 -7 -82 -15
-45 -16 -119 -79 -119 -101 0 -7 -4 -16 -10 -19 -6 -4 -10 23 -10 73 l0 80
126 101 c70 56 128 101 130 101 2 0 4 -49 4 -110z m-915 53 c25 -16 45 -31 45
-35 0 -3 -54 -45 -121 -93 -117 -85 -121 -86 -145 -71 -13 9 -24 18 -24 21 0
2 34 27 75 56 65 45 89 69 69 69 -3 0 -38 -22 -78 -50 -78 -54 -86 -57 -86
-36 0 10 196 160 217 165 1 1 23 -11 48 -26z m245 -51 l0 -78 -50 -37 c-27
-20 -52 -37 -55 -37 -3 0 -5 33 -5 74 l0 74 48 41 c26 22 50 40 55 41 4 0 7
-35 7 -78z m-1848 41 c15 -15 28 -30 28 -33 0 -3 -14 -16 -30 -29 l-30 -22
-25 28 c-30 35 -31 40 -2 64 28 23 26 24 59 -8z m-225 -90 c-29 -32 -39 -29
-65 19 l-22 42 27 22 27 21 27 -41 26 -41 -20 -22z m1249 58 c38 -26 120 -81
182 -120 95 -61 130 -91 107 -91 -3 0 -54 33 -113 73 -59 39 -111 74 -117 77
-40 21 -145 94 -145 101 0 17 16 9 86 -40z m-598 -172 l-3 -202 -80 -63 c-44
-34 -83 -63 -87 -63 -5 -1 -8 91 -8 203 l0 204 83 60 c45 34 85 61 90 62 4 0
6 -91 5 -201z m279 186 c-7 -21 -71 -55 -104 -55 -38 0 -79 18 -105 46 -16 18
-13 19 98 19 71 0 113 -4 111 -10z m1361 -5 c17 -11 32 -24 32 -29 0 -9 -64
-61 -74 -61 -3 0 -6 25 -6 55 0 30 3 55 8 55 4 0 22 -9 40 -20z m-1547 -49
c63 -39 152 -23 198 35 12 15 21 25 22 23 8 -42 8 -58 -2 -87 -27 -82 -105
-132 -176 -113 -68 19 -113 81 -113 158 1 48 1 48 19 26 10 -12 33 -31 52 -42z
m1478 -8 l0 -58 -59 -47 c-32 -27 -61 -48 -64 -48 -3 0 -6 24 -6 53 0 53 0 53
63 105 34 28 63 51 65 51 1 1 2 -25 1 -56z m-2074 15 l26 -31 -28 -23 c-15
-13 -31 -23 -34 -24 -3 0 -18 14 -34 30 l-29 31 29 24 c17 13 33 24 37 25 3 0
18 -14 33 -32z m1081 -5 l55 -37 -23 -18 c-29 -22 -26 -22 -65 2 -27 16 -33
26 -33 55 0 19 2 35 5 35 3 0 30 -17 61 -37z m-1406 12 c0 -8 -2 -15 -4 -15
-2 0 -6 7 -10 15 -3 8 -1 15 4 15 6 0 10 -7 10 -15z m99 -31 l25 -45 -30 -24
-29 -23 -17 31 c-9 18 -17 38 -18 45 0 13 31 61 40 62 3 0 16 -21 29 -46z
m1932 -21 c-29 -32 -66 -79 -84 -105 -18 -26 -35 -48 -39 -48 -16 0 -79 43
-71 50 24 24 237 169 241 166 2 -3 -19 -31 -47 -63z m-1556 37 c17 -18 16 -20
-11 -44 -35 -31 -36 -31 -60 -5 -19 21 -19 21 11 45 36 29 37 29 60 4z m1624
-240 c-31 -20 -45 -20 -45 0 0 10 5 16 11 12 5 -3 4 1 -2 9 -7 9 -11 34 -9 60
2 24 4 58 5 76 1 19 12 45 29 64 l27 33 3 -120 c3 -113 2 -120 -19 -134z m488
210 l53 -41 0 -84 c0 -47 -2 -85 -5 -85 -2 0 -28 18 -56 39 -85 65 -95 68
-122 43 -13 -12 -26 -22 -30 -22 -4 0 -7 24 -6 53 0 50 2 53 52 94 29 23 54
42 56 42 2 1 28 -17 58 -39z m-2348 -21 l23 -30 -23 -25 c-29 -31 -33 -30 -59
7 l-22 30 23 25 c12 13 25 24 28 23 3 0 17 -14 30 -30z m-204 -29 c13 -29 15
-44 8 -51 -8 -8 -13 -7 -18 2 -5 8 -4 10 3 5 14 -8 15 -5 6 19 -5 13 -9 14
-15 3 -6 -9 -8 -7 -7 7 0 11 -3 28 -7 38 -15 37 13 15 30 -23z m345 -33 l-32
-29 -25 24 -25 23 33 27 33 28 24 -23 23 -22 -31 -28z m160 48 c23 -25 23 -25
4 -40 -43 -34 -50 -35 -74 -10 l-23 25 23 25 c29 31 41 31 70 0z m1058 -55
c56 -36 102 -68 102 -72 0 -4 -19 -20 -42 -34 -39 -25 -43 -26 -67 -11 -15 9
-27 27 -29 41 -2 19 -20 37 -68 68 l-64 43 22 17 c13 10 28 17 33 15 6 -1 57
-31 113 -67z m-225 46 c13 -10 14 -15 5 -23 -33 -25 -38 -24 -38 6 0 34 6 37
33 17z m-746 -33 c-3 -3 -11 -2 -17 2 -8 5 -7 11 2 22 12 15 13 14 16 -1 2
-10 1 -20 -1 -23z m506 -881 c-17 -12 -18 9 -21 428 -2 408 -1 443 15 464 17
23 18 6 21 -428 2 -421 1 -452 -15 -464z m-969 876 l28 -32 -27 -23 c-34 -30
-39 -29 -65 8 l-22 30 23 25 c12 13 25 24 29 24 3 0 18 -14 34 -32z m2086 -75
l0 -108 -46 -37 c-26 -21 -51 -38 -55 -38 -5 0 -9 47 -9 105 0 97 2 107 23
124 51 44 72 60 80 61 4 0 7 -48 7 -107z m-1948 10 l-27 -22 -25 25 -25 25 30
24 30 24 22 -27 21 -27 -26 -22z m151 0 c-35 -28 -38 -28 -63 -3 -25 25 -25
26 8 55 l27 24 28 -27 27 -26 -27 -23z m428 56 c27 -27 41 -73 26 -88 -7 -7
-7 -11 -1 -11 6 0 9 -43 7 -112 -3 -137 -3 -83 1 -398 2 -146 1 -271 -1 -277
-6 -16 -13 -16 -38 3 -19 14 -20 27 -20 459 -1 245 1 445 2 445 2 0 12 -9 24
-21z m591 -16 c32 -21 58 -40 57 -43 0 -3 -31 -27 -70 -53 l-70 -48 -55 36
c-30 20 -54 40 -54 44 0 5 22 23 49 41 27 17 55 38 61 46 17 19 15 19 82 -23z
m928 -15 c0 -53 -1 -53 -60 -100 -32 -27 -62 -48 -65 -48 -3 0 -5 24 -5 53 0
51 1 53 58 99 31 26 60 47 65 47 4 1 7 -23 7 -51z m-1789 23 l24 -20 -35 -30
-35 -30 -24 24 -25 24 24 26 c28 30 40 31 71 6z m2399 -1 c45 -23 90 -77 90
-109 0 -39 -38 -97 -98 -150 -33 -28 -63 -51 -66 -51 -5 0 -59 32 -95 57 -2 1
22 37 53 79 l58 76 -7 59 c-8 68 -1 73 65 39z m-1238 -4 c16 -12 16 -14 -3
-29 -26 -23 -29 -22 -29 13 0 33 6 36 32 16z m-1683 -40 c23 -37 26 -49 10
-44 -6 2 -10 7 -9 11 0 4 -6 15 -15 23 -14 14 -21 44 -11 44 2 0 14 -15 25
-34z m996 -81 c4 -57 5 -254 3 -437 l-5 -332 -41 -34 -42 -35 0 461 0 460 28
10 c49 18 50 18 57 -93z m-858 15 l-32 -29 -22 21 c-29 27 -29 34 5 63 l27 24
27 -26 26 -25 -31 -28z m751 -368 c0 -240 -2 -442 -5 -449 -4 -9 -9 -8 -21 4
-14 14 -17 43 -18 187 -1 101 3 176 8 184 7 7 7 12 1 12 -8 0 -12 441 -5 497
1 6 11 9 21 6 18 -5 19 -22 19 -441z m867 426 c40 -26 42 -33 16 -47 -10 -6
-37 -26 -60 -46 -24 -19 -47 -35 -52 -35 -5 0 -9 21 -9 48 0 41 4 50 32 74 18
15 34 28 36 28 1 0 18 -10 37 -22z m-1877 -145 c-6 -7 -14 -13 -18 -13 -9 0
-140 154 -140 164 0 4 38 -26 84 -66 65 -55 82 -75 74 -85z m410 134 l21 -23
-63 -56 -63 -56 -29 23 c-19 16 -26 27 -19 33 28 27 120 102 125 102 4 0 16
-10 28 -23z m136 -50 l-28 -25 -28 22 c-15 11 -27 23 -27 26 0 3 14 15 31 27
l33 23 24 -24 24 -24 -29 -25z m2094 -6 c56 -40 102 -76 102 -81 0 -5 -8 -14
-18 -19 -14 -7 -36 4 -107 55 -50 35 -92 64 -95 64 -8 0 -195 -151 -198 -159
-1 -5 34 -32 79 -62 45 -30 87 -57 93 -62 7 -5 1 -16 -19 -32 -24 -20 -31 -22
-35 -10 -3 8 -34 34 -70 57 l-65 43 -2 60 -2 60 102 82 c56 45 109 81 117 79
8 -1 61 -35 118 -75z m-1978 17 l0 -43 -27 28 c-27 26 -27 27 -8 42 30 22 35
19 35 -27z m910 -102 c0 -157 -6 -164 -84 -106 -55 40 -56 42 -56 89 0 49 1
50 63 95 34 25 65 45 70 46 4 0 7 -56 7 -124z m180 68 l0 -55 -31 18 c-51 30
-53 38 -12 66 21 14 39 26 41 26 1 1 2 -24 2 -55z m-1560 11 c13 -14 20 -28
15 -32 -4 -5 -10 -3 -12 4 -2 7 -10 10 -18 7 -7 -3 -16 0 -21 7 -4 7 -3 10 4
5 6 -3 14 -2 17 4 4 6 3 10 -2 9 -20 -3 -34 2 -28 11 10 15 20 12 45 -15z
m250 -74 c-54 -48 -55 -49 -82 -33 -16 9 -28 19 -28 23 0 4 26 30 58 58 l57
50 25 -24 24 -25 -54 -49z m922 58 c28 -20 35 -29 25 -36 -6 -5 -29 -22 -49
-38 l-38 -27 0 71 c0 79 -3 77 62 30z m578 -121 l0 -163 -77 -55 c-43 -30 -81
-56 -85 -58 -4 -2 -8 68 -8 157 l0 160 78 60 c42 34 80 61 85 61 4 0 7 -73 7
-162z m1009 155 c-2 -33 -251 -327 -345 -409 -162 -140 -267 -237 -409 -374
-77 -74 -190 -181 -250 -236 -61 -56 -155 -143 -210 -194 l-100 -92 -3 44 c-2
23 -7 47 -13 52 -5 6 -9 13 -9 17 0 8 236 216 471 415 236 200 418 357 629
543 96 85 177 156 179 157 1 2 1 8 -1 15 -2 7 -65 -42 -144 -112 -213 -189
-478 -418 -664 -574 -52 -43 -129 -109 -170 -145 -333 -293 -317 -281 -345
-268 -14 6 -25 14 -25 18 0 7 471 414 795 687 66 56 167 142 225 192 96 84
360 271 381 271 5 0 9 -3 8 -7z m-2337 -20 c17 -15 16 -17 -24 -35 -55 -25
-76 -8 -35 28 33 29 35 29 59 7z m1056 -38 c34 -22 61 -43 62 -46 0 -4 -31
-30 -70 -58 l-70 -51 0 101 c0 55 4 99 9 97 4 -1 36 -21 69 -43z m403 -22 c91
-67 91 -67 68 -83 -13 -8 -56 -41 -95 -72 l-72 -57 -4 127 c-3 120 -2 152 8
152 3 0 45 -30 95 -67z m81 12 l-4 -45 -29 21 c-16 11 -29 24 -29 27 0 7 50
41 60 42 3 0 4 -20 2 -45z m1018 -7 c0 -22 -7 -56 -16 -75 -18 -37 -185 -191
-436 -401 -15 -13 -21 -12 -47 11 l-30 25 107 94 c59 51 155 133 213 180 119
98 166 147 181 190 13 38 28 26 28 -24z m-2510 7 c0 -8 -18 -24 -39 -35 -34
-17 -41 -17 -51 -5 -10 12 -7 17 16 26 16 6 38 15 49 19 11 5 21 9 23 9 1 1 2
-6 2 -14z m-370 -37 c0 -4 -15 0 -34 10 -19 9 -32 20 -29 25 5 8 63 -23 63
-35z m214 19 c-11 -5 -34 -23 -51 -40 -18 -17 -33 -27 -33 -21 0 14 84 83 94
77 5 -3 0 -10 -10 -16z m-435 -44 c2 -2 -4 -12 -14 -23 l-18 -20 -24 22 c-22
20 -22 23 -6 40 15 17 17 17 37 1 12 -10 23 -19 25 -20z m1341 -197 l0 -234
-42 -34 c-24 -19 -49 -38 -55 -42 -10 -6 -13 44 -13 233 l0 241 48 35 c26 19
50 35 55 35 4 0 7 -105 7 -234z m866 137 c-3 -3 -19 5 -37 18 l-32 23 34 28
34 29 3 -47 c2 -25 1 -48 -2 -51z m-1718 54 c12 -11 22 -24 22 -29 0 -4 -10
-8 -22 -7 -13 0 -17 3 -10 6 10 4 6 14 -15 36 -30 32 -13 28 25 -6z m-222 -4
c-7 -7 -26 7 -26 19 0 6 6 6 15 -2 9 -7 13 -15 11 -17z m501 -48 c-61 -49
-147 -104 -148 -95 -1 6 -2 14 -3 20 -1 5 37 39 84 75 78 59 85 63 88 43 3
-15 -5 -29 -21 -43z m913 -146 l0 -211 -77 55 -78 54 -3 96 -3 95 78 61 c43
33 79 60 81 60 1 1 2 -94 2 -210z m-1480 27 c93 -81 170 -152 170 -156 0 -10
-75 -70 -88 -70 -5 0 -45 44 -89 98 -44 53 -110 129 -147 168 -36 40 -66 75
-66 79 0 10 33 35 42 32 4 -1 84 -69 178 -151z m227 148 c-3 -3 -12 -4 -19 -1
-8 3 -5 6 6 6 11 1 17 -2 13 -5z m1796 -77 l95 -65 -21 -20 c-38 -33 -46 -34
-82 -7 l-35 27 -31 -26 c-37 -31 -37 -31 -74 -1 l-30 24 32 33 c26 28 30 39
26 72 -5 47 -6 48 120 -37z m-133 35 c0 -10 -6 -25 -12 -34 -14 -18 -165 -138
-173 -138 -3 0 -5 12 -5 28 0 23 15 39 88 94 48 37 90 67 95 67 4 1 7 -7 7
-17z m1000 -7 c-10 -12 -10 -18 1 -32 12 -14 12 -16 -1 -11 -24 8 -50 -10 -43
-30 6 -15 5 -16 -13 -2 -18 14 -18 14 -5 -3 13 -17 13 -18 -1 -15 -9 1 -28
-10 -42 -25 -14 -15 -31 -25 -36 -22 -6 4 -10 3 -9 -2 4 -22 -2 -35 -15 -30
-8 3 -22 -1 -33 -9 -16 -12 -16 -13 -1 -8 15 5 17 1 14 -26 -4 -31 -3 -31 16
-11 10 12 22 21 25 21 4 0 -6 -13 -22 -30 -15 -16 -32 -27 -36 -24 -5 3 -7 -1
-4 -8 3 -7 -13 -25 -34 -40 -43 -30 -56 -35 -45 -15 5 8 3 8 -9 -2 -9 -7 -14
-18 -11 -23 3 -5 -18 -31 -48 -58 l-53 -48 -17 31 c-9 18 -17 37 -18 43 0 7
33 38 73 70 39 32 79 65 87 74 8 9 42 39 75 67 33 28 92 81 130 117 39 36 74
66 79 66 5 0 3 -7 -4 -15z m-2304 -180 c-2 -7 -34 -33 -71 -59 -64 -46 -67
-47 -86 -30 -15 14 -19 31 -19 85 l0 68 88 61 87 61 3 -87 c2 -48 1 -93 -2
-99z m2324 171 c0 -3 -4 -8 -10 -11 -5 -3 -10 -1 -10 4 0 6 5 11 10 11 6 0 10
-2 10 -4z m-27 -62 c-4 -11 -8 -12 -20 -3 -11 10 -11 14 -1 20 17 10 28 2 21
-17z m-23 -45 c-6 -10 -13 -19 -16 -19 -3 0 -3 4 0 8 3 5 -5 8 -16 7 -24 -2
-35 -19 -19 -30 7 -4 8 1 4 12 -5 14 -3 15 7 6 14 -13 5 -33 -16 -33 -8 0 -13
-6 -11 -12 1 -7 -4 -12 -10 -10 -7 1 -13 -3 -13 -9 0 -6 -6 -9 -12 -6 -7 2
-20 1 -28 -4 -11 -5 -16 -2 -16 10 0 12 7 17 22 15 15 -1 21 2 18 11 -3 7 2
15 10 18 10 4 13 1 10 -7 -3 -8 -1 -17 4 -20 5 -3 8 6 6 20 -3 27 25 63 43 57
6 -2 14 1 18 7 12 19 26 0 15 -21z m-1001 -18 l34 -28 -45 -36 c-25 -20 -48
-37 -51 -37 -3 0 -22 11 -41 24 l-35 23 47 41 c26 23 49 41 52 41 3 0 20 -12
39 -28z m281 -1 c0 -19 -55 -79 -72 -80 -21 -1 -4 47 25 71 39 34 47 35 47 9z
m-129 -9 l24 -19 -25 -20 -24 -20 -27 22 -27 21 22 17 c27 22 29 22 57 -1z
m-1622 -33 c0 -42 -3 -44 -64 -84 l-64 -41 -21 22 -22 23 54 39 c103 75 113
82 116 83 1 0 2 -19 1 -42z m1286 8 c-1 -19 -20 -40 -80 -86 -44 -33 -83 -60
-87 -60 -13 0 -1 62 13 71 8 4 43 30 79 57 36 28 67 48 70 47 3 -2 5 -15 5
-29z m266 -27 l29 -20 -46 -40 c-25 -21 -48 -39 -52 -39 -4 0 -18 9 -32 20
l-25 19 45 40 c25 22 47 40 48 41 2 0 17 -9 33 -21z m99 -22 c0 -17 -22 -42
-80 -90 -44 -37 -82 -67 -85 -67 -3 0 -5 10 -5 23 0 17 22 42 78 89 42 37 80
67 85 67 4 1 7 -9 7 -22z m-295 -13 l30 -25 -26 -19 c-14 -10 -78 -62 -142
-115 l-117 -95 -35 27 c-19 16 -35 31 -35 34 0 10 273 219 285 219 6 -1 24
-12 40 -26z m-1155 -69 c0 -41 -3 -75 -6 -75 -10 0 -104 71 -104 78 1 8 92 72
103 72 4 0 7 -34 7 -75z m-200 37 c0 -4 45 -39 100 -77 l100 -70 0 -57 c0 -32
-3 -58 -7 -57 -14 1 -286 194 -289 204 -2 6 14 22 34 37 37 27 62 35 62 20z
m1011 -45 c32 -23 59 -45 59 -48 0 -7 -128 -99 -138 -99 -4 0 -8 46 -9 101 -2
116 -5 114 88 46z m449 -9 c0 -4 -3 -8 -8 -8 -4 0 -18 -10 -32 -23 -14 -12
-65 -56 -115 -96 -49 -41 -97 -80 -105 -87 -12 -10 -21 -8 -48 11 l-33 23 143
114 143 115 27 -20 c16 -12 28 -24 28 -29z m-1600 -116 c0 -62 -4 -112 -9
-110 -4 2 -48 40 -97 86 -69 65 -85 85 -74 92 8 5 39 27 69 49 l53 40 29 -21
29 -22 0 -114z m2685 133 c38 -38 32 -61 -36 -129 -57 -57 -62 -60 -73 -41 -6
11 -25 34 -43 51 l-32 32 62 56 c34 30 70 55 80 56 10 0 29 -11 42 -25z
m-3035 -51 c0 -14 -21 -35 -66 -68 -36 -26 -67 -46 -69 -44 -2 2 22 43 53 91
54 85 56 88 68 65 8 -13 13 -32 14 -44z m63 25 c26 -22 47 -44 47 -49 0 -5
-33 -32 -72 -62 -57 -41 -83 -54 -120 -58 -27 -3 -48 -3 -48 0 0 4 60 48 159
116 2 2 -4 23 -12 48 -9 26 -13 46 -9 46 4 0 28 -18 55 -41z m2433 -31 l22
-20 -47 -41 c-25 -23 -95 -87 -156 -143 -60 -55 -229 -206 -375 -335 -146
-130 -309 -276 -363 -325 -178 -161 -175 -159 -195 -142 -9 8 -26 18 -37 22
-23 9 -24 8 304 300 303 268 456 404 640 568 90 81 169 144 175 141 6 -3 21
-15 32 -25z m-2056 -31 l55 -43 3 -127 c1 -70 0 -127 -4 -127 -3 0 -20 10 -36
22 -26 18 -34 19 -50 9 -11 -7 -23 -9 -26 -6 -10 10 -15 315 -5 315 4 -1 33
-20 63 -43z m1510 9 c0 -18 -30 -49 -125 -130 -68 -58 -127 -106 -130 -106 -3
0 -5 11 -5 25 0 15 12 36 33 54 70 63 212 180 220 181 4 0 7 -11 7 -24z m-620
-52 l63 -46 -21 -21 c-20 -19 -22 -19 -47 -3 -14 9 -31 14 -38 10 -11 -7 -281
-217 -301 -235 -5 -5 -7 -11 -3 -15 3 -3 72 44 153 106 81 62 154 113 162 114
38 3 10 -27 -110 -118 -156 -118 -173 -144 -184 -293 -4 -51 -10 -93 -14 -93
-26 0 -33 37 -32 172 l0 143 29 23 c15 13 81 64 145 114 65 50 115 94 112 99
-6 11 -60 -26 -202 -141 l-105 -85 1 -137 c1 -76 -2 -139 -6 -142 -4 -2 -19 6
-35 19 -27 24 -27 24 -27 158 l0 134 138 106 c75 58 157 122 182 141 25 19 52
35 61 35 9 1 45 -20 79 -45z m-1126 -16 c30 -24 55 -47 55 -51 1 -5 -57 -7
-129 -5 -71 1 -129 6 -127 10 5 15 123 96 134 93 7 -2 37 -23 67 -47z m2345
11 c6 -18 11 -35 11 -39 0 -4 -89 -85 -197 -181 -109 -96 -252 -224 -318 -284
-312 -286 -583 -525 -595 -525 -3 0 -11 15 -17 34 -10 33 -9 36 46 88 54 53
189 175 527 475 87 78 240 214 339 302 99 89 182 161 186 161 4 0 12 -14 18
-31z m288 -35 c3 -1 -392 -359 -682 -618 -110 -99 -249 -225 -310 -280 -60
-56 -159 -145 -220 -198 -60 -53 -121 -108 -135 -123 -14 -15 -33 -31 -43 -36
-33 -18 50 128 96 169 23 20 71 64 107 97 228 208 381 346 490 441 69 60 244
216 389 347 260 234 264 237 285 220 12 -10 22 -18 23 -19z m-2219 -38 l72
-48 0 -82 c0 -77 -2 -84 -28 -109 -15 -15 -31 -27 -35 -27 -4 0 -29 16 -57 36
l-50 36 0 130 c0 103 3 128 13 121 6 -5 45 -31 85 -57z m924 34 c32 -21 38
-30 38 -62 0 -21 -2 -38 -5 -38 -3 0 -23 12 -45 26 -35 24 -40 31 -40 66 0 44
-1 44 52 8z m-72 -10 c0 -5 -4 -10 -10 -10 -5 0 -10 5 -10 10 0 6 5 10 10 10
6 0 10 -4 10 -10z m650 -50 c-30 -26 -57 -46 -59 -44 -3 2 20 26 49 54 30 27
57 47 60 44 2 -3 -20 -27 -50 -54z m-659 9 c24 -17 59 -40 77 -51 39 -24 39
-29 5 -50 -25 -15 -28 -15 -78 21 -109 77 -101 68 -80 91 23 26 24 26 76 -11z
m-1237 -9 c-5 -4 -48 -37 -96 -73 -71 -53 -89 -63 -98 -51 -7 7 -37 30 -68 50
-32 21 -59 39 -61 41 -8 6 33 32 61 40 36 10 273 4 262 -7z m-339 -8 c-35 -22
-73 -18 -54 4 6 8 28 14 48 14 l36 0 -30 -18z m1737 -67 c0 -37 -3 -69 -6 -72
-3 -4 -6 29 -6 72 0 43 3 76 6 72 4 -3 6 -36 6 -72z m-202 8 c38 -27 70 -51
70 -55 0 -3 -19 -21 -42 -39 -24 -18 -97 -76 -163 -128 -66 -52 -125 -98 -131
-103 -7 -5 -33 8 -67 32 l-56 40 16 45 c10 30 29 56 56 79 87 69 232 176 240
176 5 0 40 -21 77 -47z m-667 -1 c14 -13 17 -33 17 -139 0 -67 -2 -123 -5
-123 -3 0 -17 7 -30 16 -24 16 -25 19 -25 146 0 135 0 136 43 100z m-797 -28
c32 -22 59 -45 61 -51 2 -6 -9 -20 -25 -32 l-29 -20 -83 54 c-99 65 -94 60
-86 81 12 30 95 14 162 -32z m375 17 c24 -24 29 -38 29 -76 0 -62 -20 -105
-76 -165 -50 -54 -156 -120 -192 -120 -20 0 -21 5 -24 138 -2 75 -1 142 2 149
7 15 93 81 122 93 13 5 42 9 66 9 35 1 49 -5 73 -28z m1318 -35 c-9 -8 -10 -7
-5 7 3 10 7 26 7 35 1 9 4 6 6 -7 3 -13 -1 -28 -8 -35z m-1879 -17 c21 -113
94 -216 203 -290 l62 -42 -40 8 c-90 16 -196 103 -244 201 -29 56 -34 141 -12
168 18 21 19 20 31 -45z m1055 15 c24 -16 25 -20 25 -140 0 -130 -4 -141 -42
-107 -16 14 -18 33 -18 140 0 67 2 123 5 123 3 0 17 -7 30 -16z m747 4 c-8 -8
-8 -17 0 -32 11 -21 11 -21 -11 -2 -16 15 -18 22 -10 33 6 7 16 13 22 13 7 0
7 -4 -1 -12z m-1692 -58 c41 -27 79 -50 84 -50 5 0 24 11 41 25 l32 24 6 -52
c8 -87 0 -212 -15 -209 -27 7 -112 78 -148 123 -55 69 -108 189 -84 189 5 0
43 -23 84 -50z m720 -90 c0 -24 -26 -17 -93 28 -80 55 -102 76 -93 91 7 11
186 -104 186 -119z m960 62 c-1 -4 -26 -27 -57 -52 -31 -25 -87 -72 -124 -105
-38 -33 -80 -69 -94 -80 -52 -40 -40 -150 20 -177 14 -6 25 -14 25 -18 0 -7
-126 -110 -135 -110 -3 0 -5 69 -5 153 0 109 -4 157 -12 166 -11 10 -9 14 5
22 10 6 33 23 50 38 18 15 88 71 157 125 l125 97 23 -26 c12 -14 22 -29 22
-33z m-1062 -52 c34 -24 62 -46 61 -49 0 -3 -14 -17 -31 -30 -25 -20 -33 -22
-47 -13 -45 33 -58 35 -88 13 -32 -24 -123 -55 -123 -42 0 5 11 16 25 25 29
19 85 112 85 142 0 31 11 36 34 16 12 -10 49 -38 84 -62z m192 -12 l0 -32 -22
22 c-20 19 -21 24 -8 32 25 16 30 12 30 -22z m118 -129 c194 -129 197 -132
186 -151 -7 -12 -49 13 -201 116 -105 71 -189 134 -187 138 12 19 44 2 202
-103z m-19 -61 c1 -4 -15 -19 -34 -34 l-35 -26 -67 49 c-38 28 -83 58 -100 69
-18 10 -33 22 -33 25 0 4 14 19 31 32 l32 25 103 -67 c56 -36 103 -69 103 -73z
m302 62 l36 -26 -23 -29 c-23 -29 -24 -36 -24 -211 l0 -180 -30 -22 c-16 -12
-32 -22 -36 -22 -8 0 2 411 12 482 7 51 6 51 65 8z m-537 -238 c179 -122 195
-135 183 -152 -6 -11 -17 -22 -25 -25 -7 -2 -61 29 -120 69 -59 41 -143 98
-187 128 -61 41 -89 68 -122 117 -24 36 -43 68 -43 73 0 4 27 -11 59 -35 33
-23 147 -102 255 -175z m610 182 c3 -9 6 -84 6 -168 l0 -152 -30 -22 c-16 -12
-32 -22 -35 -22 -3 0 -5 72 -5 161 0 152 1 162 23 189 26 34 33 36 41 14z
m-887 -74 c16 -20 23 -43 25 -88 1 -34 1 -62 -2 -63 -3 0 -20 7 -37 18 l-33
18 1 90 c0 74 2 87 12 71 7 -10 22 -31 34 -46z m615 -2 l79 -51 -27 -28 c-17
-17 -32 -25 -43 -21 -19 7 -151 93 -151 99 0 5 53 52 59 53 3 0 40 -23 83 -52z
m98 -231 l0 -153 -30 -22 c-16 -12 -32 -21 -36 -20 -3 2 -5 68 -4 148 1 142 1
145 27 172 15 16 30 28 35 28 4 0 8 -69 8 -153z m-420 7 c52 -36 99 -70 104
-74 8 -8 -51 -69 -67 -70 -6 0 -159 104 -216 147 -7 5 62 62 74 63 6 0 53 -30
105 -66z m323 -86 l-2 -142 -35 -35 -36 -36 0 152 0 152 33 25 c17 14 34 26
37 26 3 0 4 -64 3 -142z m-96 15 c-1 -21 -6 -44 -10 -50 -5 -8 -3 -13 4 -13 8
0 5 -7 -6 -20 -14 -15 -15 -23 -6 -33 13 -16 5 -28 -15 -20 -8 3 -11 10 -7 17
3 6 2 7 -2 3 -14 -12 -14 -35 -1 -33 6 0 12 -3 13 -9 2 -12 -31 -7 -35 6 -2 5
-8 7 -13 3 -13 -8 -11 10 4 26 10 12 9 12 -6 0 -16 -12 -23 -11 -53 5 -19 10
-34 22 -34 26 0 10 149 129 161 129 5 0 7 -17 6 -37z m470 -128 c24 -25 44
-54 45 -65 0 -11 1 -25 2 -31 1 -6 -27 -24 -61 -39 -35 -16 -63 -25 -63 -21 0
5 -11 25 -25 45 l-25 37 30 59 c17 33 35 60 42 60 6 0 31 -20 55 -45z m-467
31 c0 -3 -4 -8 -10 -11 -5 -3 -10 -1 -10 4 0 6 5 11 10 11 6 0 10 -2 10 -4z"/>
<path d="M800 3286 c0 -3 9 -10 20 -16 11 -6 20 -8 20 -6 0 3 -9 10 -20 16
-11 6 -20 8 -20 6z"/>
<path d="M740 3200 c8 -5 20 -10 25 -10 6 0 3 5 -5 10 -8 5 -19 10 -25 10 -5
0 -3 -5 5 -10z"/>
<path d="M727 3179 c7 -7 15 -10 18 -7 3 3 -2 9 -12 12 -14 6 -15 5 -6 -5z"/>
<path d="M1192 3108 c6 -18 57 -53 65 -44 4 4 -6 18 -22 31 -33 27 -49 32 -43
13z"/>
<path d="M3116 2828 c3 -5 10 -6 15 -3 13 9 11 12 -6 12 -8 0 -12 -4 -9 -9z"/>
<path d="M3080 2806 c0 -2 8 -10 18 -17 15 -13 16 -12 3 4 -13 16 -21 21 -21
13z"/>
<path d="M3056 2792 c-3 -5 1 -9 9 -9 8 0 12 4 9 9 -3 4 -7 8 -9 8 -2 0 -6 -4
-9 -8z"/>
<path d="M3026 2761 c-3 -4 4 -7 14 -6 27 2 33 10 10 12 -11 1 -22 -2 -24 -6z"/>
<path d="M2899 2643 c-13 -16 -12 -17 4 -4 16 13 21 21 13 21 -2 0 -10 -8 -17
-17z"/>
<path d="M3075 2720 c-3 -5 -1 -10 4 -10 6 0 11 5 11 10 0 6 -2 10 -4 10 -3 0
-8 -4 -11 -10z"/>
<path d="M1890 2497 c0 -3 12 -12 26 -22 15 -9 23 -12 20 -6 -7 11 -46 35 -46
28z"/>
<path d="M1237 2163 c-4 -3 -7 -11 -7 -17 0 -6 5 -5 12 2 6 6 9 14 7 17 -3 3
-9 2 -12 -2z"/>
<path d="M1240 2040 c-9 -6 -10 -10 -3 -10 6 0 15 5 18 10 8 12 4 12 -15 0z"/>
<path d="M1240 1980 c-8 -5 -12 -12 -9 -15 4 -3 12 1 19 10 14 17 11 19 -10 5z"/>
<path d="M1245 1820 c-4 -6 -8 -23 -11 -38 -4 -25 -3 -25 8 -7 11 18 19 55 12
55 -2 0 -6 -5 -9 -10z"/>
<path d="M1239 1722 c8 -6 9 -12 3 -16 -12 -7 -10 -30 3 -33 6 -2 10 9 10 24
0 15 -6 28 -15 30 -12 4 -12 3 -1 -5z"/>
<path d="M1230 1443 c0 -7 5 -15 10 -18 6 -4 8 -11 5 -16 -4 -5 -1 -9 4 -9 15
0 13 11 -4 34 -8 11 -15 15 -15 9z"/>
<path d="M1234 1369 c0 -13 3 -15 13 -7 7 6 13 14 13 18 0 3 -6 7 -13 7 -7 0
-13 -8 -13 -18z"/>
<path d="M3237 1640 c10 -11 10 -17 0 -29 -10 -14 -10 -14 4 -4 9 7 18 11 21
8 2 -3 5 2 5 10 0 8 -3 13 -5 10 -3 -3 -12 1 -21 7 -13 10 -14 10 -4 -2z"/>
<path d="M3133 1556 c-29 -29 -46 -53 -38 -53 8 0 12 4 10 7 -3 4 7 8 21 8 24
0 24 -1 7 -22 -18 -21 -18 -21 3 -3 20 16 22 23 25 65 1 9 9 25 17 35 31 35 5
15 -45 -37z m21 -10 c-3 -8 -13 -17 -22 -21 -13 -5 -13 -2 3 15 21 24 26 25
19 6z"/>
<path d="M3194 1588 l-19 -23 23 19 c12 11 22 21 22 23 0 8 -8 2 -26 -19z"/>
<path d="M3093 1483 c4 -3 1 -13 -6 -22 -11 -14 -10 -14 5 -2 16 12 16 31 1
31 -4 0 -3 -3 0 -7z"/>
<path d="M1256 502 c-3 -5 1 -9 9 -9 8 0 12 4 9 9 -3 4 -7 8 -9 8 -2 0 -6 -4
-9 -8z"/>
<path d="M5702 3889 c-75 -9 -203 -44 -244 -65 -22 -12 -27 -19 -19 -27 8 -8
33 -4 94 16 123 40 212 50 387 44 175 -5 269 -27 415 -97 96 -46 228 -137 219
-151 -9 -15 15 -39 32 -32 26 10 172 -161 234 -275 l24 -43 -74 -74 -73 -74
-45 80 c-85 150 -239 302 -381 377 -332 175 -766 110 -1021 -152 -24 -25 -48
-46 -52 -46 -5 0 -7 82 -6 183 l3 182 103 3 c91 2 103 5 100 20 -3 15 -17 17
-103 17 l-100 0 -3 33 c-4 42 -32 44 -32 2 l0 -30 -569 0 c-491 0 -570 -2
-581 -15 -10 -12 -10 -16 1 -20 8 -3 196 -6 419 -7 l405 -3 3 -187 2 -188
-441 0 c-414 0 -440 -1 -437 -17 3 -16 26 -18 256 -23 l253 -5 -55 -48 c-169
-146 -328 -394 -391 -611 -14 -50 -27 -92 -30 -94 -2 -3 -50 -4 -105 -3 -98 2
-138 -8 -124 -30 3 -5 160 -9 350 -9 l344 0 0 -60 0 -60 -180 0 c-113 0 -180
-4 -180 -10 0 -6 67 -10 180 -10 l180 0 0 -60 0 -60 -344 0 c-190 0 -347 -4
-350 -9 -12 -19 25 -33 81 -30 32 1 100 1 150 1 l93 -2 2 -287 c3 -248 5 -288
18 -288 13 0 15 40 18 286 l2 287 25 4 c13 3 27 3 30 0 3 -3 5 -408 5 -900 0
-888 0 -894 -21 -923 -11 -16 -25 -29 -30 -29 -5 0 -9 102 -9 250 0 243 -1
250 -20 250 -20 0 -20 -7 -20 -278 l0 -278 -40 -39 c-43 -42 -48 -53 -26 -61
13 -5 75 56 354 346 l81 85 1 -81 0 -82 -30 -6 c-34 -6 -39 -23 -11 -34 16 -6
-2 -28 -121 -150 -129 -132 -149 -160 -122 -169 6 -2 70 57 143 132 72 74 134
135 136 135 2 0 6 -60 7 -132 3 -110 6 -133 18 -133 12 0 16 18 18 93 l3 92
329 0 330 0 0 -40 0 -40 -207 -2 c-189 -3 -208 -5 -211 -21 -3 -16 12 -17 207
-17 l211 0 0 -35 c0 -23 5 -35 14 -35 15 0 26 21 26 51 0 19 19 19 840 19
l840 0 0 -36 c0 -28 3 -35 18 -32 14 3 17 17 20 95 l3 93 212 2 c181 3 212 5
212 18 0 13 -32 15 -213 18 l-213 2 3 112 3 112 46 -2 c54 -4 191 14 269 34
45 12 97 34 213 92 4 2 7 -46 7 -107 l0 -111 -212 0 c-206 0 -248 -5 -234 -29
5 -7 76 -11 227 -11 l219 0 0 -155 c0 -148 1 -155 20 -155 19 0 20 7 20 155
l0 155 75 0 c57 0 75 3 75 14 0 20 -23 26 -91 26 l-59 0 0 128 0 127 36 24
c101 69 249 265 302 401 47 122 56 176 56 370 l1 185 -308 3 c-186 1 -307 6
-305 12 2 5 65 72 141 148 75 77 137 144 137 150 0 36 -35 12 -150 -103 l-129
-129 -3 125 c-5 204 -26 167 240 440 175 179 240 239 257 239 30 0 39 14 20
30 -8 7 -15 19 -15 26 0 19 -24 18 -40 -1 -10 -13 -50 -15 -236 -15 l-224 0 0
148 0 148 36 35 c20 18 63 64 96 101 49 56 57 69 43 74 -12 5 -39 -15 -95 -71
l-79 -79 -3 104 c-3 91 -5 105 -20 108 -16 3 -18 -8 -18 -124 l0 -128 -142
-145 c-79 -80 -151 -151 -160 -159 -17 -12 -18 -3 -18 170 l0 184 159 164 c88
90 157 168 155 172 -3 4 -11 8 -17 8 -7 0 -138 -127 -292 -283 -438 -441 -441
-445 -427 -459 10 -10 51 26 197 172 l185 185 -1 -65 0 -65 -288 -293 c-256
-262 -289 -292 -301 -277 -12 14 -6 23 44 74 31 31 53 60 49 64 -4 4 -30 -15
-58 -43 -45 -44 -53 -49 -64 -36 -11 13 -9 21 13 47 34 40 23 59 -14 24 -24
-23 -28 -24 -40 -10 -11 14 -6 23 40 70 44 44 52 57 42 67 -11 11 -23 3 -64
-40 l-51 -53 -28 27 -29 28 515 517 c283 284 515 524 515 533 0 33 -28 12
-156 -115 l-132 -132 -20 39 c-28 56 -100 150 -170 225 l-61 65 125 125 c115
114 146 159 110 159 -8 0 -70 -59 -139 -130 l-125 -131 -52 39 c-135 102 -343
190 -503 211 -89 12 -242 12 -335 0z m-544 -285 l3 -131 -46 -17 c-25 -10 -68
-35 -95 -57 -41 -32 -57 -39 -95 -39 l-45 0 0 190 0 191 138 -3 137 -3 3 -131z
m882 6 c68 -14 124 -34 198 -71 56 -28 102 -54 102 -58 -1 -3 -38 -46 -83 -94
l-82 -88 -65 30 c-116 54 -208 73 -360 73 -104 0 -153 -5 -214 -21 -56 -15
-110 -21 -184 -21 l-105 0 24 26 c68 73 231 171 347 209 121 39 277 45 422 15z
m421 -232 c73 -74 148 -178 183 -255 l19 -42 -63 -70 c-35 -39 -64 -71 -65
-71 -1 0 -20 28 -43 63 -54 83 -195 222 -272 267 -12 7 2 27 70 94 46 48 88
86 91 86 4 0 40 -33 80 -72z m-1309 12 c-4 -29 -6 -30 -59 -30 -34 0 -52 4
-48 10 8 13 98 59 106 54 3 -2 4 -17 1 -34z m743 -35 c223 -39 436 -178 560
-366 43 -65 45 -70 30 -92 -19 -29 -194 -202 -197 -196 -124 190 -207 267
-371 344 -126 60 -210 76 -384 74 l-152 -3 -42 48 -42 47 23 24 c13 14 28 21
38 18 10 -4 13 -2 8 5 -4 7 0 15 10 19 13 5 27 -4 49 -30 43 -49 55 -47 16 2
-35 44 -37 51 -17 51 8 0 24 -13 36 -30 12 -16 26 -30 33 -30 6 0 -4 16 -23
35 -29 30 -31 35 -16 41 11 4 26 -2 42 -16 13 -13 24 -19 24 -13 0 6 -7 16
-15 23 -8 7 -13 16 -10 20 4 7 66 19 165 34 61 8 154 5 235 -9z m-1055 -65 c0
-16 -4 -30 -10 -30 -12 0 -220 -199 -220 -212 0 -31 37 -9 119 72 51 49 96 90
102 90 5 0 9 -53 9 -124 0 -116 -1 -125 -20 -131 -11 -3 -20 -13 -20 -22 0 -8
9 -17 20 -20 19 -5 20 -14 20 -179 l0 -174 -170 0 -170 0 0 40 c0 33 -3 40
-20 40 -17 0 -20 -7 -20 -40 l0 -40 -210 0 -210 0 6 28 c15 65 57 178 90 245
77 153 226 340 351 443 l55 44 149 0 149 0 0 -30z m65 20 c-3 -5 -10 -10 -16
-10 -5 0 -9 5 -9 10 0 6 7 10 16 10 8 0 12 -4 9 -10z m160 -13 c-45 -32 -145
-129 -157 -150 -7 -13 -6 -23 1 -30 8 -8 30 8 79 58 57 58 143 125 161 125 4
0 6 -16 7 -35 0 -19 -3 -35 -7 -35 -12 0 -126 -108 -150 -141 -18 -26 -19 -30
-4 -35 11 -4 35 14 78 60 62 66 88 81 82 49 -2 -10 -4 -41 -4 -68 -1 -50 -2
-51 -62 -95 -63 -46 -135 -133 -175 -212 -13 -27 -27 -48 -29 -48 -3 0 -5 114
-5 254 l0 254 48 35 c41 31 54 36 107 36 l60 0 -30 -22z m250 1 c-16 -12 -49
-41 -72 -65 l-43 -43 0 59 0 60 68 4 c37 2 69 4 72 5 3 1 -8 -8 -25 -20z m39
-189 c-10 -17 -29 -7 -63 33 -28 32 -32 41 -20 49 10 7 24 -1 51 -32 21 -23
35 -45 32 -50z m-60 -7 c-21 -5 -69 42 -59 58 5 8 18 1 42 -22 28 -26 31 -34
17 -36z m-49 8 c17 -19 17 -20 -1 -26 -11 -3 -27 -10 -36 -15 -21 -11 -23 -1
-6 36 14 30 19 31 43 5z m298 -54 c180 -35 355 -164 432 -321 24 -47 67 -186
61 -193 -2 -1 -37 9 -79 23 -42 14 -91 25 -109 25 -32 0 -36 3 -58 58 -29 69
-107 155 -171 188 -127 64 -307 44 -402 -44 l-28 -26 3 128 3 129 40 14 c94
34 197 40 308 19z m1697 -291 l0 -125 -120 0 c-66 0 -120 3 -120 7 0 7 231
243 237 243 2 0 3 -56 3 -125z m-1680 53 c50 -14 77 -35 63 -49 -9 -9 -20 -9
-44 0 -44 15 -123 14 -163 -3 -48 -20 -107 -75 -127 -121 -36 -79 -19 -197 37
-256 l24 -25 -22 -52 -22 -52 -58 0 -58 0 0 229 0 229 35 31 c93 81 210 106
335 69z m1153 -393 c-92 -95 -171 -173 -175 -174 -5 0 -8 38 -8 86 l0 88 173
173 172 172 3 -87 3 -87 -168 -171z m-1574 78 c0 -75 -4 -111 -9 -98 -15 35
-10 215 6 215 2 0 4 -53 3 -117z m1831 -343 l0 -440 -25 0 -25 0 0 433 c0 239
3 437 7 440 3 4 15 7 25 7 17 0 18 -20 18 -440z m80 0 l0 -440 -25 0 -25 0 0
440 0 440 25 0 25 0 0 -440z m100 370 c0 -56 3 -70 15 -70 12 0 15 14 15 70
l0 70 30 0 30 0 0 -422 c0 -378 -2 -423 -17 -440 -41 -46 -43 -35 -43 297 0
273 -2 315 -15 315 -12 0 -15 -16 -15 -85 0 -61 3 -85 13 -85 9 0 9 -2 0 -8
-9 -5 -13 -69 -15 -227 l-3 -220 -27 -3 -28 -3 0 440 0 441 30 0 30 0 0 -70z
m530 63 c0 -4 -51 -59 -112 -123 -62 -63 -151 -154 -197 -203 -46 -48 -85 -87
-87 -87 -2 0 -4 95 -4 210 l0 210 200 0 c110 0 200 -3 200 -7z m-967 -517
c-92 -94 -171 -172 -175 -174 -5 -2 -8 61 -8 140 l0 143 173 173 172 172 3
-141 3 -142 -168 -171z m-1875 388 l-3 -55 -165 0 -165 0 -3 42 c-6 71 -11 69
173 69 l166 0 -3 -56z m233 -4 c8 -66 21 -101 54 -144 14 -18 25 -38 25 -44 0
-9 -40 -12 -135 -12 l-135 0 0 130 0 131 93 -3 92 -3 6 -55z m893 12 c90 -42
177 -127 219 -211 30 -63 32 -72 32 -181 0 -137 -13 -171 -101 -264 l-56 -59
-85 85 -86 86 27 53 c31 62 32 99 7 154 -32 70 -86 105 -162 105 -22 0 -53 -7
-68 -14 -33 -18 -86 -76 -96 -105 -5 -17 -15 -21 -45 -21 -21 0 -41 4 -44 9
-13 21 26 111 69 159 50 56 95 81 163 91 33 4 48 11 50 24 3 14 -4 17 -35 17
-71 0 -134 -29 -195 -91 -50 -49 -60 -66 -80 -133 -22 -76 -22 -76 -56 -76
l-35 0 7 62 c15 150 121 282 264 329 89 30 219 22 306 -19z m-1124 -152 l0
-60 -167 2 -168 3 -3 58 -3 57 171 0 170 0 0 -60z m1650 41 c0 -18 -144 -181
-161 -181 -22 0 -4 27 73 111 45 49 83 89 85 89 2 0 3 -8 3 -19z m0 -114 c0
-37 -6 -48 -39 -81 -22 -21 -43 -36 -49 -32 -5 3 -20 -7 -33 -22 l-24 -27 30
25 29 25 -29 -36 -30 -35 -9 36 c-8 36 -7 38 65 112 41 41 77 75 82 76 4 1 7
-17 7 -41z m-2210 -381 c1 -735 4 -831 20 -831 13 0 15 74 18 593 l2 592 70 0
70 0 0 -55 c0 -46 -3 -55 -18 -55 -10 0 -23 -5 -30 -12 -15 -15 3 -38 29 -38
18 0 19 -22 19 -683 l0 -684 -23 -21 c-13 -12 -26 -20 -28 -17 -3 3 -4 69 -2
147 4 160 0 190 -22 182 -13 -5 -15 -36 -15 -188 0 -148 -3 -186 -16 -204 -8
-12 -19 -22 -25 -22 -5 0 -9 83 -9 204 0 113 -4 207 -9 210 -24 15 -29 -29
-29 -243 l1 -223 -27 -26 -26 -27 -1 765 c-1 421 -3 810 -4 865 -3 126 -1 133
30 127 l25 -4 0 -352z m560 334 c0 -19 -7 -20 -170 -20 -163 0 -170 1 -170 20
0 19 7 20 170 20 163 0 170 -1 170 -20z m988 -20 c69 -42 89 -122 47 -187
l-17 -25 -62 61 c-58 57 -64 61 -108 61 -26 0 -49 4 -52 8 -2 4 5 23 16 41 38
59 116 77 176 41z m1050 -87 c-2 -21 -47 -72 -175 -198 l-173 -169 0 53 0 54
173 174 c167 169 172 174 175 144 2 -17 2 -43 0 -58z m-2043 32 c0 -19 -8 -20
-159 -23 -158 -3 -184 2 -173 31 4 11 36 14 169 13 156 -1 163 -2 163 -21z
m1655 -196 l0 -201 -216 -221 c-119 -122 -221 -224 -226 -226 -6 -2 -54 42
-107 98 l-96 101 84 88 c362 375 546 562 553 562 4 0 8 -90 8 -201z m-952
-101 l2 -238 -285 0 -286 0 -228 233 -229 232 437 5 c240 3 470 6 511 5 l75 0
3 -237z m1342 129 c0 -41 -3 -45 -175 -217 l-175 -175 0 50 0 50 167 167 c92
93 171 168 175 168 5 0 8 -19 8 -43z m-2067 -266 c163 -165 297 -302 297 -304
0 -3 -16 -22 -35 -43 l-35 -38 -41 40 c-23 21 -144 146 -270 276 l-229 236 0
66 c0 36 4 66 8 66 5 0 142 -135 305 -299z m2067 71 l0 -87 -51 -18 c-58 -21
-127 -84 -158 -144 -10 -22 -25 -67 -32 -102 -11 -53 -11 -71 2 -121 l15 -59
-63 -63 -63 -62 0 199 0 200 172 172 c95 95 174 173 175 173 2 0 3 -39 3 -88z
m-2350 9 c6 -13 10 -156 10 -395 0 -294 3 -376 13 -377 10 0 10 -2 0 -6 -9 -3
-13 -35 -13 -107 0 -90 -2 -105 -20 -121 -20 -18 -20 -17 -20 503 0 329 4 522
10 522 5 0 14 -9 20 -19z m72 -78 c17 -15 18 -41 18 -421 0 -363 -2 -407 -17
-424 -9 -10 -19 -18 -22 -18 -3 0 -8 198 -9 440 -2 242 0 440 4 440 4 0 16 -7
26 -17z m2408 -23 c0 -2 -19 -24 -42 -47 -23 -24 -37 -43 -31 -43 6 0 31 23
56 50 41 45 68 63 67 43 -1 -5 -32 -42 -70 -83 l-70 -75 1 45 c1 33 8 52 27
73 28 29 20 38 -10 10 -17 -15 -18 -15 -18 5 0 11 8 22 18 24 23 5 72 4 72 -2z
m15 -90 c-55 -55 -102 -95 -104 -89 -5 15 171 189 190 189 7 0 -31 -45 -86
-100z m629 63 c3 -21 6 -48 6 -61 l0 -22 -232 2 -233 3 -3 23 c-3 22 -2 22
112 22 96 0 116 3 116 15 0 13 -20 15 -120 15 -113 0 -120 1 -120 20 0 19 7
20 234 20 l233 0 7 -37z m212 11 c9 -36 -2 -246 -17 -316 -14 -68 -16 -69
-112 -32 -52 20 -67 30 -62 42 15 40 27 175 21 250 l-6 82 85 0 c83 0 85 0 91
-26z m-1377 -71 l0 -78 -167 -173 -167 -172 -43 42 -42 43 207 207 c114 115
209 208 210 208 2 0 3 -35 2 -77z m-1769 -307 l-1 -301 -24 -30 c-13 -16 -26
-27 -29 -24 -4 4 -9 597 -6 703 0 6 14 -3 30 -19 l30 -29 0 -300z m2160 256
l0 -97 -94 -94 -95 -94 -8 29 c-14 51 -7 146 14 195 26 57 76 115 122 139 60
32 61 30 61 -78z m-1340 -150 l0 -168 -50 -49 -50 -50 -218 218 -217 217 268
0 267 0 0 -168z m1684 105 c-47 -57 -94 -107 -99 -107 -18 0 3 35 51 88 56 62
98 78 48 19z m-2419 3 l31 -30 -3 -186 -3 -186 -30 -34 c-16 -19 -32 -34 -35
-34 -3 0 -5 113 -5 250 0 138 3 250 7 250 4 0 21 -14 38 -30z m2335 -15 c-24
-24 -46 -42 -49 -40 -6 7 70 85 83 85 6 0 -10 -20 -34 -45z m520 29 c0 -21
-21 -158 -25 -162 -2 -2 -73 20 -159 50 l-156 53 0 38 0 37 170 0 c147 0 170
-2 170 -16z m-431 -89 c-45 -55 -79 -81 -79 -59 0 13 125 145 128 135 2 -5
-20 -40 -49 -76z m-1392 14 c9 -9 -24 -49 -132 -162 -128 -134 -153 -167 -126
-167 8 0 269 260 282 282 6 9 13 8 29 -7 l20 -19 -117 -120 c-415 -427 -436
-447 -466 -444 -28 3 -25 7 89 127 66 68 119 129 119 134 0 32 -36 3 -155
-123 -98 -103 -139 -140 -156 -140 -13 0 -24 3 -24 6 0 12 608 644 620 644 3
0 11 -5 17 -11z m653 -51 c-1 -62 -2 -64 -56 -123 -30 -33 -82 -91 -116 -130
l-61 -70 69 70 c38 39 88 92 111 118 l42 48 3 -111 3 -111 -62 -61 -63 -62
-92 92 -91 92 149 154 c82 85 152 154 157 155 4 1 7 -27 7 -61z m754 -28 c-28
-52 -41 -61 -50 -35 -3 8 11 34 33 60 46 55 54 44 17 -25z m-2350 44 c13 -5
16 -25 16 -118 0 -106 -7 -136 -32 -136 -4 0 -8 59 -8 130 0 72 2 130 4 130 2
0 11 -3 20 -6z m2571 -40 c77 -26 144 -50 149 -55 11 -10 -51 -138 -87 -183
l-24 -29 -104 84 c-57 46 -112 91 -123 100 -19 15 -19 17 9 72 15 32 30 57 34
57 3 0 69 -21 146 -46z m-2476 -48 l23 -25 -23 -30 c-13 -16 -27 -30 -31 -30
-5 -1 -8 24 -8 54 0 30 4 55 8 55 5 0 19 -11 31 -24z m2769 -49 c58 -20 62
-24 57 -47 -14 -57 -125 -250 -143 -250 -18 0 -131 103 -125 114 4 6 20 30 35
53 26 38 54 96 72 147 4 12 12 16 24 11 9 -3 45 -16 80 -28z m-1740 -19 c9
-17 12 -100 10 -323 l-3 -300 -27 -3 -28 -3 0 336 c0 319 1 335 18 326 10 -5
23 -20 30 -33z m1310 -60 c48 -40 102 -84 120 -98 l33 -25 -55 -54 c-31 -30
-57 -53 -59 -50 -3 2 -35 49 -72 104 -38 55 -78 112 -89 127 -19 27 -19 28 -1
48 10 11 22 20 27 20 5 0 48 -33 96 -72z m-2235 23 l42 -39 -80 -86 c-157
-169 -540 -564 -548 -565 -4 -1 -6 39 -5 88 l3 89 265 276 c146 151 269 275
273 275 4 1 27 -17 50 -38z m282 -151 l-35 -35 -72 72 -72 73 34 35 34 35 73
-72 73 -73 -35 -35z m1368 115 c28 -19 58 -35 65 -35 8 0 12 -4 10 -9 -6 -18
-293 -331 -303 -331 -6 0 -37 26 -69 59 l-58 58 149 146 c81 81 149 147 151
147 1 0 26 -16 55 -35z m-616 -36 l52 -58 -2 -228 -2 -228 -55 0 -55 0 -3 288
c-1 158 1 287 5 286 5 0 32 -27 60 -60z m1113 -64 c44 -63 83 -121 86 -128 6
-16 -127 -83 -148 -74 -13 4 -108 237 -108 263 0 8 65 50 82 53 3 1 43 -51 88
-114z m-2119 -279 c-122 -122 -191 -198 -186 -206 4 -7 28 -11 59 -9 28 1 77
1 109 0 l57 -1 0 -45 0 -45 -311 0 -310 0 313 325 313 325 75 -75 75 -75 -194
-194z m1957 197 c28 -76 49 -140 46 -142 -3 -3 -50 -7 -105 -9 l-100 -4 3 138
3 139 45 6 c25 3 48 7 51 7 4 1 29 -60 57 -135z m-198 -118 c0 -202 -2 -245
-14 -245 -26 0 -171 52 -226 82 -105 56 -107 42 17 175 61 65 132 144 159 175
27 31 52 57 57 57 4 1 7 -109 7 -244z m715 101 l50 -45 -70 -70 c-38 -39 -74
-71 -80 -71 -5 1 -31 31 -57 67 l-47 66 62 58 c70 64 65 64 142 -5z m-187
-145 c58 -79 60 -73 -45 -125 -98 -49 -209 -76 -335 -83 l-108 -6 0 92 0 91
78 0 c94 0 211 28 291 69 31 16 59 29 62 30 4 1 29 -30 57 -68z m-1478 -141
l0 -70 -455 0 c-250 1 -455 4 -455 8 0 3 28 35 62 69 l62 63 393 0 393 0 0
-70z m839 -81 c30 -10 65 -19 78 -19 22 0 23 -3 23 -70 0 -38 -1 -70 -3 -70
-1 0 -45 43 -97 96 -52 53 -86 93 -75 89 11 -4 44 -16 74 -26z m-66 -59 c26
-23 47 -46 47 -51 0 -5 -315 -9 -780 -9 l-780 0 0 43 c0 24 2 46 5 49 3 2 332
6 733 7 l727 2 48 -41z m-1545 -147 l3 -43 -330 0 -331 0 0 45 0 45 328 -2
327 -3 3 -42z m1685 9 c20 -20 37 -40 37 -44 0 -4 -380 -8 -845 -8 l-845 0 0
29 c0 67 -71 62 814 61 l801 -1 38 -37z m37 -132 l0 -40 -842 2 -843 3 -3 23
c-8 55 -61 52 848 52 l840 0 0 -40z"/>
<path d="M5083 3550 c-30 -12 -20 -44 11 -36 11 3 24 6 29 6 4 0 7 9 7 20 0
21 -12 24 -47 10z"/>
<path d="M4958 3499 c-35 -18 -48 -41 -30 -53 11 -6 87 42 87 56 0 19 -18 18
-57 -3z"/>
<path d="M5380 3233 c0 -5 11 -20 25 -33 14 -13 25 -19 25 -13 0 5 -11 20 -25
33 -14 13 -25 19 -25 13z"/>
<path d="M5350 3190 c11 -16 26 -33 32 -36 7 -4 -1 9 -16 29 -34 44 -46 50
-16 7z"/>
<path d="M4429 3103 c-98 -100 -157 -183 -205 -289 -39 -84 -41 -94 -16 -94
13 0 25 17 42 57 36 86 129 218 219 311 75 78 89 102 57 102 -7 0 -51 -39 -97
-87z"/>
<path d="M4762 3056 c1 -10 8 -17 13 -17 15 1 12 24 -3 29 -9 3 -13 -2 -10
-12z"/>
<path d="M4696 2981 c-3 -5 1 -14 8 -20 16 -13 32 2 21 19 -8 12 -22 13 -29 1z"/>
<path d="M4396 2855 c-21 -22 -85 -155 -88 -185 -2 -16 3 -25 13 -28 11 -2 21
11 34 45 16 44 36 81 72 139 11 18 11 23 -1 33 -11 9 -17 8 -30 -4z"/>
<path d="M4643 2850 c-40 -9 -60 -24 -79 -61 -52 -102 44 -214 147 -172 138
55 76 264 -68 233z"/>
<path d="M4162 2666 c1 -10 8 -17 13 -17 15 1 12 24 -3 29 -9 3 -13 -2 -10
-12z"/>
<path d="M7146 2412 c-2 -4 -1 -14 4 -22 7 -11 12 -12 21 -3 6 6 8 16 5 22 -8
13 -23 14 -30 3z"/>
<path d="M5837 2393 c-13 -12 -7 -33 8 -33 9 0 39 -12 67 -26 33 -17 54 -22
60 -16 16 16 0 32 -56 58 -54 25 -68 28 -79 17z"/>
<path d="M4377 1323 c-10 -10 -8 -281 2 -287 23 -15 32 27 30 145 -1 68 -4
129 -6 136 -6 14 -16 17 -26 6z"/>
<path d="M6411 1906 c-9 -10 -8 -16 4 -26 21 -17 51 6 34 26 -6 8 -15 14 -19
14 -4 0 -13 -6 -19 -14z"/>
<path d="M6340 1830 c-13 -8 -13 -11 0 -24 18 -19 46 -5 37 18 -7 18 -16 20
-37 6z"/>
<path d="M6264 1749 c-9 -16 12 -33 31 -25 14 5 15 9 5 21 -15 18 -26 19 -36
4z"/>
<path d="M6186 1671 c-9 -15 23 -36 36 -23 5 5 7 15 4 21 -9 13 -33 14 -40 2z"/>
<path d="M6115 1600 c-4 -6 -1 -17 5 -26 10 -11 16 -12 26 -3 11 9 11 15 3 25
-14 17 -25 18 -34 4z"/>
<path d="M6035 1520 c-4 -7 -3 -16 3 -22 14 -14 45 -2 40 15 -6 16 -34 21 -43
7z"/>
<path d="M5964 1449 c-3 -6 0 -17 8 -25 13 -13 16 -13 27 0 7 8 10 20 6 26 -8
13 -32 13 -41 -1z"/>
<path d="M5243 1999 c-18 -3 -43 -14 -57 -22 -33 -22 -60 -96 -52 -142 9 -46
65 -102 110 -111 85 -15 166 53 166 141 0 90 -78 153 -167 134z"/>
<path d="M6375 1270 c-8 -13 4 -32 16 -25 12 8 12 35 0 35 -6 0 -13 -4 -16
-10z"/>
<path d="M6300 1184 c0 -17 22 -14 28 4 2 7 -3 12 -12 12 -9 0 -16 -7 -16 -16z"/>
<path d="M6240 1130 c-12 -7 -12 -12 -3 -21 15 -15 26 -7 21 15 -2 11 -7 13
-18 6z"/>
<path d="M5254 1198 c-4 -7 -3 -10 1 -5 5 4 27 -10 49 -30 l41 -38 -40 43
c-44 48 -41 46 -51 30z"/>
<path d="M5220 1164 c0 -6 17 -26 38 -45 l37 -34 -35 40 c-19 22 -36 42 -37
44 -2 2 -3 0 -3 -5z"/>
<path d="M7067 3732 c-35 -38 -8 -92 46 -92 27 0 57 32 57 61 0 43 -73 65
-103 31z"/>
<path d="M6845 3600 c-15 -16 -17 -26 -9 -47 13 -37 47 -47 78 -22 31 24 33
49 8 72 -25 23 -55 21 -77 -3z"/>
<path d="M4177 3574 c-4 -4 -7 -16 -7 -26 0 -14 6 -19 23 -16 14 2 22 10 22
23 0 20 -25 32 -38 19z"/>
<path d="M7361 3541 c-19 -12 -6 -43 16 -39 10 2 18 12 18 22 0 22 -14 29 -34
17z"/>
<path d="M494 3289 c-8 -14 11 -33 25 -25 6 4 11 14 11 22 0 16 -26 19 -36 3z"/>
<path d="M7579 3201 c-17 -13 -23 -29 -23 -56 0 -68 77 -100 122 -52 64 68
-26 167 -99 108z"/>
<path d="M492 3158 c-15 -18 1 -41 24 -36 23 4 26 41 3 46 -9 1 -21 -3 -27
-10z"/>
<path d="M465 3000 c-8 -12 20 -24 35 -15 6 3 8 11 5 16 -8 12 -32 12 -40 -1z"/>
<path d="M7613 2929 c-31 -11 -40 -54 -18 -79 23 -26 57 -25 80 0 36 40 -10
99 -62 79z"/>
<path d="M6441 2696 c-9 -10 -8 -16 4 -26 13 -11 19 -11 32 2 16 17 10 38 -11
38 -8 0 -19 -6 -25 -14z"/>
<path d="M6353 2604 c-3 -8 -2 -19 3 -24 12 -11 48 16 39 29 -9 16 -35 13 -42
-5z"/>
<path d="M3363 2594 c-3 -8 -1 -20 5 -26 15 -15 43 8 35 28 -7 19 -32 18 -40
-2z"/>
<path d="M6415 2550 c-14 -15 -16 -23 -7 -32 13 -13 42 6 42 28 0 22 -17 24
-35 4z"/>
<path d="M7690 2254 c-10 -11 -10 -17 0 -28 15 -19 40 -10 40 14 0 24 -25 33
-40 14z"/>
<path d="M4102 1421 c-20 -12 -12 -206 8 -206 12 0 16 19 18 99 3 100 -2 122
-26 107z"/>
<path d="M3308 1292 c-14 -9 -133 -114 -264 -232 -353 -319 -456 -412 -587
-529 -96 -86 -125 -118 -152 -171 -19 -36 -48 -89 -66 -118 l-31 -52 79 36
c43 20 91 41 108 47 27 9 171 134 635 551 206 186 246 222 329 303 69 67 73
74 67 105 -7 36 -47 78 -74 78 -9 0 -29 -8 -44 -18z m62 -17 c39 -20 48 -52
22 -77 -20 -20 -20 -20 -55 18 -33 36 -34 40 -20 57 19 21 17 21 53 2z m-70
-53 c0 -5 -52 -56 -117 -113 -193 -172 -225 -202 -288 -259 -33 -31 -141 -128
-239 -215 -99 -88 -198 -177 -221 -197 -27 -24 -46 -34 -54 -28 -10 6 -2 18
30 46 24 22 97 89 163 149 276 254 698 625 711 625 8 0 15 -4 15 -8z m42 -48
c11 -24 9 -29 -22 -57 -174 -153 -769 -687 -840 -754 -41 -39 -46 -41 -58 -25
-7 9 -11 25 -10 34 3 15 289 277 668 612 63 55 142 127 175 158 33 32 63 57
68 58 4 0 13 -12 19 -26z m-946 -829 c10 -30 10 -41 1 -47 -20 -13 -40 -9 -63
13 -21 20 -21 22 -6 50 23 41 50 34 68 -16z"/>
<path d="M7774 655 c-4 -9 -2 -21 4 -27 15 -15 44 -1 40 19 -4 23 -36 29 -44
8z"/>
<path d="M2970 642 c-50 -24 -76 -80 -60 -128 13 -39 60 -74 100 -74 43 0 88
35 101 78 15 51 -8 104 -56 126 -41 20 -42 20 -85 -2z m95 -37 c52 -51 16
-138 -57 -138 -69 0 -106 100 -52 142 36 28 79 27 109 -4z"/>
<path d="M7592 648 c-32 -32 2 -79 43 -60 39 18 27 72 -15 72 -9 0 -21 -5 -28
-12z"/>
<path d="M7775 460 c-9 -15 14 -40 31 -33 22 8 18 43 -5 43 -11 0 -23 -5 -26
-10z"/>
<path d="M7595 254 c-18 -18 -16 -33 7 -47 21 -14 48 -2 48 22 0 30 -34 45
-55 25z"/>
<path d="M7055 210 c-4 -7 -3 -16 3 -22 14 -14 47 -6 47 12 0 18 -40 26 -50
10z"/>
<path d="M7262 203 c2 -10 12 -18 23 -18 11 0 21 8 23 18 3 13 -3 17 -23 17
-20 0 -26 -4 -23 -17z"/>
</g>
</svg>
