<svg id="OBJECTS" xmlns="http://www.w3.org/2000/svg" xmlns:xlink="http://www.w3.org/1999/xlink" viewBox="0 0 172.69 122.19"><defs><style>.cls-1{font-size:23.36px;font-family:Roboto-Bold, Roboto;font-weight:700;}.cls-1,.cls-2{fill:#2f5374;}.cls-2{font-size:10.94px;font-family:Roboto-Regular, Roboto;letter-spacing:0.09em;}.cls-3{letter-spacing:0.1em;}.cls-4{letter-spacing:0.07em;}.cls-5{letter-spacing:0.1em;}.cls-6{fill:url(#Unknown_gradient_7);}.cls-7{fill:url(#Unknown_gradient_43);}.cls-8{fill:url(#Unknown_gradient_12);}.cls-9{fill:url(#Unknown_gradient_40);}.cls-10{fill:url(#Unknown_gradient_12-2);}.cls-11{fill:url(#Unknown_gradient_12-3);}.cls-12{fill:url(#Unknown_gradient_7-2);}.cls-13{fill:url(#Unknown_gradient_12-4);}.cls-14{fill:#2e517f;}.cls-15{fill:url(#Unknown_gradient_40-2);}</style><linearGradient id="Unknown_gradient_7" x1="385.05" y1="68.08" x2="464.27" y2="68.08" gradientTransform="matrix(-1, 0, 0, 1, 504.87, 0)" gradientUnits="userSpaceOnUse"><stop offset="0" stop-color="#62a063"/><stop offset="0.91" stop-color="#91d135"/></linearGradient><linearGradient id="Unknown_gradient_43" x1="137.97" y1="1.86" x2="49.42" y2="94.34" gradientUnits="userSpaceOnUse"><stop offset="0.21" stop-color="#fff" stop-opacity="0"/><stop offset="1" stop-color="#94ddd4"/></linearGradient><linearGradient id="Unknown_gradient_12" x1="352.75" y1="76.64" x2="410.94" y2="76.64" gradientTransform="matrix(-1, 0, 0, 1, 504.87, 0)" gradientUnits="userSpaceOnUse"><stop offset="0.29" stop-color="#4576ae"/><stop offset="1" stop-color="#2f5374"/></linearGradient><linearGradient id="Unknown_gradient_40" x1="49.98" y1="16.56" x2="91.87" y2="94.51" gradientUnits="userSpaceOnUse"><stop offset="0.1" stop-color="#4576ae"/><stop offset="1" stop-color="#94ddd4"/></linearGradient><linearGradient id="Unknown_gradient_12-2" x1="352.75" y1="47.48" x2="410.94" y2="47.48" xlink:href="#Unknown_gradient_12"/><linearGradient id="Unknown_gradient_12-3" x1="352.75" y1="77.86" x2="410.94" y2="77.86" xlink:href="#Unknown_gradient_12"/><linearGradient id="Unknown_gradient_7-2" x1="383.64" y1="48.7" x2="462.86" y2="48.7" xlink:href="#Unknown_gradient_7"/><linearGradient id="Unknown_gradient_12-4" x1="352.75" y1="55.14" x2="410.94" y2="55.14" xlink:href="#Unknown_gradient_12"/><linearGradient id="Unknown_gradient_40-2" x1="80.76" y1="91.7" x2="142.83" y2="91.7" xlink:href="#Unknown_gradient_40"/></defs><text class="cls-1" transform="translate(0 102.53)"><tspan xml:space="preserve"> Company Name</tspan></text><text class="cls-2" transform="translate(25.3 119.22)">Y<tspan class="cls-3" x="7.51" y="0">OUR S</tspan><tspan class="cls-4" x="43.55" y="0">L</tspan><tspan class="cls-5" x="50.18" y="0">OGAN HERE</tspan></text><path class="cls-6" d="M40.6,106.51,77.3,40a22.73,22.73,0,0,1,38.12,0l4.4,6.78a31.91,31.91,0,0,0-25.89,16.7l-6.11,9.41c-9.56,14.73-25.94,33.62-43.5,33.62Z" transform="translate(-7.6 -26)"/><path class="cls-7" d="M83.38,49.56c7.71-13.2,26.25-13.78,36-2.73l.32,0L115.33,40a22.73,22.73,0,0,0-38.12,0l-36.7,66.5H41C44,104.56,57.38,94.05,83.38,49.56Z" transform="translate(-7.6 -26)"/><path class="cls-8" d="M119.82,46.78l30.37,56.75,1.93,3H148.4c-17.57,0-33.94-18.89-43.51-33.62L96.36,59.75l-2.43,3.73A31.91,31.91,0,0,1,119.82,46.78Z" transform="translate(-7.6 -26)"/><path class="cls-9" d="M58.73,68.23,65.59,55.8c-6.1-8.18-7.2-14.21-4.38-18.69,2.22-3.53,7.33-4.9,14.31-4.36a18.06,18.06,0,0,0,10.06-2.39l0,0C60.54,23.67,40.82,24.54,36.49,34,32.58,42.56,41,54.91,58.73,68.23Z" transform="translate(-7.6 -26)"/><path class="cls-10" d="M119.82,46.78l-.15,0,.9,1.38Z" transform="translate(-7.6 -26)"/><path class="cls-11" d="M97.83,62l7.06,10.87c9.57,14.73,25.94,33.62,43.51,33.62h3.72l-1.93-3L121.12,49.21A31.86,31.86,0,0,0,97.83,62Z" transform="translate(-7.6 -26)"/><path class="cls-12" d="M121.23,49.2l-.66-1,.55,1Z" transform="translate(-7.6 -26)"/><path class="cls-13" d="M93.93,63.48l2.43-3.73L97.83,62a31.86,31.86,0,0,1,23.29-12.81l-.55-1-.9-1.38A31.87,31.87,0,0,0,93.93,63.48Z" transform="translate(-7.6 -26)"/><path class="cls-14" d="M93.93,63.48l2.43-3.73L97.83,62a31.86,31.86,0,0,1,23.29-12.81l-.55-1-.9-1.38A31.87,31.87,0,0,0,93.93,63.48Z" transform="translate(-7.6 -26)"/><path class="cls-15" d="M102.17,87.57A173.77,173.77,0,0,1,87.79,77.48c-1.45,2.14-3,4.33-4.71,6.51q6.47,3.51,13.52,6.75c16.45,7.52,32.72,12.84,46.22,15.17C131.33,103.22,116.68,96.7,102.17,87.57Z" transform="translate(-7.6 -26)"/></svg>