<svg id="Layer_1" data-name="Layer 1" xmlns="http://www.w3.org/2000/svg" viewBox="0 0 238.16 105.5"><defs><style>.cls-1{fill:#141515;}.cls-2{fill:#ea3118;fill-rule:evenodd;}</style></defs><path class="cls-1" d="M44.81,107.33l-1.67-1.61a3.44,3.44,0,0,1-2.51,1,3.41,3.41,0,0,1-2.5-1,3.48,3.48,0,0,1-1-2.53,3.35,3.35,0,0,1,1-2.5,3.22,3.22,0,0,1,2.5-1,3.32,3.32,0,0,1,2.51,1L44.81,99a6,6,0,0,0-4.18-1.77h0a5.92,5.92,0,0,0-5.87,5.92,5.89,5.89,0,0,0,1.7,4.14,5.7,5.7,0,0,0,4.17,1.74,6.1,6.1,0,0,0,4.18-1.74ZM62.27,97.27a6,6,0,0,0-5.89,5.92,5.86,5.86,0,0,0,1.72,4.14,5.75,5.75,0,0,0,4.17,1.74,5.51,5.51,0,0,0,4.17-1.74,5.83,5.83,0,0,0,1.73-4.14,6,6,0,0,0-5.9-5.92Zm0,2.38a3.25,3.25,0,0,1,2.5,1,3.35,3.35,0,0,1,1,2.5,3.14,3.14,0,0,1-1,2.44,3.2,3.2,0,0,1-2.5,1,3.16,3.16,0,0,1-2.49-1,3.23,3.23,0,0,1-1.05-2.44,3.35,3.35,0,0,1,1.05-2.5,3.23,3.23,0,0,1,2.49-1ZM81,97.09v12h2.33v-4.91l3.37,4.58,3.36-4.58V109h2.3v-12l-5.66,7.81Zm24.7,12h2.37v-3.63h1.7a3.93,3.93,0,0,0,2.89-1.09,4,4,0,0,0,0-5.74,3.71,3.71,0,0,0-2.89-1.22h-4.07V109Zm5.81-7.62a1.76,1.76,0,0,1-1.74,1.77h-1.7V99.65h1.7a1.77,1.77,0,0,1,1.74,1.77ZM124,109h2.49l.77-1.76h4L132,109h2.56l-5.33-11.83Zm4.25-3.87,1-2.41,1.12,2.41Zm19.2-8.08v12h2.35v-6.52l7,6.68V97.27h-2.38v6.53Zm22.24.27L173.3,104v5h2.25v-5l3.63-6.65h-2.65l-2,4-2.14-4Z" transform="translate(-1.31 -3.7)"/><path class="cls-2" d="M40.74,63.36a7.69,7.69,0,1,1-7.67-7.54A7.57,7.57,0,0,1,40.74,63.36Z" transform="translate(-1.31 -3.7)"/><path class="cls-2" d="M3.67,96.11c-3,1.41-2.31-8.08-2.2-8.87,2.09-17.69,23.18-73,38.38-82,6.92-4.13,12.6.76,14.24,8,1,4.38,1.51,12.51,2.32,17.6C58.72,45.12,62.88,67.08,80,70c13.74,2.25,43.29-8.09,57.55-11.68,31.41-8,66.15-10.74,95.52,5.76,3.45,1.92,3.66,2,6.41,4.76-3.81-.4-4.12-.71-7.69-1.8-30.37-9.36-53.46-8.24-83.66.49-18,5.18-43.67,16.19-61.27,17.44C49.84,87.63,44.18,49.24,42.67,21c-.08-1.26-.18-2.32-.29-3.35A123.74,123.74,0,0,0,32.68,31c-6.19,9.79-31.26,55.78-29,65.08ZM45.1,15.38a2,2,0,0,0,.36-.1.92.92,0,0,0-.36.1Z" transform="translate(-1.31 -3.7)"/></svg>