<svg id="OBJECTS" xmlns="http://www.w3.org/2000/svg" xmlns:xlink="http://www.w3.org/1999/xlink" viewBox="0 0 188.88 127.86"><defs><style>.cls-1{font-size:23.36px;font-family:Roboto-Bold, Roboto;font-weight:700;}.cls-1,.cls-6{fill:#2f5374;}.cls-2{letter-spacing:-0.09em;}.cls-3{letter-spacing:0em;}.cls-4{letter-spacing:-0.01em;}.cls-5{letter-spacing:0.01em;}.cls-6{font-size:10.94px;font-family:Roboto-Regular, Roboto;letter-spacing:0.1em;}.cls-7{letter-spacing:0.09em;}.cls-8{letter-spacing:0.1em;}.cls-9{letter-spacing:0.07em;}.cls-10{fill:url(#Unknown_gradient_12);}.cls-11{fill:url(#Unknown_gradient_7);}.cls-12{fill:url(#Unknown_gradient_7-2);}.cls-13{fill:url(#Unknown_gradient_7-3);}</style><linearGradient id="Unknown_gradient_12" x1="645.42" y1="329.9" x2="614.59" y2="375.26" gradientUnits="userSpaceOnUse"><stop offset="0.29" stop-color="#4576ae"/><stop offset="1" stop-color="#2f5374"/></linearGradient><linearGradient id="Unknown_gradient_7" x1="652.27" y1="312.12" x2="604.7" y2="362.32" gradientUnits="userSpaceOnUse"><stop offset="0" stop-color="#62a063"/><stop offset="0.91" stop-color="#91d135"/></linearGradient><linearGradient id="Unknown_gradient_7-2" x1="659.72" y1="317.91" x2="601.17" y2="356.67" xlink:href="#Unknown_gradient_7"/><linearGradient id="Unknown_gradient_7-3" x1="346.22" y1="315.29" x2="425.44" y2="315.29" gradientTransform="translate(978 676.46) rotate(180)" xlink:href="#Unknown_gradient_7"/></defs><text class="cls-1" transform="translate(0 109.08)"><tspan xml:space="preserve"> COM</tspan><tspan class="cls-2" x="57.69" y="0">P</tspan><tspan class="cls-3" x="70.72" y="0">A</tspan><tspan class="cls-4" x="86.44" y="0">N</tspan><tspan x="102.61" y="0">Y </tspan><tspan class="cls-5" x="122.87" y="0">N</tspan><tspan x="139.57" y="0">AME</tspan></text><text class="cls-6" transform="translate(31.01 124.9)"> <tspan class="cls-7" x="3.8" y="0">Y</tspan><tspan class="cls-8" x="11.32" y="0">OUR S</tspan><tspan class="cls-9" x="47.35" y="0">L</tspan><tspan x="53.99" y="0">OGAN HERE</tspan></text><path class="cls-10" d="M663.29,329l.79-1.22h-3.72a51.87,51.87,0,0,0-43.5,23.62l-8.54,13.13-2.42-3.73a31.88,31.88,0,0,0,25.74,16.69Z" transform="translate(-520.16 -310.32)"/><path class="cls-11" d="M672,315.57l3.43-5.25-19.06.29c-25.08,1.25-44.09,13.75-58.13,38.24l-13.41,24,4.54,2.54,13.4-23.95c13.07-22.8,30.69-34.45,53.77-35.61Z" transform="translate(-520.16 -310.32)"/><path class="cls-12" d="M666.27,324.41l3.43-5.26c-4.92.08-11.92.2-14.7.28-17.86.54-34.64,10.66-44.85,27l-10.74,16.4,4.35,2.85,10.77-16.45c9.18-14.72,24.75-24.15,40.63-24.63C657.3,324.57,662,324.48,666.27,324.41Z" transform="translate(-520.16 -310.32)"/><path class="cls-13" d="M552.56,327.75l36.7,56.5a22.72,22.72,0,0,0,38.12,0l4.4-6.78a31.86,31.86,0,0,1-25.88-16.7l-6.11-9.4a51.88,51.88,0,0,0-43.51-23.62Z" transform="translate(-520.16 -310.32)"/></svg>