<svg id="Layer_1" data-name="Layer 1" xmlns="http://www.w3.org/2000/svg" viewBox="0 0 218.78 119.65"><defs><style>.cls-1{fill:#141515;}.cls-2{fill:#ea3118;}.cls-3{fill:#dd2a1b;fill-rule:evenodd;}</style></defs><path class="cls-1" d="M20.94,63.53l-1.35-1.28a2.94,2.94,0,0,1-2,.78,3,3,0,0,1-2-.78,2.89,2.89,0,0,1-.81-2,2.83,2.83,0,0,1,.81-2.07,2.73,2.73,0,0,1,2-.8,2.74,2.74,0,0,1,2,.8l1.35-1.29a4.68,4.68,0,0,0-3.38-1.45h0a4.39,4.39,0,0,0-3.39,1.45,4.45,4.45,0,0,0-1.38,3.36A4.8,4.8,0,0,0,17.56,65a4.82,4.82,0,0,0,3.38-1.43Zm14.19-8.14a4.41,4.41,0,0,0-3.38,1.45,4.52,4.52,0,0,0-1.4,3.36,4.63,4.63,0,0,0,1.4,3.33A4.73,4.73,0,0,0,35.13,65a4.37,4.37,0,0,0,3.39-1.43,4.59,4.59,0,0,0,1.4-3.33,4.48,4.48,0,0,0-1.4-3.36,4.39,4.39,0,0,0-3.39-1.45Zm0,1.94a2.71,2.71,0,0,1,2,.8A2.82,2.82,0,0,1,38,60.2a2.59,2.59,0,0,1-.85,2,2.75,2.75,0,0,1-2,.86,2.66,2.66,0,0,1-2-.86,2.6,2.6,0,0,1-.86-2,2.76,2.76,0,0,1,.86-2.07,2.64,2.64,0,0,1,2-.8Zm15.25-2.1v9.68h1.88V61L55,64.69,57.72,61v3.95h1.89V55.23L55,61.56Zm20.05,9.68h1.92V62h1.38a3.1,3.1,0,0,0,2.35-.91,3,3,0,0,0,1-2.33,3.18,3.18,0,0,0-1-2.31,3,3,0,0,0-2.35-1h-3.3v9.47Zm4.73-6.16a1.48,1.48,0,0,1-1.43,1.45H72.35V57.33h1.38a1.45,1.45,0,0,1,1.43,1.42Zm10.08,6.16h2l.63-1.43h3.23l.65,1.43h2.06L89.53,55.3Zm3.44-3.12.85-2,.87,2Zm15.61-6.56v9.68h1.9V59.69l5.69,5.36V55.42H110v5.23Zm18.06.21,2.94,5.42v4h1.84v-4l2.94-5.42h-2.15l-1.68,3.25-1.73-3.25Z" transform="translate(-12.79 -0.31)"/><ellipse class="cls-2" cx="216.67" cy="54.93" rx="2.11" ry="2.06"/><path class="cls-3" d="M139.72,119.79c-3.68,1.72-3.68-10.66-3.62-12.72,1.1-22.51,17.48-85.82,32.46-102,7.5-8,15.69-5.57,19.24,4.5,2.21,6.34,4.81,21.93,5.84,30.74.86.16,1.69.29,2.5.45,6.72,1.38,20.06,5.4,25.62,8.66l2.7,2a22.85,22.85,0,0,1-6.4-.86c-7-1.51-15.59-3.46-23.88-4.29,1,13.83,1.72,43.47-15,44.38-13.43.74-22.95-19.34-22.06-31.46,1.1-14.18,11.79-19,23.54-19.65-1.23-10.25-2.8-21.43-4.25-26.31-.46.5-.93,1.07-1.3,1.49-12.87,15.93-31.21,71.69-35.23,92.8-.71,3.75-2,8.75-.15,12.28Zm41.66-73.53c-1.4.18-2.7.43-4,.72-14,3.46-13.76,15.84-7.21,26.05,1.25,1.92,6.2,8,8.48,6.89,3.85-1.83,4-17,3.76-21-.05-2.05-.47-6.83-1.06-12.7Zm-3.33-34.47s.07,0,.09-.06-.07,0-.09.06Z" transform="translate(-12.79 -0.31)"/></svg>