<?xml version="1.0" encoding="utf-8"?>
<!-- Generator: Adobe Illustrator 25.4.1, SVG Export Plug-In . SVG Version: 6.00 Build 0)  -->
<svg version="1.1" id="Layer_1" xmlns="http://www.w3.org/2000/svg" xmlns:xlink="http://www.w3.org/1999/xlink" x="0px" y="0px"
	 viewBox="0 0 320 200" style="enable-background:new 0 0 320 200;" xml:space="preserve">
<g transform="translate(0.000000,320.000000) scale(0.100000,-0.100000)">
	<path d="M1518,3133c-22.8-8.9-46.9-43.1-46.9-67.1c0-61.4,60.2-96.9,114.6-68.4c19.6,10.1,37.4,41.8,37.4,66.5
		C1623.1,3114.7,1566.1,3152.7,1518,3133z"/>
	<path d="M959.5,2996.9c1.9-130.4,1.9-133,15.2-134.9c12-1.9,13.9,1.9,17.7,38c2.5,22.2,3.8,74.7,3.2,117.1
		c-1.3,76-1.9,77.9-19.6,95l-17.7,17.1L959.5,2996.9z"/>
	<path d="M1022.8,2965.9l1.9-100l100-0.6c54.5-0.6,98.8,0,98.1,1.9c-1.3,1.9-46.9,46.9-101.9,100.7l-100,98.1L1022.8,2965.9z"/>
	<path d="M1110.2,3018.4c0-1.9,7-10.1,15.2-17.7c15.2-13.9,17.1-13.9,167.8-12.7l153.2,1.9l-14.6,13.9
		c-13.9,13.9-18.4,14.6-168.4,16.5C1179.2,3021.6,1110.2,3020.3,1110.2,3018.4z"/>
	<path d="M1173.5,2954.5c0-2.5,7-9.5,15.2-14.6c13.3-8.9,40.5-10.8,167.8-11.4c84.2-0.6,152.6,0.6,152.6,2.5s-5.7,8.9-12.7,15.2
		c-10.8,9.5-28.5,10.8-167.8,12C1243.2,2958.3,1173.5,2957,1173.5,2954.5z"/>
	<path d="M654.3,2791.1V2667l63.3-62.7l64-62.7l126.6-1.9c69.7-0.6,126,1.3,124.7,3.8c-1.3,3.2-60.2,62.1-131.7,130.4
		c-71.6,69-156.4,151.3-188.1,183.6l-58.9,57.6V2791.1z"/>
	<path d="M1639,2892.4l18.4-19H1822h164l118.4-117.1l118.4-116.5h55.1h54.5v136.1v135.5h-355.9h-355.9L1639,2892.4z"/>
	<path d="M1287.5,2843.7c0-2.5,5.7-10.8,13.3-18.4l13.3-13.9l240.6,3.2l240.6,3.8l88-88l88-88h41.2c22.8,0,40.5,2.5,39.3,5.1
		c-0.6,3.2-45,48.8-98.8,101.9l-96.9,96.9l-284.3,0.6C1415.4,2846.8,1287.5,2845.6,1287.5,2843.7z"/>
	<path d="M818.9,2816.4v-19h212.1h212.1v19v19h-212.1H818.9V2816.4z"/>
	<path d="M2005.6,2790.5c-3.8-7,12.7-26,95-107.6c31.7-31,48.1-43.1,58.9-42.4c8.2,0.6,14.6,3.2,14.6,5.1c0,7-150.1,152-157,152
		C2013.2,2797.4,2008.1,2794.3,2005.6,2790.5z"/>
	<path d="M1350.8,2782.2c0-1.3,14.6-14.6,32.3-29.8l31.7-26.6l24.7,24.1c13.9,13.3,23.4,26.6,21.5,29.8
		C1457.9,2784.8,1350.8,2787.3,1350.8,2782.2z"/>
	<path d="M859.5,2753.8c15.8-15.2,20.9-16.5,75.4-16.5c32.3,0,107-0.6,167.2-1.3l108.9-1.9l1.9-45.6c1.9-43.1,3.2-46.2,16.5-46.9
		s13.9,0.6,13.9,65.2v65.9l-200.1-1.3l-200.1-1.3L859.5,2753.8z"/>
	<path d="M1412.9,2679c-39.3-38-88.6-85.5-109.5-105.1l-37.4-34.8l88,1.3l88.6,1.9l3.2,49.4l3.2,49.4l71.6,0.6
		c38.6,0,70.9,0.6,70.9,2.5c0,1.3-3.8,5.7-8.2,9.5c-5.1,4.4-29.1,27.2-53.8,51.3l-45,44.3L1412.9,2679z"/>
	<path d="M546.7,2639.8v-102.6l14.6,1.9c13.3,1.9,13.9,4.4,15.8,88c1.9,84.2,1.3,85.5-14.6,100.7l-15.8,14.6V2639.8z"/>
	<path d="M654.3,2583.4v-46.2l41.2,1.9c22.8,0.6,41.2,3.2,41.2,5.1s-18.4,22.2-41.2,44.3l-41.2,40.5V2583.4z"/>
	<path d="M1477.5,2576.5v-36.7l341.9,0.6c188.1,0.6,341.9,1.9,341.9,3.8s-16.5,17.7-36.1,36.1l-36.7,32.9l-305.2,0.6h-305.8V2576.5z
		"/>
	<path d="M2254.4,2542.9c65.2-64.6,72.2-70.3,81.1-61.4c9.5,8.9,4.4,15.8-53.8,70.9c-48.1,46.2-69,61.4-81.1,61.4
		C2185.4,2613.8,2191.8,2606.2,2254.4,2542.9z"/>
	<path d="M26.2,2556.8l2.5-19l241.9,1.9l241.3,1.3l1.9,17.7l1.9,17.1H269.3H23L26.2,2556.8z"/>
	<path d="M268.1,2507.4c-0.6-2.5,53.2-56.4,118.4-119.7l119-115.2l148.8-0.6h149.4l37.4,38c34.8,35.5,38,37.4,48.8,27.2
		c10.8-9.5,11.4-8.9,11.4,17.7c0,27.2-1.9,30.4-65.2,93.1l-65.2,65.2l-251.4-0.6C381.4,2511.9,268.1,2510,268.1,2507.4z"/>
	<path d="M871.5,2450.4l61.4-61.4l44.3,44.3l43.7,43.7l16.5-15.2l15.8-14.6v28.5c0,21.5-2.5,30.4-10.8,32.9
		c-5.7,2.5-60.2,3.8-120.9,3.8l-110.8-1.3L871.5,2450.4z"/>
	<path d="M1084.9,2455.5c0-31,1.9-57,4.4-57c2.5,0,29.8,24.7,60.2,55.1l55.1,54.5l23.4-26c12.7-14.6,26.6-26.6,31-26.6
		c7.6,0,53.8,45,53.8,52.6c0,2.5-51.3,4.4-114,4.4h-114V2455.5z"/>
	<path d="M1440.1,2439c39.3-39.9,73.5-69.7,76-67.1c1.9,2.5,8.2,15.8,13.9,30.4l9.5,25.3l-43.1,42.4l-43.1,43.1l-42.4-1.3l-42.4-1.3
		L1440.1,2439z"/>
	<path d="M1502.8,2506.2c0-6.3,47.5-50.7,54.5-50.7c3.8,0,15.8,10.1,27.9,22.2s25.3,22.2,29.8,22.2s8.2,1.9,8.2,5.1
		c0,2.5-27.2,4.4-60.2,4.4S1502.8,2508.1,1502.8,2506.2z"/>
	<path d="M1762.4,2508.7c0-1.3,8.2-6.3,19-12c10.1-5.1,29.1-18.4,41.2-29.1l22.2-19.6v30.4v31l-41.2,0.6
		C1780.8,2510.6,1762.4,2510,1762.4,2508.7z"/>
	<path d="M1879.6,2504.9c-1.3-4.4-3.2-29.1-5.1-54.5c-1.9-32.9-0.6-47.5,5.1-50.7c4.4-2.5,102.6-96.9,217.8-209l209.6-205.2
		l32.9,32.3l33.6,31.7l-174.1,169.1c-95.6,93.7-202.6,197.6-236.8,231.8C1901.1,2510.6,1885.3,2521.4,1879.6,2504.9z"/>
	<path d="M1946.7,2506.2c0.6-1.9,65.2-65.9,144.4-142.5l143.1-139.3l101.3-1.3c55.7-1.3,112.1,0.6,126,3.2l24.7,4.4l-144.4,141.8
		l-144.4,141.2l-125.4-1.9C2002.4,2510.6,1946.7,2508.1,1946.7,2506.2z"/>
	<path d="M1311.6,2463.1l-29.8-30.4l235.6-234.9l235.6-235.6l27.2,24.7l26.6,24.1L1689,2126.9c-75.4,74.1-122.2,126-129.8,141.8
		c-7,15.8-50,63.3-112.7,125.4c-55.1,54.5-101.3,99.4-102.6,99.4C1342.6,2493.5,1328.1,2479.6,1311.6,2463.1z"/>
	<path d="M1666.8,2464.4c-53.2-15.8-94.3-74.7-94.3-134.9c0-26.6,19.6-69,41.2-89.3l15.2-14.6l98.8,93.7
		c53.8,51.3,98.1,95.6,98.1,98.1c0,11.4-40.5,38-70.9,47.5C1715.6,2476.4,1704.8,2476.4,1666.8,2464.4z"/>
	<path d="M985.5,2403l-32.9-34.2l55.1-54.5l55.7-55.1l29.8,30.4c16.5,16.5,29.8,31.7,29.8,34.2c0,1.9-10.8,14.6-24.1,27.9
		c-12.7,13.9-35.5,38-50.7,55.1c-14.6,16.5-27.2,29.8-28.5,29.8C1019,2436.5,1003.8,2421.3,985.5,2403z"/>
	<path d="M1241.9,2400.4c-10.1-9.5,4.4-25.3,224.2-241.9c129.2-127.3,238.1-232.4,242.5-233.7c3.8-1.3,11.4,2.5,15.8,8.2
		c7,8.2-24.7,41.8-228,243.8c-130.4,129.2-238.1,234.3-240.6,234.3C1254,2411.2,1247.6,2406.1,1241.9,2400.4z"/>
	<path d="M1195.7,2354.2c-10.8-12-5.1-17.7,225.4-245.7c234.9-233,236.2-233.7,248.9-222.3c12.7,12,12,13.3-221,246.3
		c-129.2,129.2-236.2,234.3-238.1,234.3C1209,2366.9,1202,2361.2,1195.7,2354.2z"/>
	<path d="M1873.9,2362.4c-1.9-2.5-3.8-8.9-3.8-14.6c0-13.3,389.4-400.8,399.6-397.7c13.9,4.4,12.7,13.9-3.2,30.4
		C2190.5,2060.4,1877,2365.6,1873.9,2362.4z"/>
	<path d="M932.9,2319.4c0-32.9-20.3-76.6-31.7-69.7c-3.8,1.9-6.3,15.2-6.3,28.5c0,13.3-1.9,26-5.1,27.9
		c-2.5,1.3-20.9-12.7-41.2-31.7l-36.1-34.2v-108.3v-108.3L900,2106c47.5,45.6,98.8,95,113.3,110.2l27.2,27.9l-53.8,53.2l-53.8,53.8
		V2319.4z"/>
	<path d="M1122.3,2280.7l-40.5-42.4l182.4-179.2l183-179.8h79.8h80.4l-218.5,220.4c-120.3,121.6-220.4,221.6-222.3,221.6
		C1164.7,2321.9,1145.1,2303.5,1122.3,2280.7z"/>
	<path d="M1872,2259.2c2.5-19,4.4-67.8,4.4-107.6v-72.8l38,39.9c20.9,22.2,38,42.4,38,44.3c-0.6,2.5-3.8,19-8.2,36.7
		c-6.3,27.2-13.3,38-41.8,63.3l-34.2,31L1872,2259.2z"/>
	<path d="M540.3,2242.1c0-1.3,7.6-8.9,17.1-17.1c15.2-13.3,22.8-14.6,96.9-15.2c72.8-0.6,81.7,0.6,100,13.3
		c10.8,7.6,20.3,15.2,20.3,17.1s-52.6,3.8-117.1,4.4C592.9,2244.7,540.3,2244,540.3,2242.1z"/>
	<path d="M1008.3,2168.7c-29.8-28.5-85.5-81.1-122.8-117.1l-69-65.2l53.2-53.2l53.8-53.8h161.5c88.6,0,164.6,2.5,169.1,5.1
		c4.4,3.2,8.2,28.5,9.5,69.7l1.3,65.2l-100.7,100.7l-101.3,100.7L1008.3,2168.7z"/>
	<path d="M147.7,2195.3c0-4.4,142.5-138.7,146.3-138.7c1.3,0,3.8,31,4.4,69l2.5,69.7l-76.6,1.9
		C181.9,2198.4,147.7,2197.2,147.7,2195.3z"/>
	<path d="M331.4,1950.2c0-245.1,0-246.3,13.3-245.1c12.7,0.6,13.3,2.5,13.9,244.4v243.2l-13.3,1.9l-13.9,1.9V1950.2z"/>
	<path d="M416.9,2185.1c1.3-6.3,2.5-117.8,2.5-247.6l0.6-236.2l14.6,1.9l13.9,1.9l1.9,245.7l1.3,245.1h-18.4
		C419.4,2195.9,415.6,2193.4,416.9,2185.1z"/>
	<path d="M1980.9,2164.2c7.6-59.5,3.2-175.4-8.9-219.7c-6.3-23.4-13.3-48.1-16.5-53.8c-4.4-10.8,3.8-11.4,117.8-11.4h122.8
		l25.3,22.2l25.3,21.5L2112,2057.9l-134.9,134.9L1980.9,2164.2z"/>
	<path d="M656.8,2079.4c1.9-17.1,3.8-69,3.8-115.2v-84.9h107.6c59.5,0,107.6,1.3,107.6,2.5c0,1.9-50,53.8-111.4,115.9L653,2110.4
		L656.8,2079.4z"/>
	<path d="M532.7,2057.9l-49.4-1.9v-143.7v-143.7l72.8-0.6c61.4-0.6,73.5,1.3,76,9.5c1.9,5.7,1.9,70.3,0,143.1l-3.2,133l-23.4,3.2
		C592.3,2058.5,559.3,2059.1,532.7,2057.9z"/>
	<path d="M1846.7,2030l-17.1-18.4l48.8-48.1c31-31.7,50.7-46.9,54.5-43.1c7,7,29.8,115.9,25.3,119.7c-1.3,1.3-22.8,3.8-48.1,5.1
		C1866.3,2048.4,1863.1,2047.7,1846.7,2030z"/>
	<path d="M2357,1995.8c-7-8.9-3.8-13.9,23.4-39.3c17.1-16.5,74.1-71.6,127.3-122.8c53.2-51.9,98.8-93.7,101.3-93.7
		c2.5,0,9.5,2.5,14.6,5.7c7,5.1-19,33.6-116.5,128.5c-69,67.1-129.2,124.1-133.6,126.6C2369.1,2004,2362.1,2001.5,2357,1995.8z"/>
	<path d="M1369.8,1895.1c0-12.7,3.2-15.8,15.8-15.8c19,0,19.6,2.5,3.2,19C1372.4,1914.7,1369.8,1914.1,1369.8,1895.1z"/>
	<path d="M813.9,1779.9c1.9-66.5,3.2-74.7,13.3-74.1c5.7,0.6,61.4,1.3,123.5,1.9l112.1,0.6l-76,72.8l-76,72.2l-49.4,0.6H812
		L813.9,1779.9z"/>
	<path d="M1128,1849.5c-10.1-2.5-11.4-11.4-11.4-70.9c0-37.4,1.3-69.7,2.5-70.9c1.3-1.3,35.5-1.9,76-0.6l73.5,1.9v72.8v72.2
		l-64.6-0.6C1167.8,1852.7,1133.7,1851.4,1128,1849.5z"/>
	<path d="M1306.5,1782.4c0-39.9,1.9-73.5,3.8-75.4c1.9-1.9,8.9-2.5,15.8-0.6c10.8,3.2,12,9.5,12,75.4v72.2h-15.8h-15.8V1782.4z"/>
	<path d="M1369.8,1782.4c0-39.9,1.3-73.5,2.5-74.7c1.3-1.3,27.2-1.3,57,0.6c51.9,3.2,55.1,4.4,76.6,25.3l22.2,22.2l-46.9,49.4
		c-46.9,48.1-47.5,48.8-79.2,48.8h-32.3V1782.4z"/>
	<path d="M1477.5,1849.5c0-3.8,71.6-68.4,76-68.4c5.1,0,76,61.4,76,66.5c0,1.9-34.2,3.2-76,3.2
		C1511.7,1850.8,1477.5,1850.2,1477.5,1849.5z"/>
	<path d="M1680.1,1850.8c0-3.2,83-82.3,87.4-83.6c2.5-0.6,9.5,2.5,15.8,7c10.8,8.2,8.9,11.4-24.7,42.4c-27.2,26.6-40.5,34.2-57,35.5
		C1689.6,1852.1,1680.1,1852.1,1680.1,1850.8z"/>
	<path d="M1786.5,1833.1c18.4-19,23.4-20.9,58.9-20.3c34.2,0.6,39.9,1.9,47.5,15.8c4.4,8.9,8.2,17.7,8.9,20.9
		c0,2.5-30.4,4.4-67.8,4.4h-67.8L1786.5,1833.1z"/>
	<path d="M1930.2,1840c-5.1-8.2-9.5-16.5-9.5-19c0-3.2,19-5.1,42.4-5.1h42.4l-17.1,17.7C1967,1855.9,1943.5,1858.4,1930.2,1840z"/>
	<path d="M2009.4,1848.3c0.6-1.9,10.1-10.8,21.5-19.6l20.9-15.8l198.2,1.9l198.8,1.9l-17.1,17.1l-17.1,17.1l-202.6,0.6
		C2100.6,1852.1,2009.4,1850.8,2009.4,1848.3z"/>
	<path d="M1879.6,1765.3c-13.3-13.9-23.4-26-21.5-26.6c1.3-1.3,27.2-25.3,57-53.8l55.1-52.6h68.4h69l-79.2,79.2
		c-71.6,71.6-81.1,79.2-101.3,79.2C1908.7,1790.6,1899.2,1785.6,1879.6,1765.3z"/>
	<path d="M2093,1703.3c391.3-379.3,406.5-393.2,418.6-386.9c6.3,3.8,10.8,8.2,9.5,10.8c-1.9,3.8-354,347-445.1,433.1
		c-24.7,23.4-36.7,30.4-52.6,30.4C2003.7,1790.6,2006.2,1787.5,2093,1703.3z"/>
	<path d="M692.3,1726c0-14.6,2.5-17.7,16.5-17.7c13.9,0,15.8,2.5,13.9,17.1c-1.3,12-5.7,17.1-15.8,17.7
		C694.8,1743.8,692.3,1741.2,692.3,1726z"/>
	<path d="M1535.1,1720.4c-19-15.2-17.1-17.1,17.1-13.3c26.6,2.5,26.6,3.2,16.5,14.6C1555.4,1736.2,1554.1,1736.2,1535.1,1720.4z"/>
	<path d="M1811.8,1698.8l-23.4-21.5l115.2-110.8c107.6-103.2,114.6-111.4,104.5-121.6c-9.5-9.5-17.7-3.2-122.8,100l-112.7,110.8
		l-54.5-44.3l-55.1-45l84.2-81.1l84.2-81.7l146.3,0.6l146.9,0.6l72.2-70.3c63.3-60.8,74.1-68.4,82.3-60.8c5.1,5.1,8.9,10.1,8.9,11.4
		c0,3.2-443.9,431.9-448.9,433.8C1837.2,1719.7,1824.5,1710.9,1811.8,1698.8z"/>
	<path d="M482.1,1679.2c-3.2-2.5-5.1-31-5.1-64v-58.9h123.5h124.1l-1.9,61.4l-1.9,62.1l-117.1,1.9
		C539.1,1683,484.6,1681.7,482.1,1679.2z"/>
	<path d="M1426.2,1677.9l-48.8-1.9l107.6-105.7c58.9-58.3,110.2-107,113.3-107.6c3.8-1.3,14.6,6.3,25.3,17.1
		c10.1,10.8,20.3,19.6,22.8,19.6c1.9,0,27.2-22.8,55.7-50c42.4-40.5,55.1-49.4,67.1-46.9c12,3.2-3.2,20.3-124.7,140.6
		c-105.7,104.5-142.5,136.8-154.5,136.8C1481.3,1679.8,1452.8,1679.2,1426.2,1677.9z"/>
	<path d="M1628.2,1677.9c-41.2-0.6-74.1-3.8-74.1-6.3c0.6-2.5,20.3-22.8,44.3-45l43.1-39.9l27.2,20.9c15.2,11.4,32.3,26,38.6,32.3
		c6.3,6.3,18.4,15.8,26.6,21.5C1764.3,1681.1,1764.3,1681.1,1628.2,1677.9z"/>
	<path d="M920.3,1540.5v-136.1l226.7,0.6H1373l-139.3,135.5l-139.3,136.1h-86.8h-87.4V1540.5z"/>
	<path d="M1468,1509.5c94.3-92.4,172.2-167.8,174.1-167.8c1.9-0.6,7,1.9,12,5.1c7,4.4-31,45-154.5,166.5
		c-134.9,133-166.5,160.2-183,162.1C1298.9,1676.7,1316,1658.9,1468,1509.5z"/>
	<path d="M1245.7,1606.4c-4.4-7.6,135.5-151.3,259-266.6c53.8-50.7,69.7-62.1,76-56.4c5.7,6.3-27.2,42.4-156.4,169.1
		c-90.5,88.6-166.5,160.8-169.1,160.8S1248.3,1610.2,1245.7,1606.4z"/>
	<path d="M692.3,1463.9c0-58.9,0.6-60.2,14.6-58.3c13.3,1.9,13.9,5.1,15.8,60.8l1.3,58.3h-15.8
		C692.3,1524.7,692.3,1524.7,692.3,1463.9z"/>
</g>
</svg>
