<?xml version="1.0" standalone="no"?>
<!DOCTYPE svg PUBLIC "-//W3C//DTD SVG 20010904//EN"
 "http://www.w3.org/TR/2001/REC-SVG-20010904/DTD/svg10.dtd">
<svg version="1.0" xmlns="http://www.w3.org/2000/svg"
 width="1024.000000pt" height="1024.000000pt" viewBox="0 0 1024.000000 1024.000000"
 preserveAspectRatio="xMidYMid meet">

<g transform="translate(0.000000,1024.000000) scale(0.100000,-0.100000)"
fill="#000000" stroke="none">
<path d="M423 10215 l27 -24 -2 -643 -3 -643 -65 -5 c-63 -5 -66 -7 -61 -40 0
-5 30 -10 66 -10 l65 0 -2 -1482 -3 -1483 -72 -3 c-70 -3 -73 -4 -73 -27 0
-24 2 -25 75 -25 l75 0 0 -1295 0 -1295 -75 0 c-73 0 -75 -1 -75 -25 0 -24 2
-25 75 -25 l75 0 -2 -1297 -3 -1298 -83 -5 c-45 -3 -82 -8 -82 -12 0 -5 0 -17
0 -28 0 -18 7 -20 85 -20 l85 0 0 -115 c0 -108 1 -115 20 -115 19 0 20 7 20
115 l0 115 1135 0 1135 0 0 -115 c0 -108 1 -115 20 -115 18 0 20 7 20 84 0 46
3 98 6 115 l7 31 768 0 769 0 0 -60 c0 -53 2 -60 20 -60 18 0 20 7 20 60 l0
60 1415 0 1415 0 0 -77 c0 -114 8 -152 31 -150 17 1 19 11 19 114 l0 113 300
0 299 0 3 -113 c3 -104 4 -112 23 -112 19 0 20 8 23 113 l3 112 1049 0 1050 0
0 -47 c0 -27 3 -78 7 -116 5 -56 9 -67 24 -67 17 0 19 10 19 115 l0 115 85 0
c84 0 85 0 85 25 0 24 -2 25 -75 25 -63 0 -76 3 -85 20 -7 13 -9 202 -8 572
l3 553 83 3 c79 3 82 4 82 27 0 23 -3 24 -82 27 l-83 3 -3 2023 -2 2022 69 0
c82 0 101 6 101 31 0 17 -8 19 -79 19 l-78 0 -6 53 c-2 28 -3 54 -1 56 2 2 20
5 41 5 126 6 123 5 123 26 0 17 -8 19 -82 22 l-83 3 -3 2098 -2 2097 -25 0
-25 0 0 -1932 c0 -1845 0 -1933 -17 -1930 -30 6 -217 84 -231 97 -10 9 -13
295 -13 1469 l0 1457 -22 -3 -22 -3 -3 -1445 c-1 -794 -5 -1446 -7 -1448 -3
-3 -140 45 -153 54 -2 2 -3 518 -3 1148 l2 1146 -26 0 -25 0 0 -585 0 -585
-105 0 -105 0 -2 758 c-1 416 0 979 1 1250 l4 492 -27 0 -26 0 0 -385 0 -385
-295 0 -295 0 0 415 0 415 -22 0 c-23 0 -23 -2 -23 -132 0 -73 -1 -260 -2
-415 l-3 -283 -120 0 -120 0 0 415 0 415 -25 0 -25 0 0 -415 0 -415 -30 0 -30
0 0 415 0 415 -25 0 -25 0 0 -415 0 -415 -140 0 -140 0 0 385 0 385 -25 0 -25
0 0 -385 0 -385 -247 2 -248 3 -3 318 c-2 309 -3 317 -22 317 -20 0 -20 -7
-20 -320 l0 -320 -30 0 -30 0 0 415 0 415 -22 0 c-22 0 -23 -4 -23 -77 0 -43
-1 -230 -3 -415 l-2 -338 -130 0 -130 0 0 280 0 280 -22 0 c-23 0 -23 -1 -20
-137 2 -76 1 -202 -3 -280 l-7 -143 -159 0 -159 0 0 325 0 325 -25 0 -25 0 0
-325 0 -325 -25 0 -25 0 -2 288 c-1 158 -1 344 1 415 l3 127 -26 0 -26 0 0
-415 0 -415 -615 0 -615 0 0 275 0 275 -25 0 -25 0 0 -275 0 -275 -130 0 -130
0 0 385 c0 378 0 385 -20 385 -20 0 -20 -7 -20 -385 l0 -385 -235 0 -235 0 0
123 0 123 115 108 c64 60 114 113 112 119 -2 6 -10 15 -18 20 -10 6 -37 -14
-104 -81 -49 -49 -166 -162 -260 -251 l-169 -161 -793 0 -793 0 0 385 0 385
-25 0 -25 0 0 -385 0 -385 -308 0 -308 0 -45 -37 c-24 -20 -63 -54 -86 -76
l-42 -40 -73 61 c-359 299 -497 415 -869 735 -211 180 -221 187 -261 187 l-43
-1 28 -24z m308 -260 c118 -99 277 -234 354 -300 193 -165 593 -500 739 -618
67 -54 130 -107 141 -117 19 -20 14 -20 -723 -20 l-742 0 0 621 c0 374 4 619
9 617 5 -1 105 -84 222 -183z m3609 -455 l0 -90 -96 0 c-53 0 -94 4 -92 9 2 4
39 41 83 82 44 40 82 77 83 81 2 4 8 8 13 8 5 0 9 -40 9 -90z m-1910 -326 l0
-186 -29 7 c-102 22 -673 254 -669 271 2 7 25 30 53 53 l50 41 297 0 298 0 0
-186z m1570 171 c-19 -22 -162 -161 -269 -259 l-95 -86 -578 0 -578 0 0 180 0
180 766 0 c680 0 765 -2 754 -15z m340 -165 l0 -180 -312 0 -313 0 179 173
c99 94 188 175 200 179 12 3 72 6 134 7 l112 1 0 -180z m820 -50 l0 -230 -385
0 -385 0 0 230 0 230 385 0 385 0 0 -230z m2060 172 l0 -57 -859 0 c-473 0
-863 -3 -866 -7 -4 -4 -5 -14 -2 -23 6 -13 101 -15 867 -15 853 0 860 0 860
-20 0 -20 -8 -20 -862 -22 -820 -3 -863 -4 -863 -21 0 -17 42 -18 863 -17
l862 0 0 -25 0 -25 -992 -2 c-546 -2 -999 -1 -1005 1 -10 2 -13 40 -13 147 l0
144 1005 0 1005 -1 0 -57z m110 -173 l0 -230 -27 3 -28 3 -2 215 c-2 118 -1
221 2 228 2 6 16 12 30 12 l25 0 0 -231z m188 -193 c-3 -382 -6 -451 -23 -434
-3 3 -8 95 -12 206 -3 111 -10 199 -15 196 -5 -3 -6 -90 -2 -198 5 -141 4
-195 -5 -200 -6 -4 -11 -4 -12 1 -3 46 -10 98 -14 101 -3 3 -5 -16 -5 -41 0
-26 -5 -47 -10 -47 -8 0 -9 34 -4 105 5 75 3 105 -5 105 -7 0 -11 -35 -11
-109 0 -63 -4 -112 -10 -116 -6 -4 -10 33 -11 102 0 59 -2 250 -4 423 -1 173
0 318 2 323 2 4 36 7 74 7 l70 0 -3 -424z m351 52 c-1 -313 -10 -538 -18 -478
-1 8 -4 31 -7 50 -2 19 -8 58 -13 85 -8 45 -9 41 -10 -47 0 -53 -5 -100 -11
-103 -5 -3 -10 3 -10 14 0 11 -4 23 -10 26 -6 4 -8 61 -4 158 4 84 4 149 0
145 -4 -3 -11 -77 -16 -164 -5 -86 -13 -161 -18 -166 -6 -6 -13 58 -18 164
l-9 173 -6 -168 c-5 -156 -10 -189 -25 -175 -3 4 -9 95 -13 202 -5 108 -11
200 -15 203 -3 4 -6 -84 -6 -195 0 -111 -4 -202 -9 -202 -9 0 -21 96 -21 177
0 34 -4 52 -10 48 -5 -3 -10 -36 -11 -73 -1 -98 -12 -170 -23 -153 -11 16 -32
810 -23 834 6 15 26 17 157 17 l150 0 -1 -372z m381 363 c62 -6 65 -7 68 -35
2 -15 1 -38 -2 -50 -5 -21 -10 -21 -198 -21 l-193 0 -3 58 -3 57 133 -1 c73
-1 162 -4 198 -8z m350 -4 c0 -7 6 -22 14 -32 12 -16 16 -17 30 -6 9 7 16 22
16 32 0 18 10 19 175 19 138 0 175 -3 175 -13 0 -29 -446 -437 -477 -437 -8 0
61 73 153 163 114 111 161 163 150 165 -10 2 -57 -37 -123 -103 -58 -59 -118
-113 -132 -119 -14 -6 -59 -33 -100 -59 -40 -27 -75 -46 -77 -44 -3 2 42 38
98 80 93 69 267 231 268 250 0 4 -8 7 -19 7 -10 0 -18 -6 -17 -14 1 -13 -36
-46 -214 -194 -19 -16 -57 -46 -85 -67 l-50 -37 56 58 c92 97 153 157 200 197
44 38 44 38 -24 -7 -37 -24 -101 -81 -143 -125 -46 -49 -88 -84 -109 -91 -18
-6 -39 -18 -45 -26 -17 -19 -404 -21 -398 -1 4 9 56 13 199 17 232 6 206 20
-37 20 -137 0 -164 2 -164 14 0 13 38 15 233 18 127 2 234 0 237 -4 3 -4 18 8
32 26 25 31 27 46 7 46 -5 0 -6 -6 -3 -13 3 -8 -1 -18 -8 -24 -17 -14 -58 1
-58 21 0 8 10 16 23 19 22 4 22 4 -3 14 -25 11 -24 11 13 18 24 5 42 3 52 -5
11 -9 18 -9 30 3 25 26 18 29 -51 22 -61 -7 -66 -6 -62 11 3 17 15 19 101 22
126 4 128 22 2 22 -78 0 -95 3 -95 15 0 12 19 15 115 15 85 0 115 3 115 13 0
9 -30 12 -117 12 l-118 0 -3 58 -3 57 121 0 c92 0 120 -3 120 -13z m640 -827
l0 -840 -245 0 -245 0 2 583 3 582 123 3 122 3 0 -431 0 -430 23 0 22 0 -3
607 c-2 335 0 631 3 660 4 29 15 63 26 77 19 24 27 26 95 26 l74 0 0 -840z
m-240 560 c0 -130 -3 -172 -13 -176 -7 -2 -93 -3 -191 -2 l-178 3 133 122 c74
67 157 144 184 171 28 27 53 50 58 51 4 0 7 -76 7 -169z m-707 140 c9 0 17 -7
17 -15 0 -13 -28 -15 -195 -15 -165 0 -195 2 -195 15 0 12 25 15 143 18 78 2
158 2 177 0 19 -1 43 -3 53 -3z m-6201 -171 c202 -82 323 -136 315 -141 -6 -4
-86 -8 -177 -8 l-165 1 -86 72 c-48 40 -121 101 -163 136 -69 58 -97 92 -63
78 6 -3 159 -65 339 -138z m6218 108 c0 -4 0 -10 0 -14 0 -5 -88 -7 -195 -5
-182 3 -207 6 -187 26 9 10 382 2 382 -7z m4 -77 c3 -19 2 -37 -2 -40 -4 -3
-94 -4 -200 -2 -146 2 -192 6 -189 15 3 9 55 13 190 15 113 1 187 6 187 12 0
6 -73 10 -190 10 -166 0 -190 2 -190 16 0 13 23 15 194 12 l194 -3 6 -35z
m-1094 -62 l0 -23 -1000 -4 -1000 -4 0 21 c0 18 7 21 48 25 26 2 476 4 1000 5
l952 2 0 -22z m-2880 -88 l0 -30 -843 0 -844 0 -59 24 c-48 20 -54 25 -34 28
14 1 420 4 903 5 l877 3 0 -30z m2880 15 c0 -13 -118 -15 -1000 -15 -882 0
-1000 2 -1000 15 0 13 118 15 1000 15 882 0 1000 -2 1000 -15z m-6514 -117
c28 -21 150 -124 258 -217 28 -24 86 -77 128 -118 l78 -75 -1 -851 c0 -467 -3
-856 -6 -864 -4 -10 -42 -13 -174 -13 l-169 0 0 -25 0 -25 173 -2 172 -3 -1
-375 0 -375 -331 -3 c-260 -2 -332 0 -334 10 -2 7 -3 676 -1 1486 l2 1472 89
0 c76 0 92 -3 117 -22z m454 -151 l0 -174 -47 44 c-27 25 -112 98 -190 164
-79 66 -145 125 -148 130 -4 5 72 9 189 9 l196 0 0 -173z m1130 -277 l0 -450
-30 0 -30 0 0 380 c0 331 -2 380 -15 380 -13 0 -15 -49 -15 -380 0 -373 0
-380 -20 -380 -20 0 -20 7 -20 399 0 256 -4 402 -10 406 -7 4 -10 -132 -10
-399 0 -399 0 -406 -20 -406 -20 0 -20 7 -20 409 0 392 -3 441 -28 416 -4 -4
-6 -247 -5 -541 1 -294 1 -534 -1 -534 -6 0 -43 31 -155 131 -53 47 -154 136
-226 199 -71 62 -186 166 -255 231 -69 65 -146 135 -172 156 l-48 38 0 198 0
197 540 0 540 0 0 -450z m517 395 c284 -112 539 -211 913 -355 383 -147 588
-228 602 -236 3 -2 -18 -29 -49 -60 l-55 -55 -92 39 c-50 22 -282 116 -516
210 -234 94 -496 200 -582 235 l-158 65 0 -34 c0 -29 4 -34 23 -34 12 0 47
-12 77 -26 52 -24 152 -65 780 -319 140 -57 309 -127 375 -155 66 -29 190 -80
275 -115 371 -150 544 -221 685 -280 83 -34 184 -75 225 -90 41 -15 79 -32 84
-36 6 -5 -33 -10 -90 -11 -183 -5 -191 -4 -329 50 -174 68 -453 182 -595 242
-63 26 -221 92 -350 145 -129 53 -275 114 -325 135 -49 21 -245 102 -435 180
-190 78 -408 170 -485 204 -77 35 -156 69 -175 76 -19 7 -40 17 -45 21 -6 5
-53 24 -105 44 -52 20 -100 41 -107 47 -9 7 -13 37 -13 89 l0 79 164 0 165 0
138 -55z m1533 -241 c0 -162 -2 -294 -5 -294 -3 0 -22 7 -43 16 -74 31 -696
272 -902 349 -399 151 -561 213 -567 219 -4 3 336 6 755 6 l762 -1 0 -295z
m1458 -361 l2 -653 -122 0 -121 0 -174 71 -173 72 -2 276 c-3 261 -4 276 -21
276 -18 0 -19 -16 -24 -260 -3 -143 -7 -262 -9 -264 -1 -1 -155 59 -341 134
-186 76 -383 156 -438 177 -55 22 -102 42 -104 44 -3 2 16 26 41 52 83 87 78
59 78 415 l0 319 703 -4 702 -3 3 -652z m1532 391 l0 -265 -27 3 -28 3 -3 250
c-1 137 0 255 3 262 2 7 16 13 30 13 l25 0 0 -266z m868 -599 c1 -470 -1 -855
-5 -855 -5 0 -68 21 -140 47 l-133 48 0 265 c0 146 -3 511 -7 812 l-6 548 144
-5 144 -6 3 -854z m320 41 l-3 -821 -67 -3 -68 -3 0 596 0 595 -22 0 -23 0 -4
-658 c-1 -361 -4 -658 -6 -660 -2 -2 -20 5 -41 15 l-39 18 -3 873 -2 873 140
-2 140 -3 -2 -820z m192 239 l0 -585 -69 0 c-63 0 -69 2 -75 23 -8 30 -8 1132
1 1140 3 4 37 7 75 7 l68 0 0 -585z m-1490 520 c0 -30 -3 -55 -8 -55 -4 0 -48
-36 -97 -80 l-90 -79 -587 -1 -588 0 0 135 0 135 685 0 685 0 0 -55z m0 -690
c0 -502 -2 -575 -15 -575 -8 0 -73 23 -143 50 -71 28 -134 50 -140 50 -9 0
-13 64 -14 243 -5 396 0 530 19 544 9 7 48 43 87 81 96 91 196 182 202 182 2
0 4 -259 4 -575z m-4830 521 c0 -9 -40 -13 -46 -5 -3 5 6 9 20 9 14 0 26 -2
26 -4z m50 -52 c-38 -8 -90 -9 -90 -2 0 4 24 7 53 7 28 -1 45 -3 37 -5z m184
-54 c7 -7 -35 -10 -131 -10 -132 0 -164 5 -145 25 10 11 264 -3 276 -15z
m4346 6 c0 -2 -30 -33 -67 -68 -37 -35 -99 -96 -138 -137 l-71 -74 -28 57
c-66 135 -234 194 -364 127 -51 -26 -115 -99 -130 -149 -7 -22 -12 -59 -12
-83 0 -90 83 -207 163 -231 20 -6 37 -14 37 -18 0 -4 -20 -24 -44 -44 l-44
-36 -148 62 c-82 33 -176 71 -209 83 l-60 23 -3 246 -2 246 560 0 c308 0 560
-2 560 -4z m-4262 -52 c28 -4 52 -11 52 -16 0 -5 -72 -8 -175 -6 l-175 3 0
-157 0 -158 -30 0 -30 0 0 170 0 170 153 0 c83 0 176 -3 205 -6z m4810 -82 l3
-62 -69 0 c-81 0 -84 4 -75 80 l6 51 66 -4 66 -4 3 -61z m245 58 l107 0 0 -60
0 -60 -150 0 -150 0 0 58 c0 32 3 62 8 66 4 4 23 5 42 2 19 -3 83 -6 143 -6z
m-4898 -50 c183 -27 103 -41 -187 -33 -203 6 -218 7 -218 25 0 17 11 18 168
18 92 0 199 -5 237 -10z m3645 -11 c56 -25 77 -44 102 -92 44 -88 33 -162 -36
-235 -93 -100 -215 -97 -309 7 -96 107 -65 256 68 317 61 29 116 30 175 3z
m-5227 -53 l37 -34 0 -561 0 -561 -55 0 -55 0 0 605 c0 680 -7 624 73 551z
m1820 -22 c79 -18 -1 -24 -305 -22 -318 3 -333 4 -336 22 -4 18 5 19 304 13
170 -4 321 -9 337 -13z m4227 -145 l0 -110 -27 3 -28 3 -3 108 -3 107 31 0 30
0 0 -111z m188 -6 l-3 -118 -65 4 c-36 2 -67 5 -69 7 -3 3 -5 209 -2 222 1 1
33 2 71 2 l71 0 -3 -117z m347 47 l0 -65 -35 -3 c-19 -2 -86 -1 -147 3 l-113
7 0 64 0 65 148 -3 147 -3 0 -65z m-1000 -177 l7 -233 -149 1 c-259 2 -296 14
-73 23 l195 8 -3 116 c-3 105 6 328 13 320 1 -2 6 -108 10 -235z m-3728 219
c91 -5 147 -12 155 -20 9 -9 -75 -12 -405 -12 -410 0 -417 0 -417 20 0 20 6
20 263 19 144 0 326 -4 404 -7z m-1739 -14 c9 -9 12 -142 12 -536 l0 -523 -22
3 -23 3 -3 520 c-1 286 0 526 3 533 6 15 18 15 33 0z m5424 -230 l5 -158 -211
2 c-177 1 -196 2 -116 8 52 4 140 9 195 10 l100 3 -65 7 c-36 4 -121 9 -190
10 l-125 3 166 10 166 9 7 97 c3 53 6 121 7 151 2 105 16 3 19 -140 3 -122 4
-128 10 -65 4 39 9 117 10 175 3 151 17 76 22 -122z m-5302 -355 l0 -473 -30
0 -30 0 0 502 0 502 30 -29 30 -29 0 -473z m1710 512 c0 -13 -49 -15 -385 -15
-336 0 -385 2 -385 15 0 13 49 15 385 15 336 0 385 -2 385 -15z m3510 -120 c0
-77 -4 -125 -10 -125 -6 0 -10 41 -10 103 0 93 6 147 16 147 2 0 4 -56 4 -125z
m-42 -16 c2 -100 2 -101 -21 -95 -12 3 -38 6 -57 7 -34 1 -33 2 13 13 57 13
52 28 -7 20 l-41 -6 25 18 c36 26 48 44 61 89 11 39 17 55 23 55 1 0 3 -46 4
-101z m-4288 -384 l0 -455 -35 0 -35 0 0 448 c0 247 3 452 7 455 3 4 19 7 35
7 l28 0 0 -455z m120 0 l0 -455 -35 0 -35 0 0 455 0 455 35 0 35 0 0 -455z
m118 3 l-3 -453 -42 -3 -43 -3 0 449 c0 247 3 452 7 455 3 4 24 7 45 7 l38 0
-2 -452z m92 225 c0 -126 1 -330 3 -456 l2 -227 -32 0 -33 0 0 448 c0 247 3
452 7 455 3 4 17 7 30 7 l23 0 0 -227z m200 -63 l0 -290 -75 0 -75 0 0 290 0
290 75 0 75 0 0 -290z m114 259 c3 -17 6 -116 6 -220 0 -104 2 -189 4 -189 2
0 11 3 20 6 14 5 16 31 16 178 l1 171 31 -35 c17 -19 62 -68 100 -108 l69 -74
-3 -146 -3 -147 -148 1 c-81 0 -151 5 -155 10 -4 5 -6 138 -4 297 l4 287 28 0
c23 0 29 -5 34 -31z m786 -63 c113 -48 206 -89 207 -90 2 -1 -94 -95 -212
-209 l-215 -208 -136 3 -136 3 -2 158 c-2 136 0 157 13 158 9 1 95 2 191 3
173 1 175 1 178 24 l3 22 -218 0 -219 0 -95 103 c-52 56 -99 108 -103 115 -6
11 42 13 266 10 l273 -3 205 -89z m3961 74 c62 0 69 -2 69 -20 0 -19 -7 -20
-150 -20 -142 0 -150 1 -150 19 0 22 43 31 119 25 24 -2 75 -4 112 -4z m-6169
-58 c35 -33 82 -76 106 -97 l42 -37 0 -354 0 -354 -110 0 -110 0 0 450 c0 248
2 450 5 450 3 0 33 -26 67 -58z m6233 -17 c0 -13 -348 -19 -425 -8 -49 7 -39
9 80 14 200 8 345 6 345 -6z m-1620 -177 c304 -117 625 -237 734 -274 8 -2 12
-5 10 -7 -2 -1 -259 -1 -571 1 l-568 2 0 220 0 219 108 -46 c59 -25 188 -76
287 -115z m1613 129 c3 -15 -8 -17 -110 -17 -150 0 -370 12 -362 19 4 5 397
19 454 16 8 0 16 -8 18 -18z m10 -49 c-6 -17 -176 -22 -358 -12 -187 11 -119
21 148 23 167 1 213 -2 210 -11z m-5578 -199 l0 -201 -90 83 -90 82 0 118 0
119 90 0 90 0 0 -201z m5580 146 c0 -13 -20 -15 -123 -15 -176 0 -378 12 -347
21 14 4 125 7 248 8 191 1 222 -1 222 -14z m-5992 -366 l3 -310 -28 3 -28 3
-3 315 c-1 173 0 321 3 329 5 12 10 10 28 -7 22 -22 22 -28 25 -333z m2221
337 c-10 -9 -79 -14 -74 -5 4 5 22 9 42 9 20 0 34 -2 32 -4z m3761 -21 c0 -13
-21 -15 -133 -15 -179 0 -351 11 -335 21 7 5 115 9 241 9 195 0 227 -2 227
-15z m-3682 -25 c48 0 82 -4 82 -10 0 -11 -91 -13 -203 -4 -46 4 -74 11 -70
17 3 5 27 7 57 3 28 -3 88 -6 134 -6z m2692 -27 c0 -10 -23 -13 -98 -13 -54 0
-102 4 -107 9 -6 5 -26 11 -45 13 -19 2 29 3 108 4 111 0 142 -2 142 -13z
m995 -3 c0 -13 -24 -15 -165 -12 -91 1 -201 6 -245 9 -131 11 -32 21 205 19
175 -1 205 -3 205 -16z m-5891 -52 c3 -17 6 -140 6 -274 l0 -244 -30 0 -30 0
0 290 0 290 24 -15 c13 -9 26 -30 30 -47z m2366 -54 c0 -63 -3 -113 -7 -111
-8 5 -5 227 3 227 2 0 4 -52 4 -116z m37 -51 c-2 -32 -3 -6 -3 57 0 63 1 89 3
58 2 -32 2 -84 0 -115z m57 -51 c-5 -12 -10 1 -15 38 -10 75 -11 165 -1 174
10 11 25 -191 16 -212z m-211 189 c26 -1 47 -5 47 -11 0 -6 -63 -10 -170 -10
-140 0 -170 3 -170 14 0 21 8 22 132 14 62 -3 134 -7 161 -7z m266 -108 c1
-56 -3 -93 -9 -93 -6 0 -10 44 -9 113 0 72 3 105 9 92 5 -11 9 -62 9 -112z
m3378 75 c-3 -10 -56 -12 -233 -9 -126 2 -236 7 -244 12 -9 5 90 9 233 9 195
0 248 -3 244 -12z m-3246 -127 c1 -64 1 -325 1 -581 l0 -465 -23 0 -24 0 -3
586 -2 586 25 -5 c25 -4 25 -5 26 -121z m2239 113 c0 -11 -5 -14 -16 -10 -9 3
-30 7 -47 7 l-32 1 30 8 c49 13 65 11 65 -6z m-2598 -29 l5 -25 -176 0 c-97 0
-193 3 -214 6 -36 6 -37 8 -21 25 16 17 34 19 209 19 l193 0 4 -25z m-2187
-248 l0 -222 -22 -3 -23 -3 0 248 0 247 22 -22 c22 -22 23 -28 23 -245z m2628
241 c16 -12 17 -55 15 -568 l-3 -555 -21 -3 c-19 -3 -22 3 -28 59 -8 78 -8
1042 0 1063 7 19 15 20 37 4z m3157 2 c0 -12 -436 -12 -465 0 -12 5 78 9 223
9 155 1 242 -3 242 -9z m850 -220 l0 -210 -69 0 -68 0 -7 77 c-8 96 -8 306 0
327 5 12 21 16 75 16 l69 0 0 -210z m530 6 c0 -203 0 -204 -22 -210 -13 -3
-120 -6 -239 -6 -189 0 -218 2 -223 16 -8 21 -8 389 1 397 3 4 114 7 245 7
l238 0 0 -204z m260 -322 c0 -307 -4 -524 -9 -522 -5 2 -127 50 -271 108
l-262 105 126 3 c126 3 126 3 126 27 l0 24 -172 3 -173 3 -147 59 c-163 65
-158 61 -158 166 0 87 -32 80 371 80 l359 0 0 235 0 235 105 0 105 0 0 -526z
m-5443 496 l213 0 0 -40 0 -40 -274 0 -275 0 52 49 c33 32 56 46 62 40 5 -5
102 -9 222 -9z m737 4 c14 -14 16 -78 16 -555 l0 -540 -22 3 -23 3 -3 553 c-1
338 1 552 7 552 5 0 17 -7 25 -16z m3066 -9 c0 -13 -23 -15 -148 -15 -82 0
-191 3 -243 8 l-94 7 65 6 c36 3 145 6 243 7 151 2 177 0 177 -13z m-5622
-117 l52 -49 0 -125 0 -124 -78 0 -79 0 -6 122 c-4 66 -7 157 -7 200 l0 80 33
-27 c17 -15 56 -50 85 -77z m2685 75 c26 -8 21 -26 -5 -19 -13 3 -29 6 -35 6
-7 0 -13 7 -13 16 0 11 5 14 18 9 9 -4 25 -10 35 -12z m2936 -7 c-10 -9 -446
-14 -464 -6 -15 7 -9 9 30 11 367 14 455 13 434 -5z m1 -46 c0 -19 -6 -20
-127 -19 -170 2 -369 14 -293 19 30 1 109 6 175 10 233 13 245 13 245 -10z
m-2605 -94 c105 -43 215 -88 245 -101 70 -30 614 -246 700 -278 80 -29 423
-169 503 -205 69 -30 71 -29 -87 -82 l-112 -37 -54 24 c-30 14 -131 54 -225
90 -93 35 -217 82 -275 104 -58 22 -136 53 -175 69 -38 16 -254 102 -480 191
-225 89 -416 166 -422 172 -16 12 -17 67 -2 67 6 0 74 -25 152 -56 405 -160
549 -217 847 -331 179 -68 330 -125 335 -126 6 -1 10 5 10 13 0 20 -74 54
-305 143 -107 42 -271 105 -365 142 -93 37 -240 94 -325 127 -186 71 -340 138
-340 147 0 3 42 6 92 5 92 -1 96 -2 283 -78z m440 16 c83 -35 422 -172 755
-305 332 -133 604 -246 605 -252 0 -5 -30 -13 -67 -17 -37 -3 -83 -11 -102
-18 -25 -8 -41 -8 -55 0 -11 6 -184 74 -383 151 -200 77 -439 171 -533 209
-93 38 -251 101 -350 141 -99 39 -220 88 -270 108 l-89 36 74 5 c41 3 118 5
170 5 93 -1 98 -2 245 -63z m103 39 c3 -20 1 -23 -15 -16 -10 4 -34 12 -53 17
-62 17 -59 29 5 26 54 -3 60 -6 63 -27z m1412 -6 c36 -13 207 -80 380 -150
173 -70 365 -147 425 -170 61 -24 127 -50 148 -59 l38 -17 -3 -102 -3 -102
-475 0 -475 0 -140 57 c-427 172 -884 355 -1057 423 l-198 77 0 32 c0 18 2 35
4 37 2 2 294 3 648 1 l643 -3 65 -24z m-3265 -192 l199 -203 -237 0 -237 0 0
93 c0 50 -3 143 -7 205 l-6 113 44 -3 c43 -3 49 -9 244 -205z m573 0 l2 -203
-154 0 -154 0 -201 198 c-111 108 -201 200 -201 205 0 4 159 6 353 5 l352 -3
3 -202z m-1632 187 l54 0 0 -135 0 -135 -75 0 -75 0 0 133 c0 74 3 137 7 141
4 3 13 4 21 1 7 -3 38 -5 68 -5z m4974 1 c0 -7 -42 -11 -124 -11 -67 0 -152
-2 -187 -5 l-64 -4 65 12 c87 17 310 22 310 8z m-4252 -755 c-5 -6 -12 -6 -19
1 -7 7 -7 73 0 221 6 116 8 260 4 320 -3 60 -2 126 3 148 6 26 11 -77 14 -321
3 -198 2 -364 -2 -369z m-50 544 c-1 -138 -1 -141 -9 -60 -11 129 -11 238 1
220 5 -8 9 -80 8 -160z m4302 155 c0 -13 -22 -15 -137 -15 -75 0 -133 3 -129
8 4 4 58 10 119 13 62 3 120 6 130 7 9 1 17 -5 17 -13z m-4363 -127 c-2 -24
-4 -7 -4 37 0 44 2 63 4 43 2 -21 2 -57 0 -80z m4363 72 c0 -6 -39 -10 -96
-10 -61 0 -93 4 -89 10 3 6 46 10 96 10 53 0 89 -4 89 -10z m-4478 -69 c64
-41 98 -101 98 -175 0 -83 -36 -144 -120 -199 -38 -26 -136 -23 -191 6 -59 31
-109 112 -109 178 0 134 83 218 216 219 50 0 68 -5 106 -29z m1713 -61 c173
-70 256 -104 587 -233 77 -30 108 -48 112 -62 3 -10 0 -23 -7 -27 -7 -4 -217
-7 -467 -5 l-455 2 -3 208 -2 208 22 -7 c13 -4 109 -42 213 -84z m2765 80 c0
-5 -15 -10 -32 -9 -28 0 -30 2 -13 9 28 12 45 12 45 0z m660 -215 c0 -86 0
-86 -85 -54 l-55 20 0 55 0 54 70 0 70 0 0 -75z m-6230 -165 l0 -220 -80 0
-80 0 0 213 c0 118 3 217 7 220 3 4 39 7 80 7 l73 0 0 -220z m458 -2 l2 -218
-205 0 -205 0 0 213 c0 118 3 216 6 220 4 3 95 5 203 4 l196 -2 3 -217z m192
2 l0 -220 -69 0 -69 0 -7 209 c-4 115 -4 214 -1 220 4 6 37 11 77 11 l69 0 0
-220z m70 175 c0 -65 35 -148 77 -186 61 -53 114 -71 198 -67 l73 3 6 -63 c4
-35 4 -67 1 -72 -4 -6 -84 -10 -189 -10 l-183 0 -5 50 c-7 75 4 390 13 390 5
0 9 -20 9 -45z m-930 -80 l0 -115 -436 0 -435 0 3 23 3 22 408 3 c382 2 408 3
405 20 -3 16 -33 17 -409 20 l-406 2 5 25 4 26 402 -1 c357 -1 401 0 404 14 3
14 -35 16 -350 18 -194 2 -377 3 -405 3 -35 0 -53 4 -53 11 0 7 -3 19 -6 28
-6 14 36 16 430 16 l436 0 0 -115z m1476 -302 c-3 -7 -11 -13 -17 -13 -12 0
-11 21 8 260 8 93 8 92 11 -70 1 -90 0 -170 -2 -177z m4752 316 c20 -8 22 -15
22 -89 l0 -81 -42 3 -43 3 -3 93 c-3 104 -8 98 66 71z m-4103 -19 l29 -30
-282 0 -282 0 0 30 0 30 253 0 253 0 29 -30z m313 -2 l3 -28 -115 0 c-107 0
-116 1 -130 22 -9 12 -16 25 -16 28 0 3 57 5 128 5 l127 0 3 -27z m3945 -40
l57 -20 0 -44 0 -44 -70 0 -70 0 0 54 c0 30 -3 62 -7 72 -5 14 -3 16 13 10 10
-5 45 -17 77 -28z m-4958 -245 c-3 -13 -12 -23 -20 -23 -12 0 -14 9 -11 38 3
20 8 69 11 107 11 138 20 145 23 20 1 -66 0 -130 -3 -142z m890 95 l120 -117
-422 -1 -423 0 0 118 0 117 303 0 302 -1 120 -116z m125 37 c0 -47 -3 -85 -8
-85 -4 0 -45 38 -92 85 l-85 85 93 0 92 0 0 -85z m4180 14 c0 -4 -29 -7 -64
-8 -63 -1 -64 -1 -68 29 -3 17 -3 32 -1 34 6 6 133 -46 133 -55z m-5284 -156
c-3 -7 -12 -13 -20 -13 -12 0 -13 15 -9 83 8 118 27 135 31 27 2 -46 1 -89 -2
-97z m44 77 c0 -76 -2 -90 -16 -90 -14 0 -15 9 -9 68 14 138 25 148 25 22z
m2495 80 l30 -8 -35 0 c-19 -1 -53 3 -75 7 l-40 9 45 0 c25 0 59 -4 75 -8z
m-177 -16 c18 -5 22 -13 20 -33 l-3 -26 -462 -3 c-255 -1 -463 1 -463 5 0 5
-3 18 -6 30 l-6 23 443 3 c244 1 446 3 449 4 3 2 15 0 28 -3z m-3698 -79 l0
-75 -432 2 -433 3 -3 29 c-2 17 -1 49 3 73 l6 43 430 0 429 0 0 -75z m3960 45
c-82 -12 -180 -12 -180 0 0 6 45 9 118 9 98 -2 108 -3 62 -9z m1286 -44 c329
-141 716 -305 799 -338 55 -22 129 -53 165 -68 231 -102 716 -298 742 -302 27
-3 -120 -16 -194 -17 -76 -1 -83 1 -300 90 -123 51 -331 136 -463 189 -132 54
-278 115 -325 135 -47 20 -200 83 -340 139 -140 57 -300 123 -354 147 -96 43
-98 44 -65 50 19 4 84 7 145 8 105 1 114 -1 190 -33z m874 -129 c0 -90 -3
-166 -6 -170 -3 -3 -14 -2 -23 3 -9 5 -68 28 -131 53 l-115 44 -3 117 -3 116
141 0 140 0 0 -163z m732 115 c60 -23 145 -57 190 -76 46 -19 91 -37 101 -40
16 -5 17 -28 17 -296 l0 -290 -31 0 c-17 0 -63 14 -102 31 -40 18 -139 58
-222 90 -82 32 -231 91 -330 132 l-180 75 -3 212 -2 212 227 -5 228 -4 107
-41z m-2738 29 c16 -3 -37 -7 -119 -8 -81 0 -163 -4 -183 -8 -21 -4 -34 -3
-30 1 18 17 268 29 332 15z m86 -41 c18 -6 7 -9 -45 -10 -148 -6 -360 -6 -370
0 -29 15 367 25 415 10z m1533 3 c-29 -2 -78 -2 -110 0 -32 2 -8 3 52 3 61 0
87 -1 58 -3z m-2023 -28 l0 -25 -464 0 -463 0 5 25 4 25 459 0 459 0 0 -25z
m1100 -16 c-54 -4 -142 -21 -204 -39 -60 -17 -110 -29 -112 -27 -4 3 178 58
231 70 11 3 56 5 100 4 l80 0 -95 -8z m913 4 c-35 -2 -91 -2 -125 0 -35 2 -7
3 62 3 69 0 97 -1 63 -3z m-1391 -14 c7 -5 -112 -9 -269 -9 -193 0 -283 3
-283 11 0 12 531 11 552 -2z m-62 -38 c-8 -5 -122 -12 -252 -16 -223 -7 -254
-4 -231 18 3 4 117 7 252 7 143 0 240 -4 231 -9z m1510 -16 c0 -12 -7 -14 -27
-9 -53 13 -60 23 -15 24 31 0 42 -4 42 -15z m-5570 -375 l0 -380 -537 2 -538
3 -3 365 c-1 201 0 371 3 377 3 10 120 13 540 13 l535 0 0 -380z m120 6 c0
-206 -3 -377 -8 -379 -4 -3 -19 -3 -35 0 l-27 5 0 367 c0 202 3 371 7 374 3 4
19 7 35 7 l28 0 0 -374z m678 314 l-3 -55 -204 -3 c-132 -2 -202 0 -200 7 2 5
30 33 63 61 l58 51 145 -3 144 -3 -3 -55z m117 -436 l0 -492 -25 20 -25 20 -5
316 c-3 175 -4 388 -2 475 l3 158 27 -3 27 -3 0 -491z m105 -44 c0 -297 -2
-540 -5 -540 -3 0 -17 12 -30 28 l-24 27 -1 507 c0 548 -3 512 48 517 9 1 12
-113 12 -539z m310 457 l0 -83 -67 -64 c-38 -36 -96 -92 -130 -125 l-63 -59 0
207 0 207 130 0 130 0 0 -83z m898 16 l3 -63 -426 0 -425 0 0 65 0 65 423 -2
422 -3 3 -62z m642 57 c0 -6 -51 -9 -137 -8 l-138 2 95 6 c160 10 180 10 180
0z m370 -970 l0 -981 -152 3 -153 3 -3 978 -2 977 155 0 155 0 0 -980z m270
946 c0 -60 -2 -61 -93 -58 -123 4 -127 5 -127 52 l0 40 110 0 110 0 0 -34z
m1605 -65 c127 -51 232 -95 234 -97 2 -2 1 -7 -3 -11 -4 -5 -371 -11 -814 -14
-444 -4 -827 -10 -852 -13 -98 -15 -6 14 230 73 135 34 324 84 420 111 l175
50 190 -3 190 -3 230 -93z m-1210 59 c-42 -17 -75 -20 -198 -20 -115 0 -148 3
-145 13 3 9 50 13 169 17 90 3 178 6 194 7 25 2 22 -1 -20 -17z m-1035 -10 c0
-11 -75 -12 -200 -1 -82 8 -80 8 58 9 89 1 142 -2 142 -8z m4226 -26 c49 -19
95 -43 102 -52 13 -18 18 -439 4 -457 -9 -13 -109 -19 -162 -10 l-40 7 0 274
c0 151 1 274 3 274 2 0 43 -16 93 -36z m-3279 0 c-3 -3 -12 -4 -19 -1 -8 3 -5
6 6 6 11 1 17 -2 13 -5z m-47 -14 c0 -6 -40 -10 -100 -10 -60 0 -100 4 -100
10 0 6 40 10 100 10 60 0 100 -4 100 -10z m-890 -10 c0 -6 -55 -10 -145 -10
-90 0 -145 4 -145 10 0 6 55 10 145 10 90 0 145 -4 145 -10z m630 -30 c0 -6
-43 -10 -110 -10 -67 0 -110 4 -110 10 0 6 43 10 110 10 67 0 110 -4 110 -10z
m161 -6 c-38 -17 -102 -15 -109 4 -3 9 15 12 70 11 l73 -1 -34 -14z m3760 -75
c96 -39 199 -80 229 -91 30 -12 60 -26 65 -32 7 -7 9 -59 7 -138 l-4 -127
-211 3 c-117 2 -224 4 -239 5 l-28 1 0 225 c0 124 2 225 4 225 2 0 81 -32 177
-71z m-6825 41 c187 0 194 -1 194 -20 0 -19 -7 -20 -180 -20 l-180 0 0 -276
c0 -248 -2 -276 -16 -270 -9 3 -24 6 -35 6 -18 0 -19 11 -19 288 0 159 3 292
7 296 4 3 13 4 21 1 7 -3 101 -5 208 -5z m2902 -8 c3 -10 -19 -12 -99 -10 -72
2 -104 7 -107 16 -3 10 19 12 99 10 72 -2 104 -7 107 -16z m-3198 -282 l0
-290 -26 0 c-22 0 -25 3 -20 23 3 12 6 142 6 290 0 260 1 267 20 267 20 0 20
-7 20 -290z m2570 -32 c1 -178 1 -525 2 -773 l1 -450 -159 -159 c-183 -184
-173 -185 -164 11 l5 112 77 93 c42 51 99 122 127 157 l51 64 0 634 0 633 30
0 30 0 0 -322z m-362 285 c-3 -17 -35 -18 -453 -24 -390 -4 -458 -8 -510 -23
-206 -61 -256 -76 -304 -95 -30 -11 -56 -19 -58 -17 -2 1 33 34 76 73 l80 69
168 13 c92 7 175 14 183 16 8 1 196 3 418 4 379 1 403 0 400 -16z m205 -10
c-13 -2 -33 -2 -45 0 -13 2 -3 4 22 4 25 0 35 -2 23 -4z m787 -3 c0 -6 -41
-10 -104 -10 -59 0 -108 4 -111 10 -4 6 33 10 104 10 67 0 111 -4 111 -10z
m-750 -30 c24 -8 24 -8 -5 -8 -16 0 -39 3 -50 8 -18 8 -18 9 5 8 14 0 36 -4
50 -8z m-2125 -126 l7 -112 -35 -38 c-44 -49 -61 -107 -47 -166 5 -24 10 -46
10 -50 0 -5 -18 -8 -40 -8 l-40 0 0 245 0 244 63 3 c34 2 65 1 68 -2 4 -3 10
-55 14 -116z m170 -5 c4 -66 5 -122 2 -125 -3 -3 -14 -1 -25 5 -12 6 -39 11
-61 11 l-41 0 0 115 0 115 59 0 59 0 7 -121z m1960 90 c17 -17 -16 -29 -75
-28 -30 1 -66 5 -80 9 -15 5 10 6 60 3 97 -7 100 4 7 24 l-62 13 70 -6 c39 -3
74 -9 80 -15z m2036 4 c13 -16 12 -17 -3 -4 -10 7 -18 15 -18 17 0 8 8 3 21
-13z m539 -346 l0 -363 -57 -54 c-147 -140 -131 -130 -216 -134 -56 -2 -77 0
-77 9 0 12 71 25 143 25 20 0 37 5 37 10 0 6 -37 10 -90 10 -103 0 -120 14
-27 24 125 14 139 24 35 25 -54 1 -98 5 -98 10 0 5 47 12 105 16 58 4 105 11
105 16 0 5 -47 9 -105 9 -58 0 -105 4 -105 9 0 13 80 23 170 20 44 -1 83 0 85
3 3 3 -35 44 -85 91 -49 47 -90 89 -90 92 0 3 45 5 100 5 l100 0 0 264 0 265
28 4 c15 2 30 5 35 6 4 0 7 -162 7 -362z m-3380 325 c0 -36 -26 -72 -51 -72
-28 0 -69 44 -69 75 0 24 2 25 60 25 59 0 60 0 60 -28z m343 -30 c31 -17 46
-30 42 -40 -3 -7 -5 -37 -5 -65 l-1 -52 -94 98 c-52 53 -95 102 -95 107 0 13
96 -17 153 -48z m221 21 c8 -52 7 -75 -3 -92 -9 -14 -30 1 -145 101 l-31 27
86 1 86 0 7 -37z m1377 -52 c-42 -43 -78 -77 -79 -76 -2 2 -5 37 -6 79 l-1 75
75 3 c41 2 78 2 81 1 3 -1 -28 -38 -70 -82z m530 62 c31 -80 -19 -185 -100
-212 -122 -39 -247 93 -201 213 l10 26 140 0 140 0 11 -27z m371 -103 c4 0 8
-5 8 -11 0 -13 -105 68 -145 112 -16 18 6 3 49 -34 44 -37 83 -67 88 -67z m-5
42 c35 -31 61 -58 58 -60 -5 -5 -58 38 -135 109 -67 62 -1 19 77 -49z m-7 62
c22 -15 40 -31 40 -37 0 -6 -10 -1 -23 11 -13 12 -28 22 -34 22 -6 0 -16 7
-23 15 -18 22 -5 18 40 -11z m107 -67 c-5 -15 -67 45 -67 65 0 7 10 -2 21 -20
12 -18 24 -31 27 -28 2 3 -3 17 -12 30 -9 14 -16 31 -16 38 0 7 12 -6 26 -30
14 -23 24 -48 21 -55z m23 32 c0 -17 -8 -9 -29 29 l-22 37 26 -28 c14 -15 25
-32 25 -38z m25 16 c4 -21 3 -25 -3 -15 -15 24 -26 67 -14 55 6 -5 13 -23 17
-40z m62 -67 c-2 -24 -4 -7 -4 37 0 44 2 63 4 43 2 -21 2 -57 0 -80z m-952 74
c-7 -25 -114 -132 -167 -169 -72 -50 -50 -13 56 93 59 59 109 104 112 101 3
-3 3 -14 -1 -25z m569 -69 c58 -53 106 -102 106 -109 0 -6 -8 -15 -17 -18 -19
-8 -139 105 -193 181 -52 72 -11 51 104 -54z m129 -21 c32 -22 54 -43 50 -45
-10 -6 -123 79 -165 123 -44 46 -32 48 15 3 23 -23 68 -59 100 -81z m-3060
-58 c20 -38 71 -86 127 -119 l45 -27 -42 5 c-61 7 -150 51 -190 94 -19 21 -57
67 -85 103 l-49 64 75 16 c42 9 79 20 83 24 5 4 11 -23 14 -61 4 -38 14 -83
22 -99z m95 148 c2 -7 -6 -12 -20 -11 -19 1 -20 2 -4 6 15 4 16 7 5 15 -12 8
-12 9 0 6 8 -3 17 -10 19 -16z m297 -2 c4 -6 -8 -10 -30 -10 -22 0 -34 4 -30
10 3 6 17 10 30 10 13 0 27 -4 30 -10z m2743 -36 c5 3 20 -6 32 -19 l24 -25
-31 10 c-16 6 -43 25 -59 43 -27 30 -27 30 -2 8 14 -13 31 -21 36 -17z m-2078
14 c0 -5 -36 -8 -81 -8 -44 0 -78 3 -76 8 3 4 39 7 81 7 42 0 76 -3 76 -7z
m-940 -29 c0 -12 -67 -12 -75 0 -3 5 9 11 27 13 37 4 48 1 48 -13z m280 6 c0
-11 -12 -15 -51 -15 -45 0 -50 2 -39 15 7 9 29 15 51 15 28 0 39 -4 39 -15z
m644 -7 c-3 -4 -38 -8 -77 -8 -40 0 -67 4 -60 8 16 10 143 10 137 0z m656 2
c0 -5 -10 -10 -22 -10 -19 0 -20 2 -8 10 19 13 30 13 30 0z m1830 -197 c0
-116 -4 -183 -10 -183 -6 0 -10 72 -10 198 0 131 4 192 10 182 5 -8 10 -97 10
-197z m-3712 135 c49 -63 202 -293 202 -305 0 -3 -8 1 -17 10 -10 8 -83 53
-163 100 -280 163 -329 192 -330 198 0 6 209 56 242 58 9 1 39 -27 66 -61z
m1992 52 c0 -5 -12 -10 -27 -9 -25 0 -26 1 -8 9 27 12 35 12 35 0z m228 -7
c-15 -2 -42 -2 -60 0 -18 2 -6 4 27 4 33 0 48 -2 33 -4z m-1532 -35 c16 -18
39 -45 52 -59 l22 -26 -92 -35 c-178 -69 -206 -74 -131 -23 50 34 83 82 98
148 9 35 15 34 51 -5z m498 -8 c-15 -22 -32 -40 -39 -40 -7 0 -27 -16 -45 -36
-17 -20 -33 -35 -34 -33 -2 2 1 18 6 36 7 26 15 33 43 39 54 10 53 25 -1 17
-34 -4 -45 -3 -40 5 4 7 24 12 44 12 20 0 44 5 52 10 11 7 -2 10 -43 10 -36 0
-56 4 -52 10 3 6 35 10 71 10 l64 0 -26 -40z m1376 22 c0 -36 56 -106 106
-134 90 -49 125 -47 237 10 4 2 7 -1 7 -6 0 -5 -39 -30 -87 -56 l-88 -47 -140
47 c-77 26 -151 51 -164 56 -24 9 -23 10 45 77 76 74 84 79 84 53z m450 9 c0
-5 30 -41 67 -81 53 -57 64 -74 52 -81 -8 -5 -43 -26 -79 -47 -36 -20 -89 -51
-118 -69 l-53 -32 -44 22 c-24 12 -44 24 -44 27 -1 3 32 22 73 43 40 21 81 46
91 57 10 11 22 50 28 95 6 41 15 75 19 75 4 0 8 -4 8 -9z m650 -171 c0 -150
-2 -180 -14 -180 -12 0 -14 26 -10 168 3 92 7 173 10 180 11 35 14 -5 14 -168z
m-3200 149 c36 2 76 4 90 4 20 2 24 -2 22 -18 -14 -89 -158 -143 -257 -95 -26
12 -56 38 -70 58 -42 61 -37 65 63 57 48 -5 116 -7 152 -6z m1415 2 c-6 -6
-25 -6 -45 -1 l-35 8 45 1 c27 1 40 -3 35 -8z m115 -8 c0 -15 -5 -15 -37 -7
-33 9 -28 21 7 20 17 -1 30 -7 30 -13z m225 -3 c-22 -4 -69 -4 -105 0 -61 7
-59 7 40 8 77 0 94 -2 65 -8z m1395 -161 c0 -104 -3 -158 -10 -154 -6 4 -10
66 -10 154 0 130 3 161 17 161 2 0 3 -72 3 -161z m780 76 l0 -85 -30 0 c-30 0
-30 1 -30 53 l0 52 -219 -3 -218 -3 -7 23 c-13 50 -22 48 249 48 l255 0 0 -85z
m-819 -95 c2 -98 0 -135 -9 -138 -9 -3 -12 35 -11 155 0 190 16 178 20 -17z
m1051 93 c92 -38 168 -70 168 -73 0 -3 -79 -7 -175 -8 l-175 -3 0 76 c0 41 3
75 8 75 4 0 82 -30 174 -67z m-4949 36 c52 -27 323 -185 357 -209 77 -54 167
-88 260 -99 52 -6 110 -16 128 -22 27 -9 40 -7 80 11 136 65 484 220 492 220
27 0 -16 -42 -134 -130 -72 -54 -164 -125 -203 -159 l-73 -61 -258 0 -258 0
-222 226 c-246 251 -259 268 -169 223z m2180 14 c-13 -2 -33 -2 -45 0 -13 2
-3 4 22 4 25 0 35 -2 23 -4z m342 -3 l50 -7 -60 0 c-33 -1 -73 3 -90 7 -29 7
-28 8 10 8 22 0 63 -3 90 -8z m-205 -24 c0 -8 -12 -11 -35 -8 -19 2 -35 10
-35 16 0 8 12 11 35 8 19 -2 35 -10 35 -16z m-876 -59 c-52 -72 -54 -74 -54
-50 0 23 83 128 88 112 2 -5 -13 -33 -34 -62z m2306 -207 l0 -279 -211 -228
c-117 -125 -295 -316 -397 -423 l-185 -195 -118 120 c-66 66 -119 122 -119
126 0 8 203 204 270 260 50 42 61 47 117 51 87 6 135 40 174 121 16 34 29 77
29 95 0 35 15 60 87 149 23 29 97 130 164 225 133 189 183 257 187 258 1 0 2
-126 2 -280z m-3380 -226 c11 -28 14 -104 4 -104 -3 0 -77 72 -163 160 -86 88
-161 160 -168 160 -34 0 -15 -31 84 -133 257 -266 253 -260 253 -300 0 -20 -4
-37 -9 -37 -10 0 -337 339 -425 440 l-56 65 0 85 c0 47 3 101 6 120 l6 36 229
-234 c127 -128 234 -244 239 -258z m1808 489 c-10 -2 -26 -2 -35 0 -10 3 -2 5
17 5 19 0 27 -2 18 -5z m333 -3 c40 0 58 -4 54 -11 -8 -12 -111 -2 -135 13
-12 8 -11 8 3 4 10 -3 46 -6 78 -6z m-1206 -30 c-3 -5 -12 -10 -20 -10 -13 0
-64 -22 -235 -102 -215 -101 -218 -103 -238 -85 -10 9 -36 24 -57 33 -31 14
-36 18 -20 21 53 10 122 29 250 71 190 62 334 95 320 72z m1015 -10 c0 -12 -9
-15 -40 -12 -26 3 -40 9 -40 18 0 11 11 14 40 12 29 -1 40 -6 40 -18z m1333 8
c-4 -7 -47 -67 -96 -133 -49 -66 -107 -148 -129 -183 -23 -34 -42 -61 -43 -60
-1 2 1 58 4 126 l6 123 125 68 c132 72 146 79 133 59z m197 -118 c0 -71 -3
-100 -10 -90 -5 8 -10 62 -10 120 0 71 3 100 10 90 5 -8 10 -62 10 -120z
m-1680 110 c12 -8 9 -10 -12 -10 -16 0 -28 5 -28 10 0 13 20 13 40 0z m268
-524 c1 -278 -2 -506 -6 -506 -5 0 -17 9 -28 21 -18 20 -19 46 -22 506 -2 266
-1 491 2 500 6 14 9 14 29 0 l22 -14 3 -507z m2172 494 c0 -25 -1 -25 -88 -28
-48 -1 -138 1 -199 4 -98 5 -113 8 -113 23 0 10 2 20 4 22 3 2 93 4 200 4
l196 0 0 -25z m-3135 -60 c-38 -39 -74 -70 -80 -70 -5 0 24 33 65 74 41 40 77
72 79 70 3 -3 -26 -36 -64 -74z m-5 67 c0 -2 -10 -12 -22 -23 l-23 -19 19 23
c18 21 26 27 26 19z m1380 -58 c96 -34 203 -71 237 -83 35 -11 63 -24 63 -28
0 -5 -22 -8 -49 -8 -50 0 -180 41 -391 122 -126 49 -139 58 -79 58 27 -1 109
-23 219 -61z m-1270 41 c0 -16 -161 -180 -176 -180 -8 0 -14 3 -14 7 0 5 180
181 188 183 1 0 2 -5 2 -10z m749 -16 c2 -14 -2 -16 -29 -10 -18 3 -41 6 -51
6 -11 0 -19 6 -19 14 0 22 94 13 99 -10z m216 -16 c12 -11 20 -868 7 -868 -4
0 -21 13 -36 29 l-27 28 -5 399 c-3 220 -2 407 2 417 7 18 37 16 59 -5z m1252
-85 c-2 -21 -4 -6 -4 32 0 39 2 55 4 38 2 -18 2 -50 0 -70z m-2226 40 c-11
-21 -56 -74 -100 -118 -70 -69 -81 -76 -81 -56 0 16 14 37 42 60 24 20 67 62
98 93 30 32 56 58 58 58 1 0 -6 -17 -17 -37z m735 27 c15 0 24 -6 24 -16 0
-11 -5 -14 -16 -10 -9 3 -33 6 -55 6 -29 0 -39 4 -39 16 0 13 7 15 31 10 17
-3 42 -6 55 -6z m-1665 -66 c61 -30 110 -57 108 -59 -8 -6 -145 27 -166 40
-21 14 -69 75 -59 75 4 0 56 -25 117 -56z m1522 49 c-7 -2 -19 -2 -25 0 -7 3
-2 5 12 5 14 0 19 -2 13 -5z m497 -478 c0 -250 -4 -455 -8 -455 -5 0 -18 17
-30 39 -22 38 -22 45 -22 470 l0 432 30 -16 30 -16 0 -454z m3563 475 l327 0
0 -55 0 -55 -365 0 -365 0 0 61 0 62 38 -7 c20 -3 184 -6 365 -6z m-1719 -160
c0 -88 -3 -162 -7 -166 -8 -8 -41 18 -152 121 -49 46 -101 92 -114 102 -20 17
-23 24 -16 61 l7 42 141 0 142 0 -1 -160z m109 -127 c4 -157 7 -333 7 -390 l0
-104 -242 -251 -243 -251 -8 44 c-5 24 -6 121 -4 216 l5 172 207 213 c114 117
211 224 217 238 5 14 7 68 4 120 -3 52 -3 137 1 188 6 86 7 92 28 92 22 0 22
0 28 -287z m107 -42 c0 -181 3 -336 6 -344 5 -14 -41 -67 -58 -67 -5 0 -8 167
-8 370 l0 370 30 0 30 0 0 -329z m985 319 c-3 -5 -70 -68 -149 -139 -79 -72
-288 -272 -465 -447 l-321 -316 0 456 0 456 471 0 c303 0 468 -3 464 -10z m65
-44 l0 -43 -42 -6 c-24 -3 -45 -4 -47 -1 -4 4 78 94 86 94 2 0 3 -20 3 -44z
m-3440 -30 c0 -49 -3 -57 -16 -52 -9 3 -33 6 -55 6 -56 0 -48 20 9 22 l47 2
-47 3 c-61 5 -63 23 -3 23 25 0 45 4 45 9 0 5 -20 12 -45 15 -28 5 -45 12 -45
21 0 10 14 13 55 12 l55 -2 0 -59z m-165 43 c4 -6 5 -12 3 -14 -7 -7 -48 7
-48 16 0 13 37 11 45 -2z m763 -149 c122 -79 120 -75 53 -112 -50 -28 -91
-102 -91 -165 0 -68 18 -110 64 -150 20 -18 36 -36 36 -41 0 -7 -110 -112
-237 -226 l-43 -38 0 436 0 437 53 -34 c28 -18 103 -67 165 -107z m432 22 c0
-93 -3 -122 -16 -138 -15 -18 -15 -18 -10 6 3 14 6 76 6 138 0 68 4 112 10
112 6 0 10 -46 10 -118z m-1870 -14 c-92 -90 -101 -97 -98 -70 2 22 24 47 98
111 52 45 96 77 98 71 2 -6 -42 -57 -98 -112z m680 92 c0 -5 -9 -10 -19 -10
-11 0 -23 5 -26 10 -4 6 5 10 19 10 14 0 26 -4 26 -10z m740 -44 c0 -5 -7 -1
-15 10 -8 10 -14 24 -14 29 0 6 6 1 14 -9 8 -11 15 -24 15 -30z m404 -43 c8
-103 8 -161 -2 -167 -5 -3 -9 0 -9 7 0 7 -3 63 -8 125 -4 70 -4 112 2 112 6 0
13 -34 17 -77z m-319 37 c21 -41 19 -51 -5 -15 -11 17 -20 33 -20 38 0 15 10
6 25 -23z m274 -125 c0 -45 -3 -63 -8 -50 -14 33 -23 150 -14 181 7 28 7 27
14 -16 4 -25 8 -76 8 -115z m-1109 135 c8 -5 12 -12 8 -15 -9 -9 -48 4 -48 16
0 12 21 11 40 -1z m804 -40 c6 -9 1 -5 -11 8 -13 13 -23 28 -23 35 0 7 6 3 12
-8 6 -11 16 -27 22 -35z m-1644 30 c0 -6 -34 -10 -81 -10 -51 0 -78 4 -74 10
3 6 40 10 81 10 43 0 74 -4 74 -10z m269 -12 c-20 -38 -193 -220 -197 -208 -9
27 27 76 109 150 49 44 92 80 95 80 2 0 -1 -10 -7 -22z m1451 7 c0 -8 -2 -15
-4 -15 -2 0 -6 7 -10 15 -3 8 -1 15 4 15 6 0 10 -7 10 -15z m-710 -77 c0 -60
-2 -69 -16 -64 -9 3 -33 9 -55 12 -23 4 -39 12 -39 20 0 10 11 12 46 7 38 -5
46 -3 42 8 -3 8 -22 15 -46 17 -30 2 -42 8 -42 19 0 13 9 15 45 10 32 -3 45
-1 42 7 -2 6 -22 12 -45 14 -38 3 -50 10 -38 23 2 2 27 2 55 1 l51 -4 0 -70z
m747 60 c-3 -8 -6 -5 -6 6 -1 11 2 17 5 13 3 -3 4 -12 1 -19z m142 -93 c0 -31
-2 -36 -9 -20 -5 11 -8 47 -8 80 0 58 1 58 9 20 4 -22 8 -58 8 -80z m-4279
-1361 l0 -1459 -35 -3 -35 -3 0 1460 0 1460 33 3 c17 2 33 3 35 2 1 -1 2 -658
2 -1460z m-1248 179 c-1 -703 -2 -1286 -2 -1295 0 -17 -22 -18 -329 -18 -255
0 -330 3 -332 13 -2 6 -3 589 -1 1295 l3 1282 332 0 332 0 -3 -1277z m1128
-183 l0 -1461 -62 3 -63 3 -3 638 c-2 629 -2 637 -22 637 -19 0 -20 -7 -20
-115 l0 -115 -297 2 -298 3 -3 498 c-2 489 -3 497 -22 497 -20 0 -20 -8 -20
-860 l0 -860 -60 0 -60 0 -2 1048 c-3 1039 -3 1047 -23 1047 -20 0 -20 -7 -21
-870 0 -478 -1 -950 -2 -1047 l-2 -178 -50 0 -50 0 0 1295 0 1295 540 0 540 0
0 -1460z m220 809 c0 -516 3 -650 13 -647 9 4 13 145 15 651 l2 647 30 0 30 0
0 -88 0 -87 115 -115 115 -115 0 -807 c0 -783 1 -808 19 -808 13 0 20 10 25
32 3 17 6 367 6 776 0 410 1 746 2 748 2 1 39 -32 83 -74 l80 -77 3 -875 c2
-481 0 -893 -3 -915 -6 -36 -22 -53 -176 -190 -93 -82 -208 -189 -256 -237
-73 -75 -90 -88 -118 -88 -18 0 -35 6 -38 13 -8 20 -9 2538 -1 2735 l7 172 23
0 24 0 0 -651z m220 622 c0 -21 10 -38 38 -61 20 -18 100 -95 178 -171 l140
-139 107 0 c88 0 107 -3 107 -15 0 -13 -20 -15 -123 -15 l-123 0 -197 199
c-108 110 -197 207 -197 215 0 12 10 16 35 16 32 0 35 -3 35 -29z m360 -43 l0
-73 70 -63 c39 -35 70 -67 70 -71 0 -5 -38 -11 -85 -15 l-85 -7 -139 132 c-77
72 -142 140 -144 150 -5 18 4 19 154 19 l159 0 0 -72z m3550 17 c0 -30 -4 -55
-10 -55 -5 0 -10 25 -10 55 0 30 5 55 10 55 6 0 10 -25 10 -55z m2600 -1650
l0 -1705 -295 0 -295 0 0 1498 0 1498 163 155 c89 85 187 178 217 207 l55 52
78 0 77 0 0 -1705z m780 6 l0 -1698 -61 -7 c-34 -3 -199 -6 -365 -6 l-304 0 0
1705 0 1705 365 0 365 0 0 -1699z m-6592 1626 c29 -34 136 -147 237 -252 l185
-190 0 -151 c0 -83 -3 -153 -6 -156 -5 -6 -115 105 -387 389 l-97 101 0 161
c0 89 3 161 8 160 4 0 31 -28 60 -62z m3152 20 l-1 -32 -15 28 c-8 15 -12 32
-9 37 11 18 25 -1 25 -33z m-1785 23 c-4 -6 -55 -10 -123 -9 -75 0 -110 4 -97
9 29 12 228 12 220 0z m840 -1 c4 -6 5 -13 2 -16 -8 -7 -47 7 -47 18 0 13 37
11 45 -2z m895 -21 c0 -6 -7 -5 -15 2 -8 7 -15 17 -15 22 0 6 7 5 15 -2 8 -7
15 -17 15 -22z m-1732 -20 c-6 -16 -298 -24 -298 -9 0 17 22 19 163 20 107 1
138 -2 135 -11z m837 -8 c4 -6 -5 -10 -19 -10 -14 0 -26 5 -26 10 0 6 9 10 19
10 11 0 23 -4 26 -10z m-2780 -200 l190 -190 133 0 132 0 0 -25 0 -25 -141 0
-141 0 -189 188 c-155 153 -189 192 -189 215 0 15 3 27 8 27 4 0 93 -86 197
-190z m1621 153 l-7 -28 18 22 c17 20 28 22 163 25 131 3 145 1 148 -15 3 -15
-9 -17 -138 -17 -92 0 -139 -4 -135 -10 4 -6 62 -10 141 -10 124 0 134 -1 134
-19 0 -17 -12 -19 -141 -26 -77 -4 -138 -9 -135 -12 2 -3 66 -4 141 -4 l137 2
-4 -23 c-3 -22 -6 -23 -121 -26 -153 -3 -146 -22 9 -22 105 0 115 -2 112 -17
-4 -20 -3 -20 -93 -22 -41 -1 -65 -5 -65 -12 0 -8 22 -10 74 -5 l73 6 7 -46
c3 -26 6 -282 6 -570 l0 -524 -193 0 -192 0 -100 100 -100 100 71 0 c39 0 132
3 207 7 l137 6 0 387 0 387 -35 44 c-19 25 -66 101 -105 169 l-70 124 27 28
c33 35 37 35 29 1z m1164 -10 c0 -10 -6 -13 -16 -9 -9 3 -20 6 -25 6 -5 0 -9
6 -9 14 0 9 8 12 25 8 14 -2 25 -11 25 -19z m-660 -12 c-5 -11 -15 -23 -20
-26 -6 -3 -28 -33 -51 -66 -22 -33 -43 -58 -46 -56 -7 8 112 167 124 167 2 0
-1 -9 -7 -19z m788 9 c23 0 32 -5 32 -16 0 -12 -6 -15 -22 -10 -13 3 -38 6
-55 6 -24 0 -33 5 -33 16 0 12 6 15 23 10 12 -3 37 -6 55 -6z m853 -21 c152
-51 136 -264 -23 -299 -46 -9 -56 -8 -97 12 -104 52 -124 176 -39 255 44 42
98 52 159 32z m854 1 c4 -6 -30 -10 -94 -10 -61 0 -101 4 -101 10 0 6 38 10
94 10 53 0 98 -4 101 -10z m-3020 -150 c44 -74 91 -151 103 -170 16 -26 22
-51 22 -95 l1 -60 -258 -252 -258 -252 -68 67 c-111 109 -103 74 -101 477 1
193 2 367 3 388 l1 37 237 -2 238 -3 80 -135z m1180 129 c4 -6 5 -12 3 -14 -7
-7 -48 7 -48 16 0 13 37 11 45 -2z m163 -25 c2 -24 0 -25 -50 -22 -32 2 -53 8
-56 16 -3 11 6 12 42 7 30 -5 46 -4 46 3 0 6 -21 13 -47 15 l-48 3 55 2 c53 2
56 1 58 -24z m-738 6 c0 -5 -5 -10 -11 -10 -5 0 -7 5 -4 10 3 6 8 10 11 10 2
0 4 -4 4 -10z m0 -41 c0 -11 -4 -17 -10 -14 -5 3 -10 13 -10 21 0 8 5 14 10
14 6 0 10 -9 10 -21z m580 11 c0 -12 -8 -12 -35 0 -18 8 -17 9 8 9 15 1 27 -3
27 -9z m2325 -2 c4 -4 -76 -90 -177 -192 l-185 -186 -62 0 c-91 0 -101 8 -101
81 0 35 7 75 16 94 8 19 57 73 108 122 l93 88 151 0 c83 0 153 -3 157 -7z
m-2946 -270 c1 -108 -3 -179 -9 -183 -7 -4 -10 74 -9 227 1 152 4 216 9 183 5
-27 9 -130 9 -227z m-40 -23 c0 -156 -3 -206 -14 -225 -13 -22 -14 -5 -15 166
0 105 3 227 7 270 7 77 7 78 14 34 4 -25 8 -135 8 -245z m816 256 c0 -6 -3
-11 -7 -11 -5 0 -28 0 -53 0 -33 0 -45 4 -45 14 0 12 12 14 53 11 28 -2 52 -8
52 -14z m-162 -6 c-4 -16 -43 -14 -43 2 0 9 8 13 23 11 12 -2 21 -7 20 -13z
m-708 -492 c-6 -24 -55 -87 -62 -79 -2 2 4 19 14 38 15 28 18 64 21 258 1 124
6 236 9 250 8 30 26 -435 18 -467z m133 157 c-4 -8 -7 64 -6 160 l2 175 6
-160 c3 -88 3 -167 -2 -175z m582 290 c0 -5 -11 -10 -25 -10 -14 0 -25 5 -25
10 0 6 11 10 25 10 14 0 25 -4 25 -10z m160 -6 c0 -11 -5 -14 -16 -10 -9 3
-33 6 -55 6 -21 0 -39 5 -39 10 0 6 25 10 55 10 44 0 55 -3 55 -16z m-2582
-31 c-21 -2 -57 -2 -80 0 -24 2 -7 4 37 4 44 0 63 -2 43 -4z m2422 -20 c0 -10
-6 -13 -16 -9 -9 3 -20 6 -25 6 -5 0 -9 6 -9 14 0 9 8 12 25 8 14 -2 25 -11
25 -19z m155 6 c0 -10 -14 -12 -50 -10 -55 3 -60 5 -51 19 9 15 101 6 101 -9z
m-915 -69 c0 -51 -9 -78 -21 -66 -8 9 3 136 12 130 5 -3 9 -32 9 -64z m2528
33 c-2 -10 -7 -17 -11 -15 -4 1 -35 2 -69 2 -71 0 -69 16 2 23 25 2 53 4 63 5
13 1 17 -4 15 -15z m-1608 -14 c0 -13 -9 -15 -52 -11 -58 5 -62 7 -55 19 3 4
28 8 56 8 40 0 51 -3 51 -16z m-160 1 c0 -5 -11 -10 -25 -10 -14 0 -25 5 -25
10 0 6 11 10 25 10 14 0 25 -4 25 -10z m1464 -31 c-55 -59 -119 -117 -123
-113 -6 6 131 144 143 144 6 0 -3 -14 -20 -31z m-3684 -16 c18 -21 122 -129
232 -241 193 -198 198 -204 198 -245 0 -40 5 -47 132 -174 l133 -133 -85 -82
c-47 -45 -176 -171 -287 -280 -110 -109 -207 -198 -214 -198 -7 0 -48 36 -91
80 l-78 81 0 599 c0 329 3 605 6 614 9 24 19 20 54 -21z m3674 -81 c-61 -59
-224 -216 -362 -349 -137 -134 -253 -243 -256 -243 -39 0 182 238 404 435 249
220 302 265 313 265 7 0 -38 -49 -99 -108z m306 98 c0 -13 -13 -17 -72 -23
-36 -3 -48 -1 -48 9 0 9 17 14 53 17 28 2 55 4 60 5 4 1 7 -3 7 -8z m-1605
-21 c0 -10 -14 -12 -50 -10 -54 3 -60 5 -52 18 9 15 102 7 102 -8z m-157 0
c-2 -6 -7 -10 -11 -10 -4 1 -14 1 -22 1 -8 0 -15 5 -15 10 0 6 12 10 26 10 14
0 24 -5 22 -11z m2964 -1276 l-3 -1183 -30 0 c-28 0 -29 2 -29 45 0 83 -44
135 -113 135 -84 0 -127 -45 -127 -133 0 -56 -1 -58 -22 -51 -13 3 -25 9 -28
11 -3 3 -6 477 -8 1054 l-3 1048 178 176 178 175 5 -47 c3 -27 4 -580 2 -1230z
m-1222 1238 c0 -8 -90 -21 -99 -15 -1 2 0 7 4 13 8 13 95 15 95 2z m-1742 -18
c2 -8 -6 -13 -22 -13 -17 0 -26 5 -26 16 0 19 41 16 48 -3z m162 7 c0 -5 -25
-10 -55 -10 -30 0 -55 5 -55 10 0 6 25 10 55 10 30 0 55 -4 55 -10z m-920 -10
c0 -5 -8 -10 -17 -10 -15 0 -16 2 -3 10 19 12 20 12 20 0z m2330 6 c0 -2 -46
-48 -102 -102 -57 -54 -208 -202 -335 -329 l-233 -229 0 -559 0 -558 -30 -32
-30 -32 0 590 0 590 98 95 c452 443 590 570 617 570 8 0 15 -2 15 -4z m170
-26 c0 -6 -23 -9 -52 -9 -49 2 -51 2 -18 9 53 11 70 11 70 0z m-2500 -10 c0
-5 -4 -10 -10 -10 -5 0 -10 5 -10 10 0 6 5 10 10 10 6 0 10 -4 10 -10z m915
-32 c0 -21 -3 -38 -7 -38 -5 0 -29 0 -54 0 -32 0 -44 4 -41 13 2 8 18 11 45 9
33 -3 42 0 42 12 0 12 -11 16 -45 16 -40 0 -54 7 -40 22 3 2 26 4 53 4 l47 -1
0 -37z m-155 16 c0 -11 -5 -14 -16 -10 -9 3 -20 6 -25 6 -6 0 -7 5 -4 10 10
16 45 12 45 -6z m1740 -13 c0 -9 -47 -21 -81 -21 -27 0 -24 18 4 23 41 8 77 7
77 -2z m-2500 -11 c0 -5 -7 -10 -16 -10 -8 0 -12 5 -9 10 3 6 10 10 16 10 5 0
9 -4 9 -10z m-1570 -541 l0 -541 25 -30 25 -30 0 -589 0 -590 -57 3 -58 3 -3
533 c-2 501 -3 533 -20 530 -16 -3 -17 -39 -20 -536 l-2 -532 -55 0 -55 0 0
1160 0 1160 110 0 110 0 0 -541z m3910 529 c0 -7 -129 -142 -286 -299 l-286
-286 1 -490 2 -490 -26 -32 c-15 -17 -31 -31 -36 -31 -5 0 -9 213 -9 517 l0
517 153 154 c201 203 463 452 476 452 6 0 11 -6 11 -12z m-1583 -18 c-1 -21
-6 -24 -31 -14 -25 10 -19 34 8 34 19 0 24 -5 23 -20z m-757 0 c0 -5 -8 -10
-17 -10 -15 0 -16 2 -3 10 19 12 20 12 20 0z m2525 -20 c9 -17 14 -39 11 -48
-3 -10 -35 -46 -70 -81 l-65 -64 -6 35 c-10 54 -3 83 20 84 38 2 45 4 45 13 0
4 -12 6 -26 3 -43 -8 -24 21 27 40 35 13 39 17 19 17 -14 1 -37 -6 -52 -13
-26 -14 -28 -13 -28 4 0 14 10 21 38 25 20 4 42 8 47 10 21 7 25 4 40 -25z
m750 0 c-16 -16 -45 -41 -66 -56 -21 -14 -66 -59 -100 -100 -34 -41 -64 -72
-67 -70 -8 8 104 127 181 193 79 68 96 79 52 33z m-2357 -18 c2 -8 -14 -12
-52 -12 -65 0 -76 17 -13 23 54 4 60 3 65 -11z m-918 -2 c0 -5 -7 -10 -16 -10
-8 0 -12 5 -9 10 3 6 10 10 16 10 5 0 9 -4 9 -10z m2640 -31 c40 -36 41 -39
12 -22 -35 19 -82 63 -66 63 5 0 29 -19 54 -41z m589 -41 c-47 -46 -106 -108
-131 -138 -25 -30 -49 -52 -53 -48 -16 15 228 266 260 268 5 0 -29 -37 -76
-82z m-2469 45 c0 -10 -6 -13 -16 -9 -9 3 -20 6 -25 6 -5 0 -9 6 -9 14 0 9 8
12 25 8 14 -2 25 -11 25 -19z m551 -215 l231 -233 -1 -65 c-2 -57 -6 -82 -13
-69 -2 3 -104 107 -228 232 l-225 227 0 70 c0 39 1 70 3 70 1 0 106 -105 233
-232z m-1311 212 c0 -5 -7 -10 -16 -10 -8 0 -12 5 -9 10 3 6 10 10 16 10 5 0
9 -4 9 -10z m3319 -1371 l1 -1326 -37 -7 c-21 -3 -84 -6 -140 -6 l-103 0 0
778 c-1 914 -1 1514 0 1524 0 4 6 5 14 2 8 -3 17 -1 21 5 3 7 -2 11 -14 11
-40 0 -26 47 34 112 30 32 55 65 55 71 0 7 -25 -15 -55 -48 -37 -42 -54 -54
-55 -42 0 10 13 30 28 45 16 15 43 47 62 72 18 25 65 78 104 118 71 73 71 73
77 45 4 -15 7 -625 8 -1354z m-3840 1105 c-123 -123 -226 -224 -230 -224 -33
0 13 56 215 260 198 201 231 231 234 211 3 -19 -38 -65 -219 -247z m1432 216
c1 -27 2 -65 3 -82 1 -26 -3 -33 -16 -32 -10 0 -34 1 -53 2 -52 3 -43 22 10
22 25 0 45 4 45 9 0 10 -34 21 -67 21 -13 0 -23 5 -23 10 0 6 20 10 45 10 25
0 45 5 45 10 0 6 -20 10 -45 10 -35 0 -45 4 -45 16 0 14 8 16 45 12 34 -4 45
-2 45 8 0 10 -13 14 -45 14 -25 0 -45 5 -45 10 0 6 23 10 50 10 l50 0 1 -50z
m1429 32 c0 -30 -36 -71 -284 -322 -178 -180 -238 -236 -243 -224 -3 9 -2 27
3 41 9 24 501 523 516 523 4 0 8 -8 8 -18z m-2335 -12 c-3 -5 -14 -10 -23 -9
-14 0 -13 2 3 9 27 11 27 11 20 0z m754 -16 c2 -2 2 -7 -2 -10 -8 -9 -47 6
-47 17 0 9 37 3 49 -7z m-762 -20 c-3 -3 -12 -4 -19 -1 -8 3 -5 6 6 6 11 1 17
-2 13 -5z m758 -25 c4 -6 5 -12 3 -14 -7 -7 -48 7 -48 16 0 13 37 11 45 -2z
m678 -464 l107 -110 0 -96 0 -95 -140 -139 c-77 -77 -143 -141 -148 -143 -4
-1 -42 13 -83 32 -41 18 -102 44 -136 56 l-63 23 0 473 0 473 178 -182 c98
-100 226 -231 285 -292z m1194 458 c-20 -2 -52 -2 -70 0 -17 2 0 4 38 4 39 0
53 -2 32 -4z m-2927 -16 c0 -17 -409 -411 -418 -403 -6 7 397 416 410 416 5 0
8 -6 8 -13z m2640 -26 c0 -38 -10 -50 -241 -293 -133 -139 -250 -262 -260
-273 -19 -19 -19 -19 -19 25 l1 45 254 260 c140 143 255 263 255 268 0 4 2 7
5 7 3 0 5 -18 5 -39z m320 9 c0 -6 -37 -10 -90 -10 -53 0 -90 4 -90 10 0 6 37
10 90 10 53 0 90 -4 90 -10z m-1902 -21 c2 -13 -3 -15 -23 -12 -32 7 -34 36
-3 31 13 -2 24 -10 26 -19z m149 -66 c-8 -7 -97 8 -97 18 0 14 95 15 98 1 2
-8 2 -16 -1 -19z m-147 17 c0 -5 -11 -10 -25 -10 -14 0 -25 5 -25 10 0 6 11
10 25 10 14 0 25 -4 25 -10z m1862 -20 l48 0 0 -500 c0 -493 0 -500 20 -500
17 0 20 7 20 45 l0 45 140 0 140 0 0 -396 0 -396 -37 33 c-21 18 -155 146
-298 286 l-260 253 -3 571 -2 572 91 -6 c51 -4 114 -7 141 -7z m-1867 -21 c4
-6 5 -12 3 -14 -7 -7 -48 7 -48 16 0 13 37 11 45 -2z m155 -11 c0 -9 -15 -12
-50 -10 -65 5 -65 22 0 22 33 0 50 -4 50 -12z m1393 -671 l-38 -38 -6 33 c-3
18 -5 160 -5 314 l1 281 40 44 40 44 3 -319 2 -320 -37 -39z m-1552 633 c5 0
9 -6 9 -14 0 -9 -8 -12 -25 -8 -14 2 -25 11 -25 19 0 10 6 13 16 9 9 -3 20 -6
25 -6z m159 -5 c0 -11 -12 -15 -50 -15 -64 0 -66 18 -2 23 26 2 48 4 50 5 1 1
2 -5 2 -13z m-623 -292 c-2 -2 -70 -2 -151 -1 l-147 3 148 148 148 147 3 -146
c1 -81 1 -149 -1 -151z m-587 279 c0 -4 -27 -8 -59 -7 -32 0 -57 3 -54 8 6 10
113 9 113 -1z m1060 -32 c0 -5 -11 -10 -25 -10 -14 0 -25 5 -25 10 0 6 11 10
25 10 14 0 25 -4 25 -10z m158 -7 c3 -9 -12 -13 -52 -13 -44 0 -56 3 -56 16 0
12 10 14 52 12 30 -2 53 -8 56 -15z m-1208 -9 c0 -2 -35 -3 -77 -2 l-78 1 65
6 c61 6 90 4 90 -5z m3253 9 c-13 -2 -35 -2 -50 0 -16 2 -5 4 22 4 28 0 40 -2
28 -4z m-2203 -43 c0 -15 -7 -20 -25 -20 -18 0 -25 5 -25 20 0 15 7 20 25 20
18 0 25 -5 25 -20z m-1060 0 c0 -6 -41 -10 -102 -10 -70 0 -98 3 -88 10 20 13
190 13 190 0z m1210 -5 c0 -11 -12 -15 -44 -15 -43 0 -63 10 -49 24 3 3 26 6
50 6 32 0 43 -4 43 -15z m2070 5 c0 -6 -28 -9 -67 -8 l-68 1 55 7 c30 4 61 7
68 8 6 1 12 -2 12 -8z m-774 -314 l5 -306 -139 -148 c-76 -81 -164 -174 -195
-207 l-56 -60 -1 318 0 318 183 190 c100 105 184 195 186 200 9 28 12 -24 17
-305z m-2506 264 c0 -6 -50 -10 -132 -9 -84 0 -126 4 -113 9 29 12 245 12 245
0z m1210 -6 c0 -12 -6 -15 -22 -10 -13 3 -36 6 -51 6 -16 0 -26 4 -22 10 3 6
26 10 51 10 34 0 44 -4 44 -16z m-150 -4 c0 -5 -11 -10 -25 -10 -14 0 -25 5
-25 10 0 6 11 10 25 10 14 0 25 -4 25 -10z m2173 3 c-29 -2 -78 -2 -110 0 -32
2 -8 3 52 3 61 0 87 -1 58 -3z m-3233 -33 c0 -12 -164 -12 -230 -1 -34 6 -10
9 93 10 85 1 137 -3 137 -9z m950 -10 c0 -6 -56 -9 -152 -8 -108 1 -137 3 -98
8 90 11 250 11 250 0z m110 0 c0 -5 -11 -10 -25 -10 -14 0 -25 5 -25 10 0 6
11 10 25 10 14 0 25 -4 25 -10z m150 0 c0 -5 -20 -10 -44 -10 -25 0 -48 5 -51
10 -4 6 13 10 44 10 28 0 51 -4 51 -10z m2033 3 c-23 -2 -64 -2 -90 0 -26 2
-7 3 42 3 50 0 71 -1 48 -3z m-3248 -33 c4 -7 -54 -10 -167 -10 -115 0 -168 4
-158 10 20 13 317 13 325 0z m955 -10 c0 -6 -57 -10 -152 -10 -103 0 -148 4
-138 10 20 13 290 13 290 0z m105 -5 c0 -5 -10 -11 -22 -13 -16 -2 -23 2 -23
13 0 11 7 15 23 13 12 -2 22 -7 22 -13z m155 0 c0 -11 -12 -15 -50 -15 -61 0
-67 17 -7 23 23 2 45 4 50 5 4 1 7 -5 7 -13z m2033 5 c26 0 47 -4 47 -10 0
-11 -227 -14 -254 -4 -39 15 -9 22 72 18 48 -2 108 -4 135 -4z m-2183 -51 c0
-5 -11 -9 -25 -9 -28 0 -34 16 -7 23 20 4 32 -1 32 -14z m-110 1 c0 -6 -57
-10 -151 -10 -97 0 -148 4 -144 10 4 6 65 10 151 10 89 0 144 -4 144 -10z
m265 -10 c-7 -12 -52 -12 -80 0 -15 6 -6 9 33 9 33 1 51 -3 47 -9z m2073 -2
c-3 -9 -42 -14 -136 -16 -113 -2 -132 0 -132 13 0 13 21 15 136 15 104 0 135
-3 132 -12z m-3460 -238 c9 0 12 -60 12 -219 0 -124 4 -222 9 -226 5 -3 31 6
57 20 26 14 56 25 68 25 17 0 6 -15 -49 -67 -38 -37 -145 -141 -237 -231
l-167 -165 -198 188 c-186 177 -336 333 -331 345 2 3 133 132 292 288 l288
284 123 -121 c67 -67 127 -121 133 -121z m3462 180 c0 -6 -48 -10 -125 -10
-69 0 -128 0 -132 -1 -4 0 -9 4 -11 10 -3 8 40 11 132 11 84 0 136 -4 136 -10z
m-2680 -118 l0 -108 51 -49 c55 -54 79 -92 79 -125 0 -11 -1 -20 -3 -20 -2 0
-43 38 -91 85 -48 47 -89 85 -91 85 -2 0 -75 -46 -162 -103 -187 -122 -302
-191 -308 -185 -5 5 117 99 153 117 22 11 22 15 22 196 0 101 3 190 6 199 5
14 30 16 175 16 l169 0 0 -108z m610 98 c0 -6 -32 -9 -77 -9 -61 1 -70 3 -43
9 53 11 120 11 120 0z m2068 -32 c-3 -9 -39 -14 -123 -16 -123 -3 -151 1 -140
18 10 16 268 13 263 -2z m-2068 -8 c0 -6 -41 -9 -107 -8 l-108 2 95 6 c52 3
101 7 108 8 6 1 12 -2 12 -8z m-510 -20 c24 -8 24 -8 -7 -9 -17 -1 -35 4 -38
9 -7 11 9 11 45 0z m2580 -31 c0 -5 -57 -9 -135 -9 -175 0 -181 18 -7 22 134
3 142 2 142 -13z m-2070 1 c0 -6 -50 -9 -132 -9 -88 1 -120 4 -93 9 63 11 225
11 225 0z m-494 -22 c2 -19 -9 -22 -41 -8 -18 8 -18 9 5 10 l25 2 -25 8 c-24
9 -24 9 4 7 19 -1 30 -8 32 -19z m494 -18 c0 -6 -53 -10 -142 -9 -90 1 -130 4
-108 9 55 12 250 12 250 0z m2068 -10 c-5 -16 -260 -18 -265 -2 -4 9 27 12
132 12 87 0 135 -4 133 -10z m-3071 -18 c-8 -12 -317 -15 -317 -3 0 7 53 11
161 11 88 0 158 -3 156 -8z m508 -14 c6 -6 0 -8 -19 -6 -16 2 -31 9 -34 17 -3
10 2 11 19 6 13 -4 29 -12 34 -17z m495 -14 c0 -15 -15 -15 -142 -9 -195 10
-200 25 -10 25 133 0 152 -2 152 -16z m2068 -6 c-3 -9 -39 -14 -123 -16 -123
-3 -151 1 -140 18 10 16 268 13 263 -2z m-3078 -13 c0 -13 -24 -15 -155 -15
-90 0 -155 4 -155 9 0 12 52 17 198 19 94 2 112 0 112 -13z m1005 -24 c3 -5 1
-12 -4 -15 -14 -9 -231 6 -231 16 0 11 227 10 235 -1z m-1005 -16 c0 -13 -24
-15 -157 -15 -86 0 -153 3 -149 8 4 4 74 9 154 13 81 3 148 6 150 7 1 1 2 -5
2 -13z m3075 -5 c-4 -6 -58 -10 -130 -10 -72 0 -126 4 -130 10 -4 6 42 10 130
10 88 0 134 -4 130 -10z m-2374 -30 c21 0 5 -22 -61 -80 -66 -58 -70 -60 -70
-36 0 29 87 125 108 120 8 -2 18 -4 23 -4z m266 3 c-20 -2 -52 -2 -70 0 -17 2
0 4 38 4 39 0 53 -2 32 -4z m643 -808 c-15 -21 -32 -41 -39 -43 -8 -3 -11 103
-11 397 l0 401 33 29 32 29 6 -386 7 -387 -28 -40z m-1610 791 c0 -7 -52 -11
-155 -11 -163 0 -213 12 -72 17 159 7 227 5 227 -6z m3076 -3 c-11 -12 -266
-15 -266 -3 0 6 52 10 137 10 75 0 133 -3 129 -7z m-2156 -58 c80 -31 195 -74
255 -96 61 -23 117 -44 125 -47 32 -12 -118 -20 -417 -21 -244 -1 -313 2 -313
12 -1 8 185 195 205 207 1 0 66 -25 145 -55z m1510 -222 l-1 -278 -69 -73
c-38 -40 -185 -200 -327 -355 -141 -155 -309 -338 -373 -407 -64 -69 -163
-177 -220 -240 -57 -63 -165 -179 -242 -258 l-138 -142 0 128 0 129 43 48 c23
27 133 143 244 259 111 115 200 213 197 218 -3 4 -12 8 -20 8 -13 0 -330 -316
-414 -412 -17 -21 -36 -38 -41 -38 -5 0 -9 55 -9 121 l0 121 31 37 c29 32 155
166 439 466 l95 100 3 -53 c4 -64 7 -59 -186 -257 -299 -306 -298 -305 -282
-315 12 -7 70 46 268 243 l252 252 0 98 0 97 161 173 c303 324 574 607 582
607 4 0 7 -125 7 -277z m-2036 178 c28 -69 31 -86 17 -76 -9 5 -39 78 -56 135
-14 47 12 7 39 -59z m-394 59 c0 -11 -123 -11 -240 0 -63 6 -50 7 83 8 99 1
157 -2 157 -8z m3070 0 c0 -6 -50 -10 -130 -10 -80 0 -130 4 -130 10 0 6 50
10 130 10 80 0 130 -4 130 -10z m-2765 -52 c2 -24 6 -56 10 -73 6 -22 5 -27
-4 -19 -6 6 -14 42 -18 80 -3 38 -2 66 2 62 4 -4 8 -26 10 -50z m-35 -16 c17
-62 10 -71 -10 -12 -23 65 -23 63 -10 55 5 -3 14 -22 20 -43z m99 -62 c1 -12
-1 -12 -13 0 -15 17 -36 75 -35 99 1 18 47 -76 48 -99z m77 59 c14 -28 23 -53
20 -56 -4 -5 -56 89 -56 102 0 15 12 -1 36 -46z m-486 31 c13 -8 13 -12 -3
-27 -15 -15 -39 -19 -142 -21 -85 -3 -125 0 -125 7 0 7 36 11 103 12 56 1 113
4 127 9 l25 7 -25 7 c-14 3 -72 7 -130 9 -104 3 -104 3 25 5 72 1 137 -3 145
-8z m1559 -436 l1 -361 -29 -30 -29 -31 -6 30 c-3 17 -6 193 -6 392 l0 361 27
40 27 40 8 -40 c4 -22 7 -202 7 -401z m1558 420 c6 -16 -46 -24 -163 -24 -65
0 -105 4 -110 11 -3 6 -2 14 4 18 19 11 265 7 269 -5z m-2867 -26 c11 -18 20
-40 20 -48 0 -14 -49 57 -50 73 0 15 11 6 30 -25z m-1556 -32 l26 -35 0 -530
0 -531 -35 0 -35 0 0 565 c0 319 4 565 9 565 5 0 20 -15 35 -34z m1505 4 c11
-24 11 -24 -3 -6 -9 11 -16 24 -16 30 0 12 5 7 19 -24z m-315 -19 c9 -14 -14
-17 -84 -12 -61 5 -63 5 -25 12 61 10 103 10 109 0z m1566 -375 c0 -189 3
-363 6 -387 5 -36 2 -48 -16 -69 -12 -14 -30 -36 -41 -50 -18 -25 -18 -18 -19
384 l0 410 27 28 c15 15 30 28 35 28 4 0 8 -155 8 -344z m-1610 325 c-26 -15
-103 -17 -107 -3 -4 9 12 12 59 12 40 0 58 -4 48 -9z m-976 -431 c-1 -179 -2
-387 -3 -463 l-1 -138 -47 3 -48 3 -3 515 -2 515 52 -55 53 -55 -1 -325z
m1696 390 l0 -30 -277 1 c-153 0 -300 4 -328 8 l-50 6 45 17 c63 24 73 25 358
27 l252 1 0 -30z m-3740 -490 c0 -484 -1 -500 -19 -500 -10 0 -22 7 -25 16 -3
9 -6 234 -6 500 l0 484 25 0 25 0 0 -500z m200 0 l0 -500 -80 0 -80 0 0 500 0
500 80 0 80 0 0 -500z m100 0 l0 -500 -30 0 -30 0 0 500 0 500 30 0 30 0 0
-500z m250 0 l0 -500 -105 0 -105 0 0 500 0 500 105 0 105 0 0 -500z m2701
253 l201 -198 143 -5 143 -5 -111 -97 c-118 -101 -458 -424 -491 -464 l-19
-23 -274 266 c-150 147 -272 269 -271 273 6 13 462 450 470 450 5 0 99 -89
209 -197z m1045 168 c-6 -9 -45 -35 -191 -129 l-80 -52 -117 0 -118 0 0 90 0
90 198 3 c108 1 223 3 255 5 33 1 56 -2 53 -7z m-54 -154 l-153 -153 -315 0
-316 1 -131 134 c-72 74 -126 136 -119 139 6 2 64 -36 128 -85 64 -48 125 -95
136 -103 17 -12 68 -14 296 -12 256 2 277 3 296 21 12 11 82 58 156 106 74 47
139 90 145 96 5 5 14 9 19 9 6 0 -58 -69 -142 -153z m-792 111 c18 -17 43 -49
57 -70 14 -21 29 -36 33 -33 4 3 13 -2 20 -10 10 -12 9 -15 -5 -15 -17 0 -38
20 -113 109 -48 56 -42 70 8 19z m57 10 c26 -29 46 -68 35 -68 -4 0 -22 20
-40 45 -33 47 -30 61 5 23z m58 -8 c19 -37 19 -51 -1 -25 -26 34 -36 55 -25
55 6 0 17 -13 26 -30z m50 -27 c10 -26 25 -58 33 -71 8 -12 12 -25 10 -28 -8
-7 -35 39 -58 98 -23 61 -23 61 -11 54 4 -3 16 -27 26 -53z m-215 -13 c5 0 32
-22 61 -50 29 -27 46 -50 38 -50 -8 1 -52 37 -99 82 -47 44 -68 67 -47 49 21
-17 42 -31 47 -31z m270 -9 c11 -29 19 -56 16 -59 -6 -5 -56 104 -56 121 0 21
19 -8 40 -62z m30 33 c17 -49 7 -53 -13 -4 -8 22 -12 40 -7 40 5 0 14 -16 20
-36z m-275 -5 c14 -22 -3 -18 -26 7 -23 25 -23 26 -2 15 12 -6 25 -16 28 -22z
m302 -1 c-3 -7 -5 -2 -5 12 0 14 2 19 5 13 2 -7 2 -19 0 -25z m-117 -95 c0 -7
-4 -13 -8 -13 -10 0 -42 54 -42 72 1 16 50 -42 50 -59z m862 32 c3 -14 1 -25
-3 -25 -5 0 -9 11 -9 25 0 14 2 25 4 25 2 0 6 -11 8 -25z m-745 -7 c-3 -8 -6
-5 -6 6 -1 11 2 17 5 13 3 -3 4 -12 1 -19z m2105 -113 c62 -60 193 -187 291
-282 l177 -173 0 -1269 0 -1269 -25 -4 c-13 -3 -27 -3 -30 0 -3 3 -5 401 -5
884 0 871 0 878 -20 878 -20 0 -20 -8 -22 -882 l-3 -883 -45 0 -45 0 -3 943
c-2 942 -2 943 -22 940 -21 -3 -21 -6 -20 -940 l0 -938 -35 0 c-19 0 -35 3
-36 8 -1 4 -2 379 -3 834 -1 455 -5 830 -9 834 -3 4 -13 4 -22 1 -13 -6 -15
-98 -15 -844 l0 -838 -112 0 c-111 0 -112 0 -118 25 -11 46 -13 3093 -2 3089
6 -2 62 -53 124 -114z m-3500 -70 c12 -16 -18 8 -66 55 -48 47 -92 94 -98 105
-13 26 137 -121 164 -160z m2081 134 c2 -19 7 -40 11 -47 5 -8 1 -12 -11 -12
-15 0 -18 7 -14 51 3 57 8 60 14 8z m80 14 c-7 -2 -19 -2 -25 0 -7 3 -2 5 12
5 14 0 19 -2 13 -5z m-2149 -197 c32 -26 196 -188 365 -359 408 -414 452 -462
445 -481 -3 -9 -10 -16 -14 -16 -4 0 -113 109 -241 243 -129 133 -352 362
-496 509 -145 147 -263 273 -263 280 0 7 33 -19 73 -58 39 -40 98 -93 131
-118z m2156 169 c0 -9 -9 -15 -22 -14 -21 1 -21 2 -3 7 l20 5 -20 8 c-19 7
-19 8 3 8 13 1 22 -5 22 -14z m-2346 -41 c17 -15 35 -33 40 -42 5 -8 -12 2
-38 23 -25 22 -46 41 -46 42 0 8 15 0 44 -23z m2356 6 c0 -5 -11 -10 -25 -10
-14 0 -25 5 -25 10 0 6 11 10 25 10 14 0 25 -4 25 -10z m-160 -70 l0 -70 -30
0 c-38 0 -40 20 -2 21 l27 1 -30 8 c-24 6 -26 8 -7 9 21 1 27 21 25 89 -1 6 3
12 8 12 5 0 9 -31 9 -70z m78 33 c2 -8 -5 -13 -17 -13 -12 0 -21 6 -21 16 0
18 31 15 38 -3z m73 7 c17 0 9 -20 -8 -21 -17 -1 -17 -2 0 -6 9 -2 17 -9 17
-14 0 -5 -8 -9 -17 -10 -15 0 -15 -2 -3 -7 19 -9 24 -40 9 -58 -6 -8 -7 -14
-2 -14 6 0 12 -75 15 -192 6 -229 14 -208 -131 -353 l-101 -100 0 191 c0 105
3 225 6 267 6 69 9 77 28 78 20 2 20 2 -1 6 -27 5 -31 38 -7 47 34 13 43 6 43
-31 1 -21 5 -76 10 -123 l8 -85 2 120 c5 243 10 275 42 275 10 0 19 -4 19 -10
0 -5 -6 -10 -12 -10 -10 0 -10 -2 0 -8 7 -5 13 -22 13 -38 1 -68 8 -229 10
-234 6 -15 17 120 18 224 1 103 3 117 17 112 9 -3 20 -6 25 -6z m-2314 -48
c110 -92 284 -269 643 -652 79 -85 176 -185 214 -223 67 -66 68 -68 51 -87
-10 -11 -21 -20 -25 -20 -4 0 -46 44 -95 98 -138 152 -307 331 -585 617 -229
237 -280 292 -280 304 0 20 19 11 77 -37z m2033 -7 c0 -8 -7 -15 -15 -15 -16
0 -20 12 -8 23 11 12 23 8 23 -8z m1408 -1612 c-12 -13 -25 -23 -30 -23 -4 0
-8 355 -8 789 l0 789 28 33 27 33 3 -799 2 -799 -22 -23z m-2937 987 c289
-306 349 -371 349 -381 0 -5 -7 -12 -15 -15 -10 -4 -45 26 -107 92 -51 55
-237 247 -413 428 -378 388 -405 419 -405 454 0 23 29 -2 213 -188 117 -118
287 -294 378 -390z m1536 594 c-3 -3 -12 -4 -19 -1 -8 3 -5 6 6 6 11 1 17 -2
13 -5z m-297 -24 c0 -6 -127 -140 -281 -298 -155 -158 -310 -316 -345 -352
l-64 -65 -46 46 -46 46 234 225 c226 219 377 357 428 391 27 19 120 24 120 7z
m140 -312 l0 -323 -327 5 c-210 3 -328 9 -327 15 3 30 52 35 342 35 231 0 293
3 290 13 -4 9 -72 13 -286 15 -170 1 -282 6 -282 12 0 27 53 33 297 38 139 3
253 8 253 12 0 16 -119 21 -303 14 l-191 -7 239 247 c199 204 245 246 268 246
l27 0 0 -322z m160 307 c0 -5 -25 -11 -56 -12 -44 -2 -54 0 -46 10 13 15 102
17 102 2z m120 -15 c0 -5 -13 -10 -30 -10 -16 0 -30 5 -30 10 0 6 14 10 30 10
17 0 30 -4 30 -10z m-120 -35 c0 -11 -12 -15 -52 -15 -76 0 -52 18 40 29 6 0
12 -6 12 -14z m120 5 c0 -5 -13 -10 -30 -10 -16 0 -30 5 -30 10 0 6 14 10 30
10 17 0 30 -4 30 -10z m1210 -775 l0 -786 -22 -29 c-12 -17 -24 -30 -27 -30
-3 0 -5 359 -3 797 2 720 4 799 19 815 9 10 20 18 25 18 4 0 8 -353 8 -785z
m-3359 648 c52 -54 180 -188 284 -298 105 -110 234 -245 287 -300 123 -127
175 -184 194 -211 15 -22 10 -55 -10 -53 -6 1 -54 47 -106 103 -52 55 -237
251 -410 434 -173 183 -322 345 -332 360 -19 28 -24 62 -10 62 5 0 51 -44 103
-97z m2039 66 c0 -5 -25 -9 -55 -9 -67 0 -73 18 -7 22 52 3 62 1 62 -13z
m-2762 -279 l-3 -155 -223 -3 c-146 -1 -223 1 -220 8 1 5 100 99 218 209 l215
200 8 -52 c4 -28 6 -121 5 -207z m3992 -537 c0 -690 -2 -773 -16 -787 -8 -9
-20 -14 -25 -11 -5 4 -9 319 -9 776 0 699 2 772 17 795 12 19 18 22 24 12 5
-7 9 -360 9 -785z m-1230 767 c0 -5 -25 -10 -55 -10 -30 0 -55 5 -55 10 0 6
25 10 55 10 30 0 55 -4 55 -10z m-1102 -531 c55 -59 77 -99 55 -99 -17 0 -554
565 -575 604 -12 22 412 -389 520 -505z m1102 491 c0 -5 -25 -10 -55 -10 -30
0 -55 5 -55 10 0 6 25 10 55 10 30 0 55 -4 55 -10z m-1805 -350 c50 -52 110
-118 135 -145 25 -28 94 -102 155 -165 60 -63 132 -138 158 -166 l48 -50 -48
-48 -48 -47 -40 44 c-23 24 -190 200 -373 390 l-332 346 0 80 c0 43 3 86 6 95
6 15 64 -42 339 -334z m1805 305 c0 -12 -13 -15 -55 -15 -67 0 -73 17 -7 23
26 2 50 4 55 5 4 1 7 -5 7 -13z m-4645 -147 c-2 -68 -4 -131 -4 -140 -1 -17
-24 -18 -331 -18 l-330 0 0 140 0 140 334 0 334 0 -3 -122z m148 -10 c3 -73 2
-137 -2 -141 -5 -5 -28 -7 -52 -5 l-44 3 -3 138 -3 137 49 0 49 0 6 -132z
m167 -8 l0 -140 -60 0 -60 0 0 140 0 140 60 0 60 0 0 -140z m4325 110 c-3 -5
-28 -10 -56 -10 -27 0 -49 5 -49 10 0 6 25 10 56 10 34 0 53 -4 49 -10z m-5
-55 c0 -11 -12 -15 -50 -15 -38 0 -50 4 -50 15 0 11 12 15 50 15 38 0 50 -4
50 -15z m0 -50 c0 -11 -12 -15 -50 -15 -58 0 -68 17 -12 23 20 2 43 4 50 5 6
1 12 -5 12 -13z m2670 -45 c25 -25 27 -86 3 -112 -24 -27 -87 -24 -107 4 -38
54 -6 128 54 128 17 0 39 -9 50 -20z m-2670 -6 c0 -11 -5 -14 -16 -10 -9 3
-31 6 -50 6 -19 0 -34 5 -34 10 0 6 23 10 50 10 39 0 50 -3 50 -16z m1051 -2
c-6 -10 -30 -35 -55 -55 -24 -21 -54 -54 -67 -75 -42 -71 -159 -180 -159 -149
0 13 274 297 286 297 3 0 0 -8 -5 -18z m-2856 -343 c182 -188 341 -357 354
-376 23 -32 24 -35 7 -51 -16 -16 -20 -13 -79 48 -73 77 -337 358 -451 480
-44 47 -97 101 -118 120 -28 26 -39 46 -44 78 -4 23 -5 42 -2 42 2 0 152 -154
333 -341z m1805 301 c0 -5 -20 -10 -44 -10 -25 0 -48 5 -51 10 -4 6 13 10 44
10 28 0 51 -4 51 -10z m1090 6 c0 -2 -8 -10 -17 -17 -16 -13 -17 -12 -4 4 13
16 21 21 21 13z m-88 -79 c-29 -29 -52 -56 -52 -60 0 -17 27 -4 89 44 66 51
66 51 21 7 -59 -56 -98 -88 -108 -88 -4 0 -36 -27 -72 -60 -36 -33 -68 -60
-71 -60 -4 0 -9 7 -13 15 -3 8 -2 15 3 15 15 0 127 114 142 144 12 25 92 96
108 96 3 0 -18 -24 -47 -53z m-1002 33 c0 -5 -20 -10 -44 -10 -25 0 -48 5 -51
10 -4 6 13 10 44 10 28 0 51 -4 51 -10z m861 -16 c-11 -14 -32 -35 -48 -46
-16 -12 -9 -2 17 25 49 52 62 61 31 21z m-11 -57 c-30 -29 -65 -65 -78 -81
-16 -21 -26 -26 -34 -18 -8 8 -5 18 12 39 12 15 24 27 26 25 4 -2 84 60 108
84 6 7 13 10 16 7 2 -2 -20 -27 -50 -56z m-850 33 c0 -5 -23 -10 -51 -10 -31
0 -48 4 -44 10 3 6 26 10 51 10 24 0 44 -4 44 -10z m-3690 -29 c0 -5 -47 -50
-104 -100 l-104 -91 -701 0 -701 0 0 98 0 97 805 2 c443 1 805 -2 805 -6z
m434 -353 c4 -200 6 -559 4 -798 l-3 -435 -102 -3 -103 -3 0 796 0 795 35 0
35 0 1 -52 c0 -29 1 -334 2 -678 2 -618 2 -625 22 -625 20 0 20 8 23 677 2
743 -3 684 58 687 22 1 22 0 28 -361z m1068 250 c2 -60 2 -113 0 -118 -2 -6
-153 -10 -408 -10 l-404 0 0 115 0 114 73 3 c39 2 221 3 404 4 l332 0 3 -108z
m159 4 c52 -53 144 -149 204 -212 61 -64 159 -166 218 -228 101 -105 122 -139
91 -149 -15 -5 -68 46 -358 348 -135 141 -250 269 -256 284 -12 32 -13 55 -2
55 5 0 51 -44 103 -98z m2027 86 c-5 -15 -98 -24 -98 -9 0 5 17 12 38 14 20 2
43 4 50 5 8 1 12 -4 10 -10z m1057 -33 c-27 -25 -53 -45 -56 -45 -3 0 -37 -29
-75 -65 -38 -35 -72 -65 -75 -65 -4 0 -9 7 -12 15 -7 17 80 98 132 122 20 9
56 32 81 50 62 45 64 40 5 -12z m1509 24 c38 -12 99 -12 112 0 11 12 113 21
119 12 3 -6 9 -375 6 -409 -1 -10 -40 -12 -178 -10 l-178 3 -3 200 c-1 110 0
205 2 211 5 13 69 9 120 -7z m-6164 -8 c0 -25 -642 -625 -688 -642 -77 -29
-22 32 216 245 346 308 458 405 465 406 4 0 7 -4 7 -9z m403 -6 c4 -8 2 -17
-3 -20 -6 -4 -10 -15 -10 -27 0 -18 3 -17 35 11 49 43 55 39 11 -6 -20 -21
-36 -41 -36 -45 0 -4 -4 -8 -8 -8 -5 0 -10 25 -11 55 -1 52 10 73 22 40z
m-333 -18 c0 -22 -208 -229 -490 -487 -57 -52 -112 -103 -122 -112 -18 -18
-73 -26 -66 -10 2 4 68 68 148 142 79 74 183 171 230 215 107 101 291 265 296
265 2 0 4 -6 4 -13z m3370 -14 c0 -17 -23 -18 -366 -15 -321 2 -365 4 -354 17
11 13 67 15 366 15 330 0 354 -1 354 -17z m160 7 c0 -5 -22 -10 -50 -10 -27 0
-50 5 -50 10 0 6 23 10 50 10 28 0 50 -4 50 -10z m1063 -43 c-130 -116 -182
-156 -189 -145 -5 7 11 28 42 54 55 47 177 133 182 129 2 -2 -13 -19 -35 -38z
m-4133 15 c0 -14 -32 -38 -80 -60 l-45 -21 68 5 c56 4 67 2 67 -10 0 -12 -10
-16 -37 -16 -21 0 -55 -3 -75 -6 -37 -6 -38 -6 -38 23 0 21 7 33 23 40 12 6
40 19 62 31 46 23 55 25 55 14z m3075 -17 c0 -5 -24 -11 -52 -13 -49 -3 -71 9
-40 22 20 8 92 2 92 -9z m-250 -4 c58 -5 -45 -8 -295 -9 -252 -1 -380 2 -370
8 17 11 529 12 665 1z m-3266 -308 l1 -253 -297 0 -298 1 45 41 c243 225 495
466 513 492 l22 31 6 -30 c4 -17 7 -144 8 -282z m1699 -40 c139 -144 252 -266
252 -272 0 -6 -8 -15 -18 -20 -16 -8 -46 18 -198 172 -354 359 -354 359 -354
408 l0 44 33 -35 c19 -19 147 -153 285 -297z m2912 318 c0 -5 -19 -25 -42 -46
-24 -20 -62 -55 -85 -77 -36 -35 -44 -39 -58 -28 -14 12 -14 15 2 33 20 22
164 126 176 127 4 0 7 -4 7 -9z m-357 -42 l35 -42 1 -443 1 -444 -40 0 -40 0
-1 458 c0 251 -3 469 -5 485 -6 38 8 34 49 -14z m-84 -511 l1 -418 -40 0 -40
0 0 436 0 435 33 39 32 39 6 -57 c4 -31 7 -245 8 -474z m-1291 42 c-2 -264 -6
-481 -9 -484 -2 -3 -24 0 -47 6 -59 15 -110 2 -148 -36 -68 -68 -66 -165 6
-230 34 -30 47 -36 86 -36 25 0 58 7 73 15 l28 14 6 -72 c8 -87 2 -113 -25
-120 -11 -3 -83 -3 -159 0 l-138 6 0 709 -1 708 166 -1 166 0 -4 -479z m632
10 l0 -470 -54 0 c-34 0 -55 5 -58 13 -4 10 -3 896 1 920 0 4 26 7 56 7 l55 0
0 -470z m1114 438 c-9 -15 -108 -107 -134 -125 -12 -8 -21 -9 -25 -3 -10 15
21 54 65 80 23 14 51 33 63 42 26 20 41 23 31 6z m-4164 -34 c0 -11 -17 -14
-80 -14 -70 0 -80 2 -80 18 0 15 9 17 80 14 61 -3 80 -7 80 -18z m-950 -46
c-25 -23 -69 -63 -98 -90 l-52 -48 -575 0 -575 0 0 90 0 90 673 0 672 -1 -45
-41z m5110 2 c-6 -10 -17 -23 -24 -27 -8 -4 -31 -23 -51 -42 -27 -24 -40 -30
-48 -22 -8 8 -1 20 27 46 21 19 43 35 48 35 5 0 16 7 24 15 22 22 37 19 24 -5z
m-4152 -652 l2 -658 -85 0 -85 0 0 660 0 661 83 -3 82 -3 3 -657z m2876 652
c-6 -6 -21 -6 -39 -1 -30 9 -30 9 10 10 25 1 36 -2 29 -9z m1046 -442 l0 -388
-30 0 -30 0 0 423 1 422 29 -35 30 -34 0 -388z m-3066 396 c3 -26 6 -321 6
-656 l0 -609 -77 3 -78 3 -2 155 c-3 277 -10 313 -75 379 -89 91 -213 103
-301 30 -43 -35 -72 -105 -63 -151 15 -82 72 -128 160 -128 129 0 190 204 78
264 -17 10 -21 15 -11 16 35 0 113 -64 139 -115 24 -47 25 -58 29 -252 l3
-203 -304 0 -305 0 -6 308 c-9 398 -9 987 0 995 3 4 185 7 403 7 l397 0 7 -46z
m160 -51 c50 -54 161 -169 246 -256 l155 -159 -249 -251 c-137 -139 -252 -252
-255 -252 -3 0 -4 207 -3 460 1 253 2 481 2 508 0 26 3 47 6 47 3 0 47 -44 98
-97z m2565 -365 l1 -368 -40 0 -40 0 0 371 0 371 33 45 32 45 7 -48 c3 -27 7
-214 7 -416z m-709 412 c0 -6 -26 -9 -62 -8 l-63 1 55 7 c30 4 58 7 63 8 4 1
7 -2 7 -8z m1300 -10 c0 -11 -12 -26 -29 -35 -16 -8 -37 -22 -46 -31 -15 -16
-18 -16 -33 1 -9 9 -13 19 -7 21 6 2 30 18 55 34 53 35 60 36 60 10z m-2196
-47 c-53 -66 -505 -532 -595 -616 -41 -37 -163 -156 -271 -265 l-198 -197 0
46 c0 46 1 48 128 176 419 426 953 925 971 907 2 -2 -14 -25 -35 -51z m906 7
c0 -6 -34 -10 -81 -10 -51 0 -78 4 -74 10 3 6 40 10 81 10 43 0 74 -4 74 -10z
m1142 -392 l1 -333 -25 -3 -25 -3 -5 278 c-3 153 -3 317 0 365 l4 87 25 -29
24 -29 1 -333z m156 355 c1 -20 -4 -41 -11 -45 -9 -6 -9 -10 1 -17 8 -4 12
-21 10 -37 -3 -29 -3 -29 -45 25 l-41 55 36 28 c21 15 40 28 43 28 3 0 6 -17
7 -37z m-1298 -18 c0 -17 -37 -19 -139 -9 -87 10 -56 24 52 24 71 0 87 -3 87
-15z m570 -144 l0 -150 -57 -34 c-55 -33 -292 -157 -299 -157 -2 0 -4 27 -4
61 l0 61 148 156 c81 86 158 169 172 183 14 15 28 27 33 28 4 1 7 -66 7 -148z
m1792 72 c24 -21 93 -86 153 -144 61 -58 157 -149 215 -203 110 -103 199 -196
200 -208 0 -5 -13 -8 -29 -8 -25 0 -61 30 -218 182 -406 394 -409 397 -393
408 23 15 26 13 72 -27z m-6438 13 c-3 -8 -15 -16 -27 -17 -12 -2 -250 -3
-529 -1 -441 2 -508 4 -508 17 0 13 69 15 535 15 453 0 534 -2 529 -14z m3185
-33 c-184 -202 -251 -272 -456 -476 -128 -126 -230 -234 -227 -238 3 -5 12 -9
20 -9 9 0 118 101 242 224 243 239 446 426 463 426 16 0 -39 -61 -163 -181
-61 -59 -107 -112 -104 -118 4 -6 52 23 122 75 174 129 185 127 58 -12 -45
-49 -107 -119 -138 -156 -32 -38 -61 -68 -67 -68 -15 0 -10 -17 7 -24 11 -4
48 24 121 94 114 109 163 148 163 130 0 -10 -86 -104 -357 -390 -29 -31 -40
-49 -34 -59 6 -10 19 -1 52 35 118 134 333 333 345 321 9 -9 -19 -45 -104
-132 -134 -137 -185 -195 -179 -201 3 -4 64 48 135 115 71 66 132 121 136 121
4 0 6 -10 4 -23 -4 -28 -113 -154 -246 -284 -64 -63 -93 -97 -89 -108 4 -8 11
-15 16 -15 5 0 78 72 163 160 137 144 154 158 160 138 3 -13 6 -110 7 -215 l1
-193 -565 0 -565 0 0 33 c0 30 21 54 213 243 483 479 628 616 827 787 71 60
95 60 39 0z m881 37 c0 -6 -47 -10 -121 -10 -77 0 -118 4 -114 10 4 6 55 10
121 10 69 0 114 -4 114 -10z m4392 -272 c2 -156 1 -289 -1 -295 -2 -10 -147
-13 -682 -13 l-678 0 -68 68 c-37 37 -132 129 -210 204 l-143 137 0 90 0 91
890 0 889 0 3 -282z m-1824 247 c-3 -3 -9 2 -12 12 -6 14 -5 15 5 6 7 -7 10
-15 7 -18z m-24 -47 c11 -10 17 -20 14 -23 -3 -3 -27 15 -54 40 -39 37 -42 42
-14 23 19 -13 43 -31 54 -40z m-1310 21 c-8 -14 -34 -11 -34 4 0 8 3 17 7 20
9 9 34 -13 27 -24z m-5366 -16 c-3 -17 -36 -18 -501 -21 -492 -2 -497 -2 -497
18 0 20 6 20 501 20 471 0 500 -1 497 -17z m4140 0 c3 -10 -34 -13 -162 -13
-96 0 -166 4 -166 9 0 15 36 19 184 17 102 -1 140 -4 144 -13z m2556 -253
c135 -129 246 -240 246 -247 0 -7 -10 -13 -23 -13 -24 0 -138 101 -369 330
-103 101 -128 131 -128 153 0 21 3 26 14 20 7 -4 124 -114 260 -243z m-1284
220 c0 -5 -6 -14 -12 -19 -86 -71 -100 -72 -34 -4 32 33 46 40 46 23z m-5483
-33 c3 -5 -1 -13 -8 -18 -8 -5 -218 -9 -466 -9 -453 0 -453 0 -453 21 l0 21
461 -3 c264 -2 463 -7 466 -12z m4213 3 c0 -6 -74 -10 -201 -10 -131 0 -198 3
-194 10 4 6 82 10 201 10 123 0 194 -4 194 -10z m1235 -96 c-26 -33 -49 -61
-51 -63 -2 -2 -4 3 -4 11 0 22 83 128 93 118 5 -4 -12 -34 -38 -66z m-1235 31
c0 -13 -30 -15 -209 -15 -191 0 -233 5 -214 24 3 3 100 6 215 6 178 0 208 -2
208 -15z m2491 -188 c151 -147 190 -190 179 -197 -8 -6 -20 -10 -26 -10 -13 0
-347 335 -356 358 -10 25 -9 44 1 40 5 -1 96 -88 202 -191z m-5951 136 c0 -5
-17 -21 -37 -38 -61 -48 -314 -278 -723 -656 -212 -195 -414 -382 -450 -415
-36 -32 -149 -139 -253 -237 -103 -97 -194 -177 -202 -177 -13 0 -15 53 -15
374 l0 374 118 113 c65 63 253 236 417 384 l299 270 66 6 c99 8 780 10 780 2z
m110 -593 l0 -600 -661 0 c-363 0 -659 4 -657 8 4 11 444 423 648 607 43 39
172 156 286 261 291 265 357 323 372 324 9 0 12 -126 12 -600z m4648 589 c-7
-21 -93 -118 -105 -118 -21 -2 -1 44 40 87 39 39 73 56 65 31z m-5688 -4 c0
-7 -108 -108 -280 -260 -145 -129 -347 -313 -427 -389 l-43 -40 0 347 0 347
375 0 c206 0 375 -2 375 -5z m4390 -10 c0 -13 -28 -15 -212 -13 -158 2 -212 6
-216 16 -3 9 44 12 212 12 187 0 216 -2 216 -15z m570 -195 l0 -160 -180 0
-180 0 0 28 c0 36 15 60 23 38 10 -24 25 -19 20 7 -3 15 3 29 18 42 l22 20
-12 -23 c-7 -13 -11 -31 -9 -40 3 -12 10 -5 25 23 12 22 33 51 48 65 25 23 24
20 -9 -32 -20 -31 -36 -60 -36 -64 0 -3 57 53 127 125 69 72 130 131 135 131
4 0 8 -72 8 -160z m1853 30 c116 -112 135 -136 119 -152 -12 -12 -55 24 -174
143 -68 67 -88 94 -88 114 0 34 -1 35 143 -105z m-2460 104 c20 -3 37 -10 37
-15 0 -5 -90 -9 -210 -9 -172 0 -210 2 -210 14 0 11 32 14 173 14 94 1 189 -1
210 -4z m1331 -31 c-8 -29 -80 -102 -101 -103 -28 0 -10 41 35 84 55 53 76 59
66 19z m-1304 -54 c0 -15 -4 -19 -16 -15 -9 3 -101 6 -205 6 -161 0 -189 2
-189 15 0 13 29 15 205 15 202 0 205 0 205 -21z m1312 -101 c3 -51 3 -96 1
-100 -2 -5 -31 -8 -64 -8 l-59 0 0 46 c0 41 5 50 51 100 29 30 55 54 59 54 4
0 10 -42 12 -92z m1067 9 c41 -45 69 -83 63 -85 -19 -6 -121 88 -143 130 -31
61 -2 45 80 -45z m-2369 34 c0 -17 -12 -18 -210 -18 -199 0 -210 1 -210 18 0
18 12 19 210 19 198 0 210 -1 210 -19z m0 -59 c0 -17 -15 -18 -210 -20 -204
-2 -210 -1 -210 18 0 19 7 20 210 20 195 0 210 -1 210 -18z m1580 -54 c0 -26
-14 -46 -23 -31 -2 5 -2 25 1 47 5 43 22 31 22 -16z m720 20 c0 -18 -2 -20 -9
-8 -6 8 -7 18 -5 22 9 14 14 9 14 -14z m-4730 -3 c66 -34 81 -111 32 -166 -51
-57 -141 -34 -163 41 -15 49 10 106 55 126 40 17 41 17 76 -1z m3966 -20 c-1
-16 -8 -26 -25 -30 -35 -9 -37 1 -5 29 16 14 30 26 30 26 1 0 1 -11 0 -25z
m-1536 -7 l0 -23 -215 3 c-168 2 -215 6 -215 16 0 7 3 16 7 19 3 4 100 7 215
7 l208 0 0 -22z m2642 -65 c18 -15 114 -106 212 -202 99 -97 189 -185 201
-196 13 -11 41 -38 64 -60 27 -26 44 -36 51 -29 6 6 -73 93 -235 254 -145 145
-240 247 -234 251 26 16 65 -16 266 -214 117 -115 217 -206 223 -202 17 11 1
29 -191 221 -144 144 -181 186 -171 196 8 8 19 9 37 2 14 -5 121 -102 239
-216 118 -115 219 -208 225 -208 30 0 -5 41 -185 218 -109 106 -195 194 -193
196 2 3 15 7 29 11 22 5 38 -5 102 -62 120 -106 309 -284 639 -598 167 -159
348 -330 403 -380 l98 -90 -238 -5 c-132 -3 -244 -3 -251 0 -14 6 -517 483
-668 635 -61 60 -197 194 -304 297 -106 103 -190 192 -186 198 10 17 32 11 67
-17z m1740 -530 c2 -307 1 -564 -1 -570 -2 -8 -20 -13 -45 -13 -38 0 -48 7
-137 93 -246 237 -918 867 -1045 978 -49 43 -58 55 -45 61 9 4 298 7 643 7
l628 1 2 -557z m-3082 501 c0 -6 -11 -21 -25 -34 l-25 -23 -515 2 c-514 2
-515 2 -515 -18 0 -21 2 -21 484 -21 267 0 487 -4 490 -9 3 -4 -4 -17 -15 -27
-20 -18 -52 -19 -734 -22 -705 -2 -713 -3 -708 -22 5 -20 16 -20 690 -20 l684
0 -27 -35 -27 -35 -536 0 c-363 1 -536 -3 -535 -10 1 -5 2 -14 3 -20 0 -6 181
-11 502 -12 l501 -3 -22 -27 -21 -28 -640 0 c-602 0 -639 -1 -639 -17 0 -17
35 -18 610 -17 336 0 613 -2 615 -6 3 -4 -21 -32 -52 -63 l-56 -55 -606 1
-606 2 -3 269 -2 269 865 -4 c608 -3 865 -7 865 -15z m282 -241 c2 -142 3
-261 1 -265 -2 -5 -163 -8 -358 -8 l-354 0 262 265 261 265 92 0 92 0 4 -257z
m938 247 c-20 -13 -230 -13 -230 0 0 6 47 10 123 10 82 0 117 -3 107 -10z
m-3027 -38 c63 -59 17 -172 -70 -172 -110 1 -141 152 -40 195 40 17 74 10 110
-23z m3047 -10 c0 -5 -51 -7 -112 -5 -159 6 -165 10 -15 12 70 0 127 -3 127
-7z m186 -143 c167 -170 763 -748 856 -830 l77 -68 -67 -3 c-37 -2 -274 -1
-527 2 l-460 5 -3 508 c-1 279 -1 507 1 507 2 0 57 -55 123 -121z m-176 93 c0
-10 -248 -8 -257 2 -4 3 53 6 125 6 73 0 132 -4 132 -8z m0 -49 c0 -5 -37 -7
-82 -5 -143 4 -157 9 -35 10 64 1 117 -1 117 -5z m0 -43 c0 -6 -50 -10 -130
-10 -80 0 -130 4 -130 10 0 6 50 10 130 10 80 0 130 -4 130 -10z m-47 -37
c-29 -2 -77 -2 -105 0 -29 2 -6 3 52 3 58 0 81 -1 53 -3z m52 -44 c5 -5 -44
-9 -128 -9 -103 0 -137 3 -137 13 0 9 30 11 127 9 71 -2 132 -8 138 -13z m-5
-51 c0 -4 -57 -7 -127 -6 -100 1 -114 3 -63 7 97 9 190 8 190 -1z m0 -34 c0
-13 -7 -15 -31 -10 -17 3 -76 6 -130 6 -59 0 -99 4 -99 10 0 6 50 10 130 10
113 0 130 -2 130 -16z m5 -44 c4 -7 -139 -20 -222 -20 -76 0 -46 19 35 22 145
6 183 5 187 -2z m0 -40 c4 -6 -24 -10 -77 -10 -46 0 -107 -3 -135 -6 -36 -5
-53 -3 -53 4 0 7 33 12 88 15 48 1 106 4 129 5 23 1 45 -2 48 -8z m-5512 -36
l77 -7 0 -138 0 -139 -210 0 -210 0 0 138 c0 76 3 142 7 145 8 9 236 9 336 1z
m1657 -140 l0 -144 -765 0 c-605 0 -765 3 -766 13 -1 6 -2 69 -3 139 l-1 128
225 2 c124 2 469 4 768 5 l542 2 0 -145z m820 111 l0 -25 -382 2 -383 3 -3 23
-3 22 385 0 386 0 0 -25z m3030 0 c0 -12 -19 -15 -107 -15 -112 0 -153 6 -153
21 0 5 59 9 130 9 109 0 130 -2 130 -15z m-57 -45 c38 0 67 -4 67 -10 0 -6
-52 -10 -135 -10 -119 0 -135 2 -135 16 0 15 9 16 68 11 37 -4 97 -7 135 -7z
m-913 -109 c0 -50 -4 -92 -9 -95 -14 -9 -21 20 -21 90 0 41 -4 63 -10 59 -5
-3 -10 -37 -10 -76 0 -55 -3 -69 -15 -69 -12 0 -15 15 -15 71 0 44 -4 68 -10
64 -5 -3 -10 -37 -10 -76 0 -55 -3 -69 -15 -69 -12 0 -15 15 -15 74 0 41 -4
78 -10 81 -6 4 -10 -19 -10 -62 0 -37 -4 -74 -9 -82 -18 -29 -31 2 -31 75 0
41 -4 74 -9 74 -5 0 -9 -32 -10 -72 0 -68 -12 -101 -28 -84 -4 4 -9 41 -11 82
-5 96 -24 98 -21 2 1 -43 -2 -73 -8 -75 -14 -5 -23 31 -23 95 0 31 -4 52 -11
52 -8 0 -9 -22 -4 -74 3 -41 3 -76 -2 -79 -20 -13 -32 13 -35 76 -5 86 -23 83
-23 -5 0 -60 -7 -89 -19 -77 -3 2 -6 31 -7 64 -4 120 -26 123 -31 5 -4 -91
-22 -82 -26 13 -4 97 -22 94 -22 -4 0 -39 -4 -69 -10 -69 -6 0 -10 28 -10 63
0 34 -5 69 -10 77 -7 10 -10 -9 -10 -62 0 -63 -3 -78 -15 -78 -12 0 -15 15
-15 75 0 48 -4 75 -11 75 -7 0 -10 -21 -8 -57 3 -86 1 -103 -16 -103 -12 0
-15 16 -15 80 0 47 -4 80 -10 80 -6 0 -10 -33 -10 -80 0 -73 -2 -80 -20 -80
-18 0 -20 7 -20 80 0 47 -4 80 -10 80 -6 0 -10 -33 -10 -80 0 -64 -3 -80 -15
-80 -12 0 -15 16 -17 78 l-2 77 -5 -75 c-5 -61 -9 -75 -23 -78 -16 -3 -18 6
-18 86 0 49 3 92 7 95 3 4 174 7 380 7 l373 0 0 -89z m-1422 42 l-3 -38 -690
0 c-400 -1 -695 3 -702 8 -7 5 -13 22 -13 38 l0 29 706 0 705 0 -3 -37z m550
7 c-12 -17 -34 -34 -48 -37 -14 -4 -119 -7 -235 -7 l-210 -1 -3 38 -3 37 261
0 261 0 -23 -30z m92 -81 c0 -61 -3 -79 -14 -79 -19 0 -26 22 -26 81 0 53 15
93 31 84 5 -4 9 -42 9 -86z m1753 76 c1 -6 -49 -11 -130 -13 -82 -2 -133 1
-133 7 0 19 258 25 263 6z m-1817 -121 c-4 -15 -14 -24 -26 -24 -28 0 -26 39
3 76 l22 29 3 -29 c2 -16 1 -39 -2 -52z m1814 61 c0 -13 -20 -15 -129 -15
-115 0 -152 6 -136 22 3 3 63 6 135 7 111 1 130 0 130 -14z m-1930 -23 c0 -4
-13 -20 -28 -35 l-28 -27 -177 0 -177 0 0 30 0 29 152 3 c84 2 177 4 205 6 29
2 53 -1 53 -6z m-460 -32 l0 -30 -705 0 -705 0 0 30 0 30 705 0 705 0 0 -30z
m2398 -191 l4 -166 -133 -6 c-73 -3 -137 -3 -141 -1 -4 3 -8 82 -8 175 l0 170
137 -3 138 -3 3 -166z m-5438 -29 l0 -140 -1077 0 -1078 0 70 68 c39 37 105
100 147 140 l78 72 930 0 930 0 0 -140z m1580 0 l0 -140 -763 0 -764 0 -6 131
c-4 73 -4 136 -1 140 3 5 349 9 770 9 l764 0 0 -140z m1923 133 l267 -6 0
-134 0 -133 -1067 2 -1068 3 -3 138 -3 138 803 -1 c442 0 923 -3 1071 -7z
m658 -13 l299 0 0 -40 0 -40 -310 0 c-170 0 -313 -1 -317 -2 -10 -4 -16 59 -9
79 4 9 13 13 22 9 9 -3 150 -6 315 -6z m299 -145 c0 -13 -39 -15 -317 -13
-242 2 -317 6 -321 16 -3 9 65 12 317 12 280 0 321 -2 321 -15z m-2 -87 l-3
-33 -315 0 -315 0 -3 33 -3 32 321 0 321 0 -3 -32z"/>
<path d="M4876 9230 c-19 -17 -38 -44 -41 -60 -20 -90 75 -171 157 -137 46 20
69 49 75 95 15 108 -109 174 -191 102z m124 -40 c41 -41 13 -110 -44 -110 -39
0 -68 28 -68 65 0 58 71 86 112 45z"/>
<path d="M7623 8840 c0 -47 2 -66 4 -42 2 23 2 61 0 85 -2 23 -4 4 -4 -43z"/>
<path d="M7813 8755 c0 -33 2 -45 4 -27 2 18 2 45 0 60 -2 15 -4 0 -4 -33z"/>
<path d="M8636 9235 c-3 -8 -1 -15 4 -15 6 0 10 7 10 15 0 8 -2 15 -4 15 -2 0
-6 -7 -10 -15z"/>
<path d="M4750 5439 c0 -5 5 -7 10 -4 6 3 10 8 10 11 0 2 -4 4 -10 4 -5 0 -10
-5 -10 -11z"/>
<path d="M8100 5028 c-80 -86 -92 -112 -18 -40 30 29 58 49 63 45 4 -5 5 -2 1
5 -5 8 -1 21 10 33 9 10 15 21 13 23 -2 2 -33 -28 -69 -66z"/>
<path d="M8124 4992 c-6 -9 -7 -28 -4 -42 6 -22 7 -20 12 15 6 47 5 49 -8 27z"/>
<path d="M8059 4933 c-13 -16 -12 -17 4 -4 16 13 21 21 13 21 -2 0 -10 -8 -17
-17z"/>
<path d="M7949 4794 c-21 -24 -22 -26 -3 -16 25 13 50 42 37 42 -5 0 -20 -12
-34 -26z"/>
<path d="M6378 2851 c-1 -5 -80 -89 -173 -187 -290 -304 -288 -302 -280 -321
6 -15 30 6 132 112 316 330 363 381 351 393 -14 14 -25 15 -30 3z"/>
<path d="M2893 2743 c-29 -3 -43 -9 -43 -19 0 -12 49 -14 348 -12 301 3 347 5
347 18 0 13 -41 15 -305 16 -168 0 -324 -1 -347 -3z"/>
<path d="M6890 2425 c-20 -24 -6 -28 15 -5 10 11 13 20 8 20 -6 0 -16 -7 -23
-15z"/>
<path d="M9606 8838 c-3 -117 -6 -639 -6 -1160 1 -916 1 -948 19 -948 11 0 22
7 25 16 3 9 6 531 6 1160 0 1105 -1 1144 -18 1144 -18 0 -19 -15 -26 -212z"/>
</g>
</svg>
