<?xml version="1.0" standalone="no"?>
<!DOCTYPE svg PUBLIC "-//W3C//DTD SVG 20010904//EN"
 "http://www.w3.org/TR/2001/REC-SVG-20010904/DTD/svg10.dtd">
<svg version="1.0" xmlns="http://www.w3.org/2000/svg"
 width="1024.000000pt" height="1024.000000pt" viewBox="0 0 1024.000000 1024.000000"
 preserveAspectRatio="xMidYMid meet">

<g transform="translate(0.000000,1024.000000) scale(0.100000,-0.100000)"
fill="#000000" stroke="none">
<path d="M9720 10033 c-65 -71 -1861 -1873 -1866 -1873 -2 0 -4 108 -4 240 l0
241 605 607 c514 516 602 609 591 621 -12 12 -19 11 -43 -7 -15 -11 -280 -273
-587 -581 -307 -309 -560 -561 -562 -561 -2 0 -4 110 -4 245 l0 245 -25 0 -25
0 0 -286 0 -286 -677 -679 -677 -679 -143 0 c-79 0 -143 3 -143 6 0 3 21 25
48 49 26 23 96 95 156 159 93 100 107 119 95 131 -12 12 -41 -12 -197 -166
l-183 -179 -295 0 -294 0 0 425 0 425 860 0 860 0 0 25 0 25 -1050 0 -1050 0
0 125 0 126 48 44 47 45 841 0 c758 0 842 2 848 16 18 47 59 44 -805 44 -447
0 -813 1 -816 3 -2 3 52 58 120 123 68 66 217 215 332 332 195 199 207 214
191 230 -15 16 -39 -6 -369 -336 l-352 -352 -43 0 -42 0 0 90 c0 89 0 90 -25
90 -25 0 -25 -1 -25 -90 l0 -90 -250 0 -250 0 0 370 0 370 -25 0 -25 0 0 -505
0 -505 -275 0 -275 0 0 190 0 190 188 0 c103 0 193 4 200 9 8 5 12 16 10 26
-3 17 -18 18 -200 16 l-198 -2 0 360 0 361 388 2 387 3 0 23 0 23 -385 2 -385
2 0 55 0 55 1869 3 c1934 2 1885 1 1886 40 0 9 -383 12 -1880 12 l-1880 0 0
115 0 115 -25 0 -25 0 0 -582 0 -583 -263 265 c-144 146 -368 373 -497 504
l-235 239 -3 -501 -2 -502 -835 0 c-781 0 -836 1 -854 18 -11 9 -139 140 -285
290 l-266 273 0 175 0 174 -29 0 -28 0 1 -2482 c1 -1644 4 -2482 11 -2485 31
-9 32 16 38 832 4 451 6 821 7 823 0 1 272 2 605 2 l605 0 0 -295 0 -295 -278
0 -277 0 -195 195 c-107 107 -198 195 -202 195 -5 0 -8 -938 -8 -2084 0 -1146
-3 -2091 -6 -2100 -5 -13 -24 -16 -100 -16 l-94 0 0 1115 0 1115 -25 0 -25 0
0 -230 0 -230 -95 0 -95 0 0 3016 0 3015 -22 -3 -23 -3 -3 -3012 -2 -3013
-148 0 c-82 0 -151 -2 -154 -5 -3 -3 -3 -17 0 -31 l5 -25 116 1 c64 1 131 1
149 1 l32 -1 0 -165 0 -165 25 0 25 0 0 164 0 163 68 6 c37 3 79 3 95 0 l27
-5 -2 -1302 -3 -1301 -228 -3 -228 -2 3 -27 3 -27 225 0 225 -1 3 -77 c3 -75
4 -78 27 -78 23 0 24 3 27 76 l3 76 230 0 c127 0 251 -1 277 -1 l48 -1 2 -203
3 -202 1033 -3 c625 -1 1032 2 1032 7 0 5 3 16 6 25 6 15 -85 16 -979 16 -541
0 -999 3 -1016 6 l-31 7 0 173 0 173 44 6 c24 4 85 5 137 3 l94 -3 5 -125 5
-125 2183 -3 2182 -2 0 25 0 25 -1528 0 c-841 0 -1813 3 -2160 7 l-632 6 0 94
c0 82 2 93 18 93 9 0 177 1 372 2 l355 2 3 -34 3 -35 1914 -4 1915 -4 0 27 0
26 -1345 0 -1345 0 0 233 0 234 752 6 c413 4 913 7 1110 7 l358 0 0 -215 c0
-124 4 -215 9 -215 5 0 16 -3 25 -6 12 -5 16 0 16 19 0 13 3 39 6 56 l7 31
458 0 459 0 0 -489 0 -488 25 5 25 4 2 317 3 316 491 3 492 2 6 -22 c3 -13 6
-63 6 -111 0 -86 1 -88 23 -85 21 3 22 8 25 111 l3 107 729 0 729 0 6 -21 c4
-12 6 -110 4 -218 l-4 -196 28 -3 27 -3 0 220 0 221 90 0 c105 0 94 24 95
-195 l0 -149 25 0 25 0 0 169 0 170 91 3 92 3 7 -75 c6 -66 8 -73 26 -69 19 5
19 33 19 1509 l0 1504 120 0 120 0 0 30 0 30 -115 0 -114 0 -7 35 c-9 48 -41
49 -46 3 l-3 -33 -612 -3 -613 -2 0 120 0 120 564 0 c595 0 576 -1 576 41 0 5
-278 9 -690 9 l-690 0 0 183 1 182 492 498 492 498 213 -1 212 0 0 30 0 29
-167 -5 c-93 -3 -174 -1 -181 3 -9 7 32 53 144 167 147 147 156 158 140 174
-15 15 -26 7 -160 -127 l-143 -143 -6 159 c-9 208 -8 2843 1 2864 4 9 76 88
159 175 133 138 151 160 139 173 -19 19 -43 -3 -401 -373 -481 -497 -935 -958
-1082 -1100 l-141 -136 -96 0 -96 0 0 401 0 400 923 927 c1088 1092 1044 1047
1027 1067 -7 8 -16 15 -20 15 -4 0 -31 -26 -60 -57z m-8562 -1272 l33 -28 -3
-84 -3 -84 -257 -3 -258 -2 0 115 0 115 228 0 227 -1 33 -28z m1747 -131 l0
-65 -827 -3 -828 -2 0 70 0 70 828 -2 827 -3 0 -65z m1005 -125 l0 -195 -475
0 -475 0 0 195 0 195 475 0 475 0 0 -195z m1150 -32 c0 -56 -2 -59 -52 -110
l-52 -53 -198 0 -198 0 0 105 0 105 243 3 c133 1 245 3 250 5 4 1 7 -24 7 -55z
m4250 -1348 l0 -1355 -95 0 -95 0 0 1265 0 1266 87 89 c47 50 90 90 95 90 4 0
8 -610 8 -1355z m-6400 -13 l0 -176 -302 -303 c-167 -167 -304 -307 -306 -312
-1 -4 100 -109 226 -232 125 -123 245 -243 266 -266 l38 -43 -451 0 -451 0 0
1218 c0 669 3 1228 7 1242 6 22 48 -17 490 -464 l483 -489 0 -175z m1975 1138
c4 -6 -68 -86 -159 -178 l-166 -167 0 172 0 172 133 4 c72 1 144 4 159 5 15 1
30 -3 33 -8z m-1980 -115 l0 -110 -320 -6 -320 -6 -83 81 c-46 45 -97 98 -114
119 l-30 37 434 -2 433 -3 0 -110z m1003 -232 l-3 -348 -285 0 -285 0 -3 233
-2 232 -185 0 -185 0 0 115 0 115 475 0 475 0 -2 -347z m595 140 l-6 -207
-221 -225 c-274 -279 -306 -311 -311 -311 -3 0 -5 214 -5 475 l0 475 275 0
275 0 -7 -207z m3297 -298 l0 -275 -22 -9 c-13 -5 -64 -48 -115 -95 l-92 -86
-254 2 -255 3 360 368 c198 202 364 367 369 367 5 0 9 -120 9 -275z m-4533
212 c1 -2 -59 -65 -133 -142 -74 -77 -160 -168 -190 -202 -55 -61 -55 -63 -43
-96 7 -21 9 -53 5 -89 l-7 -55 -289 291 c-266 268 -287 291 -263 296 24 4 915
1 920 -3z m9 -394 c-7 -17 -306 -19 -306 -2 0 6 69 84 153 172 l152 160 3
-159 c1 -87 0 -164 -2 -171z m1790 281 c-3 -9 -6 -167 -6 -352 l-1 -337 -249
-252 -250 -252 0 350 0 350 248 254 c136 140 251 254 256 255 4 0 5 -7 2 -16z
m-1686 -368 c144 -41 272 -130 371 -258 l61 -78 -62 -70 c-34 -39 -67 -70 -74
-70 -6 0 -22 16 -35 35 -35 52 -133 139 -183 163 -74 36 -158 52 -302 59 -127
6 -141 8 -167 30 -28 24 -29 27 -29 120 l0 95 183 -5 c121 -3 200 -10 237 -21z
m4413 -123 c2 -32 3 -61 0 -65 -5 -10 -133 -10 -133 -1 0 9 112 123 121 123 4
0 9 -26 12 -57z m-3390 -128 c-5 -7 -108 -115 -230 -239 l-223 -227 0 234 c0
129 2 236 4 238 3 2 106 5 230 6 186 1 225 -1 219 -12z m1015 6 l74 -1 124
-121 c68 -67 126 -130 129 -139 4 -12 -12 -35 -52 -73 l-58 -56 -8 31 c-19 70
-66 108 -134 108 -129 0 -183 -175 -76 -246 36 -24 116 -24 163 0 19 10 74 57
123 104 l87 87 39 -40 c177 -180 391 -411 391 -422 0 -11 -101 -13 -555 -13
l-555 0 0 395 0 395 118 -4 c64 -2 150 -5 190 -5z m3432 -2 c0 -6 -39 -51 -87
-100 l-87 -89 -628 0 c-345 0 -628 4 -628 8 0 4 40 47 88 95 l89 87 614 3
c338 1 620 3 627 5 6 1 12 -3 12 -9z m-5389 -494 c247 -249 449 -458 449 -464
0 -17 -100 -22 -388 -19 l-282 3 0 -27 0 -28 635 0 635 0 0 -37 c0 -47 10 -84
20 -78 6 4 470 -463 470 -473 0 -1 -188 -1 -417 0 l-418 3 -7 52 c-30 206
-235 341 -460 304 -197 -32 -320 -148 -362 -344 l-6 -27 -114 3 -113 2 -64 59
c-35 32 -68 69 -74 81 -6 15 -9 282 -7 754 l2 732 27 -20 c14 -12 228 -226
474 -476z m1047 8 l2 -481 -122 -4 c-68 -2 -127 -2 -132 0 -4 3 24 37 64 77
62 62 69 73 56 84 -13 11 -22 8 -53 -17 -21 -16 -62 -55 -91 -86 l-53 -56
-110 0 -109 0 0 103 c0 56 -3 152 -7 213 l-6 112 268 271 c148 149 274 270
279 268 8 -3 12 -158 14 -484z m1495 465 c-10 -13 -61 -65 -114 -115 l-95 -93
-107 108 c-59 59 -107 111 -107 115 0 4 99 7 221 7 l220 0 -18 -22z m362 0
c-25 -31 -389 -388 -395 -388 -6 0 -92 89 -124 127 -18 22 -18 22 115 152
l134 130 144 1 144 0 -18 -22z m1143 5 c-7 -10 -73 -76 -147 -148 -73 -71
-158 -156 -189 -187 l-55 -58 -299 0 c-174 0 -298 -4 -298 -9 0 -41 1 -41 277
-41 l265 0 -368 -365 c-305 -301 -374 -365 -396 -365 l-28 0 0 233 0 232 -120
120 c-66 66 -125 128 -130 137 -9 15 25 54 212 243 l222 225 534 0 c506 0 532
-1 520 -17z m-4093 -54 c66 -25 152 -100 185 -162 l24 -44 -75 -83 -74 -82
-72 78 -73 79 0 117 c0 134 -3 130 85 97z m1645 -505 l0 -404 -250 0 -250 0 0
165 0 165 241 245 c133 134 245 242 250 239 5 -3 9 -187 9 -410z m3560 339 c0
-4 -37 -45 -82 -90 l-83 -83 -627 0 c-346 0 -628 3 -628 8 0 4 35 42 78 85
l77 77 605 3 c333 1 617 3 633 5 15 1 27 -1 27 -5z m-3095 -67 c62 -26 71 -91
20 -142 -13 -13 -36 -24 -50 -24 -38 0 -85 50 -85 90 0 22 9 41 29 61 34 33
39 34 86 15z m-3645 -156 l0 -110 -605 0 -605 0 0 110 0 110 605 0 605 0 0
-110z m1030 -209 l0 -288 -86 -89 c-47 -49 -99 -108 -116 -131 l-31 -42 -148
151 c-82 84 -149 156 -149 162 0 14 513 532 523 528 4 -2 7 -133 7 -291z
m5340 55 l-155 -155 -442 6 -443 6 0 142 c0 78 3 145 7 148 3 4 272 7 597 7
l591 0 -155 -154z m-4350 -118 l0 -132 -65 64 c-36 35 -65 69 -65 75 0 10 109
120 123 123 4 1 7 -57 7 -130z m-2020 17 l0 -95 -605 0 -605 0 0 95 0 95 605
0 605 0 0 -95z m5280 -195 l0 -280 -287 0 -288 0 281 280 c154 154 283 280
287 280 4 0 7 -126 7 -280z m668 91 c-3 -11 -607 -621 -614 -621 -2 0 -4 142
-4 315 l0 315 311 0 c189 0 309 -4 307 -9z m900 -6 c59 -18 149 -94 186 -159
77 -134 46 -299 -75 -398 -67 -55 -120 -73 -219 -73 -73 0 -93 4 -142 28 -108
53 -188 179 -188 296 0 127 95 261 217 306 51 18 158 18 221 0z m-2508 -185
l0 -180 -190 0 c-104 0 -190 1 -190 3 0 1 48 53 108 114 120 124 249 243 263
243 5 0 9 -77 9 -180z m-984 48 c65 -67 208 -213 318 -324 202 -207 230 -238
224 -253 -2 -5 -176 -187 -387 -405 l-384 -397 -134 137 c-73 76 -133 140
-133 142 0 2 69 77 154 166 l154 163 6 -36 c3 -20 6 -98 6 -173 l0 -138 25 0
25 0 0 620 c0 341 2 620 3 620 2 0 57 -55 123 -122z m-4065 -410 l60 -67 0
-1868 c-1 -1027 -1 -1887 -1 -1911 l0 -43 -132 3 -133 3 -2 1980 c-2 1089 0
2008 4 2043 l6 64 69 -69 c38 -37 96 -98 129 -135z m5049 121 c0 -6 -45 -56
-99 -112 l-99 -102 -99 0 -98 0 -3 99 c-1 55 0 106 2 113 7 17 396 19 396 2z
m940 -99 l0 -110 -417 0 -416 0 18 23 c10 12 59 61 109 109 l91 88 308 0 307
0 0 -110z m-3224 10 c88 -38 159 -137 166 -230 l3 -44 -40 -8 c-61 -11 -285
-9 -327 2 -44 13 -85 58 -94 106 -13 71 54 174 124 190 15 3 32 7 37 9 18 7
90 -7 131 -25z m-2058 -419 l2 -253 -244 248 c-155 158 -239 252 -232 257 6 4
115 6 241 5 l230 -3 3 -254z m1020 250 c1 0 2 -30 2 -66 l0 -65 -482 2 -483 3
-3 62 -3 62 68 3 c59 3 894 2 901 -1z m-1305 -290 c168 -169 287 -296 287
-307 0 -11 0 -579 0 -1262 l0 -1244 -36 -44 -36 -44 298 -2 299 -3 3 -173 2
-172 -562 2 -563 3 -3 1515 c-3 1447 2 2020 17 2020 4 0 136 -130 294 -289z
m5567 10 l0 -278 -287 -5 c-159 -3 -290 -4 -293 -2 -2 3 69 78 159 168 l164
164 5 116 5 116 123 0 124 0 0 -279z m638 142 l-3 -138 -292 -3 -293 -2 0 140
0 140 295 0 296 0 -3 -137z m161 -700 l-1 -838 -54 -49 -54 -49 0 886 0 887
55 0 55 0 -1 -837z m1111 697 l0 -140 -530 0 -530 0 0 140 0 140 530 0 530 0
0 -140z m240 0 l0 -140 -95 0 -95 0 0 140 0 140 95 0 95 0 0 -140z m-5686
-570 l400 -400 -533 -2 c-293 -2 -534 -1 -534 2 -1 3 -1 240 1 528 l3 523 132
-125 c73 -69 312 -306 531 -526z m2284 577 c39 -40 72 -77 72 -83 0 -6 -75
-85 -167 -175 -92 -90 -270 -268 -395 -395 l-227 -231 -71 72 c-38 40 -70 78
-70 84 0 6 87 100 193 209 356 366 581 592 587 592 3 0 38 -33 78 -73z m-1668
-38 c0 -6 -79 -91 -175 -188 l-174 -177 3 -135 c1 -74 0 -156 -3 -182 l-6 -48
-122 124 c-68 68 -123 130 -123 138 0 8 105 118 232 246 l233 232 68 1 c42 0
67 -4 67 -11z m780 -1 c0 -7 -74 -88 -163 -180 l-162 -166 -174 179 -174 179
336 0 c263 0 337 -3 337 -12z m-2233 -15 l112 -6 6 -52 c4 -29 4 -62 0 -74 -6
-21 -7 -21 -491 -21 l-484 0 0 74 c0 50 4 76 13 79 18 8 714 8 844 0z m4873
-231 l-80 -86 0 -357 0 -356 -297 -304 c-164 -167 -430 -439 -593 -604 -163
-165 -412 -421 -555 -570 -143 -148 -297 -309 -343 -356 l-83 -86 -324 -5
c-179 -3 -336 -3 -350 0 -30 5 -41 -8 340 383 817 837 1131 1156 1138 1152 4
-2 7 -100 7 -217 l0 -213 25 0 25 0 0 252 0 252 320 324 319 324 1 277 0 278
258 2 c141 2 260 2 265 0 4 -2 -29 -42 -73 -90z m861 51 c173 -77 253 -282
175 -449 -56 -119 -178 -204 -298 -204 -49 0 -136 19 -173 37 -107 54 -189
182 -189 296 1 152 104 295 241 333 67 19 186 13 244 -13z m-5616 -108 l0 -80
-485 0 -485 0 -3 69 c-2 38 -1 75 2 83 5 11 89 13 488 11 l483 -3 0 -80z
m3044 1 c15 -8 42 -31 60 -51 78 -89 7 -235 -115 -235 -81 0 -154 75 -154 159
0 31 7 48 32 77 53 60 120 79 177 50z m-225 -255 c15 -21 38 -49 51 -61 14
-13 25 -28 25 -33 0 -18 -952 -1007 -970 -1007 -9 0 -174 166 -178 180 -2 6
119 135 270 288 150 153 383 391 518 530 l245 252 6 -55 c4 -36 16 -69 33 -94z
m-858 -33 c93 -95 195 -199 227 -232 l57 -59 -27 -31 c-16 -17 -94 -98 -175
-181 -81 -82 -190 -195 -242 -250 l-95 -100 -201 200 c-111 110 -215 217 -232
238 l-31 39 274 274 c151 151 274 274 275 274 1 0 77 -77 170 -172z m-2106
116 c84 -46 130 -123 130 -219 0 -100 -50 -176 -145 -221 -125 -59 -273 -6
-331 120 -42 90 -28 186 39 262 84 96 198 117 307 58z m3760 -427 l0 -444
-226 -232 -226 -232 -122 3 -121 3 4 560 c2 308 5 562 8 565 2 2 52 -46 111
-108 60 -62 112 -112 118 -112 5 0 108 99 229 220 121 121 221 220 222 220 2
0 3 -199 3 -443z m-4518 376 l28 -29 2 -929 3 -930 23 -3 22 -3 0 873 c0 480
3 883 6 895 6 22 7 22 28 5 11 -10 81 -79 154 -154 l133 -135 6 -721 6 -721
-99 -103 c-253 -266 -368 -378 -374 -368 -5 8 -5 2110 0 2353 0 22 23 11 62
-30z m5798 -440 l0 -68 -277 -285 c-436 -449 -929 -955 -1163 -1195 -118 -121
-264 -273 -324 -337 l-110 -118 -63 0 c-41 0 -63 4 -63 12 0 6 30 43 67 82
185 195 674 699 1078 1111 248 253 526 539 619 635 147 152 225 229 234 230 1
0 2 -30 2 -67z m-4892 -290 l2 -263 -223 0 -224 0 -6 257 c-3 142 -4 260 -2
263 2 3 104 5 227 5 l223 0 3 -262z m1153 260 c27 -5 82 -54 273 -244 l240
-237 -159 -166 -158 -166 -298 0 -299 0 0 -25 0 -25 478 -2 477 -3 -220 -225
c-549 -561 -656 -671 -748 -766 -53 -56 -98 -99 -100 -95 -1 3 -1 446 1 984
l2 977 239 0 c131 0 254 -3 272 -7z m4217 -384 l-3 -134 -133 -3 c-113 -2
-133 0 -130 12 5 25 250 278 260 268 5 -5 7 -69 6 -143z m-3548 -374 l-54 -55
-174 0 -174 0 138 146 138 145 90 -90 91 -91 -55 -55z m3550 65 l0 -120 -215
0 -215 0 0 67 0 67 53 52 52 52 163 1 162 1 0 -120z m238 19 c4 -145 8 -139
-99 -139 l-89 0 0 120 0 120 93 0 92 0 3 -101z m-718 -103 c0 -31 -3 -34 -36
-41 -20 -3 -38 -4 -41 -1 -8 7 60 84 70 79 4 -2 7 -19 7 -37z m-1800 -94 c0
-4 -23 -30 -51 -57 -28 -28 -123 -126 -212 -220 -89 -93 -307 -320 -486 -502
l-324 -333 -178 0 -177 0 -7 163 c-3 89 -4 311 -2 494 l4 332 59 65 59 65 658
1 c361 0 657 -4 657 -8z m2248 -1 l32 -1 0 -550 0 -550 -215 0 -215 0 0 549 0
550 53 3 c46 3 254 2 345 -1z m1305 -211 c0 -118 -2 -252 -2 -297 l-1 -83 -90
0 -90 0 0 294 0 295 38 4 c20 2 62 4 92 3 l55 -1 -2 -215z m245 99 c2 -63 0
-196 -3 -296 l-7 -183 -94 0 -93 0 2 295 2 294 50 3 c28 2 70 3 95 2 l45 -2 3
-113z m-1998 -434 c0 -427 -3 -547 -12 -550 -7 -3 -267 -4 -578 -3 l-565 3
180 190 c99 104 277 291 395 415 118 124 271 285 339 358 l124 132 59 0 58 0
0 -545z m720 87 c0 -253 -3 -500 -6 -550 l-7 -92 -88 0 -89 0 0 550 0 550 95
0 95 0 0 -458z m798 166 l-3 -293 -372 -3 -372 -2 -3 295 -3 295 378 0 377 0
-2 -292z m-6492 -855 l-1 -1028 -183 0 -183 0 -4 825 c-3 629 -1 830 8 847 16
29 344 380 358 382 3 1 6 -461 5 -1026z m1691 453 c-1 -269 -5 -410 -12 -412
-5 -2 -211 -3 -457 -2 l-447 3 102 105 c56 58 212 218 347 355 135 138 292
301 350 363 l105 112 7 -57 c4 -32 6 -242 5 -467z m4801 -278 l-3 -333 -492
-3 -493 -2 0 74 c0 62 3 76 18 80 9 3 202 4 427 3 226 -2 418 -1 428 1 10 3
17 14 17 28 l0 24 -324 0 -325 0 -3 208 c-2 114 -1 217 1 230 l3 22 374 0 374
0 -2 -332z m234 160 c2 -95 2 -246 0 -335 l-2 -163 -90 0 -90 0 0 335 0 335
90 0 89 0 3 -172z m-6462 -854 l0 -515 -64 3 -65 3 -4 494 c-2 272 -2 503 1
513 3 13 17 18 61 20 31 2 59 2 64 0 4 -2 7 -235 7 -518z m430 266 l0 -250
495 0 495 0 0 -254 0 -253 -31 -7 c-17 -3 -283 -7 -592 -8 -309 0 -602 -2
-652 -2 l-90 -1 -3 513 -2 512 190 0 190 0 0 -250z m2238 240 c10 0 12 -48 10
-222 l-3 -223 -602 -3 -603 -2 0 32 c0 29 23 56 189 225 l189 192 148 3 c82 2
264 2 404 0 140 -1 261 -2 268 -2z m112 2 c0 -5 -13 -21 -30 -37 l-30 -29 0
25 c0 14 5 30 12 37 14 14 48 16 48 4z m878 -219 l2 -223 -287 0 -286 0 24 27
c13 15 76 82 140 148 64 66 150 155 190 198 l72 78 71 -3 71 -3 3 -222z m1047
-148 l0 -370 -497 -3 -498 -2 0 120 0 119 103 3 c101 3 102 3 102 28 0 25 -1
25 -102 28 l-103 3 0 224 0 225 498 -3 497 -3 0 -369z m483 293 l3 -78 -216 0
-215 0 0 73 c0 41 2 76 5 78 2 3 98 5 212 5 l208 -1 3 -77z m0 -420 l-3 -243
-212 -3 -213 -2 0 245 0 245 215 0 215 0 -2 -242z m1037 220 c3 -13 4 -122 3
-243 l-3 -220 -492 -3 -493 -2 0 245 0 245 490 0 490 0 5 -22z m239 -15 c8
-49 8 -416 0 -437 -5 -13 -23 -16 -95 -16 l-89 0 0 245 0 245 89 0 88 0 7 -37z
m240 -25 c5 -48 3 -326 -3 -415 -1 -10 -26 -13 -91 -13 -79 0 -90 2 -90 18 0
9 -3 115 -6 235 -3 119 -2 222 1 227 3 6 46 10 95 10 l88 0 6 -62z m-7389
-121 c4 -23 5 -58 3 -77 l-3 -35 -557 -3 -558 -2 0 80 0 80 554 0 555 0 6 -43z
m3363 -105 l3 -42 -605 0 -606 0 0 40 0 40 588 2 c323 2 594 3 602 2 10 -1 16
-14 18 -42z m915 38 l67 0 0 -120 0 -120 -465 0 -465 0 0 118 c0 65 3 121 6
125 4 3 182 4 398 2 215 -3 421 -5 459 -5z m-5765 -202 l3 -98 154 0 154 0 3
-122 3 -123 188 -3 187 -2 0 -200 0 -200 -445 0 -445 0 0 425 0 426 98 -3 97
-3 3 -97z m312 27 l0 -75 -129 0 -128 0 -7 38 c-8 49 -8 97 1 105 3 4 64 7
135 7 l128 0 0 -75z m1175 0 l0 -70 -557 -3 -558 -2 0 75 0 75 558 -2 557 -3
0 -70z m7394 -385 c0 -140 -3 -265 -6 -277 -5 -22 -10 -23 -94 -23 l-89 0 -1
133 c-1 72 -2 200 -3 282 l-1 150 90 5 c54 3 93 1 97 -5 4 -5 7 -125 7 -265z
m-3049 166 l0 -104 -147 -6 c-82 -3 -291 -5 -465 -4 l-318 2 0 108 0 108 465
0 465 0 0 -104z m1048 -178 l-3 -283 -495 0 -495 0 -3 283 -2 282 500 0 500 0
-2 -282z m482 191 c0 -88 1 -90 23 -87 21 3 22 8 25 91 l3 87 495 0 494 0 -2
-282 -3 -283 -732 -3 -733 -2 0 285 0 285 215 0 215 0 0 -91z m1275 39 c3 -29
5 -156 3 -283 l-3 -230 -92 -3 -93 -3 0 286 0 285 89 0 90 0 6 -52z m-7947
-55 l-3 -98 -105 -3 c-58 -2 -128 0 -156 3 l-51 6 -6 65 c-4 36 -4 78 0 94 l6
30 159 0 159 0 -3 -97z m412 3 l0 -95 -52 -6 c-29 -3 -109 -5 -178 -3 l-125 3
-3 98 -3 97 181 0 180 0 0 -94z m390 -356 l0 -200 -375 0 -375 0 0 200 0 200
375 0 375 0 0 -200z m4338 152 l-3 -47 -460 0 -460 0 -3 46 -3 47 466 1 466 0
-3 -47z m2 -167 l0 -65 -462 2 -463 3 -3 63 -3 62 466 0 465 0 0 -65z"/>
<path d="M4041 6675 c-64 -58 -64 -132 0 -196 48 -48 103 -59 156 -32 48 25
73 60 80 113 12 85 -51 150 -146 150 -44 0 -56 -5 -90 -35z"/>
</g>
</svg>
