<?xml version="1.0" encoding="utf-8"?>
<!-- Generator: Adobe Illustrator 25.4.1, SVG Export Plug-In . SVG Version: 6.00 Build 0)  -->
<svg version="1.1" xmlns="http://www.w3.org/2000/svg" xmlns:xlink="http://www.w3.org/1999/xlink" x="0px" y="0px"
	 viewBox="0 0 612 354" style="enable-background:new 0 0 612 354;" xml:space="preserve">
<style type="text/css">
	.st0{clip-path:url(#SVGID_00000047061132932591747620000007740416646809163665_);}
	
		.st1{fill:none;stroke:#454546;stroke-width:3.1125;stroke-dasharray:37.7564,15.7603,26.7584,15.7603,37.7564,15.7603;stroke-dashoffset:53;}
	.st2{clip-path:url(#SVGID_00000096771286520259568420000006125615950447324338_);}
	
		.st3{fill:none;stroke:#454546;stroke-width:3.1125;stroke-dasharray:31.4875,9.4914,20.4894,9.4914,31.4875,9.4914;stroke-dashoffset:40;}
	.st4{clip-path:url(#SVGID_00000021114285797811087170000014659051374658265498_);}
	.st5{clip-path:url(#SVGID_00000049930235258961580960000006618859896561081748_);}
	.st6{clip-path:url(#SVGID_00000165922268955774586090000009667301680350084999_);}
	.st7{fill:none;stroke:#454546;stroke-width:3.1125;}
	.st8{clip-path:url(#SVGID_00000160150853401871698350000009679009451741139077_);}
	.st9{fill:none;stroke:#2D2928;stroke-width:2.7165;stroke-linecap:round;stroke-linejoin:round;}
	.st10{clip-path:url(#SVGID_00000181771145157697173230000005272143148728737675_);}
	.st11{fill:#FFFFFF;}
	.st12{clip-path:url(#SVGID_00000036945833146265477730000005359841643610675133_);}
	.st13{clip-path:url(#SVGID_00000065752714156039123520000010502812232530526655_);}
	.st14{clip-path:url(#SVGID_00000028291468698898940200000012735347461379664279_);}
	.st15{clip-path:url(#SVGID_00000054956192629316021060000006269004891321407367_);}
	.st16{clip-path:url(#SVGID_00000049922410579702857280000016578681143167953318_);}
	.st17{clip-path:url(#SVGID_00000119077885484356157880000002340562674610088368_);}
	.st18{clip-path:url(#SVGID_00000124155137395949300950000003185295052834402949_);}
	.st19{clip-path:url(#SVGID_00000137117939370064227390000015437044663266797992_);}
	.st20{clip-path:url(#SVGID_00000035513724222855595310000002656525774541371266_);}
	.st21{clip-path:url(#SVGID_00000182517817511832070650000007713466648062024328_);}
	.st22{fill:#2D2928;}
	.st23{clip-path:url(#SVGID_00000066509296631290130100000015349839179722844316_);}
	.st24{clip-path:url(#SVGID_00000016035072647775583910000005671626480747773325_);}
	.st25{clip-path:url(#SVGID_00000140703366216669784360000009146032513298482065_);}
	.st26{clip-path:url(#SVGID_00000057841082869152821870000010743759841682673083_);}
	.st27{clip-path:url(#SVGID_00000071523757564144130770000013668620231862056638_);}
	.st28{font-family:Mulish, sans-serif;}
	.st29{font-size:62px;}
</style>
<g id="Layer_1">
	<g>
		<defs>
			<rect id="SVGID_1_" x="-5841" y="-7269.9" width="13093.8" height="9259.2"/>
		</defs>
		<clipPath id="SVGID_00000008830383301468623260000002950830423160229555_">
			<use xlink:href="#SVGID_1_"  style="overflow:visible;"/>
		</clipPath>
		<g style="clip-path:url(#SVGID_00000008830383301468623260000002950830423160229555_);">
			<path class="st1" d="M11.5,58.8v237.8"/>
		</g>
	</g>
	<g>
		<defs>
			<rect id="SVGID_00000047029760755414506260000009825509855589095587_" x="-5841" y="-7269.9" width="13093.8" height="9259.2"/>
		</defs>
		<clipPath id="SVGID_00000131342575886817379160000018013478480218636716_">
			<use xlink:href="#SVGID_00000047029760755414506260000009825509855589095587_"  style="overflow:visible;"/>
		</clipPath>
		<g style="clip-path:url(#SVGID_00000131342575886817379160000018013478480218636716_);">
			<path class="st3" d="M52.3,338.9h513.8"/>
		</g>
	</g>
	<g>
		<defs>
			<rect id="SVGID_00000055684391559396363680000009263600316772283045_" x="-5841" y="-7269.9" width="13093.8" height="9259.2"/>
		</defs>
		<clipPath id="SVGID_00000147202844981289122150000000473689515802964124_">
			<use xlink:href="#SVGID_00000055684391559396363680000009263600316772283045_"  style="overflow:visible;"/>
		</clipPath>
		<g style="clip-path:url(#SVGID_00000147202844981289122150000000473689515802964124_);">
			<path class="st1" d="M602.2,288.7V50.9"/>
		</g>
	</g>
	<g>
		<defs>
			<rect id="SVGID_00000171709889107370201250000000061892873859239042_" x="-5841" y="-7269.9" width="13093.8" height="9259.2"/>
		</defs>
		<clipPath id="SVGID_00000005226980324329809680000007337136617572492710_">
			<use xlink:href="#SVGID_00000171709889107370201250000000061892873859239042_"  style="overflow:visible;"/>
		</clipPath>
		<g style="clip-path:url(#SVGID_00000005226980324329809680000007337136617572492710_);">
			<path class="st3" d="M561.4,8.6H47.6"/>
		</g>
	</g>
	<g>
		<defs>
			<rect id="SVGID_00000148653625444743571910000014459608905470729657_" x="-5841" y="-7269.9" width="13093.8" height="9259.2"/>
		</defs>
		<clipPath id="SVGID_00000026844818331546486890000016616046979306374531_">
			<use xlink:href="#SVGID_00000148653625444743571910000014459608905470729657_"  style="overflow:visible;"/>
		</clipPath>
		<g style="clip-path:url(#SVGID_00000026844818331546486890000016616046979306374531_);">
			<path class="st7" d="M11.5,304.5v18.9c0,8.6,7,15.6,15.6,15.6h15.8 M570.9,338.9h15.7c8.6,0,15.6-7,15.6-15.6v-18.9 M602.2,43.1
				V24.2c0-8.6-7-15.6-15.6-15.6h-15.7 M42.8,8.6H27.1c-8.6,0-15.6,7-15.6,15.6v18.9"/>
		</g>
	</g>
	<g>
		<defs>
			<rect id="SVGID_00000084520439410721551630000000519504533837428137_" x="-5841" y="-7269.9" width="13093.8" height="9259.2"/>
		</defs>
		<clipPath id="SVGID_00000078766001190151967160000010979356452369670063_">
			<use xlink:href="#SVGID_00000084520439410721551630000000519504533837428137_"  style="overflow:visible;"/>
		</clipPath>
		<g style="clip-path:url(#SVGID_00000078766001190151967160000010979356452369670063_);">
			<path class="st9" d="M417.2,252.9c-61.3,0-111-49.6-111-110.8c0-61.2,49.7-110.8,111-110.8c61.3,0,111.1,49.6,111.1,110.8
				C528.3,203.3,478.5,252.9,417.2,252.9z M417.2,247.9c-58.5,0-106-47.4-106-105.8c0-58.4,47.5-105.8,106-105.8
				c58.5,0,106,47.4,106,105.8C523.2,200.5,475.8,247.9,417.2,247.9L417.2,247.9z M417.2,247.4c-57.9,0-104.9-47-104.9-105
				c0-58,47-105,104.9-105c57.9,0,104.9,47,104.9,105S475.2,247.4,417.2,247.4L417.2,247.4z M417.2,252.9
				c63.7,0,114.9-53.5,110.8-118c-3.6-56.1-49.9-101.2-106.2-103.5c-23-1-44.5,5.1-62.6,16.2c-8.9,5.4-18.5,9.5-28.7,12
				c-28.6,6.8-84.6,20.3-107.4,26.7C195.9,94,114,121.4,114,121.4c-9.3,2.6-15.7,11.1-15.7,20.7c0,9.6,6.4,18.1,15.7,20.7
				c81,26.1,80.9,27.2,109.2,35.1c22.8,6.4,78.7,19.9,107.4,26.7c10.1,2.4,19.8,6.5,28.7,12C376.1,246.9,396,252.9,417.2,252.9
				L417.2,252.9z M417.2,252.9c63.7,0,114.9-53.5,110.8-118c-3.6-56.1-49.9-101.2-106.2-103.5c-23-1-44.5,5.1-62.6,16.2
				c-8.9,5.4-18.5,9.5-28.7,12c-28.6,6.8-84.6,20.3-107.4,26.7C195.9,94,114,121.4,114,121.4c-9.3,2.6-15.7,11.1-15.7,20.7
				c0,9.6,6.4,18.1,15.7,20.7c81,26.1,80.9,27.2,109.2,35.1c22.8,6.4,78.7,19.9,107.4,26.7c10.1,2.4,19.8,6.5,28.7,12
				C376.1,246.9,396,252.9,417.2,252.9L417.2,252.9z M114.5,161.2c-8.6-2.4-14.5-10.3-14.5-19.1c0-8.9,5.9-16.7,14.5-19.1
				c0.9-0.3,82.2-27.5,109.2-35.1c22.5-6.4,76.9-19.5,107.3-26.7c10.1-2.4,19.9-6.5,29.2-12.2c18.5-11.4,39.8-16.9,61.7-16
				C477,35.2,522.9,80,526.4,135c0.1,2.4,0.2,4.7,0.2,7.1c0,60.2-49.1,109.2-109.4,109.2c-20.2,0-40-5.6-57.1-16.1
				c-9.3-5.7-19.1-9.8-29.1-12.2c-30.4-7.2-84.8-20.4-107.3-26.7c-15.8-4.5-22.9-6.8-40-12.5C170.3,179.4,150.1,172.7,114.5,161.2
				L114.5,161.2z M491.3,156.7c-8.1,0-14.7-6.6-14.7-14.6c0-8.1,6.6-14.6,14.7-14.6c8.1,0,14.7,6.6,14.7,14.6
				C506,150.1,499.5,156.7,491.3,156.7L491.3,156.7z M491.3,158.1c-8.9,0-16-7.2-16-16c0-8.8,7.2-16,16-16c8.9,0,16.1,7.2,16.1,16
				C507.4,150.9,500.2,158.1,491.3,158.1z"/>
		</g>
	</g>
	<g>
		<defs>
			<rect id="SVGID_00000147198847134394181010000008909293963675335601_" x="-5841" y="-7269.9" width="13093.8" height="9259.2"/>
		</defs>
		<clipPath id="SVGID_00000105384459051713854530000009151384266851427504_">
			<use xlink:href="#SVGID_00000147198847134394181010000008909293963675335601_"  style="overflow:visible;"/>
		</clipPath>
		<g style="clip-path:url(#SVGID_00000105384459051713854530000009151384266851427504_);">
			<path class="st11" d="M408.7,137c0,0-1.9,0.5-2.6-1.1c-0.3-0.3-1.9,0.2-1.9,0.4c-0.1,0.2-24.1-2.7-24.1-2.7s-7.1-1.1-8.9-5.1
				c-1.7-4,0.9-6.7,3.8-7.4c2.8-0.7,18.9-7.2,18.9-7.2s4.2,1.5,15.7,3.4c0,0,5.6,0.7,6.4,1.5c0.4,0.1,0.7-0.1,1.1,0
				c0.5,0.2,4.9,1,9.1,6.1c4.1,5.1,6.6,7.4,7.3,8.2c0.7,0.8,5.8,7.6,6.2,8.6c0.4,1,9.7,11.2,11.1,12.3c1.4,1.1,8.5,7,6.2,15.3
				c-2.2,8.3-2.8,9.3-2.8,9.3s-7,27.3-6.3,32.7"/>
		</g>
	</g>
	<g>
		<defs>
			<rect id="SVGID_00000123430539702191368130000010808431342619682715_" x="-5841" y="-7269.9" width="13093.8" height="9259.2"/>
		</defs>
		<clipPath id="SVGID_00000055682518228651452440000005852930999284976272_">
			<use xlink:href="#SVGID_00000123430539702191368130000010808431342619682715_"  style="overflow:visible;"/>
		</clipPath>
		<g style="clip-path:url(#SVGID_00000055682518228651452440000005852930999284976272_);">
			<path class="st9" d="M408.6,136.8c0,0-1.9,0.5-2.7-1.1c-0.3-0.4-1.9,0.2-1.9,0.4c-0.1,0.2-24.4-2.7-24.4-2.7s-7.2-1.1-9-5.2
				c-1.8-4.1,1-6.7,3.8-7.5c2.9-0.7,19.1-7.2,19.1-7.2s4.3,1.5,15.9,3.4c0,0,5.7,0.7,6.4,1.5c0.4,0.1,0.7-0.1,1.2,0
				c0.5,0.2,5,1,9.2,6.2c4.2,5.2,6.7,7.5,7.4,8.3c0.7,0.8,5.9,7.7,6.3,8.7c0.4,1,9.8,11.3,11.2,12.5c1.4,1.1,8.6,7.1,6.3,15.5
				c-2.2,8.4-2.8,9.4-2.8,9.4s-7.1,27.5-6.4,33"/>
		</g>
	</g>
	<g>
		<defs>
			<rect id="SVGID_00000011720450680342233610000008188249854693251504_" x="-5841" y="-7269.9" width="13093.8" height="9259.2"/>
		</defs>
		<clipPath id="SVGID_00000046332225627475573730000014077760835957291696_">
			<use xlink:href="#SVGID_00000011720450680342233610000008188249854693251504_"  style="overflow:visible;"/>
		</clipPath>
		<g style="clip-path:url(#SVGID_00000046332225627475573730000014077760835957291696_);">
			<path class="st11" d="M383,109.8l-3.6,0.3c-0.3,0-0.7,0-1,0c-1.8-0.1-8.4-0.4-16.2,1.3c-0.6,0.2-1.3,0.4-1.8,0.8
				c-0.9,0.6-1.3,1.4,0.2,2.6c1.9,1.5,8,5.4,11.5,6.7c3.5,1.3,7.4,4.3,7.6,4.6C379.8,126.5,383,109.8,383,109.8"/>
		</g>
	</g>
	<g>
		<defs>
			<rect id="SVGID_00000150785133400507336320000000592714834717017023_" x="-5841" y="-7269.9" width="13093.8" height="9259.2"/>
		</defs>
		<clipPath id="SVGID_00000170999550216657998860000008271640861729881228_">
			<use xlink:href="#SVGID_00000150785133400507336320000000592714834717017023_"  style="overflow:visible;"/>
		</clipPath>
		<g style="clip-path:url(#SVGID_00000170999550216657998860000008271640861729881228_);">
			<path class="st9" d="M382.8,109.3l-3.6,0.3c-0.3,0-0.7,0-1,0c-1.8-0.1-8.5-0.4-16.4,1.3c-0.6,0.2-1.3,0.4-1.8,0.8
				c-0.9,0.7-1.3,1.5,0.1,2.6c1.9,1.6,8.1,5.5,11.7,6.8c3.6,1.3,7.5,4.3,7.7,4.7C379.5,126.3,382.8,109.3,382.8,109.3z M383.4,127.6
				c3.7-0.2,6.4-4.2,6.1-9c-0.3-4.7-3.5-8.4-7.1-8.1c-3.7,0.2-6.4,4.2-6.1,8.9C376.6,124.2,379.8,127.9,383.4,127.6z M383.9,127.8
				c3.6-0.2,6.4-4.2,6.1-9c-0.3-4.7-3.5-8.3-7.1-8.1c-3.7,0.2-6.4,4.2-6.1,9C377,124.4,380.2,128.1,383.9,127.8L383.9,127.8z
				 M416.6,121.2c0,0-6.2,10.1-6.4,11.9c0,0-2.1,3.3-1.2,6c0.8,2.8,3.2,8,7.1,9.7c0,0-6.6,5-7.9,11.2c0,0,8-3.7,21.8-1.5
				c4.4,0.5,10,0.9,11.4-0.8 M420.8,153.6c0,0-2.6,1.1-2.8,4.3 M430.7,158.6c0,0,2-5.3,4.9-5.8 M432.2,143.7c0,0-10.7,1.5-16.2,5.1"
				/>
		</g>
	</g>
	<g>
		<defs>
			<rect id="SVGID_00000180368415155008029730000000463630191502250165_" x="-5841" y="-7269.9" width="13093.8" height="9259.2"/>
		</defs>
		<clipPath id="SVGID_00000117642675066379015000000000447107260669879223_">
			<use xlink:href="#SVGID_00000180368415155008029730000000463630191502250165_"  style="overflow:visible;"/>
		</clipPath>
		<g style="clip-path:url(#SVGID_00000117642675066379015000000000447107260669879223_);">
			<path class="st11" d="M426.3,171.8c0,0-9,0-14.6-6.2c-5.6-6.2-7.7-19.3-7.1-22.3c0.5-2.9,0.2-8.9,0.2-8.9c0-5-2.4-8.6-2.4-8.6
				s-0.7-1.7-3.4-7.6c-2.6-5.9-8.7-7.9-8.7-7.9s-5.2-1.1-10.2,4.2c0,0-2,0.9-2.4,7.1c-0.4,6.2-0.9,10.8,1.1,16.7
				c2.1,5.9,3.2,16.9-1.7,29.6c-4.9,12.7-12.3,32-10.2,56.6"/>
		</g>
	</g>
	<g>
		<defs>
			<rect id="SVGID_00000158741512971783416630000013023642712180987266_" x="-5841" y="-7269.9" width="13093.8" height="9259.2"/>
		</defs>
		<clipPath id="SVGID_00000008127031572992701660000015513580781742945937_">
			<use xlink:href="#SVGID_00000158741512971783416630000013023642712180987266_"  style="overflow:visible;"/>
		</clipPath>
		<g style="clip-path:url(#SVGID_00000008127031572992701660000015513580781742945937_);">
			<path class="st9" d="M426.8,171.8c0,0-9.2,0-14.8-6.3c-5.7-6.3-7.8-19.5-7.3-22.5c0.5-3,0.2-9,0.2-9c0-5.1-2.4-8.7-2.4-8.7
				s-0.7-1.7-3.4-7.7c-2.7-5.9-8.9-8-8.9-8s-5.3-1.2-10.4,4.2c0,0-2,0.9-2.4,7.1c-0.4,6.2-1,10.9,1.2,16.9c2.1,5.9,3.2,17-1.7,29.8
				c-4.9,12.8-12.5,32.3-10.4,57.1"/>
		</g>
	</g>
	<g>
		<defs>
			<rect id="SVGID_00000160153345382375450030000016286345056686503092_" x="-5841" y="-7269.9" width="13093.8" height="9259.2"/>
		</defs>
		<clipPath id="SVGID_00000166655124711179909500000015622456516615794328_">
			<use xlink:href="#SVGID_00000160153345382375450030000016286345056686503092_"  style="overflow:visible;"/>
		</clipPath>
		<g style="clip-path:url(#SVGID_00000166655124711179909500000015622456516615794328_);">
			<path class="st11" d="M395.9,114c0,0-1.2-4.6-6.2-5.6c-5-1-9,3.3-9,3.3s-2.3,3.3-1.6,6.5l2.2,6.7c0,0,10.9-5.9,16.2-3.7
				L395.9,114z"/>
		</g>
	</g>
	<g>
		<defs>
			<rect id="SVGID_00000099643205057875558350000015814268053133706682_" x="-5841" y="-7269.9" width="13093.8" height="9259.2"/>
		</defs>
		<clipPath id="SVGID_00000039825991223272835410000012837494562459713160_">
			<use xlink:href="#SVGID_00000099643205057875558350000015814268053133706682_"  style="overflow:visible;"/>
		</clipPath>
		<g style="clip-path:url(#SVGID_00000039825991223272835410000012837494562459713160_);">
			<path class="st9" d="M395.7,113.5c0,0-1.2-4.6-6.4-5.7c-5.1-1-9.2,3.4-9.2,3.4s-2.4,3.4-1.6,6.6l2.2,6.8c0,0,11.1-6,16.5-3.8
				L395.7,113.5z M400,129.3c0,0-7-3-14.8,0.7 M402.9,138.6c0,0-7.9,1.6-13.3,0.1 M411.9,165.8c0,0,3.3,15.4,15.4,19.5"/>
		</g>
	</g>
	<g>
		<defs>
			<rect id="SVGID_00000003796193910103021660000013053672080815946163_" x="-5841" y="-7269.9" width="13093.8" height="9259.2"/>
		</defs>
		<clipPath id="SVGID_00000049933306093488000890000005792540037070536349_">
			<use xlink:href="#SVGID_00000003796193910103021660000013053672080815946163_"  style="overflow:visible;"/>
		</clipPath>
		<g style="clip-path:url(#SVGID_00000049933306093488000890000005792540037070536349_);">
			<path class="st11" d="M376,170.2c-7.5-4.3-28.1-20.4-20.1-46.6c0.6-1.8,0.6-3.8,0.3-5.7c-0.7-3.8-0.7-10.6,5.8-14.2
				c0.9-0.5,1.7-1.1,2.2-1.9l23.2-35.9l5.7,1.5c0,0-15.3,24.2-23.8,37.1c-0.7,1.1-1.7,2.1-2.8,2.9c-4.2,2.7-5.3,4.8-4.4,10.4
				c0.4,2.7,0.4,5.4-0.2,8c-2,8.4-2.9,26.3,16.5,38.5L376,170.2z"/>
		</g>
	</g>
	<g>
		<defs>
			<rect id="SVGID_00000057132709668474800940000014628881482710007984_" x="-5841" y="-7269.9" width="13093.8" height="9259.2"/>
		</defs>
		<clipPath id="SVGID_00000155140468121295505480000013045456472912565434_">
			<use xlink:href="#SVGID_00000057132709668474800940000014628881482710007984_"  style="overflow:visible;"/>
		</clipPath>
		<g style="clip-path:url(#SVGID_00000155140468121295505480000013045456472912565434_);">
			<path class="st9" d="M376.1,170.7c-7.7-4.3-28.8-20.6-20.6-47.1c0.6-1.9,0.7-3.9,0.3-5.8c-0.7-3.8-0.7-10.7,6-14.3
				c0.9-0.5,1.8-1.1,2.3-2l23.8-36.2l5.8,1.5c0,0-15.7,24.4-24.4,37.4c-0.8,1.1-1.7,2.1-2.9,2.9c-4.3,2.7-5.4,4.8-4.5,10.5
				c0.4,2.7,0.4,5.5-0.3,8.1c-2,8.5-3,26.5,17,38.9L376.1,170.7z"/>
		</g>
	</g>
	<g>
		<defs>
			<rect id="SVGID_00000108998225207239949720000005711846386154635703_" x="-5841" y="-7269.9" width="13093.8" height="9259.2"/>
		</defs>
		<clipPath id="SVGID_00000048479572336921651130000011162120327633219773_">
			<use xlink:href="#SVGID_00000108998225207239949720000005711846386154635703_"  style="overflow:visible;"/>
		</clipPath>
		<g style="clip-path:url(#SVGID_00000048479572336921651130000011162120327633219773_);">
			<path class="st22" d="M207.6,137.4c-2.3,0-4.2-0.8-5.6-2.3c-1.5-1.6-2.2-3.6-2.2-6c0-2.5,0.7-4.6,2.2-6.1
				c1.4-1.6,3.3-2.3,5.6-2.3c2.3,0,4.2,0.8,5.6,2.3c1.4,1.5,2.2,3.6,2.2,6.1c0,2.5-0.7,4.5-2.2,6
				C211.7,136.6,209.9,137.4,207.6,137.4 M207.6,122.4c-1.7,0-3.1,0.6-4.1,1.7c-1,1.2-1.5,2.8-1.5,4.9c0,2,0.5,3.6,1.5,4.7
				c1,1.2,2.4,1.8,4.1,1.8c1.7,0,3-0.6,4.1-1.8c1-1.2,1.5-2.8,1.5-4.8c0-2-0.5-3.6-1.5-4.8C210.6,123,209.3,122.4,207.6,122.4"/>
		</g>
	</g>
	<path class="st22" d="M217.2,132.2h6.1v-2h-6.1V132.2z"/>
	<g>
		<defs>
			<rect id="SVGID_00000006706513795194464120000007053596987210503575_" x="-5841" y="-7269.9" width="13093.8" height="9259.2"/>
		</defs>
		<clipPath id="SVGID_00000144313705511815255120000001491697067036179373_">
			<use xlink:href="#SVGID_00000006706513795194464120000007053596987210503575_"  style="overflow:visible;"/>
		</clipPath>
		<g style="clip-path:url(#SVGID_00000144313705511815255120000001491697067036179373_);">
			<path class="st22" d="M225.8,137.1v-16.2h7.2c1.3,0,2.4,0.1,3.1,0.4c0.8,0.2,1.4,0.7,1.9,1.4c0.5,0.7,0.8,1.6,0.8,2.6
				c0,2.5-1.5,4-4.6,4.4v0c1,0.4,2.1,1.4,3.1,3l2.8,4.4h-2.7l-2.2-3.4c-0.8-1.2-1.4-2.1-1.8-2.6c-0.4-0.5-0.8-0.8-1.2-1
				c-0.4-0.2-1-0.3-1.7-0.3H228v7.2H225.8z M228,128h4.7c1.7,0,2.8-0.3,3.3-0.9c0.5-0.6,0.7-1.2,0.7-1.8c0-0.7-0.3-1.3-0.8-1.9
				c-0.5-0.5-1.4-0.8-2.7-0.8H228V128z"/>
		</g>
	</g>
	<path class="st22" d="M242,123.1h2v-2.3h-2V123.1z M242,137.1h2v-11.7h-2V137.1z"/>
	<g>
		<defs>
			<rect id="SVGID_00000101817542015271194320000016329457100050429109_" x="-5841" y="-7269.9" width="13093.8" height="9259.2"/>
		</defs>
		<clipPath id="SVGID_00000169550193313226411310000016138051497613785984_">
			<use xlink:href="#SVGID_00000101817542015271194320000016329457100050429109_"  style="overflow:visible;"/>
		</clipPath>
		<g style="clip-path:url(#SVGID_00000169550193313226411310000016138051497613785984_);">
			<path class="st22" d="M247,137.1v-11.7h1.8v1.7h0c0.8-1.3,2.1-1.9,3.8-1.9c0.7,0,1.4,0.1,1.9,0.4c0.6,0.2,1.1,0.6,1.4,1
				c0.3,0.4,0.5,0.9,0.6,1.3c0.1,0.4,0.1,1.1,0.1,2.1v7.2h-2v-7.1c0-0.8-0.1-1.4-0.2-1.8c-0.2-0.4-0.4-0.7-0.8-1
				c-0.4-0.2-0.9-0.4-1.4-0.4c-0.6,0-1.1,0.1-1.6,0.4c-0.5,0.3-0.9,0.6-1.1,1.1c-0.3,0.5-0.4,1.3-0.4,2.4v6.4L247,137.1z"/>
		</g>
	</g>
	<g>
		<defs>
			<rect id="SVGID_00000155831228233867397930000014166514783914713475_" x="-5841" y="-7269.9" width="13093.8" height="9259.2"/>
		</defs>
		<clipPath id="SVGID_00000176027144393420066590000007601909863120418227_">
			<use xlink:href="#SVGID_00000155831228233867397930000014166514783914713475_"  style="overflow:visible;"/>
		</clipPath>
		<g style="clip-path:url(#SVGID_00000176027144393420066590000007601909863120418227_);">
			<path class="st22" d="M259.3,138.1l1.9,0.3c0.2,1.2,1.1,1.9,2.7,1.9c0.8,0,1.5-0.2,2-0.5c0.5-0.3,0.9-0.7,1.1-1.2
				c0.2-0.5,0.3-1.3,0.3-2.4v-0.6c-0.9,1-2,1.5-3.3,1.5c-1.5,0-2.7-0.6-3.7-1.7c-0.9-1.1-1.4-2.5-1.4-4.3c0-1.8,0.5-3.3,1.4-4.4
				c0.9-1.1,2.2-1.7,3.7-1.7c1.4,0,2.6,0.6,3.4,1.7h0v-1.4h1.8v10.2c0,1.8-0.2,3.1-0.5,3.8c-0.4,0.8-1,1.4-1.8,1.8
				c-0.8,0.4-1.8,0.7-3,0.7c-1.4,0-2.6-0.3-3.4-1c-0.9-0.6-1.3-1.5-1.3-2.6C259.3,138.2,259.3,138.1,259.3,138.1 M264.2,126.7
				c-1,0-1.8,0.4-2.4,1.2c-0.6,0.8-0.9,1.9-0.9,3.2c0,1.4,0.3,2.4,0.9,3.2c0.6,0.8,1.4,1.1,2.4,1.1c0.8,0,1.6-0.3,2.3-1
				c0.6-0.7,1-1.8,1-3.4c0-1.3-0.3-2.4-0.9-3.2C266,127.1,265.2,126.7,264.2,126.7"/>
		</g>
	</g>
	<g>
		<defs>
			<rect id="SVGID_00000131342326514935770900000000668112826497950140_" x="-5841" y="-7269.9" width="13093.8" height="9259.2"/>
		</defs>
		<clipPath id="SVGID_00000060020164419491466630000017885175282837535895_">
			<use xlink:href="#SVGID_00000131342326514935770900000000668112826497950140_"  style="overflow:visible;"/>
		</clipPath>
		<g style="clip-path:url(#SVGID_00000060020164419491466630000017885175282837535895_);">
			<path class="st22" d="M223.8,146.2h2.2v9.4c0,1.3-0.1,2.2-0.2,3c-0.2,0.7-0.5,1.4-1,2c-0.5,0.6-1.2,1.2-2,1.5
				c-0.9,0.4-1.9,0.6-3,0.6c-1.2,0-2.3-0.2-3.2-0.5c-0.9-0.3-1.6-0.8-2.1-1.4c-0.5-0.6-0.8-1.3-1-2.1c-0.2-0.8-0.3-1.8-0.3-3.1v-9.4
				h2.2v9.4c0,1.4,0.1,2.5,0.4,3.1c0.3,0.7,0.7,1.2,1.4,1.5c0.7,0.4,1.4,0.5,2.3,0.5c1,0,1.8-0.2,2.5-0.5c0.7-0.3,1.1-0.8,1.4-1.4
				c0.3-0.6,0.4-1.7,0.4-3.3L223.8,146.2z"/>
		</g>
	</g>
	<g>
		<defs>
			<rect id="SVGID_00000164491934981639682430000012527119925152391322_" x="-5841" y="-7269.9" width="13093.8" height="9259.2"/>
		</defs>
		<clipPath id="SVGID_00000085952119309221313990000005798576441552612519_">
			<use xlink:href="#SVGID_00000164491934981639682430000012527119925152391322_"  style="overflow:visible;"/>
		</clipPath>
		<g style="clip-path:url(#SVGID_00000085952119309221313990000005798576441552612519_);">
			<path class="st22" d="M228.8,157.3l2-0.2c0.1,1.3,0.6,2.2,1.5,2.8c0.9,0.6,2,0.9,3.3,0.9c1.2,0,2.2-0.3,2.9-0.8
				c0.7-0.5,1.1-1.2,1.1-2c0-0.5-0.1-1-0.4-1.3c-0.3-0.4-0.7-0.7-1.2-0.8c-0.5-0.2-1.5-0.5-3.1-0.9c-1.6-0.4-2.7-0.7-3.4-1.1
				c-0.7-0.4-1.2-0.8-1.6-1.4c-0.4-0.6-0.6-1.3-0.6-2c0-1.3,0.5-2.4,1.6-3.2c1.1-0.8,2.4-1.2,4.1-1.2c1.8,0,3.3,0.4,4.4,1.3
				c1.1,0.8,1.7,2,1.7,3.6l-2.1,0.2c-0.2-2.1-1.5-3.1-4-3.1c-1.2,0-2.1,0.2-2.7,0.6c-0.7,0.4-1,1-1,1.8c0,0.7,0.3,1.3,0.8,1.6
				c0.6,0.3,1.6,0.7,3.2,1c1.6,0.4,2.8,0.7,3.5,1.1c0.8,0.3,1.4,0.9,1.9,1.5c0.5,0.6,0.7,1.4,0.7,2.4c0,1.4-0.6,2.6-1.7,3.5
				c-1.1,0.9-2.6,1.4-4.3,1.4c-2.1,0-3.8-0.5-5-1.4C229.5,160.4,228.9,159,228.8,157.3"/>
		</g>
	</g>
	<path class="st22" d="M244.8,162.5v-16.2h11.8v1.9h-9.6v4.9h9v1.9h-9v5.5h10v1.9L244.8,162.5z"/>
	<g>
		<defs>
			<polyline id="SVGID_00000115479373247421484260000012333572270422130842_" points="33695.9,316.8 33695.9,-19149.8 
				41.8,-19149.8 			"/>
		</defs>
		<clipPath id="SVGID_00000128467762765931818840000002766858332363602842_">
			<use xlink:href="#SVGID_00000115479373247421484260000012333572270422130842_"  style="overflow:visible;"/>
		</clipPath>
	</g>
	<g>
		<defs>
			<polyline id="SVGID_00000134231476834969058430000002024170554874685613_" points="33835.3,329.5 33835.3,-19137.2 
				181.1,-19137.2 			"/>
		</defs>
		<clipPath id="SVGID_00000163771992742878289530000007519876671216736906_">
			<use xlink:href="#SVGID_00000134231476834969058430000002024170554874685613_"  style="overflow:visible;"/>
		</clipPath>
	</g>
	<g>
		<defs>
			<polyline id="SVGID_00000054266671185458620370000012723450019958148481_" points="33903.8,316.8 33903.8,-19149.8 
				249.7,-19149.8 			"/>
		</defs>
		<clipPath id="SVGID_00000163055088056257467260000012782041880913692076_">
			<use xlink:href="#SVGID_00000054266671185458620370000012723450019958148481_"  style="overflow:visible;"/>
		</clipPath>
	</g>
	<g>
		<defs>
			<polyline id="SVGID_00000026148854400415221930000005954346135410875792_" points="33985.6,316.8 33985.6,-19149.8 
				331.5,-19149.8 			"/>
		</defs>
		<clipPath id="SVGID_00000127039172105791732690000006854325151271598510_">
			<use xlink:href="#SVGID_00000026148854400415221930000005954346135410875792_"  style="overflow:visible;"/>
		</clipPath>
	</g>
	<g>
		<defs>
			<polyline id="SVGID_00000105427622949857354970000013878556643948137372_" points="34045.6,316.8 34045.6,-19149.8 
				391.5,-19149.8 			"/>
		</defs>
		<clipPath id="SVGID_00000073699918460110915090000009540162011226803875_">
			<use xlink:href="#SVGID_00000105427622949857354970000013878556643948137372_"  style="overflow:visible;"/>
		</clipPath>
	</g>
	<g>
		<defs>
			<polyline id="SVGID_00000073686263177262274890000009523789929751945145_" points="34151.5,316.8 34151.5,-19149.8 
				497.3,-19149.8 			"/>
		</defs>
		<clipPath id="SVGID_00000142177452156505410910000002546806076747083452_">
			<use xlink:href="#SVGID_00000073686263177262274890000009523789929751945145_"  style="overflow:visible;"/>
		</clipPath>
	</g>
	<g>
		<defs>
			<polyline id="SVGID_00000166647262227567317780000011225431737424983214_" points="34201.8,316.8 34201.8,-19149.8 
				547.7,-19149.8 			"/>
		</defs>
		<clipPath id="SVGID_00000049187208783140505040000016270551213849568419_">
			<use xlink:href="#SVGID_00000166647262227567317780000011225431737424983214_"  style="overflow:visible;"/>
		</clipPath>
	</g>
	<text transform="matrix(0.9265 0 0 1 25.6694 317.7334)" class="st28 st29">O-Ring Removal plate</text>
</g>
<g id="Layer_2">
	<polyline class="st11" points="369.6,225.7 379.9,207.9 391.5,197.6 415.1,184.9 431.1,190.4 444.6,192.4 444.6,215 369.6,227.7 	
		"/>
</g>
</svg>
