<svg xmlns="http://www.w3.org/2000/svg" xmlns:xlink="http://www.w3.org/1999/xlink" viewBox="0 0 612 410"><clipPath id="a"><path transform="matrix(8.42328 0 0 -8.42328 -5790.882 3415.784)" d="M688.389 359.462h70.668v45.018h-70.668z"/></clipPath><g clip-path="url(#a)"><path stroke-width="3.09976704" stroke-linecap="round" stroke-linejoin="round" fill="#fff" stroke="#2f2b2b" d="M560.273 291.351c-10.63 9.35-16.787 26.542-18.177 34.451-1.718 9.957-8.676 30.434-12.728 42.723-1.12 3.386-2.097 7.337-2.965 11.582v.034-.034c-1.196-8.373-2.897-19.13-5.407-34.055-6.116-36.372-15.617-50.093-15.617-50.093 1.423-23.788-7.463-48.931-18.599-70.992v-.05.05c7.792 3.875 12.492 4.44 12.492 4.44 19.677 32.235 48.88 47.338 54.996 52.131 3.942 3.108 5.34 6.511 6.014 9.813h-.009zm219.435 429.3c10.959-20.906 26.492-41.838 41.426-70.662 14.934-28.816 40.743-64.505 52.966-86.457 12.222-21.942 16.307-33.617 16.307-41.838 0-31.562-14.26-50.775-26.483-65.87-12.214-15.094-19.702-37.062-25.809-45.966-15.574-22.709-23.762-32.253-43.455-43.927-19.702-11.666-43.464-30.18-43.464-30.18-18.33-13.722-45.208-28.092-45.208-28.092-15.044-29.246-24.748-39.834-30.156-49.428-5.45-9.611-9.526-19.222-22.422-35.698-12.913-16.468-34.628-17.824-42.091-22.642-7.48-4.801-10.201-6.848-29.212-19.205-19.012-12.348-38.705-21.252-38.705-21.252-11.549-8.937-30.56-18.548-38.023-21.968-7.48-3.428-20.376-4.81-20.376-4.81-44.82-30.862-52.966-23.324-60.429-15.094-5.786 6.393-5.93 18.439-.505 33.449-8.474-2.359-16.653-2.493-23.265-1.432-18.093 2.906-18.211 19.727-7.859 65.954 0 0 2.24 13.654 2.24 22.187 0 8.516 0 18.194 1.138 28.993 1.112 10.824-.026 22.743-1.702 32.994-1.676 10.234-.547 31.84 2.814 51.171 3.369 19.323 7.185 63.141 8.44 89.852.573 11.935.387 28.984 1.693 50.05.564 9.09-2.25 19.324-2.25 31.276 0 11.961 2.216 23.889 7.32 38.09 2.241 6.267 3.378 12.509 3.926 19.913.581 7.387 1.701 22.76 2.822 32.438 1.12 9.653 4.498 17.622 10.697 35.243 6.183 17.63 12.382 25.009 18.565 41.518 6.2 16.485 12.947 34.696 15.204 42.664 2.24 7.952 1.693 19.896 6.764 34.687 5.062 14.775 15.179 35.825 16.872 46.632 1.685 10.798 5.644 23.88 12.963 40.954 7.303 17.04 41.637 95.545 63.023 129.634l279.4-1.087c-23.096-34.99-56.351-98.123-67.234-133.795-10.858-35.673-9.502-56.25-9.502-77.528 0-21.269 7.463-39.11 13.57-50.767z"/></g><clipPath id="b"><path transform="matrix(8.42328 0 0 -8.42328 -5790.882 3415.784)" d="M688.389 359.462h70.668v45.018h-70.668z"/></clipPath><g clip-path="url(#b)"><path d="M244.924 303.73c-3.495-11.852-3.057-21.084-3.057-29.87v-52.704c8.7-48.333 2.13-58.517-23.468-60.63-4.388-.363-13.864 3.023-23.164 8.785l.026-.009c3.234-3.757 6.132-7.783 7.892-11.725 6.368-14.126 4.069-23.375-1.516-31.587-5.593-8.213-27.46-8.735-59.746 16.433 0 0-13.317 1.02-24.285 7.337-10.975 6.343-19.744 11.405-36.658 22.802-16.922 11.397-41.476 30.98-60.167 47.49-5.004 4.44-10.656 9.502-18.792 13.933-8.163 4.447-16.94 12.028-40.12 39.9 0 0-18.801 14.556-30.08 24.698-11.279 10.133-15.659 13.923-24.444 20.89-8.77 6.965-15.668 15.195-23.181 24.705-7.522 9.493-15.044 20.258-35.109 50.649 0 0-23.256 26.314-41.981 41.788-20.68 17.108-41.367 37.997-30.711 82.329 0 0-1.98 17.512 16.29 62.054 10.664 25.978 16.754 27.982 28.842 55.097 5.626 12.66 11.27 33.55 26.314 58.887 15.044 25.346 36.313 46.143 49.512 90.559 1.887 6.326 1.887 16.467.623 19.626-1.246 3.176-2.51 22.793-1.246 27.881 0 0-9.123 21.294-13.166 33.542-2.51 7.597-11.91 22.178-19.433 32.294-7.522 10.142-22.557 22.162-31.957 34.84-9.4 12.65-21.311 32.917-43.869 61.413l293.922-12.02c40.743-53.193 55.156-80.745 61.27-93.566 6.116-12.82 8.458-21.841 19.737-36.573 11.287-14.716 18.337-47.482 19.744-58.88 1.415-11.396 2.35-20.417 5.172-28.495 2.822-8.086 6.578-19.483 12.222-38.95 5.644-19.474 6.107-29.919 7.513-39.412 3.033-20.393 10.824-59.367 11.75-74.1 2.006-31.309 5.181-49.865 8.938-66.484 3.757-16.628.943-30.392 2.359-51.761 4.843-73.51 11.405-138.892 13.148-147.677 4.187-21.227 4.347-31.621.876-43.49m-89.463-84.89c-11.018 22.238-21.968 55.586-20.317 98.536 0 0-4.692 4.734-8.811 24.807l.017.025-.017-.025c-6.916-6.646-14.75-14.202-18.405-17.883-6.587-6.654-19.778-18.16-23.973-19.989-1.103-.454-3.352-1.566-6.485-3.15l.033.017c43.38-41.417 45.048-60.134 45.048-60.134 15.39-3.53 32.927-22.229 32.927-22.229z" fill="#fff"/></g><clipPath id="c"><path transform="matrix(8.42328 0 0 -8.42328 -5790.882 3415.784)" d="M688.389 359.462h70.668v45.018h-70.668z"/></clipPath><g clip-path="url(#c)"><path stroke-width="3.09976704" stroke-linecap="round" stroke-linejoin="round" fill="none" stroke="#2f2b2b" d="M155.458 218.844c-11.018 22.229-21.968 55.576-20.317 98.527 0 0-4.692 4.742-8.811 24.815l.017.025-.017-.025c-6.916-6.646-14.75-14.202-18.397-17.883-6.595-6.663-19.786-18.17-23.98-19.988-1.104-.464-3.345-1.576-6.487-3.15l.034.016c43.38-41.426 45.056-60.142 45.056-60.142 15.381-3.53 32.918-22.22 32.918-22.22l-.016.025zm89.463 84.89c-3.487-11.844-3.057-21.076-3.057-29.878V221.15c8.7-48.299 2.139-58.516-23.468-60.622-4.388-.345-13.864 3.024-23.138 8.802l.008-.016c3.243-3.766 6.124-7.792 7.901-11.726 6.36-14.125 4.06-23.374-1.541-31.595-5.585-8.23-27.452-8.744-59.73 16.434 0 0-13.309 1.019-24.284 7.345-10.967 6.325-19.744 11.388-36.658 22.793-16.931 11.397-41.468 30.98-60.168 47.49-5.003 4.44-10.655 9.493-18.809 13.941-8.137 4.43-16.914 12.02-40.103 39.884 0 0-18.801 14.564-30.08 24.697-11.287 10.142-15.676 13.924-24.444 20.907-8.777 6.957-15.667 15.195-23.19 24.688-7.521 9.51-15.043 20.258-35.1 50.65 0 0-23.256 26.322-41.99 41.796-20.678 17.1-41.358 37.997-30.71 82.33 0 0-1.98 17.511 16.307 62.053 10.638 25.97 16.754 27.974 28.816 55.089 5.644 12.677 11.287 33.558 26.331 58.887 15.036 25.337 36.304 46.142 49.504 90.567 1.878 6.317 1.878 16.459.631 19.618-1.263 3.175-2.501 22.801-1.263 27.872 0 0-9.106 21.311-13.157 33.559-2.502 7.597-11.902 22.17-19.424 32.286-7.514 10.15-22.558 22.17-31.967 34.839-9.4 12.66-21.31 32.926-43.876 61.414L82.2 983.113c40.735-53.193 55.156-80.737 61.271-93.566 6.099-12.82 8.457-21.833 19.744-36.565 11.28-14.716 18.321-47.49 19.736-58.888 1.407-11.396 2.35-20.426 5.164-28.495 2.821-8.07 6.578-19.475 12.222-38.95 5.643-19.474 6.123-29.92 7.522-39.42 3.032-20.393 10.824-59.368 11.759-74.075 1.988-31.3 5.155-49.874 8.928-66.502 3.757-16.619.927-30.39 2.35-51.76 4.852-73.502 11.406-138.884 13.15-147.678 4.202-21.21 4.354-31.612.875-43.48zm-118.6 38.452c-.084.446-.168.892-.278 1.33-4.186 21.21-13.275 71.37-17.461 89.051-4.203 17.68-13.991 36.052-38.478 64.32m125.137-327.556c-7.329 4.557-14.539 10.614-19.037 17.538 0 0-10.394 11.085-20.746 31.983M135.14 317.37s4.051-4.962 7.69-7.06"/></g><clipPath id="d"><path transform="matrix(8.42328 0 0 -8.42328 -5790.882 3415.784)" d="M0 0h1190.551v841.89H0z"/></clipPath><g clip-path="url(#d)"><path stroke-width="4.48960824" stroke-linecap="round" stroke-linejoin="round" fill="none" stroke="#2f2b2b" d="M122.552 241.04s.354-1.288-1.424-5.786"/></g><clipPath id="e"><path transform="matrix(8.42328 0 0 -8.42328 -5790.882 3415.784)" d="M0 0h1190.551v841.89H0z"/></clipPath><g clip-path="url(#e)"><path stroke-width="3.09976704" stroke-linecap="round" stroke-linejoin="round" fill="none" stroke="#2f2b2b" d="M58.209 324.455s4.464-14.994-.632-20.123"/></g><clipPath id="f"><path transform="matrix(8.42328 0 0 -8.42328 -5790.882 3415.784)" d="M688.389 359.462h70.668v45.018h-70.668z"/></clipPath><g clip-path="url(#f)"><path stroke-width="2.38378824" stroke-linecap="round" stroke-linejoin="round" fill="none" stroke="#2f2b2b" d="M241.868 221.16s-4.397 35.781-20.62 31.688c-14.387-3.665-30.577-25.456-26.98-42.403 3.589-16.99 5.998-53.977 38.966-46.699m-91.342-21.32s16.047-1.44 25.952-6.3c9.898-4.852 19.264-10.243 24.335-14.976"/></g><clipPath id="g"><path transform="matrix(8.42328 0 0 -8.42328 -5790.882 3415.783)" d="M0 0h1190.551v841.89H0z"/></clipPath><g clip-path="url(#g)"><path stroke-width="3.09976704" stroke-linecap="round" stroke-linejoin="round" fill="#fff" stroke="#2f2b2b" d="M424.141 151.01c11.54 3.243 23.653 10.648 33.036 24.883 7.733 11.708 19.576 29.12 29.608 49.023m74.277 71.725s-3-16.771 3.647-23.501m-65.44-43.734s-6.958-8.937-6.958-14.193"/></g><clipPath id="h"><path transform="matrix(8.42328 0 0 -8.42328 -5790.882 3415.784)" d="M688.389 359.462h70.668v45.018h-70.668z"/></clipPath><g clip-path="url(#h)"><path stroke-width="2.38378824" stroke-linecap="round" stroke-linejoin="round" fill="none" stroke="#2f2b2b" d="M392.934 215.531s3.369 27.764 15.414 24.866c12.172-2.931 30.653-21.05 26.643-44.466-5.206-30.434-37.88-54.145-48.762-29.71M485 132.656s-12.374 3.571-28.597-4.625c-16.215-8.187-24.267-17.613-16.181-17.613"/></g><clipPath id="i"><path transform="matrix(8.42328 0 0 -8.42328 -5790.882 3415.784)" d="M688.389 359.462h70.668v45.018h-70.668z"/></clipPath><g clip-path="url(#i)"><path stroke-width="3.09976704" stroke-linecap="round" stroke-linejoin="round" fill="none" stroke="#2f2b2b" d="M593.045 417.94s-18.118-22.347-22.321-51.593"/></g><clipPath id="j"><path transform="matrix(8.42328 0 0 -8.42328 -5790.882 3415.784)" d="M0 0h1190.551v841.89H0z"/></clipPath><g clip-path="url(#j)"><path d="M173.499 190.048c1.693-2.09 2.704-3.184 2.704-3.184 4.498-6.924 11.708-12.98 19.037-17.555 5.138-3.192 10.318-5.618 14.681-7.126 6.444-12.079 11.793-23.164 16.577-33.288l11.928-24.327c21.007-40.061 47.246-60.934 75.885-60.31 44.997 1.002 68.827 48.172 84.603 79.406l6.427 12.643c2.266 4.43 4.406 8.617 6.512 12.72 3.9.201 8.035.816 12.222 1.987h.067c3.428.969 6.916 2.359 10.36 4.128-4.607-8.314-9.063-17.032-13.99-26.71l-6.402-12.627c-16.552-32.733-44.24-87.56-99.437-88.773-35.512-.775-67.091 23.257-91.317 69.484l-12.239 24.958c-7.766 16.366-15.81 33.322-28.293 53.9-2.974 4.911-6.133 9.763-9.333 14.58z" fill="#c0c1c6"/></g><clipPath id="k"><path transform="matrix(8.42328 0 0 -8.42328 -5790.882 3415.784)" d="M0 0h1190.551v841.89H0z"/></clipPath><g clip-path="url(#k)"><path stroke-width="5.07081456" stroke-linecap="round" stroke-linejoin="round" fill="none" stroke="#2f2b2b" d="M173.499 190.048c1.693-2.09 2.704-3.184 2.704-3.184 4.498-6.924 11.708-12.98 19.037-17.555 5.138-3.192 10.318-5.618 14.681-7.126 6.444-12.079 11.793-23.164 16.577-33.288l11.928-24.327c21.007-40.061 47.246-60.934 75.885-60.31 44.997 1.002 68.827 48.172 84.603 79.406l6.427 12.643c2.266 4.43 4.406 8.617 6.512 12.72 3.9.201 8.035.816 12.222 1.987h.067c3.428.969 6.916 2.359 10.36 4.128-4.607-8.314-9.063-17.032-13.99-26.71l-6.402-12.627c-16.552-32.733-44.24-87.56-99.437-88.773-35.512-.775-67.091 23.257-91.317 69.484l-12.239 24.958c-7.766 16.366-15.81 33.322-28.293 53.9-2.974 4.911-6.133 9.763-9.333 14.58l.008.094z"/></g><clipPath id="l"><path transform="matrix(8.42328 0 0 -8.42328 -5790.882 3415.784)" d="M0 0h1190.551v841.89H0z"/></clipPath><g clip-path="url(#l)"><path d="M332.729 30.652c.927 1.617 2.544 3.639 1.348 5.728-.615 1.053 1.086 1.895 1.684.842 1.643-2.864.034-5.02-1.448-7.606-.615-1.053-2.199-.025-1.584 1.036" fill="#2f2b2b"/></g><clipPath id="m"><path transform="matrix(8.42328 0 0 -8.42328 -5790.882 3415.784)" d="M0 0h1190.551v841.89H0z"/></clipPath><g clip-path="url(#m)"><path d="M292.14 30.32c.076 1.103.21 2.19 1.078 3.006 1.575 1.5 2.232 2.578 2.291 4.953.043 1.23 1.913 1.129 1.887-.093-.033-.977.38-2.4-.151-3.327-.927-1.6-3.092-2.577-3.218-4.624-.084-1.222-1.971-1.129-1.887.084" fill="#2f2b2b"/></g><clipPath id="n"><path transform="matrix(8.42328 0 0 -8.42328 -5790.882 3415.784)" d="M0 0h1190.551v841.89H0z"/></clipPath><g clip-path="url(#n)"><path d="M346.356 35.605c-.134 1.516-.075 3.092-1.844 3.95-1.087.515-.06 2.098 1.027 1.576 2.14-1.01 2.468-2.89 2.645-5.13.118-1.213-1.726-1.609-1.828-.396" fill="#2f2b2b"/></g><clipPath id="o"><path transform="matrix(8.42328 0 0 -8.42328 -5790.882 3415.784)" d="M0 0h1190.551v841.89H0z"/></clipPath><g clip-path="url(#o)"><path d="M316.615 28.586c.497 2.41 1.609 4.591.463 7.135-.446.977-.463 1.34-.505 2.4-.042 1.23 1.836 1.12 1.878-.084.059-1.415 1.17-2.569 1.129-3.975-.06-2.09-.75-4.002-1.171-6.04-.236-1.204-2.022-.632-1.794.564" fill="#2f2b2b"/></g><clipPath id="p"><path transform="matrix(8.42328 0 0 -8.42328 -5790.882 3415.784)" d="M0 0h1190.551v841.89H0z"/></clipPath><g clip-path="url(#p)"><path d="M309.97 27.07c.455 2.998-.185 6.738 1.272 9.4.59 1.078 2.165.033 1.567-1.028-.69-1.28-.143-1.668-.253-2.805a99.231 99.231 0 0 0-.716-5.669c-.168-1.196-2.047-1.112-1.87.101" fill="#2f2b2b"/></g><clipPath id="q"><path transform="matrix(8.42328 0 0 -8.42328 -5790.882 3415.783)" d="M0 0h1190.551v841.89H0z"/></clipPath><g clip-path="url(#q)"><path d="M298.333 29.376c1.34 1.954.152 2.443.733 4.161.497 1.45 1.575 2.519 1.962 3.985.32 1.187 2.123.59 1.803-.582-.547-2.038-2.14-3.352-1.836-5.677.143-1.154-.472-2.038-1.078-2.914-.7-1.011-2.266.033-1.584 1.027" fill="#2f2b2b"/></g><clipPath id="r"><path transform="matrix(8.42328 0 0 -8.42328 -5790.882 3415.784)" d="M0 0h1190.551v841.89H0z"/></clipPath><g clip-path="url(#r)"><path d="M304.355 27.904c.017 2.24.127 4.642.236 6.815.093 1.887 1.053 2.661 1.778 4.346.48 1.129 2.274.565 1.785-.547-1.356-3.235-1.886-7.11-1.912-10.706-.008-1.205-1.895-1.13-1.887.092" fill="#2f2b2b"/></g><clipPath id="s"><path transform="matrix(8.42328 0 0 -8.42328 -5790.882 3415.784)" d="M0 0h1190.551v841.89H0z"/></clipPath><g clip-path="url(#s)"><path d="M327.666 29.323c.219 2.872.16 5.39-1.02 8.052-.488 1.112 1.18 1.963 1.685.843 1.306-2.974 1.458-5.753 1.222-8.98-.101-1.22-1.988-1.128-1.887.085" fill="#2f2b2b"/></g><clipPath id="t"><path transform="matrix(8.42328 0 0 -8.42328 -5790.882 3415.784)" d="M0 0h1190.551v841.89H0z"/></clipPath><g clip-path="url(#t)"><path d="M322.637 27.95c-.236 2.535.16 5.029-.43 7.522-.269 1.204 1.559 1.592 1.845.404.582-2.518.186-4.97.413-7.53.126-1.205-1.71-1.617-1.828-.396" fill="#2f2b2b"/></g><clipPath id="u"><path transform="matrix(8.42328 0 0 -8.42328 -5790.882 3415.784)" d="M0 0h1190.551v841.89H0z"/></clipPath><g clip-path="url(#u)"><path d="M340.183 33.199c-.202 1.592-.042 3.428-.775 4.885-.547 1.087 1.137 1.946 1.693.843.893-1.803.666-3.327.91-5.324.16-1.221-1.668-1.617-1.828-.404" fill="#2f2b2b"/></g><clipPath id="v"><path transform="matrix(8.42328 0 0 -8.42328 -5790.882 3415.784)" d="M0 0h1190.551v841.89H0z"/></clipPath><g clip-path="url(#v)"><path d="M286.836 31.926c-.395 1.431-.471 2.83-.336 4.295.168 1.533 1.642 2.039 1.903 3.42.22 1.196 2.005.607 1.794-.58-.118-.641-.227-1.281-.783-1.71-1.55-1.197-1.188-3.387-.75-5.03.337-1.187-1.507-1.575-1.828-.395" fill="#2f2b2b"/></g><clipPath id="w"><path transform="matrix(8.42328 0 0 -8.42328 -5790.882 3415.784)" d="M0 0h1190.551v841.89H0z"/></clipPath><g clip-path="url(#w)"><path d="M279.935 35.722c.379 2.51 1.853 3.841 3.554 5.627.826.868 2.064-.556 1.238-1.423-1.179-1.247-2.636-2.435-2.922-4.288-.16-1.196-2.047-1.129-1.87.084" fill="#2f2b2b"/></g><clipPath id="x"><path transform="matrix(8.42328 0 0 -8.42328 -5790.882 3415.784)" d="M0 0h1190.551v841.89H0z"/></clipPath><g clip-path="url(#x)"><path stroke-width="2.38378824" stroke-miterlimit="10" fill="#fff" stroke="#454546" d="M5.956 80.36H65.65c6.587 0 11.936-5.35 11.936-11.936V8.728H17.891c-6.587 0-11.935 5.349-11.935 11.936v59.695z"/></g><clipPath id="y"><path transform="matrix(8.42328 0 0 -8.42328 -5790.882 3415.784)" d="M0 0h1190.551v841.89H0z"/></clipPath><g clip-path="url(#y)"><path stroke-width="3.579894" stroke-miterlimit="10" fill="none" stroke="#454546" d="M590.943 390.762H17.9c-6.595 0-11.944-5.349-11.944-11.936V20.67c0-6.596 5.349-11.936 11.944-11.936h573.044c6.596 0 11.936 5.34 11.936 11.936v358.157c0 6.587-5.34 11.936-11.936 11.936z"/></g><symbol id="z"><path d="M.484 0H0v.087l.184.185c.054.056.09.095.108.118.018.024.03.046.04.066.007.02.011.043.011.066a.1.1 0 0 1-.029.076.11.11 0 0 1-.08.028.216.216 0 0 1-.08-.015.374.374 0 0 1-.088-.055L.004.632a.339.339 0 0 0 .235.092C.306.724.36.707.4.672a.175.175 0 0 0 .06-.14A.242.242 0 0 0 .441.44.367.367 0 0 0 .388.35 1.21 1.21 0 0 0 .27.227L.145.106V.101h.339V0z"/></symbol><use xlink:href="#z" transform="matrix(50.54 0 0 -50.54 30.293 60.994)" fill="#2c292a"/></svg>