<?xml version="1.0" encoding="UTF-8"?>
<svg id="Layer_1" xmlns="http://www.w3.org/2000/svg" version="1.1" xmlns:xlink="http://www.w3.org/1999/xlink" viewBox="0 0 150.55 94.46">
  <!-- Generator: Adobe Illustrator 29.5.0, SVG Export Plug-In . SVG Version: 2.1.0 Build 137)  -->
  <defs>
    <style>
      .st0 {
        fill: #309dd8;
      }

      .st1 {
        stroke: #010101;
        stroke-width: .04px;
      }

      .st1, .st2, .st3, .st4, .st5 {
        fill: none;
      }

      .st1, .st4 {
        stroke-miterlimit: 10;
      }

      .st3, .st4 {
        stroke: #231f20;
        stroke-width: .25px;
      }

      .st3, .st5 {
        stroke-linecap: round;
        stroke-linejoin: round;
      }

      .st6, .st7 {
        isolation: isolate;
      }

      .st5 {
        stroke: #2bace2;
        stroke-width: .35px;
      }

      .st7 {
        fill: #231f20;
        font-family: Mulish, sans-serif;
        font-size: 6px;
        font-weight: 600;
      }

      .st8 {
        clip-path: url(#clippath);
      }
    </style>
    <clipPath id="clippath">
      <path class="st2" d="M103.99,89.55c23.39,0,42.34-18.96,42.34-42.34S127.37,4.87,103.99,4.87s-42.35,18.96-42.35,42.34,18.96,42.34,42.35,42.34Z"/>
    </clipPath>
  </defs>
  <path class="st1" d="M61.65,47.2c0,23.39,18.96,42.35,42.34,42.35s42.35-18.96,42.35-42.35S127.38,4.86,103.99,4.86s-42.34,18.96-42.34,42.34"/>
  <g>
    <g class="st8">
      <path class="st3" d="M79.98,128.76l-.46-.17M65.11,119.18l-3.03-1.67-3.02-1.74M86.15,128.34l-1.21.11M144.39,49.37c-.03,1.3.51,2.96,1.47,4.43M53.33,108.7c-1.11-5.52-1.84-11.34-2.19-17.42l-.25-9.33v-2.39l.04-2.38.07-4.8M145.43,62.76l.32.93M116.13,24.99l1.77-1.7M80.73,128.98l-.44-.12M144.65,47.98l-1.71,1.9M127.65,29.86l-.4.6M153.53,146.34l-3.98-1.62M110.97,128.45l-.15.13M72.63,122.84l-.96,1.05M142.42,43.95l1.3.81,1.07,1.22M73.46,124.07l-.21-.26-.15-.2M128.05,29.46l-.4.4M84.62,128.7l-.21.11M141.02,39.97l.18,1.66M51,72.38l.15-1.48M145.74,57.03l-1.93,2.21M56.79,56.89l.31-.42M125.02,27.7l-3.51-1.46M69.42,120.86l-.79-.23-1.58-.56-1.25-.53M111.44,127.47l-.22.18M50.02,94.28l-.05-.28c-.04-.42.08-1.09.38-1.73M56.81,115.07l-1.76-1.53M127.01,24.32l.68.36M127.81,24.77l.74.85.17.83M101.39,126.69l-.15.13-.18.15-.18.14-.36.28-.36.26-.75.48-.78.43-.52.24-.3.12-.88.27-.98.15-.48.02-.59-.04-1.14-.26M76.16,36.04l.69-.9M57.1,56.48l4.45-5.42,4.57-5.14c3.08-3.32,6.23-6.43,9.43-9.33,3.21-2.91,6.46-5.6,9.77-8.1,3.13-2.38,6.31-4.57,9.51-6.6l.51-.32M68.47,123.41l.19-.98M117.97,23.23l.57-.39.42-.2.64-.2.69-.12.71-.03.72.05,1.35.35M144.69,142.16c-.57-.3-1.05-.72-1.45-1.22M54.54,112.61l-.32-4.17M149.42,144.66c-.85-.4-1.49-1.24-1.92-2.49M145.33,57.45l-.44.68-.25.82-.05.44.16,1.58.67,1.75M145.87,53.82l.36.79.08.34.03.57-.04.32M146.28,55.98l-.16.46-.38.59M84.96,128.47l.23-.26M82.18,129.2l-.38-.03M126.61,126.86l-16.74-7.03M124.73,27.99l1.65-1.64M65.8,119.47l-.53-.2M143.13,140.79c-.46-.6-.81-1.31-1.07-2.08l-.08-.26M50.99,95.23l-.56-.26M84.69,28.74l.19.07M55.05,113.54l-.38-.47M74.07,124.77l-.4-.45M103.24,126.99l-.61-.22-.61-.22-1.22-.45-.26-.1M51.15,70.91l.87-3.68.59-1.85.33-.92.35-.91.77-1.78.84-1.72.91-1.62.97-1.52M70.19,127.46l-.86-.64-.28-.33-.14-.2-.14-.27M68.66,122.43l.46-.96M128.7,129.44l.14.16M111.18,127.69l-.02.44M121.5,26.24l-.91-.12-.57.17M144.54,48.15l-.05.2-.04.28-.05.74M70.52,127.62l-.33-.16M112.22,126.63c-.45.22-.97.29-1.48.09M128.29,128.95l-2.15-2.69M144.8,45.99l.11.2.16.63-.09.6M148.72,144.32l-4.03-2.17M76.85,35.14l.8-.71M50.11,94.67l-.14-.38M49.94,94.08c-.04-.48.08-1.06.32-1.65l.98-1.49M83.87,129l-.16.13M141.98,138.44l-.95-3.09M111.62,22.86l.33.13M129.55,130.17l-.21-.13M128.6,28.31l-.04.26-.51.89M79.5,128.58l-.88.65-1.36.45h-1.46l-1.04-.28M82.03,31.1l.91-1.37M112.28,23.08l1.21.51,1.45.71,1.19.68M83.69,29.11l-.78.69M84.15,128.89l-.21.07M72.9,123.34l-.32-.47M95.48,21.47l.18-.11.2-.11.2-.11.82-.4.85-.33.88-.26,1-.17.85-.05,1.94.26M138.21,36.21l.46.25.87.69.4.46.21.29.49.91M140.69,38.93l.33,1.04M104.02,127.1l-.41-.02-.37-.09M128.56,129.26l.15.18M77.65,34.43l.25-.19.28-.13.23-.04M69.12,121.47l.23-.59M78.39,79.35l-.2.16M83.72,29.04l.23-.18.28-.13h.46M81.39,129.11l-.33-.06M123.06,22.7l3.94,1.62M54.48,111.91l-.47-.97-.41-1.13-.16-.58M68.55,125.13l-.08-1.6M83.36,129.26l-1.25-.08-.61-.12M76.82,35.21l.8-.71M140.94,136.25l.21.12.21.12M93.62,129.01l-2.15-.83-2.81-1.08-1.95-.75M82.94,29.73l.78-.69M65.81,119.54l-.34-.18-.85-.73-.22-.28-.39-.64-.36-.86-.24-.88-.17-.99M51.43,95.25l-.44-.03M129.84,130.39l-.28-.2M128.72,26.44l-.12,1.86M129.56,130.18l11.38,6.07M102.41,20.18l2.43.68,3.5.99,3.28,1M149.16,144.51l-.31-.12M141.2,41.63v1.81M144.98,47.43l-.32.55M110.52,128.6l-3.76-1.78M82.91,29.8c-.3.26-.66.78-.9,1.39M74.77,129.4l-4.25-1.78M127.25,30.46l-.24.62M88.25,126.94l-.26.33-1.09.94M67.93,92.39l-.34-.04M68.94,110.04c-.4-5.4-.63-11.2-.68-17.37M97.56,34.6l-1.2.17-1.21.24-1.07.28M110.93,30.61v-.29M124.56,29.51l-3.89,3.87M71,96.73l-.29-.38-.28-.41-.23-.42M141.02,39.97l.18,1.66M76.26,89.93l3.4-3.77M105.81,46.8l-.02.99M84.48,56.16l.14.16.2.15.23.12M120,42.38c.23.08.4.27.39.43M106.68,47.89l-.03.99M114.53,38.43l2.1.82M118.6,34.56l.23-.54M109.92,50.38l.03-.99M63.34,115.12l.09.51.1.43M120.67,33.38l-.17.13M107.32,48.36l-.03.99M69.35,60.17l.44-.5M109.73,30.47l.11-.26.19-.23M83.62,63.53l-.44-.3-.29-.38-.12-.42M77.54,80.16l-1.1.76-.46.19-1.03.25c-.77.11-1.57.07-2.3-.13l-.42-.14M95.9,49.13l-.52-.42M89.04,50.68l.16.21M99.1,54.78l.13-.16M83.74,55.35l-.31.03M117.53,47.13v.27M90.64,47.34l1.55,1.18,2.71,1.57M87.86,42.71l.36,1.54.21.43.42.68.89,1.07,2.39,1.97,2.91,1.67M110.07,55.11c2.91.42,6,.1,8.46-.84M82.75,86.21l-1.14.02-.22.03M66.75,111.16l-8.35-.15M100.72,56.16l1.03-1.04M116.9,49.01l.04-.99M97.19,56.52v.2M115.25,49.85l.05-1.18M118,46.25l-.04.99M109.3,50.23l.03-.99M138.21,36.21l.46.25.87.69.4.46.21.29.49.91M140.69,38.93l.33,1.04M109.51,49.29l-.03.99M112.79,125.93l-.13.34M115.7,49.79l-.19-.06M138.57,50.64v-1.37l-.03-1.39-.02-1.41M82.91,29.8c-.3.26-.66.78-.9,1.39M110.15,35.17l-.66.64M100.44,123.93l.69-1.37.69-1.38.69-1.38M108.05,38.06l-.63-.07M138.52,55.62l.05-1.04.06-1.05v-.96l-.02-.87-.04-.86M112.22,126.63c-.45.22-.97.29-1.48.09M85.06,56.59l7.24,2.95M108.26,37.15c.54.16.77.72.41,1M74.83,103.54c-.9-.72-1.73-1.56-2.45-2.49l-.45-.61M90.28,97.47l-3.58,3.57M96.41,54.51l.5.2M96.29,54.17l-.5-.2M115.69,27.94c-.27-.16-.43-.41-.42-.63M94.74,54.33l.25-.54M116.51,27.55l.02-.35M95.77,54.69l.33.13M109.03,36.58l5.5,1.85M113.94,30.34v-.24M78.81,105.06c-.97-.88-2.16-1.42-3.04-1.43M91.47,51.81l-.32-.13M112.41,29.66c.32-.39,1.46-.53,2.06-.26M116.2,28.26l-.51-.32M92.49,52.15c0,.19-.09.38-.25.54M92.49,52.35c0,.19-.09.38-.25.54M108.53,23.79l-1.1.74M117.74,46.77v.26M115.27,27.31v-.2M120.8,45.78c-.27-.1-.49-.28-.57-.46M102.93,36.95c0-.15.16-.32.39-.39.22-.08.55-.07.76.02M106.37,48.61l.03-.99M117.25,41.39c-.18.19-.51.33-.86.37-.35.05-.76,0-1.07-.12M95.05,34.99c4.22-3.79,8.29-7.26,12.22-10.43M110.38,50.34l.04-1.18M106.42,48.43l.02-.85M94.42,46.59c0,.16-.17.34-.41.42-.23.08-.57.08-.79-.02M97.83,48.49l-.07.24M75.77,45.39l2.13.85M115.74,48.8l-.04.99M106.28,48.25l.02-.87M113.61,52.98v.35M113.61,52.98l-.52-.24M109.82,49.36l-.03.99M93.32,44.49c-.17.16-.47.29-.78.33l-.93-.1M116.01,42.93l.68.59M65.8,119.47l-.53-.2M107.59,37.63l.36-.29M105.75,46.69v-.26M111.11,49.56l-.03.99M103.93,52.08l-.06-.25M112.54,50.57l.04-.99M98.7,36.69l.52-.16.91.1M107.09,48.21l-.03.99M122.5,45.55c-.15.16-.45.29-.75.33l-.95-.1M115.26,42.4l.66.45M99.08,54.3v.54M90.83,51.99v.44M129.92,130.43l11.36,6.06M113.45,30.16l-.28.27M115.49,26.7c.31-.38,1.44-.52,2.04-.26M91.15,52.12l.32-.31M93.11,57.31l-.32.32M123.51,29.14l-.2.4M118.9,31.91l-.48-.17M84.42,88.15l.14.76.26.66.44.74.57.7.67.62.74.52,1.3.56.21.05M84.19,87.67l.21.33M113.73,49.44l-.04.99M72.1,99.52l-.05.24M96.93,53.99l-.33-.13M97.96,54.56l-.25.53M96.09,54.38l-.32.31M115.2,30.38l-.21.42M83.01,102.65l.28-.28M88.8,92.77l.43.3M93.72,56.94c.45.17.77.54.75.87M124.73,27.99l1.65-1.64M70.73,123.03l.13-.45M50.99,95.23l-.56-.26M110.89,50.53l.03-.99M51.43,95.25l-.44-.03M100.71,57.2l.06.26M84.69,28.74l.19.07M68.55,125.13l-.08-1.6M81.4,73.35l.04.2v.23l-.07.25-.1.27M131.19,59.69c1.55-.72,2.88-.87,3.96-.55M108.67,38.15c-.16.16-.45.28-.75.32l-.92-.1M102.68,55.22l.21.11.18.17.12.2.04.21M109.53,60.42l-2.18-.51-2.12-.62-2.05-.74M107.92,35.44l1.49-1.43M111.65,50.46l.04-1.18M93.02,57.66l.02.36M120.01,26.28l-.2-.15M69.79,59.67l5.08-5.26,4.97-5.01,6.86-6.67M106.07,48.25l.02-.99M86.82,41.86l.23-.21M118.96,54.19l.58.23M125.87,28.71l.08.28M61.51,78.86l.17-1.83M65.29,88.24v-.41M142.42,43.95l1.3.81,1.07,1.22M113.18,53.63c-.57-.18-.82-.79-.44-1.1M84.64,55.26l-.16-.21M138.34,60.33l.18-4.71M100.53,126l-.36-.2M92.3,59.54l.29.09.32.06.33.02.34-.02.32-.07.18-.06.34-.17.19-.15M89.4,49.84l.31-.11.33-.07.34-.02.34.02.65.16M100.78,57.54v.26l-.09.4-.18.43M113.23,50.38l.04-1.18M51.36,94.5c-.24-.24-.3-.85-.15-1.46M145.74,57.03l-1.93,2.21M105.64,46.41l-.02.99M125.96,29.11v6.67M94.04,35.21l1.16-.31,1.2-.24,1.25-.17.63-.06.63-.04,1.26-.03,1.26.03,2.45.22M89.29,52.36v-.2M93.22,46.99c-.22-.08-.37-.25-.36-.4M135.27,59.18c-1.16-.38-2.58-.18-4.27.69-1.75.91-3.72,2.52-5.79,4.79-4.5,4.93-9.21,12.75-12.8,21.44-3.59,8.68-5.71,17.39-5.88,23.77M96.96,41.03c-.16.16-.46.29-.77.32l-.93-.1M113.95,30.1l.28-.27M119.74,54.71v.97M117.83,46.84l-.05.99M105.65,47.48l.02-.99M92.57,58.28v-.44M115.09,37.79l-5.48-1.83M61.88,112.48l-.09-1.41M108.34,48.9l-.03.99M101.65,55.34l.09-.22M60.34,87.48l.07-.27.2-.3M94.21,58.35c-.36.45-1.62.63-2.25.31M118.47,54.39c-2.46.94-5.51,1.26-8.38.84M123.06,22.7l3.94,1.62M116.02,48.66l.02-.35M66.96,111.07c.52-.02,1.07-.25,1.38-.55M139.4,43.74l.57-.38.52-.13.35.07M121.29,28.92l.48.17M117.1,40.59l.16.39M91.1,44.32l-.06-.23M151.84,90.48l.18-.16.14-.2.08-.22v-.22M121.8,29.48l.27-.27M93.77,58.84c-.49.24-1.31.24-1.81.02M127.42,123.53l-.5-.32M105.1,51.71l.38-.31M97.04,48.77l-.68-.07M114.47,29.39c.45.15.77.49.74.79M96.27,40.21v.3M96.05,48.11v.24M115.99,40.8v.32M99.47,37.11v.3M118.19,33.01l-.31-.15M113.51,50.46l.04-.99M118.75,32.48l.28-.27M116.53,27.2l-.28.27M96.08,54.81v-.44M70.82,47.12l-.22.28-.07.3.09.29.23.26.36.2M84.15,128.89l-.21.07M127.5,125.1l-.49-.34M71.58,115.84l.14-.17M123.3,29.73l-.29.2M134.58,128.85l.17.12M86.59,55.41l.49.2M74.48,112.84l-2.09,2.25M71.07,116.91l.06-.18M83.86,115.31l.42.38M114.93,49.13l-.04.99M77.64,112.25l.4.06M126.99,121.5l.39.2M86.42,118.11l.29.43M116.43,41.23l-.62-.07M74.26,113.37l-.27.35M140.94,136.25l.21.12.21.12M87.7,120.39l.17.43M81.53,113.64l.49.3M139.4,125.86l.19.14M82.93,114.63l-2.42,2.68M142.83,112.5l.14-.16.1-.21.04-.23-.02-.24M139.52,129.95l-.43-.37M74.07,124.77l-.4-.45M128.12,115.61l11.88,5.88M81.39,113.64l-2.42,2.66M77.55,112.32l-2.09,2.27M122.53,28.76l-.31-.11M87.94,55.22l-.32-.13M88.21,124.11l-2.03,2.33M119.49,31.76l-.31-.11M117.44,32.2v-.2M88.23,54.72c.44.17.74.52.73.84M116.56,27.57l.27-.27M116.02,27.89c-.45-.15-.77-.49-.74-.78M98.65,21.96l.24-.17.31-.12.36-.07M93.11,58.05v-.29M108.43,49.94l.03-.99M92.9,57.97l.5.2M113.41,49.49l-.04.99M113.14,31.24l-.21-.25M95.9,40.5l.37-.29M114.72,31l-.53.28M96.93,48.04l.25.12M113.17,30.43l.31.11M117.49,27.3l-.47-.17M122.5,44.79c.24.24.21.56,0,.76M122.21,28.65l-.27.27M91.65,52.31l-.49-.2M118.24,31.92l.48.18M123.01,29.93l-.54.27M121.46,45.27l-.36.3M121.21,45.16l-.51-.23M110.24,50.44l.03-.99M99.56,21.59l.38-.02.38.04.35.09M113.09,49.53l-.04.99M113.87,53.1l-.37.31M106.55,48.78l.02-.99M91.93,44.51l-.24-.11M115.48,48.92l-.04.99M116.66,48.25l-.04.99M107.59,37.63v.31M114.92,53.39c-.16.17-.46.31-.78.35-.31.05-.69,0-.96-.11M117.95,46.22v.22M98.92,37.58l.36.17M100.53,37.63c-.16.16-.45.28-.76.32l-.92-.1M121.1,50.33c-.18.2-.52.35-.88.39-.36.05-.78,0-1.1-.12M112.92,50.42l.04-1.18M115.17,50.02l-.18-.07M78.39,79.35l-.2.16M106.24,51.49c.23.25.19.59-.03.79M103.24,126.99l-.61-.22-.61-.22-1.22-.45-.26-.1M116.23,48.54l-.04.99M108.08,49.64l.03-1.18M100.14,36.63c.54.16.76.72.39,1M112.29,50.46l.04-1.18M106.03,47.18l-.02.99M92.06,53.17c-.58.3-1.61.33-2.22.05M105.58,47.28l.02-.99M121.82,45.43l-.62-.08M106.17,47.36l-.02.99M113.99,42.16l.97.32M100.93,126.09l-.38-.08M60.82,86.89l.26-.25.36-.35.26-.25M116.19,49.53l-.2-.05M89.29,52.16c0-.19.09-.39.26-.55M94.21,58.55l-.44.29M93.53,58.91l-.17.12M89.93,53.15c-.39-.17-.65-.49-.64-.79M143.13,140.79c-.46-.6-.81-1.31-1.07-2.08l-.08-.26M92.79,57.63l-.5-.2M116.84,27.31l.47.17M97.21,53.49c.45.17.77.53.75.86M116.05,49.61l.04-.99M89.55,51.62c.36-.44,1.59-.6,2.21-.3M108.08,49.64l-.19.06M93.11,57.76l.32-.32M120.71,28.59c.3-.38,1.44-.53,2.05-.26M74.73,92.97l.13-.22.14-.31.12-.29.2-.53.19-.45.22-.45.25-.42.28-.37M75.42,103.58h.21M113.23,30.57l.4-.08M71.36,90.89l3.41-3.73M90.02,52.99c-.44-.16-.74-.51-.73-.83M117.02,27.13v.24M79.74,86.08l.5-.15M93.77,58.84l-.47.21M113.44,30.53v-.37M86.41,56.61c-.41-.17-.69-.51-.68-.82M145.87,53.82l.36.79.08.34.03.57-.04.32M146.28,55.98l-.16.46-.38.59M84.28,88.09l.07.43.17.56.26.58.34.57.42.55.48.52.53.47.57.4.58.33.59.24.23.07M96.61,53.86l-.32.31M95,53.8c.36-.44,1.59-.61,2.22-.3M89.24,93.07c.71,1.29,1.15,2.63,1.26,3.87M107.73,42.66l.79-.47,2.09-.6c.99-.13,2.01-.07,2.95.16M97.96,54.36l-.25.53M113.92,29.71l-.28.27M71.99,99.86l.05-.24M89.81,95.17l.12.5.12.87M116.71,27.02l-.47-.17M115.44,49.91l-.19-.07M80.25,85.93c1.3.29,2.66.9,3.94,1.74M100.36,52.41l2.2.84M56.45,103.07l-.3-.26-.24-.34M76.18,36.04l.64-.83M145.33,57.45l-.44.68-.25.82-.05.44.16,1.58.67,1.75M83.43,55.38l5.44-5.2M97.76,48.73l-.13.16M70.76,71.59l-.28.67-1.2,3.36M83.72,29.04l.23-.18.28-.13h.46M67.8,79.22l4.34,1.62M77.65,34.43l.25-.19.28-.13.23-.04M119.22,38.02h-.23l-.2.07M89.21,49.91l-.15-.23-.14-.23-.14-.23M76.85,35.14l.8-.71M121.89,52.91l-.26.23M78.18,79.52l-.64.64M65.26,74.75l.11-.69.15-.37.61-.82M144.39,49.37c-.03,1.3.51,2.96,1.47,4.43M135.27,59.18l.4.15M109.57,35.84l5.56,1.86M86.63,43.37l.06,1.3.31,1.23.49,1.14.58,1.03.59.96M111.4,30.91l.24.11M111.55,50.58l.03-.99M67.55,79.34l-1.11-.61-.44-.41-.18-.23-.16-.25-.1-.21M114.13,50.34l.04-.99M79.94,72.74l.41.13.41.13.41.12M55.87,109.18l-.49-6.7M60.57,91.35l-.23-3.78M61.68,77.04c.81-4.52,2.74-9.45,5.31-13.57l2.35-3.3M117.63,47.22l-.04.99M86.63,43.37l.07-1.2M144.98,47.43l-.32.55M116.83,48.06v-.32M109.61,50.31l.03-.99M68.9,110.14l-.31.33M102.94,119.29l-.42.49M117.37,47.58l-.04.99M107.63,49.56l.03-.99M99.32,54.33l-.02.35M123.27,41.78l.73.57.67.64.58.69.47.72.1.18.5,1.33.13,1.1M111.88,50.59l.04-.99M116.74,40.22c.62.19.91.82.53,1.15M72.63,122.84l-.96,1.05M117.82,47.75l.04-.99M119.2,60.79l-.22.02h-.41M88,43.15v-.49M144.54,48.15l-.05.2-.04.28-.05.74M83.69,29.11l-.78.69M79.31,79.16l-.13.24-.18.16-.21.07-.21-.03M110.07,50.29l.04-1.18M90.1,93.85l-.08-1.08-.32-1.13-.55-1.13-.76-1.08-.94-.99-1.07-.85M84.39,29.24l.33-.23M103.85,125.04l-.06.21-.06.32-.02.22M111.33,50.45l.04-1.18M110.46,49.48l-.03.99M95.05,50.06l5.26,2.33M113.19,50.51l.04-.99M50.99,95.23c-.39-.14-.54-.9-.33-1.72l.54-1.37M50.02,94.28l-.05-.28c-.04-.42.08-1.09.38-1.73M114.69,31.12l.03-.31M120.57,49.1c.65.2.95.89.53,1.23M117.96,38.89l.74-.74M124.98,28l.35.16.17.11.21.2.15.22M79.23,73.04l.15-.13.19-.12.2-.06M114.81,40.47c.18-.18.51-.33.86-.37.35-.05.76,0,1.07.11M127.25,30.46l-.24.62M112.76,49.56l-.04.99M125.96,30.57l3.53,1.63,7.41,3.42,1.31.6M129.55,130.17l-.21-.13M110.69,50.39l.04-1.18M107.56,48.51l-.03.99M88.79,124.3l.54-.69.32-.87.07-1.02M119.23,43.17c-.23-.08-.4-.27-.39-.43M73.56,114.1l.14-.35M116.5,49.33l.04-.99M97.96,54.36v.2M75.77,103.64h-.55M96.29,54.17v.45M75.9,103.58c.91,0,2.06.54,3,1.39M115.05,25.42l-.3.04M109.2,49.2l-.03.99M90.49,96.96l-.21.52M100.27,52.43l-5.08-2.25M69.33,60.26c-3.44,4.06-6.7,11.24-7.59,16.71M74.84,63l.23-.09.25-.09.28-.09M84.83,105.22l-.37.28M60.4,87.54l.23,3.67M103.29,37.34c-.22-.08-.37-.25-.36-.4M108.62,49.01l-.03.99M107.9,126.15c-.69.69-1.55.92-2.42.56M128.6,28.31l-.04.26-.51.89M114.43,50.26l.04-.99M118.27,27.23v.2M128.72,26.44l-.12,1.86M112.6,50.45l.04-1.18M124,28.3l.1-.23M70.94,122.47l.23-.33.19-.36.13-.35M135.9,58.07l.33.15M146.81,101.36l.17-.17.12-.22.06-.24v-.24M117.63,48.13l.05-.99M75.74,114.63l2.09-2.27M139.3,125.84l-11.76-5.97M85.31,122.65l-.12.25M83.83,115.46l-2.07,2.3M80.73,128.98l-.44-.12M85.65,117.21l-2.4,2.69M129.56,130.18l11.38,6.07M85.42,122.46l2.05-2.32M81.5,113.77l-2.08,2.29M84,120.14l2.06-2.31M144.66,106.98l.16-.17.11-.21.05-.24v-.24M139.09,129.59l-11.67-6.05M128.56,113.28l11.94,5.83M71.31,120.34l-.13-.41M86.9,119.08l-2.05,2.32M151.9,68l12.37,4.14M73.46,124.07l-.21-.26-.15-.2M127.41,121.78l-.48-.29M139.74,128.4l-.07-.18M83.11,114.7l.45.35M115.21,49.03l-.04.99M141.39,117.76l.13-.15.08-.19.02-.22-.03-.23M82.18,129.2l-.38-.03M139.59,131.55l-.45-.36M79.21,128.47l-.48-.22M87.68,120.62l-2.04,2.32M88.32,123.33l-.02.3M85.98,117.52l.21.28M124.01,50.62l-.2.25M116.65,48.23l.02-.35M76.93,112.2l.36.02M87.98,121.15l.12.41M139.58,123.73l-11.81-5.93M140.16,124.35l-.06-.2M114.64,49.22l-.04.99M140.53,122.3v-.2l-.04-.21M86.21,117.93l-2.4,2.7M74.72,125.44l-.43-.43M139.13,127.8l-11.71-6.01M85.75,123.22l2.04-2.32M139.56,128.17l-.4-.37M87.33,119.85l-2.05,2.32M76.89,127.2l-.49-.34M73.09,114.76l2.09-2.26M92.75,44.38l-.68-.07M79.84,112.9l-2.43,2.66M83.07,114.84l-2.07,2.3M84.55,116.12l-2.07,2.3M71.6,121.09l-.18-.44M106.46,37.95l-.05-.22M82.74,118.68l2.06-2.3M105.58,52.13l-.5-.09M149.5,70.09l12.41,4.25M147.72,71.29l.51.15M70.96,118.88l-.04-.35M127.52,119.86l-.46-.26M87.36,119.66l.2.4M120.39,42.81c0,.15-.17.32-.4.38-.22.07-.54.06-.76-.03M116.28,49.47l.04-.99M141.98,138.44l-.95-3.09M83.58,129.05l-.23.04M87.83,125.19l-2.02,2.32M151.29,67.87l.61.12M129.84,130.39l-.28-.2M82.35,114.15l.46.32M156.69,81.08l-12.44-4.54M75.42,126.07l-.46-.41M120.23,45.31l-.05-.23M139.68,123.77l.16.12.11.16M107.83,49.51l-.19.05M93.08,36.55l.63-.28.6-.23.59-.19.6-.16.63-.14.64-.12.65-.09.65-.07.67-.05.71-.03h.8l.89.02.98.06,1.03.1,1.04.14,1.02.17.96.19.9.2.92.23,1.02.29M86.15,128.34l-1.21.11M76.14,126.66l-.47-.38M97.64,48.9c-.17.17-.47.3-.78.34l-.95-.1M119.2,32.27v-.24M122.75,28.33c.46.16.79.51.76.81M146.92,72.96l12.44,4.38M108.71,50.04l.03-.99M91.61,44.72l-.51-.4M86,55.02c.37-.45,1.61-.61,2.23-.3M127.74,117.79l-.42-.22M87.62,55.09l-.32.31M88.25,126.94l-.26.33-1.09.94M85.7,127.69l2.02-2.32M88.96,55.56v.2M54.62,84.44l.14.15M119.18,31.64l-.28.27M117.89,32.86c-.29-.17-.46-.43-.44-.66M111.62,22.86l.33.13M85.74,55.79v-.2M144.69,142.16c-.57-.3-1.05-.72-1.45-1.22M118.9,31.91l-.02.45M69.94,46.15l1.19-.71.73-.25.78-.15.81-.06.81.04,1.35.3M86.76,55.92l.32.13v-.44M90.63,52.62l.31-.3M98.2,23.95l-.35-.18-.23-.23-.1-.26.04-.26.18-.24M94.47,57.8c0,.19-.09.39-.26.55M92.57,57.83l-.32.32M58.09,86.15l-.24.28-.3.22-.34.15-.35.07h-.33l-.3-.1M122.25,29.03v.24M101.55,26.94l.76.25.86.29M87.62,55.83v-.29M118.2,32.81c-.46-.16-.78-.51-.75-.81M92.25,58.15l.33.13M118.27,27.23l-.2.41M113.64,29.98l-.47-.17M117.78,28.02c-.42.24-1.24.27-1.74.08M87.77,124.28l.4-.41M129.06,129.64l.13.15M117.9,46.65l-.05.99M101.15,24.98l.19.17M102.2,21.29l2.05.74M120.47,32.33l-.2.41M112.98,29.99l.47.17M113.49,30.55l.28-.27M54.48,111.91l-.47-.97-.41-1.13-.16-.58M115,30.61c-.31.39-1.47.54-2.07.27M118.39,33.17l-.51-.31M90.63,52.62v-.43M115.46,41.28l.34.15M91.91,58.84c-.42-.18-.71-.52-.69-.84M55.69,85.93l.06-.38.19-.37M74.06,45.88l-.37-.11-.4-.04-.41.02M91.48,57.24c.36-.45,1.61-.62,2.24-.31M95.4,55.35c-.4-.18-.67-.51-.65-.82M122.07,29.21l.48.17M56.81,115.07l-1.76-1.53M88.96,55.56c0,.19-.09.4-.26.56M58.22,82.3l.15.13.08.2M118.39,33.17l-.19-.19M114.8,40.89c-.02-.31.43-.63.93-.68.48-.08,1.14.11,1.37.38M87.08,55.92l.23-.03M55.61,80.1l1.78.95,1.76.92,1.75.88M120.51,29l.2-.41M128.86,129.61l.19.16.2.13M121.94,28.92l-.02.44M120.43,49.52l-.36.31M55.14,92.45l-1.85-1.76M72.89,45.75l-.39.08-.34.14-.28.19M72.15,46.5l.27-.18.35-.12.39-.05.39.03.35.1M58.34,83.06l.12-.37M58.34,85.4l-.06.38-.18.37M121.21,45.16l-.02.34M60.59,90.79l-1.56,1.55-.59.43-.54.21-1.19.12-.21-.02-.68-.19-.68-.44M58.34,83.12l-.27.39M74.2,49.57l.31.23.14.24M102.41,20.18l2.43.68,3.5.99,3.28,1M74.79,51.09l.26.09.9.33.9.33M96.79,48.46v.24M60.4,115.44l-.26.13-.61.17-.48.04-.49-.02-.49-.08-.47-.14-.38-.18-.42-.29M58.07,83.45l.27-.39M70.32,54.63l.84.3.84.31.84.32M95.99,23.31l.06-.24.24-.51.42-.49M76.25,112.23l.32-.03M105.73,51.52l-.38.31M96.83,21.95l.83-.52.24-.1.67-.22.72-.13.75-.05.75.04,1.42.32M68.94,47.85l.11-.49.23-.46.53-.63M103.87,51.82c-.03-.33.44-.69.96-.74.5-.09,1.19.1,1.41.4M113.42,30.15v.38M74.68,50.18l.39,3.86M98.3,23.92l2.74,1M54.79,84.67l-.14-.15M114.21,49.07l-.06,1.29M71.35,48.42l2.85,1.15M93.38,43.93l.13.25M54.54,112.61l-.32-4.17M54.74,107.11l.91-.93M55.65,84.5c.48-.41,1.1-.67,1.72-.68M56.23,86.77l-.29-.2-.19-.29-.07-.29M55.66,106.31l-.98.99M121.09,50.11l-.17.36M104.63,22.56l.14,3.87M95.37,27.41l.02.4.21.46.4.42.58.37.73.29M55.91,81.92l.19-.23.24-.15.25-.04.21.05M68.44,52.33l.49-4.48M97.8,23.49l.03-.21.15-.19M59.92,115.48l-.26.1M52.87,83.49l2.32-3.34M100.2,37.45l-.18.14M135.56,130.61l-.18-.07M126.61,126.86l-16.74-7.03M135.67,59.33l16.46,7.11M135.38,130.54l-.57-.33M111.64,31.01l6.93,2.55M111.06,30.64l.14.14.17.12M117.05,25.14l7.94,2.86M114.8,25.42l.33-.21.69-.2h.62l.6.13M127.65,29.86l-.4.6M60.61,86.9l.95-.93M108.07,48.77l-.03.99M136.23,58.22l.24.13c.81.47,1.47,1.22,1.98,2.18M87.53,125.46l-.46.36M88.79,124.3l-.93.87M93.69,35.48l.23-.21M72.23,81.1l-4.68-1.75M107.29,24.54l1.22-.85,1.21-.57,1.19-.24M56.51,103.91c-.65-.3-1.11-.87-1.13-1.43M99.72,53.14l.48.3.36.51.06.31.16,3.28M103.78,119.04l-.38.04-.35.15-.3.25-.23.33M75.28,77.1c-.3.36-1.24.52-1.75.29M78.87,73.53l.15-.25.17-.21M102.56,53.24c2.34.86,4.88,1.49,7.51,1.87M112,126.68l-.81.99M125.12,48.34l.07-.89M123.85,30.03l-.02.2M109.88,34.61l.13.17.1.19.05.2M121.5,26.24l-.91-.12-.57.17M119.3,29.71l-.2.39M56.25,100.37l.25,3.53M120.28,33.62l-.25.09-.28.06-.3.02-.3-.02-.29-.05-.27-.08M63.18,113.84l.12.98M74.39,125.03l-3.06-1.27M102.23,55.06l.45.16M94.5,58.52l-.53.35M120.71,60.32l-.52.21-.51.16-.49.11M119.81,38.01h-.59M117.14,25.83l6.85,2.47M103.19,58.56l-2.67,2.88-2.71,2.97-2.74,3.06M105.67,119.63l-.37-.13-.37-.13-.37-.13M72.9,123.34l-.32-.47M64.49,92.61l.82-.82M65.29,88.24l.02,3.54.66.19,1.62.37M69.12,121.47l.23-.59M66.35,113.13l-.76.81M68.66,122.43l.46-.96M68.33,70.76l-.16.18-.16.28M81.26,74.29l-.96,2.14-1,2.72M128.05,29.46l-.4.4M73.52,77.19l.94.06.44-.11.45-.27M66.24,111.15l.17,1.8M82.75,86.21l1.21.23,1.23.47,1.19.69M118.01,28.01l-.56.29M98.67,53.2l-.11.25M104.02,127.1l-.41-.02-.37-.09M61.86,111.08l.08,1.27M124.76,29.13l-.03.29M65.36,76.83l-.1-1.92M92.49,52.15v.2M115.55,49.86l.04-.99M91.15,52.12v.28M117.47,27.35l-.39.11M117.51,47.4l-.04.99M116.06,27.03l.47.17M115.1,53.01l-.08.25M113.14,31.24l-.51-.31M114.37,31.24l.35-.21M112.2,30.08l.21-.43M118.06,27.63c-.3.38-1.45.53-2.04.26M100.34,54.94c0-.16-.19-.43-.38-.49M92.24,52.69c-.36.44-1.6.61-2.22.3M89.98,94.68l.13-.83M106.53,109.87c-.07,2.52.15,4.63.64,6.26.55,1.84,1.39,3.01,2.47,3.58M94.47,58c0,.19-.09.39-.26.55M105.68,119.75l.33.03M106.94,49.11l.03-.99M88.7,56.12c-.37.45-1.62.62-2.24.31M88.46,100.34l.17.66-.25.67M118.72,32.09l-.28.27M80.6,106.16l-.22-.05-.21-.08-.21-.1M79.76,105.81l-.2-.13-.38-.3-.36-.32M114.04,49.38l-.04.99M69.94,94.42c.04-.83.24-1.63.61-2.36l.69-1.03M107.39,49.42l.03-.99M87.88,41.84l.24-.23M78.49,79.57l-.27-.09M124.78,28.08l-7.66-2.76M115.21,30.18l-.21.42M112.93,30.87c-.45-.15-.76-.49-.74-.79M76.09,87.12l1.48.72.6.12M108.15,49.82l.03-.99M86.7,101.04l-.36.3-.42.25-.46.2-.24.09-.24.08-.24.07-.23.06-.22.06-.21.05-.36.1-.2.06M118.52,32.48l.35-.06M96.1,54.69l.2-.02M109.98,47.63l-.15.4-.15.41-.15.43M72.05,99.62c.13-.75-.24-1.88-1.05-2.89M96.62,54.3l.31-.31M76.09,87.2l.56.35.57.27.37.13M119.21,50.52l-.18.13M74.78,87.14l.65-.24.66.22M97.12,54.5l-.5-.2M65.81,119.54l-.34-.18-.85-.73-.22-.28-.39-.64-.36-.86-.24-.88-.17-.99M95.49,55.19c-.45-.17-.76-.53-.75-.86M112.21,50.58l.04-.99M71.07,96.61c.78.99,1.16,2.09,1.02,2.91M88,99.57l.08.18.29.55M83.46,102.38l-.44.28M112.63,30.93c-.28-.17-.45-.42-.44-.65M111.77,121.29h-1.26l-.76-.17M115.21,30.18v.2M87.76,41.71l.46-.43M125.53,47.09l-.22.06-.1.17M63.24,114l-1.24-1.24M90.83,51.99l-.49-.2M143.82,59.23l-.21.19M84.34,105.58l-.49.22c-.99.39-2.07.49-3.17.37M116.68,39.38l-2.1-.82M88.08,99.51l.39.83M91.22,58v-.2M103.87,34.61c1.98.26,3.86.68,5.7,1.23M88.39,101.66l-3.55,3.56M110.03,29.98l4.72-4.51M105.82,47.87l.02-.99M110.52,128.6l-3.76-1.78M76.82,35.21l.8-.71M110.14,49.43l-.03.99M68.31,75.26l5.11,1.89M88.91,50.14l.48-.3M114.62,60.76l-1.67.04-1.7-.11-1.72-.27M94.61,59.23l4.49-4.46M54.48,91.89l.38.18M101.75,55.12l.19-.09M50.11,94.67l-.14-.38M49.94,94.08c-.04-.48.08-1.06.32-1.65l.98-1.49M106.5,47.72l-.03.99M70.76,71.59l.07-.23.02-.22-.05-.19M126.39,47.71v1.16M122.75,42.07l-.24.36M76.16,36.04l.69-.9M88.86,55.93l.03-.67M101.39,126.69l-.15.13-.18.15-.18.14-.36.28-.36.26-.75.48-.78.43-.52.24-.3.12-.88.27-.98.15-.48.02-.59-.04-1.14-.26M82.94,29.73l.78-.69M94.58,59.3l-.24.18M55.77,101.98l-.15-2.03M89.71,121.71l-.24-1.33-.58-1.43-.9-1.46-1.18-1.42-1.42-1.33-1.59-1.16-1.68-.93-1.7-.66-1.65-.37-1.52-.07-1.32.24-1.06.52-.65.62M91.5,50.35l-.1.25M82.03,31.1l.91-1.37M117.97,23.23l.57-.39.42-.2.64-.2.69-.12.71-.03.72.05,1.35.35M83.61,29.93l.78-.69M70.19,127.46l-.86-.64-.28-.33-.14-.2-.14-.27M115.19,37.72l2.11.82M120.06,39.91l3.07,1.86M95.06,67.47l-.4.32-.52.21-.59.08-.6-.06-.56-.19M109.61,35.96c-1.83-.54-3.73-.97-5.73-1.23M109.53,34.24l.21.24M63.25,114.98l-.14-1.22M83.91,57.23c0-.16.12-.48.24-.58M138.52,46.46l.02-.41.07-.46.11-.47.15-.45.17-.4.18-.32.18-.21M115.31,41.65l-.56-.38M64.72,87.17l-1.03-.34-1.01-.37-.99-.41M120.71,60.32l1.68-.81,1.43-.85,1.14-.86.83-.85M142.93,49.89l-.15.13M103.76,125.07l-.71-.17M71.04,121.09l-1.17-.22M145.43,62.76l.32.93M132.03,56.13l3.89,1.93M70.41,70.68l-.46-.04-.47-.06-.48-.08M104.45,36.98c0,.15-.16.32-.39.39-.22.08-.55.07-.76-.02M125.81,56.94l.15-.2.12-.21.1-.21.08-.22.06-.23.05-.24.04-.27.02-.28v-.27l.02-.23M93.52,36.36l.02-.59M110.97,128.45l-.15.13M111.97,50.47l.04-1.18M111.18,127.69l-.02.44M140.85,43.29l1.57.66M68.59,110.46l-.58.42-.78.25-.49.03M92.38,67.84l-2.97-1.46-2.92-1.44-2.87-1.41M61.56,85.98l-.05-7.11M55.11,98.94c.03.56.48,1.13,1.14,1.43M115.99,48.68l-.04.99M105.63,45.13v-.23M118.53,54.27l.2-.08M91.37,49.82l8.29,3.29M105.72,46.6l-.02.99M83.04,56.18l.05-.27.34-.53M119.21,32.21l.27.12M103.22,55.91v.89l-.03.88v.88M60.63,91.46l1.29,1.23M111.77,49.59l-.04.99M74.77,129.4l-4.25-1.78M84.39,56.21l-.02-.36M83.36,129.26l-1.25-.08-.61-.12M88.08,124.77l.69-.46M69.64,121.1l-.26-.28M79.5,128.58l-.88.65-1.36.45h-1.46l-1.04-.28M69.42,120.86l-.79-.23-1.58-.56-1.25-.53M151.36,66.51l2.59-.24M105.21,126.77l-.36.16-.41.12-.41.06M117.23,25.59l-.1.23M106.74,48.95l.03-.99M106.21,48.43l.02-.99M110.09,55.23c-2.62-.38-5.17-1.02-7.48-1.86M61.82,77.18c.9-5.58,4.22-12.88,7.73-17.01M106.88,48.05l-.03.99M110.99,29.67l.15.2M114.62,60.76l1.37-.06h1.33l1.25.11M84.96,128.47l.23-.26M86,126.2l.24-.08M85.69,127.69l-.57.66M61.91,92.69c.27.27.8.44,1.29.42.49,0,1.02-.21,1.29-.5M82.77,62.33l.28-6.16M107.16,49.27l.03-.99M66.13,72.86l2.2-2.1M144.65,47.98l-1.71,1.9M67.95,75.06l.36.21M109.07,36.71l5.4,1.81M144.8,45.99l.11.2.16.63-.09.6M125.73,36.25l-2.35,2.14-2.19,2.04M87.52,125.64l-2.02,2.32M72.48,80.97c.91.37,2.37.4,3.44-.04M100.17,125.81l-.13-.19-.04-.31.06-.4.15-.47.22-.51M125.11,47.32l.04.6M104.47,52.51c-.25-.1-.46-.26-.54-.44M110.73,126.73l-2.54-.97M115.1,26.09l-.15-.2M88.34,40.97l.11-.23.11-.22.12-.21.13-.2.13-.2.14-.2.15-.19.16-.19.17-.19.19-.21.22-.22.26-.24.3-.27.35-.29.42-.31.5-.33.59-.35.7-.36M68.47,123.41l.19-.98M87.88,43.48l-.02-.78M70.86,47.91l.06-.24.17-.21M111.22,50.56l.03-.99M86.8,125.84l.42-.32M88.35,40.97l.08-.17.29-.52M120.7,33.31l3.89-3.87M118.56,33.57l.28.08.3.05.31.02.31-.02.29-.06.26-.09.21-.11.16-.13M109.92,52.64c.23.09.4.27.39.44M70.52,127.62l-.33-.16M117.31,38.55l4.07,2,1.9,1.24M116.68,39.38c1.3.53,2.54,1.13,3.68,1.79M106.99,38.37c-.25-.09-.45-.25-.53-.42M94.47,57.8v.2M109.4,34.01l.3-3.39M88.06,124.68l-2.03,2.33M65.59,113.94l-.41.3-.52.17h-.55l-.48-.14-.38-.27M93.43,57.44l-.33-.13M86.14,126.65l2.03-2.33M58.39,111.02l-.45-.04-.92-.27-.72-.52-.28-.4M58.07,83.51l-.18.21-.22.14-.23.06M61.29,76.94c.9-5.57,4.22-12.87,7.72-17M106.21,52.28c-.16.17-.47.3-.78.35-.32.04-.68,0-.96-.11M75.36,76.87l3.87-3.83M91.15,51.68l-.32.31M85.96,127.2l2.02-2.32M108.34,49.76l-.18.06M112.19,30.28v-.2M109.28,120.96l-5.31-1.9M115.95,49.67l-.2-.05M73.71,113.74l.1-.21.24-.36M114.23,29.83l-.31-.11M93.62,129.01l-2.15-.83-2.81-1.08-1.95-.75M141.2,41.63v1.81M113.82,50.41l.04-.99M70.93,48.11l.41.3M79.15,112.58l.46.16M94.74,54.53v-.2M89.2,50.07l.28-.12M99.07,54.84l-4.49,4.46M109.11,53.47c-.23-.09-.4-.27-.38-.44M114.97,42.45l-4.72,4.74M95.59,54.18l.5.2M79.07,112.64l-2.43,2.65M87.51,120.16l-2.39,2.7M105.54,47.08l.02-.79M93.61,57.96l-.5-.2M125.28,48.52l.65.25M116.86,48.09l-.04.99M55.11,98.94l-.52-6.99M55.37,102.48c-.03-.36.1-.75.36-1.08M116.98,26.76l-.28.26M120.97,38.02h-.52s-.32,0-.32,0h-.32M114.75,41.27c-.2-.24-.18-.58.06-.8M109.76,50.22l.04-1.18M117.66,31.58c.31-.39,1.46-.54,2.07-.27M112.28,23.08l1.21.51,1.45.71,1.19.68M87.99,42.59l.03-.49.11-.53.2-.59M113.64,29.98l-.02.43M122.25,29.03l.27-.27M71.32,123.76l-.57-.57M120.74,33.77c.18.05.37.31.35.47M55.93,85.18l.24-.28.3-.22.34-.15.35-.07h.33l.3.1M116.45,48.4l-.04.99M78.3,46.77l.33,3.56M74.98,112.58l-2.09,2.26M91.76,51.32c.44.16.75.52.73.84M117.29,26.87l-.31-.11M110.15,35.93v-.76M116.71,49.17l.04-.99M127.01,24.32l.68.36M127.81,24.77l.74.85.17.83M68.44,52.33v.36l.17.6.38.54.58.46.75.35M97.72,54.88c-.35.45-1.6.62-2.23.3M110.78,49.52l-.03.99M118.55,50.21c-.22-.26-.2-.61.04-.85M105.95,47.05v-.26M115.79,48.78v-.35M90.95,52.32l.49.2M116.13,24.99l1.77-1.7M91.85,53.15c-.48.25-1.33.27-1.84.05M125.02,27.7l-3.51-1.46M112.74,52.53l.27-.19M92.58,58.28l.32-.32M65.29,87.83l-.04-.2-.12-.2-.19-.16-.22-.11M92.79,57.63v.46M71,117.39l.04-.22M125.96,35.78l-.03.2-.2.28M52.76,89.63l-.35-4.57M76.51,114.8l2.09-2.27M113.99,42.16l-6.09,6.09M78.31,112.46l-2.09,2.27M104.45,22.16l.15.23M55.05,113.54l-.38-.47M95.48,21.47l.18-.11.2-.11.2-.11.82-.4.85-.33.88-.26,1-.17.85-.05,1.94.26M73.27,114.36l-.07.2M65.11,119.18l-3.03-1.67-3.02-1.74M117.94,45.26v.22M72.57,114.99l2.09-2.25M94.75,40.85l-.06-.22M104.01,22.14l-1.71-.62M78.91,115.77l2.08-2.29M99.47,37.11l.37-.29M73.68,114.6l2.09-2.26M95.34,40.94l.37-.29M57.79,84.56l.28.2.19.29.07.3M96.63,40.84l-.19.15M97.82,23.55l.38.33M114.42,30.27l-.47-.17M82.17,114.11l-2.42,2.67M78.43,128.11l-.49-.26M76.84,112.26l-2.09,2.26M95.97,48.8l.38-.3M117.22,47.76l-.04.99M52.41,84.9c0-.49.16-.99.46-1.41M96.93,48.04v.32M96.55,48.35l.38-.3M114.93,41.44l-.13-.36M129.92,130.12l.16.16M97.3,55.36c-.48.24-1.31.25-1.81.03M97.3,55.36l-.48.22M95.41,40.27l.49.23M96.11,54.81l.31-.3M116.49,27.56l.2-.02M56.83,84l-.61.22M95.27,41.25l-.51-.4M104.08,36.58c.22.08.37.24.36.4M98.99,36.89v.23M98.99,36.89l.48.22M116.71,27.02l-.02.43M90.13,51.99l.49.2M117.24,48.68l.04-.99M55.14,80.37l.04-.19M73.7,114.29l-.1.31M74.32,114.53l2.09-2.26M123.31,29.54c-.3.39-1.45.53-2.05.26-.46-.15-.78-.5-.75-.8M86.46,56.43c-.44-.17-.74-.52-.73-.84M79.88,112.97l-2.08,2.28M97.31,29.35l.8.26.8.26.8.27M54.76,84.59l.39.13.51-.21M119.03,32.21l.48.18M77.94,46.26l.18.13.13.2M88.3,56.59c-.48.25-1.33.27-1.84.04M107.61,48.53v-.33M87.29,55.4v.44M53.29,90.69l-.41-.58M111.44,49.58l-.03.99M57.1,56.48l4.45-5.42,4.57-5.14c3.08-3.32,6.23-6.43,9.43-9.33,3.21-2.91,6.46-5.6,9.77-8.1,3.13-2.38,6.31-4.57,9.51-6.6l.51-.32M109.52,48.87l-1.62-.63M90.31,52.5l.32.13M118.44,32.37l.31.12M56.79,56.89l.31-.42M120.48,32.13v.2M97.01,40.29c.22.24.17.55-.05.74M79.94,112.87l.48.2M55.67,84.57l-.23.17-.22.07M62.88,114.9l.23.03M119.72,31.31c.46.16.79.51.76.82M120.27,32.74l-.3.21M105.71,44.9v-.19M86.24,125.27l.19-.09M117.39,48.5l.04-.99M87.62,55.53l.32-.31M120.5,29.19v-.2M122.73,29.2l-.48-.17M106.78,47.82v-.22M90.62,52.19l-.32.31M72.4,122.6l-.28-.46M71.5,120.58l.11.28M83.87,129l-.16.13M120.25,50.13l-.44-.09M98.85,37.85c-.54-.16-.75-.72-.38-1M148.23,71.43l12.43,4.31M88.3,122.72l.02.26M148.94,69.95l.56.15M92.95,43.45c.54.17.76.75.38,1.04M84.62,128.7l-.21.11M80.73,113.22l.49.25M119.12,50.6l-.57-.39M81.29,117.36l2.07-2.3M82.86,129.19h-.34M143.7,109.77l.15-.17.1-.21.05-.24-.02-.24M82.03,118l2.07-2.3M140.94,120.1l.07-.18v-.21l-.03-.22M115.81,49.74l.04-.99M83.67,115.21l-2.41,2.68M85.99,123.91l-.36.41M150.14,68.81l.58.13,12.39,4.19M114.72,50.18l.04-.99M71.72,115.67l.23-.25M88.14,122.11l-2.04,2.32M71.97,121.85l-.23-.45M107.9,48.24l.16-.42.15-.41.15-.4M107.89,49.69l.03-.99M87.95,121.37l-2.04,2.32M146.41,72.8l.51.16M94.06,46.18c.22.08.37.25.36.4M80.51,116.77l2.07-2.29M139.71,126.22l-.38-.37M139.97,124.11l-.37-.37M87.15,119.41l-2.39,2.7M70.94,117.53l.04-.24M86.9,118.84l.27.46M84.54,120.91l2.05-2.32M117.52,48.32l.04-.99M81.39,129.11l-.33-.06M118.85,42.74c0-.16.17-.32.4-.38.22-.07.54-.06.76.03M105.73,47.68l.02-.99M128.29,128.95l-2.15-2.69M80.04,128.66l-.29-.11M85.02,121.68l2.05-2.32M121.63,53.14l-.53.39-.5.34-.48.29-.45.25-.21.11M79.09,112.67l-2.09,2.27M80.61,113.24l-2.43,2.66M158.03,79.13l-12.43-4.45M85.22,116.82l-2.06,2.31M145.59,74.67l-.38-.13M85.84,117.55l-2.06,2.31M95.32,48.67v-.2M95.38,48.72l-.06-.24M83.4,119.4l2.06-2.31M112.1,49.59l-.04.99M110.57,50.49l.03-.99M112.93,31.07l-.3-.14M104.91,51.87l-.51-.24M85.03,116.51l-2.41,2.69M118.59,49.36c.18-.19.52-.34.88-.39s.78,0,1.1.12M86,123.97l2.04-2.32M86.4,118.31l-2.05,2.31M105.58,45.41v-.31M71.28,116.35l.09-.18M82.29,114.28l-2.08,2.29M79.98,128.76l-.46-.17M78.1,115.38l2.08-2.28M95.86,48.26l.19-.15M77.3,115.05l2.09-2.28M84.37,115.84l-2.41,2.68M51.15,70.91l.87-3.68.59-1.85.33-.92.35-.91.77-1.78.84-1.72.91-1.62.97-1.52M75.01,114.54l2.09-2.27M149.38,70.11l-.39-.13M128.56,129.26l.15.18M51,72.38l.15-1.48M117.26,40.98l-.17.35M114.05,52.94v.23M106.95,43.24l.41-.31M116.25,27.46l.31.11M129.41,129.94l.26.16M86.71,118.67l-2.39,2.7M108.91,49.11l-.03.99M128.7,129.44l.14.16M114.38,53.34l-.52-.24M105.51,46.88l.02-.99M96.55,48.35v.32M112.86,50.54l.04-.99M117.74,47.03l-.04.99M84.54,115.92l.43.43M95.22,40.42l.19-.15M116.74,41.14l-.18.15M78.38,112.38l.43.11M101.49,25.51l.15,3.62M114.96,41.27l-.16-.39M114.79,41.08v-.2M107.81,48.65l-.03.99M86.16,124.7l2.03-2.32M77.66,127.68l-.49-.3M88.25,122.81l-2.03,2.32M53.33,108.7c-1.11-5.52-1.84-11.34-2.19-17.42l-.25-9.33v-2.39l.04-2.38.07-4.8M71.09,119.6l-.08-.39M91.85,53.15l-.48.23M88.27,123.48l-2.03,2.32M72.07,115.4l.3-.32M149.23,95.8l.18-.17.13-.21.07-.23v-.23M111.01,50.42l.04-1.18M86.23,126.05l2.03-2.33M75.52,45.47l-1.2-.26-.85-.05-.85.06-.82.16-.55.18M106.33,47.54l-.03.99M116.35,40.51l.25.11M117,47.88l-.04.86M75.18,112.7l-1.74,1.88M72.77,115.07l-.15.16M147.99,98.56l.18-.17.13-.21.07-.24v-.24M112.43,49.58l-.04.99M70.9,118.19v-.31M105.94,48.06l.02-.99M83.49,129.11l-.3.05M115.49,40.57l.5.23M58.46,82.7v.36M57.38,83.82l.39-.11.3-.27M88.18,121.9l.07.38M72.11,115.29l2.09-2.25M115.31,40.72l.18-.15M115.51,49.73l.05-1.18M73.5,113.86l-.1.18M140.35,121.86l-.28-.33M115.99,40.8l.36-.29M77.61,112.35l-.92,1.01M107.38,48.41v-.35M75.62,112.34l.19-.04M121.25,30l-.33-.16M155.32,83.19l-12.43-4.62M107.85,48.67v-.34M121.94,28.92l-.48-.17M108.72,53.03c0-.17.17-.35.41-.42.23-.08.57-.07.79.02M129.17,129.89l-.13-.15M120.92,29.84c-.27-.17-.44-.42-.42-.64M113.24,53.29l.37-.31M82.27,129.13l-.26-.02M87.29,55.4l-.49-.2M116.35,40.51v.33M109,50.14l.03-.99M92.86,46.58c0-.16.17-.34.41-.42.23-.08.57-.08.79.02M117.26,40.98v.2M95.37,27.41l.61-4.09M113.54,50.33l.04-1.18M113.09,52.74l.18-.16M119.21,32.03l.28-.27M127.8,115.45l.3.15M86.24,125.39l2.03-2.32M119.69,32.2l-.48-.18M98.9,22.27l.24-.16.31-.11.36-.04.36.02.33.09M120.48,32.13l-.2.41M119.97,32.95l-.53.27M114.34,49.31l-.04.99M92.24,52.89l-.38.26M75.54,112.39l-2.09,2.26M125.11,47.3l-.03.49M141.03,135.35l.31.78M105.91,46.99l-.03.99M88.97,55.76c0,.19-.09.39-.26.56M113.28,52.58v.24M149.16,144.51l-.31-.12M110.31,53.08c0,.17-.17.34-.41.42-.23.08-.57.07-.79-.02M104.59,51.47v.24M121.49,29.36l.31.11M104.4,51.63l.19-.16M119.97,32.95c-.43.24-1.27.27-1.77.06M121.74,29.46l.02-.36M104.59,51.47l.51.24M148.72,144.32l-4.03-2.17M54.22,108.29c0-.44.2-.85.53-1.18M121.76,29.09l-.27.27M76.17,112.29l-2.09,2.26M115.01,50.08l.04-.99M69.23,50.86l-.47.59-.27.62-.05.26M88.11,55.73l-.49-.2M80.69,113.33l-2.08,2.28M92.08,57.63l.5.2M72.54,115.14l.72-.78M145.7,104.17l.16-.17.12-.22.06-.24v-.24M117.02,27.13l.27-.27M113.79,52.82l.37-.31M79.72,116.24l2.08-2.29M105.48,51.4v.34M117.79,28.02l-.54.28M115.28,27.11l.21-.41M98.8,37.03l.18-.14M117.05,47.93l-.04.99M99.16,37.65l-.23-.11M113.77,30.28l.47.17M105.86,52.07l-.19.16M96.27,40.21l.24.11M97.71,55.09l-.42.28M62.91,113.9l-2.51,1.54M113.49,53.41l-.26-.12M95.9,40.5v.31M115.29,49.98l.04-.99M113.36,41.84l-4.74,4.72M113,52.34l.52-.15c.5-.09,1.18.11,1.41.41M114.71,31c-.43.25-1.28.28-1.78.07M120.28,32.54c-.31.39-1.47.54-2.07.27M114.99,30.8l-.28.19M116.63,39.25l1.18.51,1.22.59,1.35.74,2.05,1.35M117.73,47.94l.05-.99M96.05,48.11l.5.24M113.28,52.58l.52.24M116.56,41.29l-.5-.23M116.01,28.09l-.32-.15M115.71,41.35l-.25-.11M116.2,28.26l-.15-.14M115.46,41.24l.36-.29M113.79,52.82v.35M90.39,52.59l.45-.11M118.06,27.83l-.27.19M142.06,115.18l.14-.16.09-.2.03-.23-.03-.23M87.41,55.74l.49.2M117.25,41.18l-.17.35M107.59,49.38l-.2.04M92.59,58.14l.21-.03M115.49,40.57v.22M91.97,58.66c-.45-.17-.76-.53-.75-.86M123.5,29.33l-.2.4M123.51,29.14v.2M123.81,50.87l-1.92,2.03M122.43,42.43l.24.19.26.22.28.25.28.28.26.28.24.29.23.33.23.37.22.42.17.43.12.4.08.36.04.32.02.29v.26M114.93,52.6l.16.41M54.53,84.24l.09.2M121.42,53.14l-1.04.73-.79.46M118.7,32.47l.02-.38M104.79,52.3l-.23-.11M96.62,54.3v.29M117.53,26.44c.45.15.77.49.74.79M88.7,56.32l-.4.27M139.12,131.18l-11.6-6.06M61.15,83.03l.15.13.17.11M87.08,56.05l.32-.31M87.08,55.61l-.32.31M106.41,37.73c-.02-.3.43-.63.92-.68l.92.1M85.73,55.59c0-.2.09-.4.27-.57M123.01,29.93c-.42.24-1.24.27-1.75.07M107.1,37.41l.49.22M150.51,93.1l.18-.16.14-.2.08-.22v-.23M121.43,30.16l-.45-.28M121.54,29.5l.38-.07M97.17,48.16l-.38.3M119.88,49.98l-.36.31M120.94,50.27c-.2.22-.67.38-1.09.36-.42,0-.89-.18-1.09-.42M108.2,37.46l-.36.29v.22M107.41,37.78l-.49-.22M107.41,37.78v.31M107.66,37.89l-.36.29M108.15,38.11l-.49-.22M119.62,49.86l-.02.35M120.4,50.22l-.52-.24M118.59,49.79c0-.32.44-.66.95-.7.49-.08,1.17.11,1.4.4M120.06,49.83v.23M120.18,45.08c-.01-.31.44-.64.94-.68.49-.08,1.15.11,1.38.39M122,44.82l-.36.3M121.74,44.71l.25.12M58.6,92.35l-.41.3-.34.15M121.97,45.5l-.51-.23M92.87,43.77l-.38.3v.23M92.06,44.1v.31M92.8,44.45l-.49-.23M119.62,49.86l-.51-.24M99.29,37.25l-.48-.22M100.01,37.59l-.48-.22M96.14,40.61v.21M95.71,40.64l-.49-.23M95.71,40.64v.31M95.95,40.76l-.37.29M96.44,40.98l-.49-.23M97.29,48.7l-.19.15M95.58,41.05l-.24-.11M96.36,48.5l-.5-.24M96.36,48.5v.32M96.6,48.62l-.38.31M97.1,48.85l-.5-.24M97.68,48.13l.14.36M119.81,49.71l-.02.35M116.6,40.62l-.36.29v.22M115.81,40.95l-.5-.23M115.81,40.95v.33M116.06,41.06l-.36.29M115.98,41.04l.26.03M114.57,53.19l-.18.16M114.42,52.63l-.37.31M96.51,40.32l-.37.29M117.09,41.33c-.2.21-.66.36-1.07.34-.41,0-.87-.18-1.06-.4M92.31,44.21l-.38.3M117.45,32l.21-.42M105.35,51.83v.24M105.1,51.71v.32M104.91,51.87v.34M105.17,51.99l-.38.31M105.67,52.23l-.51-.24M95.32,48.47c-.03-.32.44-.69.96-.74.5-.09,1.19.1,1.41.4M96.79,48.46l.5.24M96.22,48.92l-.25-.12M116.24,40.91l.5.23M114.05,52.94l.52.24M114.16,52.51l.26.12M105.35,51.83l.51.24M105.48,51.4l.25.12M104.53,52.18l.38-.31M120.58,50.07l-.18.15M120.06,49.83l.52.24M119.26,50.17l.36-.31M107.84,37.74l.49.22M107.95,37.35l.24.11M107.3,38.18l-.24-.11M121.64,45.12l.51.23M120.85,45.46l.36-.3M121.11,45.57l-.26-.12M91.04,44.08c-.03-.32.43-.68.95-.73.3-.05.67-.02.96.1M92.5,44.07l.49.23M94.7,40.62c-.03-.31.43-.66.93-.71.49-.09,1.17.09,1.38.38M96.14,40.61l.49.23M120.19,45.18l.15-.25M118.73,50.39l-.15-.4M98.47,36.85l.23-.16M106.4,37.93v-.2M97.01,40.48l.13.25M121.1,49.91l-.17.36M121.1,49.91v.2M119.52,50.29l-.26-.12M118.75,50.2l-.17-.41M118.58,49.99v-.2M118.9,50.54l-.15-.14M120.17,49.4l.26.12M120.17,49.4l-.02.35M119.81,49.71l.36-.31M119.29,49.47l.51.24M119.29,49.47v.23M119.11,49.63l.18-.15M119.24,50.67l.26.12M120.93,49.49l.17.42M107.05,38.06l.36-.29M108.33,37.97l-.18.14M107.95,37.35v.31M121.64,45.12v.23M100.08,36.94l-.37.29M107.1,37.41v.22M106.92,37.55l.18-.14M120.86,45.5l.33.15M122.15,45.35l-.18.15M121.74,44.71l-.02.34M121.39,45.01l.36-.3M121.39,45.01l-.02.35M120.88,44.77l.51.23M120.88,44.77v.23M120.7,44.92l.18-.15M91.04,44.28v-.2M99.29,37.25v.3M99.53,37.37l-.37.29M91.68,44.4l.38-.3M92.99,44.3l-.19.15M92.63,43.65l.24.11M92.63,43.65v.31M92.25,43.95l.38-.3M92.25,43.95v.3M91.76,43.72l.49.23M91.76,43.72v.24M91.57,43.87l.19-.15M99.71,37.22l.48.22M99.71,37.22v.23M98.92,37.54l.37-.29M117.08,48.85l.04-.99M62.88,114.9c.25,2.15,1.08,3.7,2.28,4.32M99.84,36.83l.24.11M99.84,36.83v.3M92.06,44.1l-.49-.23M153.53,146.34l-3.98-1.62M118.26,27.42l-.2.41M88.3,56.59l-.47.22M147.19,133.33l.16.15M149.42,144.66c-.85-.4-1.49-1.24-1.92-2.49M147.19,133.33c-.46,3.89-.33,6.94.32,8.84M93.31,59.05c-.24.12-.65.12-.9,0M177.48,70.88c-4.12,1.58-11.84,11.94-17.9,24.61-6.18,12.36-11.54,28.89-12.39,37.84M147.37,133.49c-.78,6.41.11,10.48,2.19,11.22M93.97,58.87l-.49.21M90.31,55.33v-.32M95.69,55.6l-.38-.18.19.06M93.41,55.01l-.24.52M91.72,58.87c-.83-.3-1.11-1.22-.53-1.69M86.52,56.74l-.17-.17M93.41,55.01v.34M95.2,55.37c-.79-.3-1.05-1.18-.49-1.64M90.31,55.01l.25-.53M94.71,53.73c.43-.53,1.93-.74,2.68-.36M98,55.05l-.51.34M85.72,54.96c.45-.54,1.95-.74,2.7-.37M98.18,53.27l-6.42-2.56M89.11,51.07l-4.18,4.01M91.22,57.8c0-.19.09-.4.26-.56M117.67,32.84c-.57-.31-.71-.95-.29-1.31M119.88,31.21c.41.14.74.4.85.67.13.27.06.58-.18.81M111.44,127.47l-.22.18M116,28.24l-.53-.34M116.42,29.59l.2-.4M118.33,27.78l-.32.23M112.77,31.08l-.36-.17M117.17,27.43l-.47-.08M113.99,30.36l-.36-.04M124.41,29.47l.08.19M124.31,29.58l.23-.48M117.48,25.92c-.71-.32-2.07-.14-2.44.31M120.74,33.13l3.57-3.55M123.63,28.14l-6.15-2.22M115.27,30.76l-.33.24M124.54,29.11l-.03.52M123.58,29.68l-.35.24M121.23,30.15l-.53-.34M111.41,29.7l-.26.52M120.7,29.81c-.55-.31-.67-.92-.27-1.27M123.23,29.93l-.56.28M118.2,33.16l-.53-.32M120.19,32.95l-.56.28M111.15,30.22c-.02.32.27.68.73.88M112.41,30.91c-.57-.31-.7-.94-.27-1.3M112.94,31.23l-.53-.32M92.52,52.86l-.46.31M91.97,59.4c.76.38,2.27.17,2.7-.37M86.71,56.85l-.43-.19M84.62,56.4l.09-.28M96.5,55.61l.62-.26M89.73,53.17c-.78-.3-1.03-1.17-.46-1.62M86.22,56.63c-.82-.29-1.09-1.21-.5-1.67M90.56,54.48c.31-.35,1.14-.54,1.74-.41.61.09,1.15.54,1.11.93M91.19,57.18c.44-.54,1.95-.75,2.71-.37.86.28,1.2,1.23.6,1.71M89.27,51.55c.44-.53,1.92-.73,2.67-.36.42.16.74.45.84.76.11.3,0,.65-.26.91M97.39,53.37c.42.16.76.46.86.76.12.3.02.66-.25.92M88.42,54.59c.86.27,1.18,1.22.57,1.7M115.47,27.91c-.55-.31-.67-.91-.25-1.26M116.61,29.19c.27-.31,1.07-.47,1.64-.34.59.09,1.1.51,1.05.86M120.43,28.54c.37-.46,1.74-.64,2.48-.32.82.23,1.2,1.05.68,1.46M112.14,29.6c.38-.47,1.77-.64,2.49-.32M117.38,31.53c.38-.47,1.77-.65,2.5-.32M120.55,32.69l-.36.25M115.22,26.65c.37-.46,1.74-.63,2.47-.31.81.23,1.18,1.04.65,1.45M115.04,26.23l-3.63,3.48M118.57,33.55c.77.21,1.84-.03,2.17-.42M84.61,55.76c0,.38.35.8.87,1M84.62,56.42v-.66M99.08,54.3c.02-.4-.36-.84-.9-1.04M114.16,52.51v.35M92.06,53.17l-.46.22M90.23,53.41l-.4-.18M97.5,55.39c-.58.29-1.58.3-2.19.03M97.5,55.39l-.44.2M88.5,56.61c-.59.3-1.61.32-2.22.05M93.97,58.87c-.59.28-1.59.3-2.19.03M92.69,55.69c-.47-.21-1.32-.21-1.81.07M84.93,55.07c-.21.2-.33.45-.32.68M98.98,54.68l.08.25M98.79,54.93c.19-.18.29-.41.29-.63M91.76,50.71c-.74-.36-2.21-.17-2.65.36M91.47,53.29l.19-.13M91.16,52.31l-.32-.02M95.86,55.53l.34.08M96.63,54.5l-.33-.03M87.43,56.85c.3,0,.56-.13.7-.27M86.85,56.76l.45.09M93.42,58.96l.2-.14M92.34,59l.51.09M88.99,56.28l-.49.32M94.67,59.03l4.12-4.09M93.16,55.53c-.31.35-1.14.54-1.74.41-.62-.09-1.15-.54-1.11-.93M111.15,30.8l.11-.22M111.13,30.8l.02-.58M124.54,29.11c.04-.36-.35-.79-.91-.97M114.93,31c-.52.3-1.54.33-2.16.08M114.94,30.99l-.46.24M120.19,32.95c-.52.29-1.53.32-2.15.07M118,28.02c-.51.29-1.53.33-2.14.08M95.41,40.27v.23M123.23,29.93c-.51.29-1.52.33-2.14.08M118.52,30.4c-.36-.14-.94-.18-1.38-.05M119.24,32.28l-.34-.04M122.4,29.33l-.46-.08M121.1,30l-.4-.19M114.63,29.29c.4.14.73.4.84.67.12.27.05.58-.19.8M118.04,33.02l-.37-.18M115.86,28.1l-.39-.19M119.11,30.1c-.27.31-1.07.48-1.64.35-.59-.09-1.1-.51-1.05-.86M88.5,56.61l-.45.21M92.2,59.08l-.42-.19M92.01,58.98l-.18-.17M89.88,53.13l.16.16M69.01,70.49h-.21l-.22.09-.21.15M143.09,111.66l.61-1.9M143.99,108.91l.67-1.93M144.97,106.11l.73-1.94M147.17,100.49l.82-1.93M148.37,97.7l.86-1.9M149.62,94.96l.89-1.86M145.48,74.74l-.62.84M144.86,75.59l-.12.26M144.16,75.75l.58.1M144.86,75.59l-.25-.07-.24-.02-.22.02M143.68,76.48l.2.07.24.08M144.12,76.64l-.62.91M143.5,77.55l-.11.27M142.8,77.72l.58.1M142.32,77.62l-.18.09M142.32,78.52l.2.08.24.09M142.75,78.69l-.62.98M141.39,80.88l-.62,1.04M151.82,89.17l.21.12.15.18.08.22M151.72,89.46l.1-.29M151.25,90.36l-.15.18M138.71,85.64l-.59,1.14M138.12,86.78l-.09.28M137.42,88.17l-.57,1.18M149.18,94.42l.21.13.15.19.08.23M136.85,89.35l-.08.28M149.1,94.7l.08-.28M136.21,89.49l.56.14M136.85,89.35l-.24-.08-.22-.04h-.2M148.94,95.24l-.29.41M136.32,90.57l-.49-.27M136.17,90.78l.1-.16M135.75,90.57l.19.11.23.1M148.51,95.87l.24.06.25-.02.23-.1M136.17,90.78l-.55,1.21M147.93,97.15l.2.13.15.19.08.23M135,92.12l.55.15M135.62,91.99l-.24-.09-.22-.05h-.2M147.85,97.42l-.14.54-.29.44M134.98,93.45l.11-.19M134.41,93.1l.15.13.19.12.23.11M147.28,98.63l.24.06.25-.02.23-.1M147.28,98.63l.11-.19M147.85,97.42l.07-.28M134.98,93.45l-.53,1.23M146.72,99.93l.21.13.15.19.09.24M133.85,94.79l.54.15M134.45,94.67l-.24-.09-.22-.05-.19-.02M146.66,100.2l-.12.52M133.17,95.62l.11.16.15.13.19.12.23.11.15-.24M146.11,101.42l.15-.24M146.11,101.42l.24.06.24-.02.23-.1M146.66,100.2l.06-.27M133.84,96.15l-.49,1.24M145.58,102.73l.21.13.16.2.09.24M150.59,68.36l.62-.48M149.38,69.41l.65-.58M146.82,72.1l.69-.79M145.5,73.72l.71-.88M144.15,75.52l.72-.97M141.43,79.59l.72-1.14M140.08,81.83l.71-1.21M138.75,84.2l.7-1.27M136.18,89.23l.67-1.37M134.96,91.85l.64-1.4M133.8,94.52l.61-1.42M133.28,95.78l-.57,1.43M131.69,99.92l.53-1.43M130.76,102.61l.49-1.42M129.91,105.26l.44-1.4M128.5,110.39l.33-1.33M127.96,112.83l.28-1.28M127.51,115.16l.22-1.22M126.96,119.44l.1-1.08M151.75,67.67l.59.09M151.74,67.52l.24-.02.24.02.25.06M150.59,68.53l.59.09M150.59,68.36l.23-.02.24.02.25.06M150.08,69.5l-.1.19M149.38,69.6l.59.09M149.38,69.41l.23-.02.24.02.25.06M148.7,69.59l.18-.06M149.42,70.13l-.58.59M148.83,70.74l-.11.21M148.12,70.86l.59.09M148.12,70.66l.23-.02.24.02.25.06M147.45,70.86l.18-.07M147.54,72.16l-.12.24M146.83,72.31l.59.09M139.42,124.78l.09-.27M141.8,113.79l.21.14.17.19.11.23M145.5,73.95l.59.1M145.5,73.72l.23-.02.24.02.25.07M145.04,74.6l.21.07.24.08M148.14,71.48l-.6.68-.25-.07-.24-.02-.23.02M141.43,79.59h.45s.24.08.24.08M141.44,79.84l.58.11M140.79,79.82l.18-.09M140.67,135.99l.2.1M140.96,80.71l.2.08.23.09M140.08,81.83h.21l.23.02.24.07M140.1,82.09l.57.11M128.23,128.28l11.49,6.09M140.04,83.21l-.61,1.1M138.75,84.2h.21l.23.03.24.08-.09.28M138.77,84.46l.57.12M138.13,84.43l.17-.09M151.72,89.46l-.19.56M138.86,85.47l-.15.17M138.86,85.47l-.5-.25M137.45,86.67h.21l.22.04.24.08M137.47,86.94l.56.13M150.39,92.04l-.17.55M149.93,92.97l-.15.2M137.57,87.98l-.15.19M137,87.97l.19.1.23.1M132.22,98.48l-.11-.17-.08-.17M145.43,103.49l-.28.49M132.9,97.24l.21.06.23.09M133.3,97.6l.05-.21M132.76,97.48l.54.16M145.53,102.94l.05-.21M145,104.23l.23.06.24-.02.22-.1M132.78,98.87l-.46,1.24M144.51,105.54l.21.14.16.2.09.24M144.47,105.79l.04-.25M131.75,100.18l.53.18M132.32,100.11l-.23-.1-.21-.07M144.47,105.79l-.08.48-.28.51M131.24,101.18l-.11-.17-.08-.18M131.94,101.33l-.48-.32M131.24,101.18l.14.15.19.14.22.12M143.97,107.04l.14-.26M143.97,107.04l.23.06.24-.02.21-.1M143.52,108.34l.21.14.16.2.1.24M131.37,102.81l-.03.23M130.82,102.86l.53.19M131.37,102.81l-.23-.1-.21-.07M143.49,108.57l-.06.45-.27.52M130.35,103.86l-.11-.18-.08-.18-.06-.19M131.03,104.01l-.48-.32M130.9,104.27l.14-.26M143.03,109.81l.14-.27M143.03,109.81l.23.06.23-.02.21-.1M143.49,108.57l.03-.23M148.84,70.72l12.41,4.3M142.62,111.09l.21.14.16.2.1.24M130.52,105.49v.22M129.98,105.51l.52.2M142.6,111.31l-.03.42-.26.53M129.54,106.49l-.11-.19-.09-.19-.06-.19M130.22,106.65l-.48-.33M129.54,106.49l.14.16.18.15.22.12M142.17,112.54l.13-.27M142.17,112.54l.23.07h.23l.2-.1M142.6,111.31l.02-.22M129.76,108.11v.2M129.24,108.1l.51.21M127.61,118.84l-.09.93M127.7,118.57l-.48-.36M128.84,109.06l-.11-.19-.09-.19-.06-.19M129.51,109.23l-.48-.34M128.84,109.06l.14.17.18.15.22.13.12-.27M129.38,109.5l-.29,1.15M139.75,122.58l.22.08h.21M141.09,116.41l.21.14.17.19.11.23M128.6,110.62l.5.22M128.67,110.46l.2.09.23.11M127.89,116.69l.1-.27M141.1,116.6v.36l-.22.54M129.33,107.92l.2.08.23.11M128.23,111.55l-.11-.2-.09-.19-.07-.19M128.89,111.73l-.48-.35M127.62,115.36l.17.08M128.23,111.55l.14.17.18.15.22.13.12-.27M140.75,117.77l.12-.28M140.75,117.77l.22.07h.22l.19-.08M130.09,106.92l.13-.27M128.78,112l-.24,1.11M140.48,118.94l.21.14.17.19.12.22M128.12,112.9l.19.1.23.11M140.5,119.1l.03.32-.22.54M130.52,105.49l-.23-.1-.2-.08M130.9,104.27l-.38,1.21M127.73,113.94l-.11-.2-.09-.2-.07-.19M128.39,114.13l-.48-.35M127.73,113.94l.14.17.18.16.22.13.11-.27M140.2,120.24l.11-.27M140.2,120.24l.22.07h.21l.18-.07M130.35,103.86l.14.15.18.14.22.12M128.28,114.4l-.19,1.06M139.98,121.34l.21.14.18.19.12.22M127.67,115.24l.19.1.22.11M140.06,121.77l-.2.53M127.34,116.22l-.12-.2-.1-.2-.07-.19M127.99,116.42l-.48-.36M131.8,101.58l-.42,1.23M127.34,116.22l.14.18.18.16.22.13M139.75,122.58l.1-.27M127.89,116.69l-.14,1M131.8,101.58l.14-.26M127.34,117.46l.19.11.22.12M139.7,123.99l-.19.52M127.06,118.36l-.12-.2-.1-.2-.08-.19M139.83,126.26l-.14-.2-.18-.18-.21-.13M130.09,106.92l-.33,1.19M132.78,98.87l-.23-.11-.19-.13-.14-.14M132.92,98.62l-.49-.3M145.15,103.98l-.15.25M132.78,98.87l.15-.25M124.61,117.4c-.29,4.18.28,7.31,1.51,8.83M126.85,121.35l.04-1M126.85,123.11v-.91M126.96,124.69l-.07-.82M144.14,76.5l-.4-.16M145.53,102.99l-.1.5M137.57,87.98l-.5-.26M150.22,92.59l-.29.38M139.85,132.99l-.13-.94M138.29,85.45l.2.1.23.1M139.35,131.33l-.11.37M139.54,132.75l-.08.28M127.87,128.36l.13.17.14.18M139.61,83.02l.2.09.23.09M140.05,121.53v.24M139.45,82.07l.17-.09M142.54,131.05c-.68,6.12.19,10.14,2.16,11.11M140.5,135.21l-.27-.67M140.12,134.19l-.2-.8M127.38,122.68v.78M127.44,124.36l.06.7M139.12,131.14l.21.13.19.16.16.17M127.6,125.85l.11.62-.21-.13-.18-.13M139.45,133.03l-11.55-6.08M127.86,127.16l.16.53M127.86,127.16l11.54,6.09M139.76,134.17l-11.5-6.09M140.15,135.28l.2.1M128.7,129.19l.24.35M128.7,129.19l11.45,6.09M129.27,129.91l.29.26M140.11,124.13l.25-1.53M142.29,114.36l.55-1.85M150.92,92.28l.92-1.8M146.82,73.02l-.61.76M151.1,90.54l.24.05.25-.02.24-.09M144.83,73.94l.18-.08M151.85,68.01l-.54.41M150.66,68.97l-.56.5M146.21,73.79l-.12.26M146.38,72.88l.21.06.24.08M146.15,72.31l.18-.08M141.8,114v.39l-.26.54M141.41,115.2l.13-.28M141.41,115.2l.23.07h.22l.2-.09M128.06,113.05l.48.22M139.58,123.62l.21.14.18.18.13.21M127.91,128.31l-.23-.51M128.23,128.28l.2.44M141.98,138.44c-.58-1.89-.72-4.76-.34-8.34M139.82,133.96l-.06.2M139.69,123.8v.19M150.21,68.86l.21.04.24.07M109.49,121.21l.21-.11M107.22,120.59l.09.17.03.21-.03.2M107.9,120.64l-.25-.04-.27-.05-.29-.07M106.08,126.43l.3.11M107.99,126.01l-.26.23M105.56,125.25l.19.07M108.05,120.76l.11.17.04.21-.02.2-.85-.17M103.74,126l1.67.68M108.38,120.67h-.23l-.26-.03M109.87,121.16c-.27,1.27-.66,2.49-1.16,3.66M105.59,126.71l.19-.03.17-.1.13-.15M105.39,125.17c.56-1.3.98-2.67,1.23-4.09M104,124.6l1.39.57M106.62,121.08l-1.16-.59M106.05,125.39c.58-1.33,1.01-2.75,1.27-4.21M107.01,121.16l-.2-.03M106.38,126.54l.35.05.34-.03.34-.12.33-.2M106.38,126.54c.83-1.61,1.44-3.37,1.8-5.2M109.49,121.22l-.58.14-.73-.02M107.09,120.47l-.22.18-.24.43M107.09,120.47l-1.37-.69M107.73,126.24c.8-1.56,1.4-3.26,1.76-5.02M80.59,106.15l-.29-.08-.35-.17-.36-.24-.37-.3-.37-.35M71.07,96.72c-.12-1.23.31-2.32,1.14-2.88l-.41-.2-.34-.27-.26-.32-.18-.36-.09-.38v-.38l.06-.37.15-.35.12-.18M71.07,96.72l.39.54.31.55.24.55.15.54.06.51-.03.46M86.74,100.91l3.58-3.56M89.07,93.54c.7,1.29,1.14,2.63,1.25,3.81M85.75,91.12l.65.6.72.5,1.49.6M79.83,86.13l-3.4,3.77M75.97,87.2l1.45.71.54.12M127.18,117.37l.16-1.15M71.71,90.95c-.11-.1-.3-.13-.34-.06M129.16,107.86l.39-1.37M70.01,95l.06.19.08.19.09.19.11.19.12.19.14.2.15.2.15.19.15.18M82.53,105.18l-.11-.16-.1-.17-.08-.18-.06-.18M137.45,86.67l.69-1.32M79.46,95.08l-.13-.37-.06-.38.02-.38.08-.37.14-.36.18-.35.21-.33.24-.32.26-.29M85.53,97.3c.67,1.22,1.09,2.49,1.21,3.61M85.53,97.3l-.14.14-.16.14-.18.14-.19.14-.2.13-.21.12-.22.1-.22.09-.22.07-.22.06-.23.04-.23.02h-.23l-.23-.02-.23-.04-.23-.06-.22-.08-.21-.1M142.79,77.48l.72-1.06M89.07,93.54l-3.54,3.76M85.18,97.04l3.54-3.75M85.18,97.04l-.29.27-.32.24-.34.2-.36.16-.37.11-.38.05-.38-.02-.38-.1-.37-.17M148.12,70.66l.67-.69M80.4,91.94l3.59-3.71M76.43,89.9l1.87.65M79.83,86.13c1.27.29,2.66.9,3.95,1.75M78.3,90.55l1.88,1.03M76.43,89.9l-.13.15-.13.17-.12.19-.12.2-.11.21-.1.22-.1.22-.09.22-.08.21-.08.21-.08.21-.07.21-.07.2-.07.19-.07.18M79.03,95.26l-.14-.44-.05-.45.04-.45.11-.45.17-.43.22-.41.25-.38.27-.35.28-.31M78.3,90.55c-.72.68-1.49,2.57-1.39,3.43M71.71,90.95l3.4-3.74M81.99,97.79c-1.08-.62-2.03-1.64-2.53-2.71M80.18,91.58l3.6-3.71M133.99,95.91l-.49-.29M74.81,93.35l-.28.3-.35.22-.42.13-.48.04-.52-.05-.55-.14M74.64,93.07c-.47.52-1.33.65-2.3.33M81.78,98.19l-.57-.37-.54-.43-.5-.48-.45-.53-.38-.55-.31-.57M82.18,104.48l-.06-.51.03-.47.12-.42.21-.35.3-.28.37-.2M146.54,100.72l-.29.47M134.45,94.67l-.06.27M83.16,102.26c.05-1.18-.47-2.71-1.38-4.07M85.53,97.3l-.24-.22M82.63,104.38c-.15-.72,0-1.33.38-1.72M80.4,91.94l-.22-.36M74.81,93.35c.66.09,1.38.3,2.1.62M135.13,93.22l-.49-.28M76.91,93.98c.72.32,1.45.77,2.13,1.29M88.04,99.71l.37.77M72.18,99.87l-.09.28-.08.19M72.18,99.87c.79,1.35,2.07,2.71,3.41,3.64M135.62,91.99l-.07.27M78.85,105.02c1.33.31,2.58.11,3.33-.53M84.8,104.93l3.56-3.56M84.8,104.93l-.28.23-.3.15-.3.07h-.29l-.28-.07-.25-.14-.21-.2-.16-.26-.1-.31M83.16,102.26l.36-.09.4-.08.43-.09.45-.11.44-.13.43-.16.4-.19.36-.23.31-.26M72.34,93.4l-.33-.15-.28-.21-.22-.25-.14-.29-.07-.31v-.32l.06-.32.14-.31.21-.29M148.51,95.87l.1-.17M84.36,88.29l.41,1.43.43.72.55.68M75.59,103.5l.51.05.54.14.56.22.56.3.55.37.53.43M84.83,105.22l-.04-.3M76.96,35.13l-.58.7M77.76,34.42l-.8.71M83.05,29.72c-.28.24-.59.67-.82,1.17M84.35,29.23l-.53-.2M78.4,34.08l-.64.34M149.1,94.7l-.16.55M83.83,29.03l-.78.69M51.13,91.16c-.47.53-.89,1.4-1.04,2.09-.2.81-.05,1.58.34,1.72M56.26,100.42l-.19-.14M56.44,103.03l-.53-.56M149.79,93.16l.24.05.25-.02.24-.1M84.69,28.74c-.23-.09-.55,0-.85.28M83.05,29.72l.45.17M150.39,92.04l.09-.28M55.9,102.44l-.13-.46M106.59,43.56l.77-.58M116.29,46.4l.72,1.16M150.48,91.75l.2.12.15.18.08.22M121.96,52.3l1.93-2.03M121.96,52.3l-.24.22M123.62,49.92c.14.04.28.24.26.35M123.79,49.71l.2.13.08.2-.18.23M121.7,51.95l.19.15.07.21M121.48,52.15c.12.05.26.26.24.38M110.21,54.77l-.07.35M102.85,52.94l-.11.19M140.77,81.93l-.1.28M102.85,52.94l-2.19-.83-5.27-2.32M123.79,49.71l-.17.21-1.93,2.03-.22.2M142.13,79.67l-.11.28M107.8,42.93l-.42.03M107.73,42.66l-.35.3M116.01,42.93c1.19.94,1.33,2.5.28,3.47M123.86,50.76l-1.93,2.03M124.07,50.04l-.03.49M123.88,50.27l-.03.49M121.93,52.8l-.24.22M121.71,52.52l-.03.5M108.62,46.56c-1.61-.82-2.01-2.64-.82-3.63M143.5,77.55l-.24-.07-.24-.02-.22.02M107.8,42.93c.94-1.07,3.7-1.61,5.56-1.09M121.93,52.8l.03-.49M125.08,47.8l-.04.36-.1.49-.37.96-.53.92M108.36,47.01c-1.83-.89-2.31-2.93-1-4.03M109.98,47.63c2.08.62,5.27,0,6.29-1.22M115.86,46.07c-.92,1.09-3.74,1.65-5.62,1.12M121.69,53.02l-1.06.74-1.12.63M121.71,52.52l-.34.25-.98.65-1.09.58-.38.17M116.53,39.28c2.13.86,4.08,1.93,5.74,3.15M143.67,75.66l-.18.09M88.06,43.81l-.06-.66M123.86,50.76l.18-.23M93.21,36.58l.84-.36.9-.3,1.92-.44,2.03-.21h2.07l2.06.14,2.03.29,3.9.93M114.97,42.45c1.61.79,2.07,2.61.89,3.62M110.21,54.77c-2.57-.37-5.08-1-7.35-1.83M91.09,47.63l-1.69-1.64c-.88-1.07-1.39-2.19-1.4-3.34M95.39,49.79l-1.64-.87-1.5-.95-1.33-1.03-1.12-1.11-.85-1.19-.52-1.25-.12-1.27.31-1.26.73-1.22,1.03-1.14.61-.53.68-.5.74-.46.8-.42M108.95,36.63l5.48,1.84,2.09.82M122.26,42.43l.91.79.73.86.52.91.31.95.08.96-.14.96-.36.93-.53.91M121.48,52.15l-1.04.73-1.17.65-1.31.55-1.43.42-1.53.29-1.58.14h-1.61l-1.6-.16M104.08,36.58l-.02.78M120,42.38l-.04.82M146.03,103.3l.78-1.95M109.92,52.64l-.03.86M94.06,46.18v.8M115.86,46.07l.41.35M141.58,116.97l.48-1.8M125.11,47.31l-.11.75-.3.86-.44.83-.18.28M120.58,28.75l-.15-.21M115.36,26.85l-.15-.2M85.87,55.17l-.16-.21M111.3,127.54l.16-.14.56-.68M114.61,31.12l.66-.37M91.82,53.23l.7-.37M118.33,27.78l-.64.36M119.84,33.08l.71-.39M123.58,29.68l-.69.38M112.14,29.6l.15.2M117.38,31.53l.15.21M94.5,58.52l-.72.36M97.29,55.42l.72-.37M89.27,51.55l.16.21M90.56,54.48v1.06M116.61,29.19l-.03.79M151.68,135.27c.96-9.82,7.86-29.68,14.9-42.55,6.98-13.53,15.1-22.28,18.03-20.37M151.93,135.29c.93-10.62,9.5-33.98,17.24-46.73,3.76-6.56,7.9-12.02,11.07-14.52,3.16-2.5,5.35-2.04,6.22.42M186.27,86.95c-1.8,12.56-12.43,38.34-20.26,49.1-3.81,5.74-8.23,10.3-10.99,10.34-2.76.04-3.87-4.45-2.91-11.21M180.7,70.6c-2.99-2.15-11.29,6.44-18.37,20-7.16,12.88-14.11,32.96-14.97,42.89M156.29,146.21c-3.59,1.71-5.54-2.39-4.36-10.92M153.54,146.34c-1.92-.81-2.68-4.81-1.86-11.07M151.93,135.29l.19-.11M77.78,127.69l-.76-.47M71.05,117.92v.59l.06.68.14.65.23.74.3.72M72.14,122.03l.43.73.5.72.55.71M74.23,124.87l.65.65.69.61.72.57M73.45,114.65l.23-.05M73.86,115.01l-.59.12M77.83,112.36l-.28-.04M78.59,112.53l-.29-.07M85.28,122.17l.14.29M88.03,121.65l-.08-.28M85.91,123.7l.08.28M86.22,125.14l.02.26M88.16,124.33l.05-.22M85.67,126.86l.11-.57M87.73,125.37l.11-.18M82.19,129.09l.64-.02M80.79,128.91l.71.13M79.3,128.44l.75.27M78.54,128.09l.76.34M71.96,115.42l.15-.13M74.49,114.96l-.64.04M75.89,115.11l-.72-.11M81.25,117.89l-.74-.59M83.25,119.9l-.62-.7M83.96,128.79l.48-.25M76.22,114.73l.29.07M83.42,128.97l.54-.18M76.64,115.3l-.75-.19M77,114.95l.3.1M77.8,115.25l.3.13M80.99,113.49l-.3-.15M81.8,113.95l-.3-.18M79.42,116.06l.3.18M82.59,114.48l-.29-.2M80.22,116.57l.29.21M80.51,117.31l-.76-.53M83.36,115.06l-.29-.23M84.1,115.7l-.27-.24M81.76,117.75l.27.24M81.96,118.53l-.71-.63M82.48,118.42l.26.26M82.63,119.2l-.67-.67M85.46,117.09l-.24-.27M83.78,119.86l.22.28M84.35,120.62l.2.29M84.32,121.37l-.51-.74M87.07,119.36l-.17-.29M84.85,121.39l.17.29M87.47,120.14l-.14-.29M85.13,122.86l-.37-.75M85.64,122.94l.11.28M85.63,124.32l-.21-.72M85.76,125.01l-.13-.69M86.04,127l-.07.19M85.47,127.37l.19-.51M85.2,127.83l.27-.46M84.86,128.22l.34-.39M84.44,128.54l.42-.32M71.89,115.94l-.32.41M77.1,112.27h-.26M74.75,114.53h.26M75.47,114.59l.28.04M86.06,117.83l-.22-.28M88.27,123.07l-.02-.25M71.31,116.82l-.16.5M85.81,125.67l-.05-.66M86.24,125.81v.24M85.78,126.29l.03-.59M72.28,115.6l-.4.34M74.66,112.73l-.18.11M77.78,127.69l.76.41M72.39,115.09l.18-.1M72.74,115.33l-.46.27M72.89,114.83l.2-.08M73.27,115.13l-.53.2M75.77,112.34l-.23.05M74.08,114.55l.25-.02M79.38,112.77l-.3-.1M85.42,123.6l-.29-.74M88.26,123.72v-.24M79.75,116.78l-.78-.47M86.18,126.43l-.04.22M85.81,127.52l-.1.18M71.14,117.34l-.09.58M77.41,115.56l-.77-.26M80.18,113.1l-.3-.13M78.61,115.62l.3.16M78.97,116.31l-.78-.41M91.97,58.87l.44.2M86.47,56.63l.45.2M91.97,58.87v-.2M121.25,30v-.2M86.47,56.63v-.2M90.02,53.19l.35.16M112.93,31.07l.17.11M112.93,31.07v-.2M118.19,33.01v-.2M95.49,55.39v-.2M116.01,28.09v-.2M72.36,78.04c1.34.61,3.84.19,4.64-.78M121.96,23.2l4.3,1.77M125.92,25.7c0-.22.19-.62.34-.73M98.67,53.2l-7.17-2.85M99.96,54.45l.18-.26.04-.29-.11-.28-.24-.25-.35-.19M144.8,45.99l.15.35.04.41-.1.41M91.5,50.35l-.52-.14-.55-.03-.54.07-.48.17-.38.26M88.87,50.18l.31-.03M128.15,29.23l-.09.22M83.91,57.23l8.38,3.42M118.32,23.24l-1.84,1.77M100.94,73.24l3.49-3.24,4.86-4.61M126.07,48.8l-.61,1.84-.6,1-.37.48-.42.47-.46.45-.49.43-1.1.81-2.27,1.22M100.52,58.64l2.71-2.73M96.64,125.18l-.9.66-1.2.4-1.3.03-1.16-.31M96.64,125.18l.14,1.13.38.76.58.42.75.09.9-.21,1.02-.5.88-.6M119.96,24.1l-.13-.38-.34-.26M69.19,122.25l-.14.6.05.6.25.57.43.5.58.4M121.84,23.33l-.11.19-.08.21-.03.2M69.51,121.64l-.14.22-.11.21-.07.18M67.46,73.52c.26.09.57.49.56.72M119.96,24.1l.32-.19.21-.07M120.94,23.79l.24.02.44.11M70.12,127.3l-.07-1.6-.84-.62-.31-.37-.23-.41-.14-.43-.05-.35M112.58,27.14l.23.18M69.19,122.25h-.21l-.19.04M70.66,125.06l4.26,1.78M119.1,54.6l.34-.14M102.74,124.78l-.3-.11-1.21-.45-.6-.22-.19-.07M126.1,47.45l-.58-.22M99.42,108.11l.02,1.13.22,2.65.47,2.29c.4,1.4.95,2.5,1.66,3.34.62.73,1.36,1.25,2.17,1.54M126.45,54.06l-.03-5.18M94.44,50.82l3.73,1.7M119.27,55.01l-.06,5.78M114.79,38.05l2.1.82M125.93,47.86v.91M75.07,63.15l-1.64,2.27-1.53,2.54-1.37,2.74M102.68,55.22l-1.92,1.92M100.74,56.55l1.48-1.49M77.58,65.01l-1.98,2.85c-1.02,1.66-1.96,3.5-2.73,5.4l-1.17,3.26M77.62,79.94l.64-.64M109.24,36.19l-.14.4M77.57,77.98l.05,1.96M67.44,79.11l-1.11-.61-.41-.39-.17-.21-.14-.22-.11-.23-.08-.24-.06-.39M101.99,54.02l.16-.41M66.56,72.84l-.4.49-.23.55-.03.58.18.56.38.51.54.43.66.32M69.01,70.49l-2.45,2.35M68.07,75.39l-.42-.21-.32-.29-.18-.33-.04-.36.11-.36.25-.33M109.73,55.97l.07-.43M119.81,38.01l-1.12,1.13M70.69,81.62l-.29-.12-.3-.1-.31-.09M77.01,77.25l4.16-4.14M67.35,77.16v-.21l.08-.25.11-.24.12-.17M96.64,124.94l-.6.46-.72.34-.8.2-.84.05-.83-.1-.78-.25M140.88,41.62l-.28-.79-.39-.5-.48-.2-.56.12-.63.43-.69.74M110.33,29.94l-.16.24-.03.25.1.24.23.22.34.17M139.4,43.74l.72.26M125.52,47.23c-.15-.02-.33.1-.33.22M70.04,125.7l.33.16M119.61,54.86l-.34.14M70.69,81.62l5.29,2.02,2.71,1.03,2.71,1.03,1.34.51M121.1,34.24l-.47.3-.64.17h-.72l-.67-.14M67.79,93.14l.83,17.23M70.69,81.62l.04-.65.04-.42M65.5,111.14l.14,2.61M103.2,78.01l4.15-3.89,2.61-2.5M65.84,93.84l.9,17.24M118.6,34.56l-.11,3.79M128.26,27.37l-2.3,2.29M127.74,29.64l.4-.4M127.74,29.64l-.18.2-.17.26-.16.29M127.79,26.72l-1.95,1.94M111.14,29.88v.33M126.81,24.38l-3.95-1.62M127.79,26.72c.81-.66.28-1.91-.98-2.34M126.26,24.97c.71.24,1.01.95.55,1.33M121.51,26.24l.12-2.32M125.92,25.7l-.07,1.16M92.27,89.85v5.01l-.02,2.47M125.92,25.7c.32.12.54.37.51.59M122.75,42.07l1.26,1.12.5.61.4.63.31.65.21.66.11,1.34M116.89,38.87c2.17.88,4.16,1.96,5.85,3.2M74.64,127.63c-.02-.18.14-.62.29-.79M127.65,56.21l-1.85.73M103.28,34.95c2.06.24,4.07.68,5.97,1.24M115.09,37.76l2.11.82M103.28,34.95l-.04.19-.02.22M70.62,89.29v2.66M127.65,56.21l-.42-.3-.32-.46-.15-.55.03-.52M108.26,35.47l1.27-1.23M126.79,54.37c1.36-.51,2.55-.62,3.61-.36l1.46.66,1.2,1.19.67,1.09M108.62,35.56l1.12-1.08M121.1,34.24l4.63-4.62M92.25,97.4l-1.35-.5-.43-.16M110.81,31.06l-.23.54-.52-.29-.18-.18-.12-.2-.05-.21M97.16,89.23l-.98.54-1.29.32-1.39.02-1.24-.26M103.7,126.53l-.31.3-.21.05-.21-.03M114.95,25.88l.33-.23.44-.15.5-.06.52.03.49.12M101.99,54.02l-.05,1.01M92.27,89.85l.34-2.39M117.23,25.59l6.86,2.48M140.6,59.06l-.62.5-.5.48-.38.49-.14.22M102.01,79.13l-1.21,1.52-1.11,1.71-.97,1.84-.8,1.91-.6,1.92M140.88,59.28l-.29-.22M119.96,24.1l-.1,2.05M126.81,26.29l-1.74,1.73M97.33,88.03l-.17,1.19M72.57,122.79l-.97,1.07M89.78,94.16l.33-.32M70.64,96.25c.1,7.03.44,13.53,1.01,19.51M102.26,78.88l.94-.87M97.33,88.03l-.92.14-1.23-.05-1.35-.26-1.22-.4M87.26,41.63l-.26.24M141.19,59.4l.06-.27v-.35l-.1-.41M143.04,62.52l-.02-.27-.02-.43v-.41l.02-.38.04-.35.06-.31.08-.28.1-.25.12-.21M141.19,59.4l1.81.06M125.35,47.64l-.07.88M72.25,89.92l-1.63-.62M110.29,125.98l-.5-4.46M106.9,126.78l3.57,1.69M139.81,61.11l.12-.23.36-.5.45-.48.46-.5M92.61,87.46l.45-1.61.56-1.61.66-1.62.37-.8.39-.79.84-1.54.91-1.47,1.98-2.65M110.29,125.98l-1.8-.68M84.65,55.49v-.23M112.22,125.48l-.45-4.19M99.88,53.22l2.11.8M75.53,81.25l.7.25,2.73.99,2.74.99,2.74,1,2.76,1.01,5.41,1.97M88.01,124.89l-.11.16M111.12,128.23l-.12.16M143.9,58.69v-.53l.02-.31M110.18,36.01l.4-4.41M110.47,128.47c.11.07.33.02.39-.08M117.08,25.81l-.21-.06-.28-.05h-.58l-.27.05-.25.08-.21.11-.17.13M104.88,126.54l-.53.04-.24-.05M104.57,126.34l-.73-.12M143.13,59.63l-.33.5-.22.73-.09.93v.49M145.34,63.51l-.13-.27M98.76,75.37l.56-.65M103.94,126.66l.27.07h.29l.31-.03.33-.1M102.81,126.6l-.04-.45.08-.58.08-.33M143,59.46l.53-.2.38-.43M144.2,49.82l.19-.36M145.63,54.26l.41.87.09.42.02.4-.05.36-.11.33-.25.39M143.13,59.63l.32-.1M145.21,63.24l-.13.15M143.69,56.46l1.94-2.2M144.81,47.59l-.16.38M144.2,49.82l.03-.65.07-.54.13-.4M145.63,54.26c-.93-1.44-1.47-3.05-1.44-4.44M145.21,63.24l-.66-1.73-.16-1.68.36-1.49.27-.5M140.97,45.72l1.06-.3,1.07.16.98.61.81.96M140.13,44l.95-.25,1.2.14M84.16,56.65l8.38,3.42M92.29,60.65c0-.16.13-.48.25-.59M95,60.28c0-.17-.2-.44-.39-.5l5.35-5.33M143.09,49.22l1.71-1.9M112.03,68.62l-.08-.23-.27-.59-.37-.59-.45-.56-.51-.5-.53-.42-.53-.33M141.04,46.17l.61,1.72M103.2,78.01l.16,5.9M63.38,115.14l1.12.49,1.43.54,1.48.47,1.54.37M140.68,48.75l1.19,1.31M141.04,46.17l-.26.26-.39.23-.45.15-.4.04M102.51,119.8c-.95-.28-1.81-.84-2.52-1.65-.75-.86-1.33-2-1.76-3.45l-.51-2.37-.24-2.75.03-3.11.31-3.45.59-3.68.89-3.89,1.18-4.04,1.46-4.09,1.42-3.42.3-.67,1.94-4.03c1.35-2.64,2.81-5.17,4.35-7.59M111.47,72.85l-.47-.27-.46-.34-.37-.34-.22-.29,2.07-3M113.4,69.63l-.4-.2-.4-.26-.34-.28-.24-.28M94.64,50.44l5.3,2.34M90.11,47.6c1.27,1.05,2.84,1.99,4.53,2.83M118.86,54.24l.58.23M140.13,44l.3.28.13.18.12.21M140.94,45.43l.04.29M109.8,55.54l2.42.21,2.41-.09,2.32-.39,2.15-.66M99.94,52.77l2.21.84M140.97,45.72l-.24-.02-.33-.03-.37-.02-.36-.02M94.64,50.44l-.2.39M102.15,53.62c2.36.87,4.97,1.52,7.65,1.92M101.99,54.02c2.39.88,5.03,1.54,7.74,1.95l2.46.21h1.26l1.24-.09,1.22-.16,1.19-.24,2.17-.67M109.73,55.97l-.19,4.46M118.57,60.81l-2.3,2.46-2.21,2.62-2.03,2.74M71.63,57.95l1.17.53,1.44.73,1.43.81,1.41.93M67.44,79.11l-.09-1.95M94.44,50.82v.21M141.65,47.89l1.09,1.26M73.18,77.28l-5.11-1.89M92.25,97.4v2.39l-.02,4.81v4.63l-.03,8.68-.11,7.73M97.16,89.23l-.05,5.01-.03,2.48-.03,2.45-.05,4.78-.04,4.61-.12,8.66-.2,7.72M88.54,122.83l-.22.09M67.35,77.16l4.7,1.75M137.24,60.01c-2.51-2.81-7.46-.56-11.99,4.55-3.97,4.17-9.17,12.6-12.86,21.53-3.69,8.94-5.88,18.38-5.91,23.89M109.92,120.89c-2.1-.7-3.6-3.67-3.78-8.47s.94-11.43,2.9-17.74c3.81-13.73,14.29-31.01,20.67-34.63,3.57-2.53,6.87-2.54,8.56.41M142.49,49.63l.25-.47M105.72,110.47c-.08-8.81,5.38-25.72,11.86-36.35,6.32-11.22,14.63-18.13,18.32-16.04M73.31,61.28l-.3-.16-.3-.16-.3-.16-.3-.16-.3-.15-.6-.29-.6-.28-.59-.26M67.66,76.29l4.7,1.75M66.52,78.83l-.32-.09-.29-.09-.29-.09-.66-.21-.66-.22-.57-.2-.57-.21-.61-.24-.72-.3M61.65,79.03l.88.37.63.24.5.18.51.18.66.22.67.21.29.09.27.08.3.09.46.12M138.57,50.84l.32.14.43.06M141.87,50.06l.33-.17.29-.27M77.57,77.98c.02-.23-.29-.64-.56-.73M64.29,88.83c-.27.29-.81.49-1.3.5-.49.02-1.02-.15-1.29-.42M63.01,111.1l.16,2.74M72.05,78.91c1.59.73,4.57.23,5.52-.93M65.85,93.39l-8.65-.15M66.73,111.08l-8.36-.15-1.19-17.23M141.87,50.06l-2.09.17M122.87,22.76l-.65-.21-.73-.12-.76-.03-.74.08-.68.18-.57.26-.43.32M112.58,27.14l1.29-.91.19-.11M109.24,36.19l5.55,1.86M70.45,127.46l-.33-.16M94.12,35.64l2.16-.56,1.14-.17,1.16-.11,1.17-.04h1.17l2.35.19M89.93,48.01l-.03.94-.02.74M139.13,49.97l-.56.67M140.68,48.75l-.53-.23M107.47,24.54l1.1.45,1.35.62,1.34.7,1.31.82M110.58,31.6l8.02,2.97M118.83,34.02l-8.03-2.96M118.83,34.02l.41.1.44.03.42-.05.37-.13.28-.19M115.05,25.42l-4.72,4.52M120.74,33.77l4.64-4.61M140.43,48.51h-.29M74.7,129.24c1.32.66,3.73.34,4.72-.7M110.99,29.67l3.96-3.79M111.14,29.88l3.96-3.79M74.7,129.24l-4.25-1.78M102.46,53.29l-2.21-.84-5.34-2.36M139.54,46.85l.6,1.68M112.79,125.93l-.28.04-.19-.15-.1-.33M110.86,128.39l-.05-1.64M69.75,121.14l.08-.28M103.67,125.33l-.06.25-.06.43.03.33M89.71,121.71l-1.17,1.12M141.65,47.89l-.2.21-.29.19-.36.15-.36.08M94.44,50.82c-1.68-.83-3.23-1.77-4.51-2.81M89.2,50.9l.32-.23.44-.16.5-.07.5.03.43.12M74.24,112.94c1.27-1.72,5.4-1.26,8.47,1.02,3.16,2.01,6.01,6.36,5.83,8.87M139.32,51.03l.46-.77M140.13,44l-.08.24M140,44.41l-.06.2M139.75,45.35l-.07.29M143.09,49.22c-.04.45-.41.92-.8,1.01M138.52,55.62l.52.98.7,1.03.84,1.08M142.28,50.23l-.43-.05.43-.21.33-.41.12-.4M143.09,56.68l.33-.12.28-.1M141.15,58.37l.58-.25.6-.26.64-.25M143.09,56.68l-.37-1.36-.31-1.22-.24-1.1-.14-.96-.03-.8.08-.61.2-.4M141.15,58.37l-.86-1.5-.77-1.39-.46-1.33-.16-1.21.1-1.04.31-.86M142.97,57.62l.1-.33.04-.32-.03-.29M143.1,49.5l-.02-.27M72.05,78.91l.09-.46.23-.42M141.86,50.18l-2.08.09M88.41,49.28l.79.63M78.43,79.41c.25.11.69-.07.81-.34M128.72,26.44c-.02.32-.18.65-.46.92M96.64,124.94v.24M70.96,117.28l-.55-.08-1.46-.18M140.14,48.52l-1.01,1.45M139.78,50.23l.9-1.48M92.29,60.65l.1,7.19M92.29,60.65l.55.15.62.04.61-.09.53-.2.4-.28M87.05,41.65l.21-.02M79.59,62.81l11.4,5.56,8.22,4.02,1.73.85M95.06,67.47l-.06-7.19M139.78,50.23l-.64-.26M138.52,46.46l1.02.38M74.64,127.63c.85.37,2.13.48,3.22.14M140.96,42.43l-.08-.81M144.99,47.35l-.09-.19M71.02,121.39l-1.19-.23M142.94,49.88l.16-.38M88.78,49.22l.11-2.16M135.15,37.71l.76.37.68.52.56.63.41.71.24.75.05.74M135.15,37.71l-8.73,10.1M69.75,121.14l-.24.5M84.47,55.05l4.56-4.36M137.85,41.43c-3.22,4.06-6.9,8.37-11.06,12.95M78.79,62.31l4.18-4.43M92.08,125.95l.14,1.16.38,1.01.67.71.34.17M84.64,55.26l4.56-4.37M126.45,54.57l.34-.2M103.22,126.99l-.25-.13M119.74,54.71l-.13.16M126.1,47.45c.15,0,.31.14.3.26M69.72,89.06l.9.23M126.12,47.22l-.03.23M100.63,54.27l-.06.33-.23.35M126.42,47.48l-.03.23M82.57,55.21l5.84-5.93M125.52,47.23l-.17.41M125.98,47.64l-.05.22M82.27,55.52l.3-.31M125.35,47.64l.58.22M70.96,117.28c-.88-8.35-1.32-17.76-1.24-28.22M126.1,47.45l-.11.19M77.08,60.96l5.19-5.44M132.03,56.13l-.92-.33c-1.01-.23-2.15-.1-3.46.41M79.59,62.81l-.8-.49M69.48,122.32l-.29-.08M69.78,81.31l-.06,7.75M79.1,50.32l-7.46,7.63M141.2,41.72l-.24.71M77.08,60.96l-1.57,1.67M69.55,60.17l.45-.51,1.64-1.71M74.63,62.83l.58-.41M78.79,62.31l-1.55,1.66M127.65,29.86l.09-.22M76.49,63.43l.3.23M128.6,28.31c-.02.32-.18.65-.45.92M61.65,79.03l.04-.89.13-.96M76.84,64.43l.14-.17.13-.15M66.87,80.81v-.9l.03-.86M127.01,24.32l-.19.06M67.24,80.9l.33.07M76.04,63.86l.27.23.15.13.16.13.17.15M67.62,80.98l-.03,7.82M77.24,63.97l.27.18.27.16.28.14M61.7,86.05l-.04-7.02M67.62,80.98l-.24-.6-.24-.68-.19-.63M67.58,88.8l1.55.18.59.08M76.79,64.49l.26.2.26.17.27.15M68.02,80.99l-.35-.96-.22-.73M67.94,80.48l-.03-.43-.03-.45M67.88,79.99l-.02-.2M77.58,65.01l5.19,2.52,2.66,1.31,2.67,1.31,2.68,1.31,2.7,1.32,5.28,2.58M83.74,55.35l-.19.27-.05.29.09.29.23.25.34.19M78.07,64.44l1.52-1.64M70.41,124.95l.25.12M68.94,117.01l-.59-6.33M99.32,74.72l-5.32-2.57-2.71-1.31-2.69-1.3-2.67-1.3-2.67-1.3-5.2-2.51M68.42,81.04l.11-1.33M67.77,74.79l.24-.55M73.43,77.16l-.25.12M78.7,78.98l.21-.05M69.78,81.31l-.19-.05-.29-.07-.29-.06-.29-.05-.29-.05M67.58,88.8l-1.63-.37-.66-.19M67.59,92.34v-3.54M84.37,55.85l.06-.3.21-.28M67.52,92.79c-.34.37-1.06.62-1.68.6M82.91,59.27l-3.32,3.54M70.99,123.55l-.05-1.08M100.94,73.24l-1.61,1.48M111.47,72.85c-1.49,2.32-2.89,4.74-4.2,7.27l-1.87,3.86-1.66,3.92-1.4,3.91-1.14,3.87-.86,3.73-.58,3.53-.3,3.31-.05,1.86M63.24,114l.13,1.13M64.29,88.83l.21,3.78M65.29,87.83l-1.01,1M78.7,78.98l-.08.2-.16.15M62.18,88.18l-.36.33-.13.41M111.47,72.85l1.93-3.22M77.62,79.94l-.08.22M86.65,42.94l-7.56,7.38M68.06,75.14l-.04-.9M72.12,80.87l.1.23M64.29,88.83c0-.22-.29-.61-.54-.7M70.81,76.19l1.18-3.3.35-.82M67.93,92.39l-.4.4M125.96,33.65l7.37,3.25.19.08,1.64.72M67.44,79.11l.11.23M117.56,25.31l1.93-1.86M98.56,53.45l.38.21.26.27.11.31M92.53,60.07l.42.12.47.03.47-.06.41-.15.31-.22M113.4,69.63l1.73-2.77,1.82-2.49,1.89-2.21,1.87-1.85M106.43,35.04l3.12-2.76M109.46,33.47l-2.01,1.79M95.4,34.85c4.17-3.74,8.19-7.17,12.07-10.3M57.2,93.25c-.46,0-.91-.11-1.28-.28M57.19,93.69v-.45M78.43,79.41l.14.19M119.49,39.51l1.48-1.49M91.2,49.88l-.41-.11-.46-.03-.45.06-.4.14-.3.21M84.99,56.62l-.42-.24-.27-.31-.11-.34.06-.35.24-.33M99.32,74.72l1.04.8.96,1.1.66,1.2.27,1.06M99.24,54.76l.22-.33.05-.35-.12-.34-.29-.3-.43-.24M69.48,122.32l.21-.54.14-.62M88.77,124.31l2.22.89,1.1.44M102.66,126.74l-.31-.12-.63-.23-.63-.24-.63-.24-.28-.11M119.63,56.03l-.02-1.17M57.19,93.69c-.51,0-1.03-.12-1.44-.31M94.91,50.1l-2.52-1.4-1.99-1.46-1.46-1.49-.93-1.46-.42-1.36v-1.23M118.65,54.32l-2.02.61-2.16.35-2.23.09-2.22-.18M119.44,54.46l.17.4M100.34,54.94l.18,3.69M88.89,47.06l-.35-.38-.59-.71-.49-.74-.21-.38-.18-.39-.15-.4-.11-.4-.12-.79v-.71M78.26,79.29l-.08.22M75.8,76.84c-.45.55-1.87.79-2.62.44M88.54,122.83c0,.77-.17,1.46-.5,2.02M118.39,25.61l1.57-1.51M140.95,43.35v-.91M66.83,80.8v-.9l.07-.86M60.39,87.68l1.29,1.23M60.82,86.89h-.21M60.82,86.89c-.24.17-.45.52-.43.79M126.39,47.71l-.16.15h-.3M60.63,91.46l-.23-3.78M68.62,110.37l.32-.33M65.65,113.76l.76-.8M63.17,113.84l-1.24-1.24-.1-1.52M65.65,113.76c-.26.29-.77.5-1.24.5-.46.02-.96-.14-1.22-.41M66.73,111.08c.7.03,1.5-.27,1.89-.71M78.49,79.57l-.13-.18M61.82,77.18l-.14-.14M127.24,30.39l-.1.23-.09.24M65.84,93.84v-.45M107.47,24.54c1.07-.86,2.1-1.4,3.03-1.58.64-.13,1.24-.08,1.77.12M94.13,35.25l-.25.24M94.13,35.25l1.14-.3,1.18-.24,1.23-.17.62-.06.62-.04,1.24-.03,1.24.03,2.42.21c1.97.25,3.83.68,5.65,1.22M77.62,79.94c-.94,1.16-3.91,1.66-5.5.93M67.79,93.14c-.4.43-1.23.73-1.96.7M115.09,37.76l-5.6-1.88M55.75,93.38c-.67-.29-1.13-.87-1.16-1.42M117.2,38.58c2.18.88,4.19,1.97,5.9,3.2M93.87,35.49l-.21.02M94.13,35.25l-.21.02M110.03,55.18c-2.65-.38-5.24-1.03-7.57-1.89M116.92,25.19l-.4-.1-.42-.02-.41.05-.36.12-.27.18M111.58,31.04l-.41-.21-.28-.27-.13-.3.04-.31.2-.28M120.84,33.29l-.34.23-.45.16-.51.07-.53-.03-.5-.13M124.73,29.42l-3.89,3.87M124.1,28.07l.41.2.29.26.14.3-.02.3-.18.28M124.86,28.05l-7.94-2.86M94.75,59.22l-.39.28-.49.18-.55.08-.57-.03-.53-.15M87.91,41.95l.03.86M55.92,92.97l-.4-.23M87.91,41.95l-.05.74M87,41.87l-.21.02M103.91,34.61l8.67-7.48M105.69,119.68l-1.94,5.39v.28l-.04.27-.02.24v.21M103.94,124.75l1.82-5.06M103.89,126.44l-.07-.23M145.63,54.26l.13-.15M145.21,63.24l.2-.3v-.22M67.79,93.14l.47-.47M66.56,72.84c-.16-.08-.34-.07-.43.02M72.05,78.91l.08,1.96M99.24,54.76l-4.49,4.46M67.52,92.79c.13.05.28.24.27.35M69.86,80.21l-.05.5-.03.6M65.81,119.54c-.5-.23-.94-.6-1.3-1.1-.58-.79-.97-1.91-1.13-3.3M68.55,125.13l.08.49.25.56.4.51.84.62M126.4,48.87l-.65,2.06-.61,1.02-.38.49-.42.48-.47.46-.51.44-1.12.83-2.62,1.38M75.36,76.87c.09-.09.27-.1.45-.03M63.74,88.13l.98-.97M65.26,74.88l.09.47.27.55.44.5,1.3.77M67.46,73.52l2.95-2.84M111.02,30.03l.12-.15M62.18,88.18l-1.36-1.28M109.62,121.08l-.33-.14M61.69,88.91l.22,3.78M61.51,78.86l.14.16M128.15,29.23l.12-1.87M55.87,109.18c-.03.89,1.27,1.8,2.51,1.75M119.49,23.45l.29-.2.38-.15.45-.08h.48l.47.05.42.13M117.9,23.29c.09-.09.26-.11.41-.06M142.79,50.02l-.14.25-.12.58v.79l.13.98.24,1.14.34,1.28.45,1.42M81.26,74.29l-3.7,3.69M125.95,29.23l-.22.39M121.62,23.92l4.3,1.77M78.26,79.29l.43-.32M101.6,29.27l-.16-3.65M75.03,54.24l-.4-3.92M71.22,48.46l2.85,1.15M72.71,45.16l-.93.2-.83.34-.66.46M74.07,49.62l.2.12.18.17.12.2.05.2M55.57,81.66l.33.27M142.78,50.03l-.17.1-.33.1M54.31,84.49l.31-.06M54.45,84.65l.31-.06M74.93,126.84c.51.21,1.18.34,1.86.28M53.21,90.5c-.27-.25-.41-.56-.44-.87M68.08,80.99l.03-1.44M55.63,92.64l.57.19.63.08.65-.04.62-.15.55-.25.44-.34M53.21,90.5l1.85,1.76M55.14,107.1c-.16-.08-.32-.08-.4,0M57.25,115.24l.53.21.6.13.62.03.61-.06.54-.15.43-.23,2.38-1.45M106.96,24.36l1.21-.85,1.21-.57,1.13-.23,1.02.11M78.53,50.69l-.34-3.66M101.45,25.62l-.04-.2-.11-.19-.16-.16-.19-.11M103.4,22.7l.65-.6M77.58,65.01l.16-.2.16-.19.16-.18M100.94,24.96l-2.74-1M53.29,90.69l-.08-.19M88.65,40.36l-1.22,1.15M54.55,112.69l.14.34.27.31M102.41,20.18l-1.12-.14-1.23.17-.65.2-.67.28-.69.36-.17.1-.17.11-.18.11M95.34,21.55l.99-.3,1.09.18M96.77,22l.4-.05M96.71,22.06l.4-.05M53.34,108.78l.5.95.5.45M77.9,46.24l-.25.09M69.89,46.2l.4-.03M69.81,46.27l.4-.03M78.19,47.03c.02-.23-.28-.63-.54-.71M75.61,62.73l-.27.2-.27.21M77.66,46.33l-2.13-.85M53.21,90.5l-.34-4.43M61.27,54.19l3.02-3.66,4.49-5.07c3.03-3.27,6.12-6.34,9.26-9.21,3.14-2.86,6.34-5.52,9.57-7.99,3.23-2.46,6.51-4.73,9.81-6.82M70.84,122.58l-1.36-.25M54.26,107.91c-.81-4.65-1.36-9.51-1.63-14.59l-.22-8.27M61.55,83.43l-2.77,4.04M55.9,109.38l-.79-.77M93.54,35.86l-1.14,1.04M60.31,111.05l.27,4.11M104.69,26.68l-.14-3.91M86.7,42.2l-8.09,7.87M74.63,62.83l.88-.2M55.06,92.26l-.31-4.18M58.78,87.48l.3,4.66M55.06,92.26l.17.14.19.13.21.11M126.44,47.03l-.02.45M59.08,92.13l1.45-1.44M76.85,51.84l-1.81,1.83M71.09,47.46c0-.12-.15-.29-.27-.33M72.15,46.5c0-.12-.15-.29-.27-.33M71.09,47.46l1.05-.96M71.88,46.17l-1.06.96M73.89,46.27l.17-.39M76.73,47.41l.17-.39M73.89,46.27l2.84,1.14M76.91,47.02l-2.84-1.14M76.99,47.78c.12.06.36.04.44-.04M77.66,46.33l-.75.69M77.43,47.74l-.04-.21-.11-.21-.17-.18-.2-.12M73.31,50.32l.77-.7M72.96,51.11c.24.12.74.08.89-.07M71.1,57.73l-3.37-1.26-3.6-1.28-2.47-.87-.39-.14M69.46,59.44l1.63-1.7M61.27,54.19l-1.37,1.71M73.14,55.62l-2.04,2.12M61.12,78.79l.24.04M61.29,76.94l-.17,1.84M126.12,47.22l.21.08.09.17M61.12,78.79l.03,4.24M52.43,82.2l.98.52M52.55,74.55l-.08,4.8-.03,2.37v.48M89.93,48.01l-1.04-.95M61.12,78.79l-2.21-1.05-1.12-.55-1.1-.55-1.07-.54-1.05-.53-2.03-1.02M62.88,114.9l-.86-.45M58.34,81.97l.19.15.12.2.04.24-.05.26-.13.26M55.57,81.66l.22-.24.28-.17.3-.09h.3l.26.08M54.31,84.49l-.13-.2-.05-.24.04-.27.13-.26M58.25,83.47l-.26.27-.33.18-.35.07M55.91,81.93l.16,2.27M54.3,83.52l.34.27M71.02,121.39l.02-.3M54.45,84.65l-.14-.15M56.92,81.23l1.42.74M70.38,125.85l4.26,1.78M56.8,81.56l1.42.74M52.87,86.07l-.29-.41-.15-.48M55.11,108.61l-.25-.35-.08-.39.1-.4.26-.36M59.46,56.42l.44-.52M59.46,56.42l2.28.82,1.18.42,1.2.43,1.23.45,1.24.46,2.43.94M59.9,55.9l2.29.83,1.18.43,1.2.43,1.22.45,1.24.46,2.43.94-.45.51M124.7,28.85l-.11-.16-.16-.15-.2-.13-.24-.11M52.72,72.67l2.02,1.03,1.05.54,1.07.55,1.1.55,1.12.55,2.21,1.06M52.72,72.67l-.17,1.88M59.46,56.42l-1.13,1.7-1.08,1.86-1.02,2-.93,2.09-.43,1.07-.4,1.09-.71,2.18-1.03,4.27M110.03,29.98l.3-.04M106.96,24.36l-2.2,1.79M99.95,26.3c0-.23.17-.62.32-.73M89.18,50.15l-5.44,5.2M97.31,29.35l.59-3.81M99.98,30.19l-5.6,4.92M70.82,50.24c0-.23.17-.65.34-.79M70.32,54.63l.5-4.4M99.36,21.08l.91-.04.9.09.84.22M100.67,21.71l2.73.99M138.21,36.21l-.38-.11-.8.12-.9.54-.98.94M103.4,22.7l-.16.36M103.18,27.48l-1.54,1.3M141.02,39.97l.07.67-.22.98M97.98,23.1c0-.11-.13-.28-.25-.31M98.9,22.27c0-.11-.13-.28-.25-.31M100.51,22.07l.16-.36M78.79,62.31l-.47-.36-1.23-.99M100.51,22.07l2.73.99M54.53,84.06l.1-.27M55.14,92.45l-.08-.19M54.74,107.11l-.06.19M83.04,56.26l.12.37.3.33.45.26M104.63,22.56l-.09.2M104.24,22.03l-.19.07M102.2,21.29l-.19.07M109.28,120.94c-2.36-1.02-3.75-4.84-3.56-10.47M78.3,46.77l-.1.27M75.77,45.39l-.25.09M92.23,59.57l-7.24-2.95M72.28,48.8l-.14-2.3M71.27,48.39l-.18-.93M104.67,23.62l2.29.74M56.04,86.65l-.1-1.47M58.25,83.19l-.03-.89M110.47,128.47l-.06-1.87M56.96,83.8l-.16-2.24M62.77,113.99l.11.91M139.78,50.27l-.33-.1-.31-.19M52.41,84.72v-.62l.02-1.9M98.08,23.82l-.1-.72M118.51,33.59l-6.93-2.56M77.43,47.74l-.14,4.2M78.19,47.03l-.77.71M101.45,25.62l-.68.63M103.88,23.38l-.3,4.23M104.54,22.76l-.67.62M74.63,50.32l-.78.72M76.99,47.78l-.14,4.06M70.38,125.85l.07,1.6M74.08,49.52l-.18-3.25M71.16,49.45l2.15.87M70.21,46.24l-.45.54-.21.6.04.61.3.58.54.5.73.39M74.64,127.63l.06,1.6M75.52,45.47l-.88-.26-.96-.11-.98.05M73.31,50.32c.26.08.56.48.54.71M73.31,50.32c-.17.14-.35.55-.34.79M73.85,51.04l-.13,4.55M60.91,82.84l-2.8,4.08M55.52,87.78l.5.14.57-.02.57-.18.52-.33.42-.46M53.23,85.48l1.89,2.01M53.23,83.52l-.27.53-.09.54.09.49.26.41M53.23,83.52l2.38-3.42M55.78,84.58l-.27.18-.3.1h-.29l-.26-.06-.21-.15M83.62,63.53l.29-6.3M57.3,83.98l-.53.07-.52.2-.47.32M54.63,83.79l1.27-1.86M54.3,83.52l1.28-1.86M57.19,93.69l8.65.15M58.52,83.08l-.27.39M54.75,88.08l-1.88-2.01M63.74,88.13c-.16.17-.49.29-.78.3-.29,0-.61-.09-.78-.25M55.3,88.46l-.2-.11-.18-.13-.16-.15M58.78,87.48l-.45.47-.55.37-.62.25-.64.11-.63-.03-.56-.17M55.11,108.61c-.25.11-.51.5-.46.7M56.43,111.06c-.02-.14.09-.4.27-.56M54.64,109.31l1.79,1.75M55.14,107.1l.55-.55M54.95,113.35l-.31-4.04M69.55,60.17l1,.45.53.25.35.17.56.29.52.28.37.2.34.19.32.18.37.21.28.16.25.16.2.14M56.71,114.88l-.28-3.82M56.71,114.88l.16.13.18.12.2.11M56.43,111.06l.16.14.18.13.2.11M72.12,80.87l-4.68-1.75M56.98,111.44l.55.19.6.08.62-.04.6-.15.53-.26.29-.21M54.95,113.35l1.76,1.53M52.72,72.67l-.96-.6-.55-.69-.06-.47M106.48,109.98c-.25,6.15,1.57,10.68,5.12,10.58M104.05,22.1c.25.07.52.44.49.67M102,21.35l2.05.74M97.89,25.54l2.06.76M97.89,25.54c0-.23.17-.62.32-.73M99.95,26.3c.23.1.69.07.82-.06.03-.23-.25-.61-.5-.67M100.77,26.24l-.27,3.97M71.49,121.43l-.47-.04M99.95,26.3l-.25,3.84M70.82,50.24l2.15.87-.12,4.46M141.65,47.89l-.17.31-.27.28M100.94,24.96l-.67.61-2.06-.76-.71-.34-.54-.44-.32-.5-.08-.53.16-.52.38-.47M143.91,57.85v-.51l-.08-.47-.15-.41M97.73,22.79l.92-.83M103.4,22.7l.19.11.16.17.1.2.03.21M103.47,23.41l.4-.03M97.98,23.1l.92-.83M103.47,23.41l-.29,4.07M100.56,24.75l-.05-2.68M141.21,48.48l-.53.28M98.94,24.15l-.04-1.88M54.98,87.62l-.12.16M58.11,86.92l.2.1.21.15M87,41.87v.77l.11.77.11.39.14.39.17.38.2.37.48.72.58.7,1.3,1.24M53.23,85.48c-.2.15-.37.42-.36.59M54.22,108.44l.42.87M57.1,56.48l.44-.39,1.09-.32,1.27.14M139.67,45.63l-.13,1.21M51,72.4l.06.48.53.95.95.73M95.99,23.32l-.02.25.1.46.25.44.4.41,1.17.66M68.93,47.98l.06.53.24.51.39.47,1.2.76M59.02,92.34l.06-.2M54.71,84.53l-.08-.74M54.95,113.35l.1.19M97.17,21.96l.59-.4.75-.3.85-.18M68.94,117.01l.26,1.42.44,1.17.61.89.77.6M56.79,56.89l.44-.39,1.01-.24,1.22.16M109.28,65.39l1.83-1.65,1.88-1.59,1.62-1.39M88.06,127.07l.12-.15M142.74,49.15l.35.07M88.06,126.88v.2M86.95,126.45l.07,1.52,1.04-.9M144.8,47.32l.02.27M102.26,78.88l-.24.25M86.49,128.25l-.07-1.34M86.34,128.27l-.06-1.2M86.73,128.04l-.07-1.41M71.02,121.39l-.07.63-.11.56M85.14,128.33l1-.07M147.69,71.35l.21.05.24.07M151.31,68.42l12.37,4.18M148.97,70.01l.21.05.24.07M134.45,94.67l12.27,5.25M133.84,96.15l12.26,5.27M135.62,91.99l12.31,5.16M127.49,127.28l-.18-.6M136.85,89.35l12.34,5.06M140.77,81.93l12.41,4.78M111.14,127.73l-.02.5M152.45,88.01l-12.41-4.8M102.01,79.13l-.39-.92-.77-1.07-1.03-1.01-1.07-.76M141.23,136.01c-.98-1.67-1.3-4.85-.87-9.02M143.38,77.82l12.43,4.61M144.74,75.85l12.43,4.52M144.86,75.59l12.43,4.52M128.02,127.69l-.21-.13-.18-.14M150.1,69.47l12.39,4.23M110.29,125.98c.58.31,1.63.04,1.93-.5M129.27,129.91l11.4,6.08M143.75,57.8l-.23-.06-.27-.06-.28-.06M140.38,135.64l.21.12.21.13M128.14,128.72l.16.18.19.16.21.14M140.17,135.1l-11.45-6.09M139.91,134.82l.21.12.2.13.17.13M127.5,125.06l11.63,6.08M127.89,116.69l11.87,5.89M143,59.46l-.02-.22v-.42l-.02-.57v-.63M139.55,133.79l.21.12.2.14.17.14M139.28,132.57l.21.13.2.15.16.16M125.19,47.45l.16.19M139.51,124.51l-11.82-5.94M127.5,125.06l-.22-.13-.18-.13M127.06,118.36l.14.18.18.16.22.14M88.15,41.52l-.26.25M127.71,126.47l11.57,6.09M139.42,124.78l.22.08h.2M127.61,118.84l11.81,5.94M139.67,128.22l.1-1.33M127.39,123.47l-.22-.12-.18-.12M139.15,130.17l-11.65-6.05M139.16,128.46l-11.71-6.02M127.38,122.68l11.7,6.02M126.81,26.29c-.16-.06-.34-.04-.43.06M139.13,127.72l.21.13.19.17.14.19M139.2,126.83l.21.08.2.02M127.4,121.7l11.73,6.02M141.97,130.64c-.54,5.07-.05,8.71,1.26,10.29M140.69,127.5c-.34,3.35-.21,6.06.34,7.85M129.09,110.65l12,5.76M140.36,126.98c.64-8.61,6.06-24.97,12.12-36.31,5.59-11.01,12.62-19.49,16.28-20.05M146.76,133.21c-.76,6.29.1,10.33,2.1,11.18M125.38,29.16l.15-.24.02-.25-.11-.24-.23-.21-.34-.17M129.1,110.84l11.97,5.75M151.53,90.02l-.28.34M119.22,38.02l-.93.94M130.9,104.27l12.13,5.54M130.09,106.92l12.08,5.62M131.8,101.58l12.18,5.46M125.73,29.62v6.64M132.28,100.35l12.19,5.44M133.3,97.64l12.23,5.35M147.21,133.13c.78-7.42,4.31-19.46,8.91-30.15,4.51-10.73,10.64-21.36,15.29-26.74M146.74,133.2c.78-7.47,4.33-19.63,8.98-30.4,4.55-10.83,10.74-21.54,15.43-26.95M141.36,136.44l-.22-.23M125.21,47.31l-.11-1.31-.2-.65-.3-.63-.39-.61-.48-.59-1.22-1.09M140.97,136l-.34-.53M139.62,130l.02-1.21M139.28,126.57l-11.76-5.98M70.62,89.29l.07-7.67M127.44,120.84l11.76,5.99M127.39,123.47l11.68,6.05.21.13.19.16.15.18M123.1,41.79l1.39,1.22.98,1.34.55,1.42.1,1.45M139.28,129.71l-.13.46M127.44,124.36l11.65,6.05M139.25,131.7l-11.6-6.07M127.6,125.85l11.6,6.07M128.02,127.69l11.53,6.1M128.26,27.37l-.13-.38-.34-.26M127.42,127.43l.12.17.14.19M128.44,128.72l11.48,6.1M128.44,128.72l-.21-.13-.18-.14-.14-.14M120.97,38.02l.13-3.78M128.95,129.55l11.43,6.09M128.95,129.55l-.21-.13-.17-.14-.13-.15M86.39,87.6l.49.19,5.39,2.06M139.83,126.26l.18-1.45M157.92,79.21l-12.44-4.46M140.19,83.05l-.15.15M125.73,29.62c.02-.16-.17-.41-.35-.46M143.5,77.55l12.43,4.6M144.12,76.64l12.44,4.54M142.89,78.57l-.51-.21M116.72,39.27c2.14.87,4.11,1.94,5.78,3.16M142.13,79.67l12.42,4.69M142.75,78.69l12.44,4.62M153.82,85.59l-12.43-4.71M139.43,84.3l12.39,4.87M138.12,86.78l12.36,4.97M151.1,90.54l-12.39-4.9M75.8,76.84l4.14-4.1M149.79,93.16l-12.36-4.99M136.77,89.63l12.34,5.07M148.65,95.65l-12.33-5.08M70.38,125.85l.08-.4.21-.39M136.17,90.78l12.33,5.09M135.55,92.26l12.3,5.16M147.42,98.4l-12.3-5.18M72.34,72.07l2.42-4.65,2.03-2.92M134.98,93.45l12.3,5.18M134.39,94.94l12.27,5.26M146.25,101.18l-12.26-5.27M133.35,97.39l12.23,5.35M151.74,67.52l.59-.37M99.49,53.18l-8.29-3.29M118.65,54.32l.21-.08M103.04,124.9l1.97-5.47M151.39,67.9l.22.04.24.07,12.37,4.14M70.13,125.3l.12-.21.13-.16M151.18,68.62l12.38,4.18M69.87,120.87l-.04.29M150.66,68.97l12.4,4.2M149.97,69.69l12.4,4.24M68.02,74.24l2.74-2.65M149.42,70.13l12.42,4.25M148.71,70.95l12.41,4.3M95,60.28l5.34-5.33M147.54,72.16l12.42,4.36M147.42,72.4l12.42,4.37M146.21,73.79l12.43,4.44M146.82,73.02l12.44,4.39M110.73,126.73c-.23-.09-.38-.34-.45-.74M95.49,55.39l.34.16M142.02,79.95l12.42,4.69M141.53,80.75l-.14.13M141.53,80.75l-.51-.22M140.67,82.21l12.4,4.78M90.02,53.19v-.2M152.59,87.85l-12.41-4.8-.5-.23M81.51,129.04l.68.05M139.34,84.58l12.39,4.88M151.25,90.36l-12.39-4.89M138.03,87.06l12.36,4.97M149.93,92.97l-12.36-4.99M145.15,103.98l-12.22-5.36M132.32,100.11l12.19,5.44M145,104.23l-12.22-5.36M146.09,74.04l12.43,4.44M144.11,106.78l-12.18-5.45M86.11,124.43l.05.27M131.37,102.81l12.15,5.52M131.35,103.05l12.14,5.53M143.16,109.55l-12.13-5.54M76.41,112.27l-.25.02M130.52,105.49l12.1,5.61M130.5,105.71l12.09,5.61M142.3,112.27l-12.08-5.62M75.18,112.5l-.2.08M129.76,108.11l12.05,5.68M141.8,114v-.2M129.75,108.31l12.02,5.67M141.54,114.93l-12.03-5.69M129.38,109.5l12.03,5.7M71.56,116.35l-.25.47M140.87,117.5l-11.98-5.77M128.54,113.11l11.95,5.83M128.78,112l11.98,5.77M83.82,120.63l-.57-.73M140.31,119.96l-11.92-5.83M128.09,115.46l11.89,5.89M128.28,114.4l11.92,5.83M75.17,115l-.68-.03M139.86,122.31l-11.87-5.89M127.75,117.68l11.84,5.94M153.95,85.46l-12.42-4.71M127.61,118.84l.09-.27M139.3,125.75l-11.78-5.99M127.17,126.09l-.13-.72M128.43,129.13l-.2-.28M87.79,120.9l-.11-.29M175.52,68.88c-3.23-1.79-11.57,6.88-18.53,20.2-7.05,12.68-13.71,32.2-14.45,41.97M173.64,68.67c-3.74-.2-11.85,9.27-18.36,22.2-6.62,12.47-12.57,30.41-13.31,39.76M84.76,122.12l-.44-.75M171,69.48c-4.25,1.83-11.82,11.97-17.66,24.2-5.95,11.94-10.98,27.74-11.7,36.43M168.15,70.94c-4.04,1.75-11.15,11.23-16.59,22.6-5.55,11.12-10.22,25.82-10.88,33.97M83.16,119.13l.24.27M84.8,116.38l-.26-.26M81,117.13l.29.23M151.33,66.51c-3.66-.05-10.8,7.74-16.21,18.26-5.54,10.14-10.2,24.74-10.51,32.63M148.14,71.48l12.43,4.32M146.74,133.2c.15.09.41.04.47-.07M78.19,115.9l-.78-.34M82.83,129.07l.59-.1M86.6,118.59l-.19-.29M139.68,131.6l-.05-1.08M127.52,119.77l-.22-.12-.19-.11M80.06,128.71l.74.2M139.45,126.05l-.17.51M87.98,124.88l.08-.2M88.19,122.38l-.05-.27M126.58,119.77l.08.19.1.2.12.21M127.52,120.58l-.48-.36M126.89,120.36l.14.18.18.16.22.14.08-.26M139.2,126.83l.08-.26M127.44,120.84l-.04.86M76.3,126.71l.72.51M127.4,121.7l-.22-.12-.18-.12M139.31,127.96l-.15.49M73.63,124.19l.6.68M71.77,121.3l.37.73M126.52,121.62l.09.18.11.19.12.2M127.45,122.43l-.48-.37M126.84,122.2l.15.18.18.16.22.14.07-.25M139.08,128.71l.08-.25M139.08,128.71l.21.08.19.03M126.56,123.31l.09.18.11.19.13.2M127.5,124.12l-.48-.37M126.89,123.87l.15.18.18.16.22.14.06-.24M139.08,130.41l.07-.24M139.08,130.41l.21.09M151.68,135.27l.25.03M126.7,124.81l.1.17.12.18.13.2M127.65,125.63l-.48-.37M127.05,125.37l.15.18.18.16.22.14.05-.23M139.19,131.92l.06-.23M139.19,131.92l.21.09M127.06,126.3l.12.18.14.19M127.9,126.95l-.48-.36M127.31,126.68l.15.18.18.16.22.14.04-.21M139.41,133.25l.04-.22M139.41,133.25l.2.09M128.26,128.08l-.48-.36M127.68,127.79l.15.18.19.16.22.14M94.71,53.73l.16.21M128.23,128.28l.03-.2M139.73,134.37l.03-.2M139.73,134.37l.2.1M128.72,129.01l-.48-.36M88.99,56.28l-.7.37M91.35,57.39l-.16-.21M140.49,121.88l.33-1.64M140.98,119.49l.4-1.73M117.39,30.54c.39,0,.7-.31.7-.7s-.31-.7-.7-.7-.7.31-.7.7.31.7.7.7M92.86,55.35c.39,0,.7-.31.7-.7s-.31-.7-.7-.7-.7.31-.7.7.31.7.7.7"/>
    </g>
    <path class="st4" d="M103.99,89.55c23.39,0,42.34-18.96,42.34-42.34S127.37,4.87,103.99,4.87s-42.35,18.96-42.35,42.34,18.96,42.34,42.35,42.34Z"/>
  </g>
  <g class="st6">
    <text class="st7" transform="translate(5.32 44.02)"><tspan x="0" y="0">1/4 interface</tspan></text>
  </g>
  <line class="st5" x1="116.67" y1="30.15" x2="92.14" y2="54.96"/>
  <line class="st5" x1="104.41" y1="42.55" x2="45.59" y2="42.55"/>
  <line class="st5" x1="91.44" y1="61.98" x2="45.62" y2="61.98"/>
  <line class="st5" x1="104.41" y1="49.15" x2="91.44" y2="62.07"/>
  <g class="st6">
    <text class="st7" transform="translate(4.35 60.07)"><tspan x="0" y="0">Reinforced metalic</tspan></text>
    <text class="st7" transform="translate(4.35 67.27)"><tspan x="0" y="0">bottom plate</tspan></text>
  </g>
  <path class="st0" d="M117.08,30.12c.38,0,.68-.31.68-.71s-.3-.71-.68-.71-.68.31-.68.71.3.71.68.71"/>
  <path class="st0" d="M93.1,55.48c.38,0,.68-.31.68-.71s-.3-.71-.68-.71-.68.31-.68.71.3.71.68.71"/>
  <path class="st0" d="M105.1,49.61c.38,0,.68-.31.68-.71s-.3-.71-.68-.71-.68.31-.68.71.3.71.68.71"/>
</svg>