<svg id="Capa_1" enable-background="new 0 0 512 512" height="512" viewBox="0 0 512 512" width="512" xmlns="http://www.w3.org/2000/svg"><g><path d="m512 295.549v-79.097l-35.292-4.388c-2.647-8.502-6.062-16.737-10.216-24.634l21.861-28.069-55.931-55.93-28.069 21.861c-7.897-4.153-16.133-7.569-24.634-10.217l-4.389-35.292h-79.097l-4.387 35.292c-8.502 2.647-16.738 6.063-24.635 10.217l-28.069-21.861-55.93 55.93 21.861 28.069c-4.153 7.897-7.569 16.134-10.217 24.635l-35.292 4.388v79.097l35.292 4.388c2.647 8.501 6.063 16.738 10.217 24.635l-21.861 28.069 55.93 55.93 28.069-21.861c7.898 4.154 16.133 7.569 24.635 10.217l4.387 35.292h79.097l4.389-35.292c8.501-2.647 16.738-6.063 24.634-10.217l28.069 21.861 55.931-55.93-21.861-28.069c4.154-7.898 7.569-16.132 10.216-24.634zm-59.392-22.908-2.383 10.204c-2.897 12.406-7.792 24.209-14.548 35.082l-5.531 8.901 18.172 23.333-18.377 18.377-23.334-18.174-8.901 5.532c-10.872 6.756-22.675 11.65-35.08 14.548l-10.204 2.383-3.647 29.332h-25.989l-3.646-29.332-10.205-2.383c-12.406-2.897-24.209-7.792-35.081-14.548l-8.901-5.531-23.334 18.173-18.377-18.377 18.173-23.334-5.531-8.901c-6.756-10.872-11.651-22.675-14.548-35.081l-2.383-10.204-29.331-3.646v-25.989l29.331-3.646 2.383-10.204c2.897-12.406 7.792-24.209 14.548-35.081l5.531-8.901-18.173-23.334 18.377-18.377 23.334 18.173 8.901-5.531c10.872-6.756 22.675-11.651 35.081-14.548l10.205-2.383 3.646-29.332h25.989l3.647 29.332 10.204 2.383c12.406 2.897 24.209 7.792 35.08 14.548l8.901 5.532 23.334-18.174 18.377 18.377-18.172 23.333 5.531 8.901c6.756 10.873 11.65 22.676 14.548 35.082l2.383 10.204 29.331 3.646v25.989z"/><path d="m335.782 175.513c-44.381 0-80.488 36.107-80.488 80.487 0 44.381 36.107 80.488 80.488 80.488s80.488-36.107 80.488-80.488-36.107-80.487-80.488-80.487zm0 130.914c-27.806 0-50.427-22.622-50.427-50.427s22.622-50.427 50.427-50.427c27.806 0 50.427 22.622 50.427 50.427 0 27.806-22.621 50.427-50.427 50.427z"/><path d="m35.432 150.789h30.061v30.06h-30.061z"/><path d="m95.678 150.789h57.412v30.06h-57.412z"/><path d="m95.678 331.151h57.412v30.06h-57.412z"/><path d="m0 210.91h109.659v30.06h-109.659z"/><path d="m35.432 331.151h30.061v30.06h-30.061z"/><path d="m0 271.03h109.659v30.06h-109.659z"/></g></svg>