<svg id="Capa_1" enable-background="new 0 0 512 512" height="512" viewBox="0 0 512 512" width="512" xmlns="http://www.w3.org/2000/svg"><g><path d="m437.019 74.98c-48.352-48.351-112.639-74.98-181.019-74.98-67.918 0-131.896 26.32-180.147 74.112-48.216 47.758-75.15 111.412-75.839 179.236l-.014 17.621 85.334.031v-30h-54.833c3.594-55.1 26.911-106.397 66.464-145.574 42.596-42.191 99.076-65.426 159.035-65.426 60.367 0 117.12 23.508 159.806 66.194 39.131 39.131 62.13 90.086 65.692 144.806h-54.831v30h54.815c-3.963 59.564-31.378 115.413-76.619 155.051l19.77 22.564c55.522-48.645 87.367-118.851 87.367-192.615 0-68.38-26.629-132.667-74.981-181.02z"/><path d="m48.164 481.86c7.948-10.238 18.831-24.852 32.999-45.096 8.669-12.387 17.858-23.81 17.858-43.424 0-26.007-22.357-49.838-49.837-49.838-23.762 0-44.328 16.904-48.902 40.194l29.438 5.781c1.818-9.257 10.004-15.976 19.465-15.976 10.663 0 19.388 8.457 19.821 19.015 0 9.65-6.17 18.115-12.42 27.045-32.817 46.888-51.419 66.689-51.419 66.689l-.075 25.75h95.994l.078-30.001z"/><path d="m271 204.722v-77.306l21.857 21.857 21.213-21.213-58.07-58.071-58.07 58.071 21.213 21.213 21.857-21.857v77.306c-22.183 6.5-38.436 27.021-38.436 51.278 0 29.465 23.971 53.436 53.436 53.436s53.437-23.971 53.437-53.436c-.001-24.257-16.254-44.778-38.437-51.278zm-15 74.714c-12.923 0-23.436-10.513-23.436-23.436s10.513-23.436 23.436-23.436 23.437 10.513 23.437 23.436-10.514 23.436-23.437 23.436z"/><path d="m298.768 373.502h57.44l-57.715 125.891 27.271 12.502 66.043-144.058v-24.335h-93.039z"/><path d="m113.596 440.419 6.475 27.194h57.826l-.109 44.146 30 .074.415-168.128h-39.111zm64.375-2.806h-28.177l28.298-49.316z"/><path d="m238.717 343.667h30v168.333h-30z"/></g></svg>