<?xml version="1.0" encoding="iso-8859-1"?>
<!-- Generator: Adobe Illustrator 21.0.0, SVG Export Plug-In . SVG Version: 6.00 Build 0)  -->
<svg xmlns="http://www.w3.org/2000/svg" xmlns:xlink="http://www.w3.org/1999/xlink" version="1.1" id="Capa_1" x="0px" y="0px" viewBox="0 0 511.994 511.994" style="enable-background:new 0 0 511.994 511.994;" xml:space="preserve" width="512" height="512">
<g>
	<path d="M302.825,257.599c-4.3-3.498-9.547-6.412-15.74-8.745c-6.196-2.33-13.083-4.516-20.659-6.559   c-5.831-1.455-10.968-2.842-15.413-4.154c-4.447-1.312-8.126-2.767-11.04-4.372c-2.917-1.602-5.137-3.46-6.667-5.575   c-1.53-2.111-2.295-4.772-2.295-7.979c0-5.537,2.039-9.838,6.121-12.898c4.079-3.061,10.275-4.591,18.583-4.591   c4.663,0,9.253,0.584,13.772,1.749c4.516,1.168,8.707,2.589,12.57,4.263c3.86,1.677,7.139,3.389,9.838,5.138   c2.695,1.749,4.553,3.136,5.575,4.154l13.335-24.485c-6.852-4.663-14.866-8.707-24.048-12.133   c-5.02-1.871-10.31-3.213-15.853-4.063v-27.807h-30v28.28c-2.177,0.447-4.313,0.98-6.396,1.622   c-6.852,2.115-12.864,5.213-18.036,9.292c-5.175,4.082-9.219,9.182-12.133,15.303c-2.917,6.122-4.372,13.117-4.372,20.987   c0,5.978,0.909,11.115,2.732,15.412c1.821,4.301,4.554,8.089,8.198,11.368c3.642,3.279,8.198,6.121,13.664,8.526   s11.915,4.628,19.347,6.668c6.122,1.749,11.659,3.354,16.615,4.81c4.953,1.458,9.182,3.061,12.68,4.81   c3.498,1.749,6.193,3.792,8.089,6.121c1.893,2.333,2.842,5.175,2.842,8.526c0,10.641-8.308,15.959-24.922,15.959   c-5.978,0-11.805-0.728-17.489-2.186c-5.684-1.455-10.859-3.242-15.521-5.356c-4.666-2.111-8.71-4.226-12.133-6.34   c-3.426-2.111-5.793-3.826-7.105-5.138l-13.335,26.015c9.035,6.415,19.238,11.368,30.606,14.866   c5.523,1.699,11.08,2.978,16.671,3.852v29.182h30v-28.547c3.273-0.416,6.484-0.994,9.623-1.753   c6.921-1.674,13.042-4.335,18.364-7.979c5.318-3.641,9.544-8.417,12.68-14.319c3.132-5.902,4.7-13.007,4.7-21.315   c0-7.139-1.168-13.151-3.498-18.036C310.439,265.288,307.123,261.097,302.825,257.599z"/>
	<path d="M255.997,81.372c-96.289,0-174.625,78.336-174.625,174.625s78.336,174.625,174.625,174.625s174.625-78.336,174.625-174.625   S352.286,81.372,255.997,81.372z M255.997,400.622c-79.747,0-144.625-64.878-144.625-144.625s64.878-144.625,144.625-144.625   s144.625,64.878,144.625,144.625S335.744,400.622,255.997,400.622z"/>
	<path d="M476.432,184.372l-13.318-78.867l-70.913-36.992l-57.077-56.056l-79.126,11.818L176.87,12.458l-57.077,56.056   l-70.913,36.992l-13.318,78.867L0,255.997l35.563,71.625l13.318,78.867l70.913,36.992l57.077,56.056l79.126-11.818l79.127,11.818   l57.077-56.056l70.913-36.992l13.318-78.867l35.563-71.625L476.432,184.372z M447.589,318.253l-11.573,68.535l-61.65,32.16   l-49.596,48.71l-68.772-10.272l-68.772,10.272l-49.597-48.71l-61.65-32.16l-11.573-68.535l-30.911-62.256l30.911-62.256   l11.573-68.535l61.65-32.16l49.596-48.71l68.772,10.272l68.772-10.272l49.597,48.71l61.65,32.16l11.573,68.535l30.911,62.256   L447.589,318.253z"/>
</g>















</svg>
