<svg id="Capa_1" enable-background="new 0 0 512 512" height="512" viewBox="0 0 512 512" width="512" xmlns="http://www.w3.org/2000/svg"><g><path d="m25.606 430.979 65.343-65.346c20.586 20.585 13.589 13.589 21.426 21.426l-65.339 65.341c-5.858 5.858-5.858 15.355 0 21.213 5.856 5.858 15.355 5.859 21.212 0l65.339-65.342c11.439 11.438 40.072 40.07 43.101 43.099 16.757 16.755 44.021 16.753 60.775-.003l60.59-60.6c5.855-5.857 5.855-15.358-.003-21.214l-4.468-4.467 46.761-46.762c3.767-3.768 5.254-9.251 3.904-14.406l-16.766-64.04 32.208-32.21c5.858-5.858 5.858-15.355 0-21.213l-10.724-10.724 14-14c11.437-11.446 25.574-20.276 40.888-25.539l78.007-26.84c8.018-2.758 12.15-11.615 9.137-19.524l-17.589-46.17c-2.809-7.371-10.844-11.307-18.39-9.008l-100.567 30.649c-21.439 6.538-41.136 18.366-56.958 34.201l-12.377 12.377-37.203-37.204c-5.856-5.858-15.353-5.858-21.211-.001l-36.169 36.16c-10.366 10.379-16.075 24.167-16.075 38.821v37.187c0 6.655-2.588 12.905-7.296 17.606l-108.087 108.102c-5.857 5.858-5.856 15.355.001 21.213l10.66 10.66-65.342 65.345c-5.858 5.858-5.858 15.355 0 21.213 5.856 5.857 15.354 5.858 21.212 0zm287.443-127.786-40.681 40.683c-15.462-15.448-13.006-35.875-1.249-47.633l31.788-31.789zm5.66-182.483c12.36-12.369 27.745-21.607 44.491-26.714l87.165-26.566 7.085 18.595-63.347 21.796c-19.604 6.736-37.708 18.045-52.351 32.699l-13.996 13.997-21.426-21.427zm-130.339 104.955c10.375-10.362 16.088-24.15 16.088-38.826v-37.187c0-6.552 2.661-12.976 7.294-17.614l25.554-25.548 90.567 90.569-77.966 77.969c-23.675 23.676-25.517 63.315.661 89.472l15.666 15.661-49.983 49.992c-5.058 5.059-13.291 5.059-18.35.001-4.767-4.767-102.282-102.279-107.006-107.002z"/><path d="m473.179 162.877c-5.917-6.327-15.975-6.342-21.908 0-.618.661-15.271 16.432-26.287 37.321-20.582 39.029-12.011 63.955-1.197 77.993 20.17 26.181 56.746 26.128 76.878.003 10.817-14.038 19.391-38.965-1.194-77.995-11.02-20.89-25.674-36.661-26.292-37.322zm3.722 97.005c-6.982 9.061-15.708 7.926-14.676 7.926-5.525 0-10.737-2.815-14.674-7.927-7.861-10.204-6.609-25.417 3.721-45.218 3.428-6.571 7.369-12.618 10.955-17.608 3.587 4.991 7.528 11.038 10.957 17.609 10.328 19.801 11.58 35.015 3.717 45.218z"/></g></svg>