<?xml version="1.0" encoding="iso-8859-1"?>
<!-- Generator: Adobe Illustrator 19.0.0, SVG Export Plug-In . SVG Version: 6.00 Build 0)  -->
<svg version="1.1" id="Layer_1" xmlns="http://www.w3.org/2000/svg" xmlns:xlink="http://www.w3.org/1999/xlink" x="0px" y="0px"
	 viewBox="0 0 512.001 512.001" style="enable-background:new 0 0 512.001 512.001;" xml:space="preserve">
<g>
	<g>
		<path d="M500.982,398.559l-51.38-90.987c-2.657-4.705-7.642-7.616-13.048-7.616c0,0,0,0-0.001,0
			c-5.403,0-10.388,2.909-13.047,7.614l-52.454,92.844c-27.713,49.798,8.505,111.325,65.5,111.325
			C494.572,511.739,530.564,448.299,500.982,398.559z M436.553,481.77c-34.309,0-55.851-37.058-39.36-66.699l39.357-69.663
			c0.151,0.267,38.457,68.103,38.614,68.367C492.991,443.567,471.424,481.77,436.553,481.77z"/>
	</g>
</g>
<g>
	<g>
		<path d="M511.281,240.955l-15.706-48.938c-13.81-42.992-52.566-71.876-96.438-71.876H361.63v-11.564
			c0-59.725-47.055-108.314-104.893-108.314H14.985C6.709,0.262,0,6.972,0,15.247v59.939C0,83.461,6.709,90.17,14.985,90.17h44.954
			v72.643c0,42.57,33.611,77.204,74.923,77.204c10.077,0,172.515,0,182.821,0c19.257,0,35.719-12.483,42.109-29.969h39.344
			c5.913,0,11.187,4.053,13.124,10.083l15.704,48.92c2.574,8.021,11.245,12.319,19.163,9.582l54.782-18.936
			C509.607,257.036,513.77,248.712,511.281,240.955z M179.816,210.048h-44.954c-24.788,0-44.954-21.189-44.954-47.235V90.17h44.954
			c18.975,0,35.229,12.62,41.814,30.405c-23.323,2.627-43.695,17.125-54.307,39.156c-3.592,7.456-0.459,16.412,6.997,20.003
			c7.454,3.592,16.411,0.46,20.003-6.997c6.03-12.517,17.44-20.76,30.448-22.332V210.048z M317.683,210.048H209.785v-71.89
			c0-42.681-33.369-77.956-74.923-77.956H29.969V30.232h226.768c41.313,0,74.923,35.145,74.923,78.344v86.487
			c0,1.164,0.146,2.292,0.397,3.379C330.236,205.138,324.487,210.048,317.683,210.048z M451.815,245.303l-11.022-34.334
			c-5.933-18.476-22.674-30.889-41.657-30.889H361.63V150.11h37.506c30.802-0.001,58.092,20.524,67.904,51.069l11.226,34.981
			L451.815,245.303z"/>
	</g>
</g>
<g>
	<g>
		<path d="M257.744,63.011c-8.276,0-14.985,6.709-14.985,14.985s6.709,14.985,14.985,14.985c8.263,0,14.985,7.234,14.985,16.125
			c0,8.276,6.709,14.985,14.985,14.985s14.985-6.709,14.985-14.985C302.698,83.69,282.532,63.011,257.744,63.011z"/>
	</g>
</g>
<g>
</g>
<g>
</g>
<g>
</g>
<g>
</g>
<g>
</g>
<g>
</g>
<g>
</g>
<g>
</g>
<g>
</g>
<g>
</g>
<g>
</g>
<g>
</g>
<g>
</g>
<g>
</g>
<g>
</g>
</svg>
