<svg id="Capa_1" enable-background="new 0 0 512 512" height="512" viewBox="0 0 512 512" width="512" xmlns="http://www.w3.org/2000/svg"><g><path d="m256 0c-140.959 0-256 115.049-256 256 0 140.959 115.049 256 256 256 140.959 0 256-115.049 256-256 0-140.959-115.049-256-256-256zm0 482c-124.617 0-226-101.383-226-226s101.383-226 226-226 226 101.383 226 226-101.383 226-226 226z"/><path d="m256 61c-107.523 0-195 87.477-195 195s87.477 195 195 195 195-87.477 195-195-87.477-195-195-195zm0 360c-90.981 0-165-74.019-165-165s74.019-165 165-165 165 74.019 165 165-74.019 165-165 165z"/><path d="m256 181c16.542 0 30 13.458 30 30h30c0-27.906-19.151-51.424-45-58.101v-31.899h-30v31.899c-25.849 6.677-45 30.195-45 58.101 0 33.084 26.916 60 60 60 16.542 0 30 13.458 30 30s-13.458 30-30 30-30-13.458-30-30h-30c0 27.906 19.151 51.424 45 58.101v31.899h30v-31.899c25.849-6.677 45-30.195 45-58.101 0-33.084-26.916-60-60-60-16.542 0-30-13.458-30-30s13.458-30 30-30z"/></g></svg>