<svg id="Capa_1" enable-background="new 0 0 509.61 509.61" height="512" viewBox="0 0 509.61 509.61" width="512" xmlns="http://www.w3.org/2000/svg"><g><path d="m468.523 254.832c-.008-6.136-.451-12.28-1.32-18.361l42.407-32.11-42.122-72.956-49.096 20.714c-9.618-7.554-20.342-13.776-31.671-18.379l-6.6-52.778h-84.244l-6.6 52.778c-11.329 4.603-22.053 10.825-31.671 18.379l-49.096-20.714-42.12 72.955 42.404 32.108c-1.727 12.129-1.727 24.545 0 36.674l-42.404 32.108 42.122 72.956 49.096-20.714c9.618 7.554 20.342 13.776 31.671 18.379l6.6 52.778h84.244l6.6-52.778c11.329-4.603 22.053-10.825 31.671-18.379l49.096 20.714 42.122-72.956-42.407-32.11c.865-6.063 1.308-12.19 1.318-18.308zm1.867 58.35-15.64 27.089-42.059-17.744-7.097 6.508c-10.616 9.735-23.478 17.202-37.193 21.593l-9.122 2.921-5.64 45.102h-31.279l-5.64-45.102-9.122-2.921c-13.716-4.391-26.577-11.857-37.193-21.593l-7.097-6.508-42.059 17.744-15.64-27.089 36.312-27.493-2.087-9.398c-3.121-14.056-3.121-28.914 0-42.971l2.086-9.398-36.311-27.493 15.64-27.089 42.059 17.744 7.097-6.508c10.616-9.735 23.478-17.202 37.193-21.593l9.122-2.921 5.64-45.102h31.279l5.64 45.102 9.122 2.921c13.716 4.391 26.577 11.857 37.193 21.593l7.097 6.508 42.059-17.744 15.64 27.089-36.298 27.483c2.319 9.926 4.595 20.692 4.431 30.894.165 10.188-2.114 20.987-4.431 30.893z"/><path d="m338 199.805c-30.327 0-55 24.673-55 55 3.021 72.965 106.99 72.944 110 0 0-30.327-24.673-55-55-55zm0 80c-13.785 0-25-11.215-25-25 1.373-33.166 48.632-33.156 50 0 0 13.785-11.215 25-25 25z"/><path d="m32 179.805h82v30h-82z"/><path d="m32 299.805h82v30h-82z"/><path d="m0 239.805h76v30h-76z"/></g></svg>