<svg xmlns="http://www.w3.org/2000/svg" xmlns:xlink="http://www.w3.org/1999/xlink" version="1.1" x="0px" y="0px" viewBox="0 6 86 86" fill="currentColor" >
<path d="M87.467,39.877c0-0.398-0.174-0.777-0.476-1.036l-7.639-6.55V21.109c0-2.15-1.749-3.899-3.899-3.899H61.855  c-0.013-0.012-0.022-0.026-0.036-0.037L49.881,7.021c-0.512-0.434-1.263-0.432-1.773,0.004L36.232,17.21H22.154  c-2.15,0-3.899,1.749-3.899,3.899v11.515l-7.251,6.218c-0.302,0.259-0.476,0.638-0.476,1.036c0,0.015,0.004,0.03,0.005,0.045v47.82  c0,1.964,1.598,3.562,3.561,3.562H83.91c1.964,0,3.561-1.598,3.561-3.562V39.877H87.467z M38.429,64.428L13.262,86.008V42.849  L38.429,64.428z M40.525,66.226l7.584,6.503c0.255,0.219,0.572,0.329,0.888,0.329s0.633-0.11,0.888-0.329l7.584-6.503l26.063,22.348  h-69.07L40.525,66.226z M59.566,64.429l25.177-21.588v43.176L59.566,64.429z M84.006,39.877l-4.655,3.991v-7.982L84.006,39.877z   M49.001,9.856l8.648,7.354H40.425L49.001,9.856z M22.154,19.939h53.299c0.645,0,1.17,0.525,1.17,1.17v11.545  c-0.029,0.159-0.028,0.32,0,0.479v13.076L48.997,69.895l-28.013-24.02V21.109C20.985,20.463,21.509,19.939,22.154,19.939z   M18.256,36.219v7.317l-4.267-3.658L18.256,36.219z M48.804,55.96c2.799,0,5.555-0.73,7.971-2.111  c0.654-0.374,0.881-1.208,0.507-1.862c-0.375-0.654-1.208-0.882-1.862-0.507c-2.004,1.146-4.292,1.752-6.616,1.752  c-7.364,0-13.354-5.991-13.354-13.354s5.991-13.354,13.354-13.354c7.363,0,13.353,5.991,13.353,13.354  c0,4.657-2.11,6.423-3.528,6.474c-1.078,0.048-1.874-0.819-1.988-2.191v-4.05c0.002-0.078,0.012-0.154,0.012-0.233  c0-0.079-0.01-0.155-0.012-0.233v-6.236c0-0.754-0.611-1.365-1.365-1.365s-1.365,0.611-1.365,1.365v0.522  c-1.374-1.182-3.157-1.902-5.108-1.902c-4.328,0-7.849,3.521-7.849,7.849s3.521,7.849,7.849,7.849c2.068,0,3.946-0.81,5.349-2.121  c0.635,2.145,2.412,3.552,4.574,3.474c2.967-0.107,6.159-3.031,6.159-9.201c0-8.868-7.214-16.083-16.083-16.083  S32.72,31.009,32.72,39.877S39.935,55.96,48.804,55.96z M48.804,44.997c-2.824,0-5.12-2.297-5.12-5.12c0-2.823,2.297-5.12,5.12-5.12  c2.744,0,4.985,2.172,5.108,4.887v0.466C53.789,42.825,51.549,44.997,48.804,44.997z"/></svg>