<svg xmlns="http://www.w3.org/2000/svg" xmlns:xlink="http://www.w3.org/1999/xlink" xml:space="preserve" version="1.1" viewBox="0 0 264 264" x="0px" y="0px" fill="currentColor">
<g><path class="fil0" d="M208.363 118.792l-73.703 142.583c-0.757,1.468 -2.562,2.046 -4.031,1.288 -0.578,-0.297 -1.017,-0.757 -1.292,-1.294l-73.701 -142.577c-0.047,-0.092 -0.09,-0.186 -0.127,-0.28 -2.323,-5.246 -4.125,-10.759 -5.335,-16.472 -1.192,-5.626 -1.821,-11.445 -1.821,-17.39 0,-23.098 9.363,-44.01 24.5,-59.147 15.137,-15.138 36.049,-24.5 59.147,-24.5 23.098,0 44.01,9.362 59.147,24.5 15.137,15.137 24.5,36.049 24.5,59.147 0,5.945 -0.629,11.764 -1.821,17.39 -1.22,5.759 -3.041,11.315 -5.392,16.6l-0.071 0.152zm-76.362 -80.407c13.828,0 26.348,5.606 35.41,14.668 9.063,9.062 14.668,21.582 14.668,35.411 0,13.828 -5.605,26.348 -14.668,35.41 -9.062,9.063 -21.582,14.668 -35.41,14.668 -13.829,0 -26.349,-5.605 -35.411,-14.668 -9.063,-9.062 -14.668,-21.582 -14.668,-35.41 0,-13.829 5.605,-26.349 14.668,-35.411 9.062,-9.062 21.582,-14.668 35.411,-14.668zm32.582 17.496c-8.337,-8.338 -19.857,-13.495 -32.582,-13.495 -12.726,0 -24.246,5.157 -32.583,13.495 -8.338,8.337 -13.496,19.857 -13.496,32.583 0,12.725 5.158,24.245 13.496,32.583 8.337,8.337 19.857,13.495 32.583,13.495 12.725,0 24.245,-5.158 32.582,-13.495 8.338,-8.338 13.496,-19.858 13.496,-32.583 0,-12.726 -5.158,-24.246 -13.496,-32.583zm-32.583 197.605l71.024 -137.399c2.145,-4.841 3.814,-9.957 4.943,-15.289 1.1,-5.192 1.68,-10.594 1.68,-16.148 0,-21.442 -8.692,-40.854 -22.742,-54.905 -14.051,-14.051 -33.463,-22.742 -54.905,-22.742 -21.442,0 -40.854,8.691 -54.905,22.742 -14.051,14.051 -22.742,33.463 -22.742,54.905 0,5.554 0.58,10.956 1.68,16.148 1.129,5.332 2.798,10.448 4.943,15.289l71.024 137.399z"/></g>
</svg>