<svg xmlns="http://www.w3.org/2000/svg" xmlns:xlink="http://www.w3.org/1999/xlink" xml:space="preserve" fill="currentColor" version="1.1" viewBox="0 0 264 264" x="0px" y="0px">
<g><path d="M146.301 39.451c12.082,7.261 22.195,16.333 30.338,26.626 5.144,6.503 9.496,13.489 13.058,20.812 11.708,-2.127 21.983,-5.088 29.728,-8.882 -5.778,-7.395 -12.564,-13.962 -20.153,-19.493 -15.032,-10.955 -33.227,-17.847 -52.971,-19.063zm-96.943 91.069c-0.465,-1.586 0.442,-3.249 2.028,-3.715 1.585,-0.466 3.248,0.442 3.714,2.027l7.442 25.235c2.636,-8.304 5.147,-17.256 8.061,-25.395 0.147,-0.412 0.376,-0.773 0.662,-1.071l0.086 -0.086c0.297,-0.286 0.658,-0.515 1.071,-0.661 0.65,-0.233 1.362,-0.233 2.012,0 0.412,0.146 0.773,0.375 1.071,0.661l0.085 0.086c0.287,0.298 0.516,0.659 0.662,1.071 2.914,8.139 5.426,17.091 8.061,25.395l7.442 -25.235c0.466,-1.585 2.129,-2.493 3.715,-2.027 1.585,0.466 2.493,2.129 2.027,3.715l-10.161 34.452c-0.231,1 -0.97,1.856 -2.02,2.187 -1.578,0.498 -3.263,-0.378 -3.761,-1.957l-8.127 -25.612 -8.128 25.612c-0.498,1.579 -2.183,2.455 -3.761,1.957 -1.05,-0.331 -1.789,-1.187 -2.02,-2.187l-10.161 -34.452zm154.357 -1.749l0.034 -0.099c0.146,-0.412 0.375,-0.773 0.661,-1.071l0.086 -0.086c0.298,-0.286 0.659,-0.515 1.071,-0.661 0.65,-0.233 1.362,-0.233 2.012,0 0.412,0.146 0.773,0.375 1.071,0.661l0.086 0.086c0.286,0.298 0.515,0.659 0.661,1.071 2.914,8.139 5.426,17.091 8.061,25.395l7.442 -25.235c0.466,-1.585 2.129,-2.493 3.715,-2.027 1.585,0.466 2.493,2.129 2.027,3.715l-10.161 34.452c-0.231,1 -0.97,1.856 -2.019,2.187 -1.579,0.498 -3.264,-0.378 -3.762,-1.957l-8.127 -25.612 -8.128 25.612c-0.498,1.579 -2.183,2.455 -3.761,1.957 -1.05,-0.331 -1.789,-1.187 -2.02,-2.187l-10.16 -34.452c-0.466,-1.586 0.442,-3.249 2.027,-3.715 1.585,-0.466 3.249,0.442 3.714,2.027l7.442 25.235 8.028 -25.296zm-66.572 0l0.033 -0.099c0.146,-0.412 0.375,-0.773 0.661,-1.071l0.086 -0.086c0.298,-0.286 0.659,-0.515 1.071,-0.661 0.65,-0.233 1.362,-0.233 2.012,0 0.412,0.146 0.774,0.375 1.071,0.661l0.086 0.086c0.286,0.298 0.515,0.659 0.661,1.071 2.914,8.139 5.426,17.091 8.061,25.395l7.443 -25.235c0.465,-1.585 2.129,-2.493 3.714,-2.027 1.586,0.466 2.493,2.129 2.028,3.715l-10.161 34.452c-0.231,1 -0.97,1.856 -2.02,2.187 -1.579,0.498 -3.263,-0.378 -3.761,-1.957l-8.128 -25.612 -8.128 25.612c-0.498,1.579 -2.182,2.455 -3.761,1.957 -1.05,-0.331 -1.789,-1.187 -2.02,-2.187l-10.16 -34.452c-0.466,-1.586 0.442,-3.249 2.027,-3.715 1.586,-0.466 3.249,0.442 3.715,2.027l7.442 25.235 8.028 -25.296zm67.267 -1.17l0.013 -0.014 -0.013 0.014zm4.24 -0.086l0.013 0.013 -0.013 -0.013zm-70.813 0.086l0.013 -0.014 -0.013 0.014zm4.24 -0.086l0.014 0.013 -0.014 -0.013zm-70.812 0.086l0.013 -0.014 -0.013 0.014zm4.24 -0.086l0.013 0.013 -0.013 -0.013zm-49.977 -22.264l13.532 0c7.182,-20.868 20.654,-38.812 38.153,-51.565 17.63,-12.848 39.33,-20.429 62.787,-20.429 23.457,0 45.158,7.581 62.787,20.429 17.5,12.753 30.972,30.697 38.154,51.565l13.531 0c4.549,0 8.682,1.858 11.676,4.852 2.994,2.994 4.852,7.127 4.852,11.676l0 50.42c0,4.549 -1.858,8.681 -4.852,11.675 -2.994,2.994 -7.127,4.853 -11.676,4.853l-19.496 0c-1.75,3.405 -3.678,6.704 -5.771,9.884 -0.036,0.083 -0.076,0.165 -0.12,0.246 -0.132,0.242 -0.293,0.459 -0.476,0.649 -8.428,12.53 -19.435,23.173 -32.26,31.161 -16.359,10.19 -35.669,16.076 -56.349,16.076 -20.679,0 -39.99,-5.886 -56.348,-16.076 -12.818,-7.984 -23.821,-18.619 -32.247,-31.14 -0.194,-0.198 -0.363,-0.426 -0.501,-0.682 -0.045,-0.084 -0.086,-0.169 -0.122,-0.254 -2.088,-3.174 -4.011,-6.466 -5.758,-9.864l-19.496 0c-4.548,0 -8.682,-1.859 -11.675,-4.853 -2.994,-2.994 -4.853,-7.126 -4.853,-11.675l0 -50.42c0,-4.549 1.859,-8.682 4.853,-11.676 2.994,-2.994 7.127,-4.852 11.675,-4.852zm19.88 0l37.798 0c1.278,-4.348 2.803,-8.628 4.575,-12.815 -12.092,-2.304 -22.731,-5.489 -30.786,-9.553 -4.744,6.885 -8.656,14.389 -11.587,22.368zm44.041 0l47.551 0 0 -8.307c-14.916,-0.143 -29.766,-1.293 -43.169,-3.448 -1.682,3.839 -3.143,7.765 -4.382,11.755zm53.551 0l47.552 0c-1.236,-3.978 -2.691,-7.891 -4.366,-11.718 -13.394,2.148 -28.252,3.286 -43.186,3.413l0 8.305zm53.794 0l37.799 0c-2.931,-7.977 -6.841,-15.48 -11.584,-22.363 -8.017,4.086 -18.658,7.281 -30.774,9.586 1.766,4.175 3.286,8.442 4.559,12.777zm31.411 83.476l-15.062 0c4.502,1.42 8.613,3.014 12.239,4.782 0.983,-1.566 1.925,-3.16 2.823,-4.782zm-43.202 0l-42.003 0 0 46.796c9.329,-5.643 17.424,-12.415 24.283,-20.016 7.32,-8.11 13.226,-17.159 17.72,-26.78zm-48.003 0l-42.003 0c4.494,9.621 10.4,18.67 17.72,26.78 6.859,7.6 14.954,14.373 24.283,20.016l0 -46.796zm-69.998 0l-15.207 0c0.899,1.624 1.843,3.221 2.828,4.789 3.661,-1.767 7.82,-3.363 12.379,-4.789zm187.47 -77.477l-114.472 0 -114.472 0c-2.892,0 -5.524,1.186 -7.433,3.096 -1.909,1.909 -3.095,4.541 -3.095,7.433l0 50.42c0,2.892 1.186,5.524 3.095,7.433 1.909,1.91 4.541,3.095 7.433,3.095l114.472 0 114.472 0c2.892,0 5.524,-1.185 7.433,-3.095 1.91,-1.909 3.095,-4.541 3.095,-7.433l0 -50.42c0,-2.892 -1.185,-5.524 -3.095,-7.433 -1.909,-1.91 -4.541,-3.096 -7.433,-3.096zm-193.884 -33.259c7.786,3.776 18.059,6.728 29.736,8.854 3.558,-7.306 7.904,-14.279 13.038,-20.768 8.142,-10.293 18.255,-19.365 30.338,-26.626 -19.744,1.216 -37.939,8.108 -52.971,19.063 -7.584,5.527 -14.366,12.089 -20.141,19.477zm-2.593 120.552c7.72,10.792 17.522,20 28.821,27.038 13.775,8.58 29.778,13.925 46.95,14.972 -9.802,-5.944 -18.303,-13.061 -25.502,-21.038 -8.112,-8.988 -14.58,-19.073 -19.405,-29.808 -6.071,1.066 -11.778,2.337 -16.979,3.814 -5.184,1.472 -9.86,3.146 -13.885,5.022zm88.239 42.01c17.172,-1.047 33.176,-6.392 46.951,-14.971 11.304,-7.042 21.11,-16.256 28.831,-27.055 -3.963,-1.863 -8.595,-3.533 -13.75,-5.006 -5.237,-1.498 -10.988,-2.782 -17.107,-3.854 -4.827,10.75 -11.301,20.849 -19.423,29.848 -7.198,7.977 -15.7,15.094 -25.502,21.038zm37.301 -152.642c-3.224,-6.363 -7.085,-12.444 -11.583,-18.13 -7.744,-9.79 -17.394,-18.422 -28.952,-25.329l0 46.494c14.031,-0.12 27.948,-1.132 40.535,-3.035zm-46.535 3.032l0 -46.491c-11.558,6.907 -21.207,15.539 -28.951,25.329 -4.49,5.674 -8.344,11.742 -11.563,18.09 12.595,1.913 26.503,2.938 40.514,3.072z"/></g>
</svg>